<svg width="218" height="162" viewBox="0 0 218 162" fill="none" xmlns="http://www.w3.org/2000/svg">
<g filter="url(#filter0_f_364_1007)">
<ellipse cx="85" cy="81" rx="35" ry="31" fill="#F8F9F9"/>
</g>
<rect x="65" y="51" width="153" height="102" fill="#D23D37"/>
<path fill-rule="evenodd" clip-rule="evenodd" d="M125.344 96.3632L125.344 94.3531L125.344 92.34L123.334 92.34L121.321 92.34L119.384 92.34L119.311 92.34L117.374 92.34L115.361 92.34L113.351 92.34L111.34 92.34L109.327 92.34L107.317 92.34L105.304 92.34L103.294 92.34L101.281 92.34L99.271 92.34L97.258 92.34L95.2479 92.34L95.2479 90.3299L95.2479 88.3169L95.2479 86.3068L95.2479 84.2966L95.2479 82.2836L95.2479 80.2735L95.2479 78.2605L95.2479 76.2503L95.2479 74.2373L95.2479 72.2272L95.2479 70.2142L95.2479 68.204L95.2479 66.1939L95.2479 64.1809L95.2479 62.1708L93.2348 62.1708L91.2247 62.1708L89.2146 62.1708L89.2146 64.1809L89.2146 66.1939L89.2146 68.204L89.2146 70.2142L89.2146 72.2272L89.2146 74.2373L89.2146 76.2503L89.2146 78.2605L89.2146 80.2735L89.2146 82.2836L89.2146 84.2966L89.2146 86.3068L89.2146 88.3169L89.2146 90.3299L89.2146 92.34L89.2146 94.353L89.2146 96.3632L89.2146 98.3762L91.2247 98.3762L93.2348 98.3762L95.2479 98.3762L97.258 98.3762L99.271 98.3762L101.281 98.3762L103.294 98.3762L105.304 98.3762L107.317 98.3762L109.327 98.3762L111.34 98.3762L113.351 98.3762L115.361 98.3762L117.374 98.3762L119.311 98.3762L119.384 98.3762L121.321 98.3762L123.334 98.3762L125.344 98.3762L125.344 96.3632ZM125.344 104.392L125.344 102.379L125.344 100.369L123.334 100.369L121.321 100.369L119.384 100.369L119.311 100.369L117.374 100.369L115.361 100.369L113.351 100.369L111.34 100.369L109.327 100.369L107.317 100.369L105.304 100.369L103.294 100.369L101.281 100.369L99.271 100.369L97.258 100.369L95.2479 100.369L93.2348 100.369L91.2247 100.369L89.2146 100.369L87.2103 100.369L87.2103 98.3762L87.2103 96.3632L87.2103 94.353L87.2103 92.34L87.2103 90.3299L87.2103 88.3169L87.2103 86.3068L87.2103 84.2966L87.2103 82.2836L87.2103 80.2735L87.2103 78.2605L87.2103 76.2503L87.2103 74.2373L87.2103 72.2272L87.2103 70.2142L87.2103 68.204L87.2103 66.1939L87.2103 64.1809L87.2103 62.1708L85.1973 62.1708L83.1871 62.1708L81.177 62.1708L81.177 64.1809L81.177 66.1939L81.177 68.204L81.177 70.2142L81.177 72.2272L81.177 74.2373L81.177 76.2503L81.177 78.2605L81.177 80.2735L81.177 82.2836L81.177 84.2966L81.177 86.3068L81.177 88.3169L81.177 90.3299L81.177 92.34L81.177 94.353L81.177 96.3632L81.177 98.3762L81.177 100.369L81.1683 100.369L81.1683 102.379L81.1683 104.392L81.1683 106.402L83.1784 106.402L85.1915 106.402L87.2016 106.402L89.2146 106.402L91.2247 106.402L93.2348 106.402L95.2479 106.402L97.258 106.402L99.271 106.402L101.281 106.402L103.294 106.402L105.304 106.402L107.317 106.402L109.327 106.402L111.34 106.402L113.351 106.402L115.361 106.402L117.374 106.402L119.311 106.402L119.384 106.402L121.321 106.402L123.334 106.402L125.344 106.402L125.344 104.392ZM125.344 110.44L125.344 112.45L125.344 114.463L123.334 114.463L121.321 114.463L119.384 114.463L119.311 114.463L117.374 114.463L115.361 114.463L113.351 114.463L111.34 114.463L109.327 114.463L107.317 114.463L105.304 114.463L103.294 114.463L101.281 114.463L99.271 114.463L97.258 114.463L95.2479 114.463L93.2348 114.463L91.2247 114.463L89.2146 114.463L87.2016 114.463L85.1914 114.463L83.1784 114.463L81.1683 114.463L79.1553 114.463L77.1451 114.463L75.1321 114.463L73.122 114.463L73.122 112.45L73.122 110.44L73.122 108.427L73.1365 108.427L73.1365 106.42L73.1365 104.409L73.1365 102.396L73.1365 100.386L73.1365 98.3762L73.1365 96.3632L73.1365 94.353L73.1365 92.34L73.1365 90.3299L73.1365 88.3169L73.1365 86.3067L73.1365 84.2966L73.1365 82.2836L73.1365 80.2735L73.1365 78.2605L73.1365 76.2503L73.1365 74.2373L73.1365 72.2272L73.1365 70.2142L73.1365 68.204L73.1365 66.1939L73.1365 64.1809L73.1365 62.1708L75.1496 62.1708L77.1597 62.1708L79.1727 62.1708L79.1727 64.1809L79.1727 66.1939L79.1727 68.204L79.1727 70.2142L79.1727 72.2272L79.1727 74.2373L79.1727 76.2503L79.1727 78.2605L79.1727 80.2735L79.1727 82.2836L79.1727 84.2966L79.1727 86.3067L79.1727 88.3169L79.1727 90.3299L79.1727 92.34L79.1727 94.353L79.1727 96.3632L79.1727 98.3762L79.1727 100.386L79.1727 102.396L79.1727 104.409L79.1727 106.42L79.1727 108.427L81.1683 108.427L83.1784 108.427L85.1914 108.427L87.2016 108.427L89.2146 108.427L91.2247 108.427L93.2348 108.427L95.2479 108.427L97.258 108.427L99.271 108.427L101.281 108.427L103.294 108.427L105.304 108.427L107.317 108.427L109.327 108.427L111.34 108.427L113.351 108.427L115.361 108.427L117.374 108.427L119.311 108.427L119.384 108.427L121.321 108.427L123.334 108.427L125.344 108.427L125.344 110.44Z" fill="#F8F9F9"/>
<path fill-rule="evenodd" clip-rule="evenodd" d="M174.899 81.1061H112.176V76.964H174.899V81.1061Z" fill="#F8F9F9" stroke="white" stroke-width="2"/>
<path fill-rule="evenodd" clip-rule="evenodd" d="M174.899 130.22L143.538 130.22L143.538 126.669L174.899 126.669L174.899 130.22Z" fill="#F8F9F9" stroke="white" stroke-width="2"/>
<path fill-rule="evenodd" clip-rule="evenodd" d="M205.077 130.22L199.752 130.22L199.752 126.669L205.077 126.669L205.077 130.22Z" fill="#F8F9F9" stroke="white" stroke-width="2"/>
<path fill-rule="evenodd" clip-rule="evenodd" d="M192.651 81.1061L173.716 81.1061L173.716 76.964L192.651 76.964L192.651 81.1061Z" fill="#F8F9F9" stroke="white" stroke-width="2"/>
<path fill-rule="evenodd" clip-rule="evenodd" d="M118.093 130.22L112.176 130.22L112.176 126.669L118.093 126.669L118.093 130.22Z" fill="#F8F9F9" stroke="white" stroke-width="2"/>
<path fill-rule="evenodd" clip-rule="evenodd" d="M174.899 101.817L174.899 81.1061L178.45 81.1061L178.45 101.817L174.899 101.817Z" fill="#F8F9F9" stroke="white" stroke-width="2"/>
<path fill-rule="evenodd" clip-rule="evenodd" d="M205.077 101.817H174.899V97.6744H205.077V101.817Z" fill="#F8F9F9" stroke="white" stroke-width="2"/>
<path fill-rule="evenodd" clip-rule="evenodd" d="M205.077 130.22L205.077 101.817L209.219 101.817L209.219 130.22L205.077 130.22Z" fill="#F8F9F9" stroke="white" stroke-width="2"/>
<path fill-rule="evenodd" clip-rule="evenodd" d="M192.059 101.817L192.059 81.1061L196.201 81.1061L196.201 101.817L192.059 101.817Z" fill="#F8F9F9" stroke="white" stroke-width="2"/>
<path fill-rule="evenodd" clip-rule="evenodd" d="M112.176 130.22L112.176 81.1061L116.318 81.1061L116.318 130.22L112.176 130.22Z" fill="#F8F9F9" stroke="white" stroke-width="2"/>
<path d="M196.722 122.415V121.415H195.722H178.929H177.929V122.415V139.207V140.207H178.929H195.722H196.722V139.207V122.415ZM175.899 142.238V119.385H198.752V142.238H175.899Z" fill="#F8F9F9" stroke="white" stroke-width="2"/>
<path d="M140.412 122.415V121.415H139.412H122.219H121.219V122.415V139.207V140.207H122.219H139.412H140.412V139.207V122.415ZM119.093 142.238V119.385H142.538V142.238H119.093Z" fill="#F8F9F9" stroke="white" stroke-width="2"/>
<defs>
<filter id="filter0_f_364_1007" x="0" y="0" width="170" height="162" filterUnits="userSpaceOnUse" color-interpolation-filters="sRGB">
<feFlood flood-opacity="0" result="BackgroundImageFix"/>
<feBlend mode="normal" in="SourceGraphic" in2="BackgroundImageFix" result="shape"/>
<feGaussianBlur stdDeviation="25" result="effect1_foregroundBlur_364_1007"/>
</filter>
</defs>
</svg>
