<svg width="153" height="539" viewBox="0 0 153 539" fill="none" xmlns="http://www.w3.org/2000/svg">
<g filter="url(#filter0_f_707_11)">
<ellipse cx="107" cy="302.5" rx="35.5" ry="19" transform="rotate(-90 107 302.5)" fill="#4D4D4D"/>
</g>
<rect y="304.392" width="103" height="108" transform="rotate(-31.8757 0 304.392)" fill="#F8F9F9"/>
<path d="M23.728 3.987V5.832H24.115C24.355 5.832 24.526 5.76 24.628 5.616C24.736 5.466 24.79 5.229 24.79 4.905C24.79 4.563 24.739 4.326 24.637 4.194C24.535 4.056 24.358 3.987 24.106 3.987H23.728ZM23.773 7.119V9H22.342V2.7H24.214C24.898 2.7 25.405 2.871 25.735 3.213C26.065 3.555 26.23 4.098 26.23 4.842C26.23 6.36 25.525 7.119 24.115 7.119H23.773ZM29.3736 9L29.1036 7.686H27.6906L27.4296 9H26.0436L27.4206 2.7H29.4366L30.7956 9H29.3736ZM28.4016 4.167L27.9516 6.399H28.8516L28.4016 4.167ZM33.1528 6.705V9H31.7218V6.705L30.1558 2.7H31.7308L32.4508 4.977L33.1438 2.7H34.7098L33.1528 6.705ZM38.2104 7.632V9H35.0334V2.7H36.4644V7.632H38.2104ZM40.0541 7.38C40.2041 7.662 40.4291 7.803 40.7291 7.803C41.0291 7.803 41.2451 7.665 41.3771 7.389C41.5151 7.107 41.5841 6.594 41.5841 5.85C41.5841 5.106 41.5151 4.596 41.3771 4.32C41.2391 4.038 41.0141 3.897 40.7021 3.897C40.4021 3.897 40.1831 4.041 40.0451 4.329C39.9071 4.611 39.8381 5.118 39.8381 5.85C39.8381 6.582 39.9101 7.092 40.0541 7.38ZM40.7291 9.099C39.9251 9.099 39.3251 8.844 38.9291 8.334C38.5331 7.824 38.3351 6.996 38.3351 5.85C38.3351 4.704 38.5331 3.876 38.9291 3.366C39.3251 2.856 39.9161 2.601 40.7021 2.601C41.5241 2.601 42.1271 2.859 42.5111 3.375C42.8951 3.885 43.0871 4.71 43.0871 5.85C43.0871 7.02 42.8891 7.854 42.4931 8.352C42.1031 8.85 41.5151 9.099 40.7291 9.099ZM46.5123 9L46.2423 7.686H44.8293L44.5683 9H43.1823L44.5593 2.7H46.5753L47.9343 9H46.5123ZM45.5403 4.167L45.0903 6.399H45.9903L45.5403 4.167ZM49.7269 3.996V7.704H50.0509C50.4349 7.704 50.7109 7.56 50.8789 7.272C51.0469 6.978 51.1309 6.492 51.1309 5.814C51.1309 5.136 51.0529 4.665 50.8969 4.401C50.7409 4.131 50.4739 3.996 50.0959 3.996H49.7269ZM50.0239 9H48.3049V2.7H50.0959C51.0139 2.7 51.6559 2.949 52.0219 3.447C52.3939 3.945 52.5799 4.719 52.5799 5.769C52.5799 6.867 52.3759 7.68 51.9679 8.208C51.5599 8.736 50.9119 9 50.0239 9Z" fill="#4D4D4D"/>
<path d="M87.4088 7.695V9H83.8628V7.668L84.5108 6.957C85.0028 6.477 85.3478 6.081 85.5458 5.769C85.7498 5.457 85.8518 5.139 85.8518 4.815C85.8518 4.527 85.7888 4.308 85.6628 4.158C85.5368 4.008 85.3268 3.933 85.0328 3.933C84.6728 3.933 84.3188 4.032 83.9708 4.23V2.871C84.4388 2.691 84.9608 2.601 85.5368 2.601C85.8908 2.601 86.1938 2.652 86.4458 2.754C86.6978 2.856 86.8898 3 87.0218 3.186C87.1538 3.366 87.2498 3.561 87.3098 3.771C87.3698 3.981 87.3998 4.212 87.3998 4.464C87.3998 5.016 87.2648 5.526 86.9948 5.994C86.7308 6.456 86.3348 6.945 85.8068 7.461L85.5638 7.677V7.695H87.4088ZM89.9859 5.31C90.2619 5.052 90.3999 4.746 90.3999 4.392C90.3999 3.96 90.2229 3.744 89.8689 3.744C89.7069 3.744 89.5809 3.798 89.4909 3.906C89.4009 4.014 89.3559 4.164 89.3559 4.356C89.3559 4.59 89.4099 4.779 89.5179 4.923C89.6259 5.061 89.7819 5.19 89.9859 5.31ZM89.7789 6.183C89.4549 6.441 89.2929 6.762 89.2929 7.146C89.2929 7.686 89.4939 7.956 89.8959 7.956C90.2739 7.956 90.4629 7.698 90.4629 7.182C90.4629 7.002 90.4209 6.843 90.3369 6.705C90.2589 6.561 90.1809 6.462 90.1029 6.408C90.0309 6.348 89.9229 6.273 89.7789 6.183ZM90.9579 5.679C91.3059 5.859 91.5489 6.072 91.6869 6.318C91.8309 6.558 91.9029 6.87 91.9029 7.254C91.9029 7.854 91.7259 8.313 91.3719 8.631C91.0179 8.943 90.5229 9.099 89.8869 9.099C89.2749 9.099 88.7829 8.949 88.4109 8.649C88.0389 8.343 87.8529 7.896 87.8529 7.308C87.8529 6.522 88.1709 5.979 88.8069 5.679C88.5189 5.499 88.3059 5.298 88.1679 5.076C88.0299 4.854 87.9609 4.563 87.9609 4.203C87.9609 3.699 88.1349 3.306 88.4829 3.024C88.8309 2.742 89.3049 2.601 89.9049 2.601C90.4689 2.601 90.9249 2.73 91.2729 2.988C91.6209 3.24 91.7949 3.633 91.7949 4.167C91.7949 4.857 91.5159 5.361 90.9579 5.679ZM93.9563 8.28C93.9563 8.538 93.8843 8.739 93.7403 8.883C93.6023 9.027 93.4043 9.099 93.1463 9.099C92.9063 9.099 92.7143 9.027 92.5703 8.883C92.4263 8.733 92.3543 8.532 92.3543 8.28C92.3543 8.022 92.4203 7.824 92.5523 7.686C92.6903 7.542 92.8883 7.47 93.1463 7.47C93.3923 7.47 93.5873 7.545 93.7313 7.695C93.8813 7.839 93.9563 8.034 93.9563 8.28ZM97.7002 3.816L96.1972 9H94.5862L96.1612 3.969H94.1092V2.7H97.7002V3.816ZM100.19 7.83C100.4 7.83 100.547 7.698 100.631 7.434C100.721 7.164 100.766 6.642 100.766 5.868C100.766 5.076 100.721 4.545 100.631 4.275C100.547 4.005 100.391 3.87 100.163 3.87C99.9465 3.87 99.7965 4.008 99.7125 4.284C99.6285 4.56 99.5865 5.088 99.5865 5.868C99.5865 6.642 99.6285 7.164 99.7125 7.434C99.8025 7.698 99.9615 7.83 100.19 7.83ZM100.181 9.099C99.4605 9.099 98.9325 8.853 98.5965 8.361C98.2665 7.869 98.1015 7.032 98.1015 5.85C98.1015 4.668 98.2695 3.831 98.6055 3.339C98.9415 2.847 99.4605 2.601 100.163 2.601C100.901 2.601 101.432 2.847 101.756 3.339C102.08 3.825 102.242 4.662 102.242 5.85C102.242 7.032 102.074 7.869 101.738 8.361C101.402 8.853 100.883 9.099 100.181 9.099ZM104.742 7.83C104.952 7.83 105.099 7.698 105.183 7.434C105.273 7.164 105.318 6.642 105.318 5.868C105.318 5.076 105.273 4.545 105.183 4.275C105.099 4.005 104.943 3.87 104.715 3.87C104.499 3.87 104.349 4.008 104.265 4.284C104.181 4.56 104.139 5.088 104.139 5.868C104.139 6.642 104.181 7.164 104.265 7.434C104.355 7.698 104.514 7.83 104.742 7.83ZM104.733 9.099C104.013 9.099 103.485 8.853 103.149 8.361C102.819 7.869 102.654 7.032 102.654 5.85C102.654 4.668 102.822 3.831 103.158 3.339C103.494 2.847 104.013 2.601 104.715 2.601C105.453 2.601 105.984 2.847 106.308 3.339C106.632 3.825 106.794 4.662 106.794 5.85C106.794 7.032 106.626 7.869 106.29 8.361C105.954 8.853 105.435 9.099 104.733 9.099Z" fill="#4D4D4D"/>
<path d="M86.257 19.938C86.581 19.938 86.743 19.614 86.743 18.966C86.743 18.306 86.575 17.976 86.239 17.976C85.891 17.976 85.717 18.261 85.717 18.831C85.717 19.569 85.897 19.938 86.257 19.938ZM87.796 14.763V16.041C87.502 15.921 87.181 15.861 86.833 15.861C86.041 15.861 85.645 16.395 85.645 17.463C85.861 17.115 86.209 16.941 86.689 16.941C87.151 16.941 87.517 17.097 87.787 17.409C88.063 17.721 88.201 18.225 88.201 18.921C88.201 19.623 88.033 20.163 87.697 20.541C87.367 20.913 86.902 21.099 86.302 21.099C85.606 21.099 85.09 20.853 84.754 20.361C84.424 19.869 84.259 19.104 84.259 18.066C84.259 16.944 84.445 16.086 84.817 15.492C85.189 14.898 85.801 14.601 86.653 14.601C87.061 14.601 87.442 14.655 87.796 14.763ZM88.5568 20.856V19.56C88.9588 19.722 89.3428 19.803 89.7088 19.803C90.2728 19.803 90.5548 19.563 90.5548 19.083C90.5548 18.831 90.4948 18.651 90.3748 18.543C90.2548 18.429 90.0658 18.372 89.8078 18.372H89.0788V17.193H89.7088C89.9668 17.193 90.1528 17.142 90.2668 17.04C90.3868 16.938 90.4468 16.764 90.4468 16.518C90.4468 16.104 90.2098 15.897 89.7358 15.897C89.3278 15.897 88.9648 15.969 88.6468 16.113V14.844C89.1028 14.682 89.6098 14.601 90.1678 14.601C90.5038 14.601 90.7918 14.649 91.0318 14.745C91.2778 14.835 91.4638 14.964 91.5898 15.132C91.7218 15.294 91.8148 15.471 91.8688 15.663C91.9288 15.849 91.9588 16.053 91.9588 16.275C91.9588 17.031 91.6528 17.514 91.0408 17.724V17.742C91.4068 17.826 91.6678 17.988 91.8238 18.228C91.9858 18.468 92.0668 18.786 92.0668 19.182C92.0668 19.758 91.9018 20.223 91.5718 20.577C91.2418 20.925 90.6958 21.099 89.9338 21.099C89.4478 21.099 88.9888 21.018 88.5568 20.856ZM94.1321 20.28C94.1321 20.538 94.0601 20.739 93.9161 20.883C93.7781 21.027 93.5801 21.099 93.3221 21.099C93.0821 21.099 92.8901 21.027 92.7461 20.883C92.6021 20.733 92.5301 20.532 92.5301 20.28C92.5301 20.022 92.5961 19.824 92.7281 19.686C92.8661 19.542 93.0641 19.47 93.3221 19.47C93.5681 19.47 93.7631 19.545 93.9071 19.695C94.0571 19.839 94.1321 20.034 94.1321 20.28ZM98.2809 19.695V21H94.7349V19.668L95.3829 18.957C95.8749 18.477 96.2199 18.081 96.4179 17.769C96.6219 17.457 96.7239 17.139 96.7239 16.815C96.7239 16.527 96.6609 16.308 96.5349 16.158C96.4089 16.008 96.1989 15.933 95.9049 15.933C95.5449 15.933 95.1909 16.032 94.8429 16.23V14.871C95.3109 14.691 95.8329 14.601 96.4089 14.601C96.7629 14.601 97.0659 14.652 97.3179 14.754C97.5699 14.856 97.7619 15 97.8939 15.186C98.0259 15.366 98.1219 15.561 98.1819 15.771C98.2419 15.981 98.2719 16.212 98.2719 16.464C98.2719 17.016 98.1369 17.526 97.8669 17.994C97.6029 18.456 97.2069 18.945 96.6789 19.461L96.4359 19.677V19.695H98.2809ZM102.253 15.816L100.75 21H99.1389L100.714 15.969H98.6619V14.7H102.253V15.816ZM104.742 19.83C104.952 19.83 105.099 19.698 105.183 19.434C105.273 19.164 105.318 18.642 105.318 17.868C105.318 17.076 105.273 16.545 105.183 16.275C105.099 16.005 104.943 15.87 104.715 15.87C104.499 15.87 104.349 16.008 104.265 16.284C104.181 16.56 104.139 17.088 104.139 17.868C104.139 18.642 104.181 19.164 104.265 19.434C104.355 19.698 104.514 19.83 104.742 19.83ZM104.733 21.099C104.013 21.099 103.485 20.853 103.149 20.361C102.819 19.869 102.654 19.032 102.654 17.85C102.654 16.668 102.822 15.831 103.158 15.339C103.494 14.847 104.013 14.601 104.715 14.601C105.453 14.601 105.984 14.847 106.308 15.339C106.632 15.825 106.794 16.662 106.794 17.85C106.794 19.032 106.626 19.869 106.29 20.361C105.954 20.853 105.435 21.099 104.733 21.099Z" fill="#4D4D4D"/>
<path d="M125.575 2.25V6.363L126.448 4.41H127.852L126.826 6.471L127.987 9H126.547L125.575 6.651V9H124.297V2.25H125.575ZM130.524 4.959V4.41H131.775V8.946C131.775 9.342 131.718 9.678 131.604 9.954C131.49 10.23 131.328 10.437 131.118 10.575C130.914 10.719 130.692 10.821 130.452 10.881C130.212 10.941 129.942 10.971 129.642 10.971C129.072 10.971 128.643 10.896 128.355 10.746V9.594C128.667 9.756 129.036 9.837 129.462 9.837C129.852 9.837 130.122 9.753 130.272 9.585C130.428 9.423 130.506 9.153 130.506 8.775V8.316H130.488C130.302 8.772 129.951 9 129.435 9C128.973 9 128.616 8.832 128.364 8.496C128.112 8.16 127.986 7.578 127.986 6.75C127.986 5.886 128.106 5.268 128.346 4.896C128.592 4.524 128.967 4.338 129.471 4.338C129.987 4.338 130.335 4.545 130.515 4.959H130.524ZM129.885 5.427C129.681 5.427 129.531 5.517 129.435 5.697C129.345 5.871 129.3 6.201 129.3 6.687C129.3 7.137 129.351 7.455 129.453 7.641C129.555 7.821 129.702 7.911 129.894 7.911C130.104 7.911 130.257 7.818 130.353 7.632C130.455 7.446 130.506 7.128 130.506 6.678C130.506 6.216 130.455 5.892 130.353 5.706C130.257 5.52 130.101 5.427 129.885 5.427Z" fill="#4D4D4D"/>
<path d="M125.575 14.25V21H124.297V14.25H125.575ZM127.411 20.469V21H126.16V14.25H127.438V17.013H127.447C127.525 16.815 127.657 16.653 127.843 16.527C128.035 16.401 128.278 16.338 128.572 16.338C129.016 16.338 129.355 16.509 129.589 16.851C129.829 17.193 129.949 17.784 129.949 18.624C129.949 19.5 129.829 20.127 129.589 20.505C129.355 20.883 128.98 21.072 128.464 21.072C127.966 21.072 127.618 20.871 127.42 20.469H127.411ZM128.05 19.983C128.26 19.983 128.41 19.893 128.5 19.713C128.59 19.527 128.635 19.173 128.635 18.651C128.635 18.189 128.587 17.871 128.491 17.697C128.395 17.517 128.251 17.427 128.059 17.427C127.849 17.427 127.693 17.523 127.591 17.715C127.489 17.907 127.438 18.24 127.438 18.714C127.438 19.56 127.642 19.983 128.05 19.983ZM130.378 20.874V19.794C130.654 19.98 131.032 20.073 131.512 20.073C131.818 20.073 131.971 19.953 131.971 19.713C131.971 19.593 131.911 19.488 131.791 19.398C131.677 19.308 131.539 19.224 131.377 19.146C131.215 19.068 131.05 18.978 130.882 18.876C130.72 18.774 130.579 18.621 130.459 18.417C130.345 18.213 130.288 17.964 130.288 17.67C130.288 16.77 130.825 16.32 131.899 16.32C132.289 16.32 132.655 16.371 132.997 16.473V17.526C132.739 17.4 132.409 17.337 132.007 17.337C131.701 17.337 131.548 17.436 131.548 17.634C131.548 17.742 131.605 17.838 131.719 17.922C131.839 18 131.98 18.078 132.142 18.156C132.304 18.228 132.466 18.318 132.628 18.426C132.796 18.528 132.937 18.684 133.051 18.894C133.171 19.098 133.231 19.35 133.231 19.65C133.231 20.61 132.685 21.09 131.593 21.09C131.125 21.09 130.72 21.018 130.378 20.874Z" fill="#4D4D4D"/>
<path d="M32.03 450.7V457H30.689V452.626L29.825 457H28.556L27.683 452.68V457H26.342V450.7H28.403L29.222 455.2L30.05 450.7H32.03ZM35.7291 457L35.4591 455.686H34.0461L33.7851 457H32.3991L33.7761 450.7H35.7921L37.1511 457H35.7291ZM34.7571 452.167L34.3071 454.399H35.2071L34.7571 452.167ZM41.9283 457H40.3263L39.5883 454.849L38.8953 457H37.3473L38.5533 453.751L37.4373 450.7H39.0123L39.6423 452.734L40.3083 450.7H41.8473L40.6593 453.733L41.9283 457ZM43.7971 456.28C43.7971 456.538 43.7251 456.739 43.5811 456.883C43.4431 457.027 43.2451 457.099 42.9871 457.099C42.7471 457.099 42.5551 457.027 42.4111 456.883C42.2671 456.733 42.1951 456.532 42.1951 456.28C42.1951 456.022 42.2611 455.824 42.3931 455.686C42.5311 455.542 42.7291 455.47 42.9871 455.47C43.2331 455.47 43.4281 455.545 43.5721 455.695C43.7221 455.839 43.7971 456.034 43.7971 456.28ZM47.2749 455.713V454.606H46.5729V453.4H48.4899V456.694C48.0159 456.964 47.4699 457.099 46.8519 457.099C45.9759 457.099 45.3249 456.841 44.8989 456.325C44.4729 455.809 44.2599 455.011 44.2599 453.931C44.2599 452.767 44.4699 451.921 44.8899 451.393C45.3099 450.865 45.9819 450.601 46.9059 450.601C47.4099 450.601 47.8389 450.673 48.1929 450.817V452.113C47.9349 451.993 47.5869 451.933 47.1489 451.933C46.6569 451.933 46.2939 452.074 46.0599 452.356C45.8319 452.632 45.7179 453.136 45.7179 453.868C45.7179 454.552 45.8079 455.041 45.9879 455.335C46.1739 455.629 46.4649 455.776 46.8609 455.776C47.0169 455.776 47.1549 455.755 47.2749 455.713ZM49.1233 457V450.7H51.0312C52.3453 450.7 53.0023 451.363 53.0023 452.689C53.0023 453.553 52.7443 454.153 52.2283 454.489L53.2453 457H51.7243L50.8873 454.795H50.5543V457H49.1233ZM50.5093 451.987V453.598H50.9053C51.1333 453.598 51.2983 453.535 51.4003 453.409C51.5023 453.283 51.5533 453.073 51.5533 452.779C51.5533 452.509 51.5023 452.311 51.4003 452.185C51.2983 452.053 51.1333 451.987 50.9053 451.987H50.5093ZM55.1723 455.38C55.3223 455.662 55.5473 455.803 55.8473 455.803C56.1473 455.803 56.3633 455.665 56.4953 455.389C56.6333 455.107 56.7023 454.594 56.7023 453.85C56.7023 453.106 56.6333 452.596 56.4953 452.32C56.3573 452.038 56.1323 451.897 55.8203 451.897C55.5203 451.897 55.3013 452.041 55.1633 452.329C55.0253 452.611 54.9563 453.118 54.9563 453.85C54.9563 454.582 55.0283 455.092 55.1723 455.38ZM55.8473 457.099C55.0433 457.099 54.4433 456.844 54.0473 456.334C53.6513 455.824 53.4533 454.996 53.4533 453.85C53.4533 452.704 53.6513 451.876 54.0473 451.366C54.4433 450.856 55.0343 450.601 55.8203 450.601C56.6423 450.601 57.2453 450.859 57.6293 451.375C58.0133 451.885 58.2053 452.71 58.2053 453.85C58.2053 455.02 58.0073 455.854 57.6113 456.352C57.2213 456.85 56.6333 457.099 55.8473 457.099ZM58.7019 456.793V455.515C59.0379 455.725 59.4489 455.83 59.9349 455.83C60.4149 455.83 60.6549 455.632 60.6549 455.236C60.6549 455.044 60.6099 454.891 60.5199 454.777C60.4299 454.663 60.2589 454.531 60.0069 454.381L59.8359 454.291C59.4099 454.051 59.1039 453.781 58.9179 453.481C58.7319 453.175 58.6389 452.812 58.6389 452.392C58.6389 451.822 58.8039 451.381 59.1339 451.069C59.4699 450.757 59.9379 450.601 60.5379 450.601C61.0719 450.601 61.5339 450.682 61.9239 450.844V452.095C61.5759 451.951 61.1859 451.879 60.7539 451.879C60.3159 451.879 60.0969 452.053 60.0969 452.401C60.0969 452.557 60.1569 452.692 60.2769 452.806C60.3969 452.914 60.6369 453.07 60.9969 453.274L61.1679 453.364C61.8459 453.712 62.1849 454.309 62.1849 455.155C62.1849 455.773 62.0079 456.253 61.6539 456.595C61.2999 456.931 60.7989 457.099 60.1509 457.099C59.5449 457.099 59.0619 456.997 58.7019 456.793ZM62.5163 456.793V455.515C62.8523 455.725 63.2633 455.83 63.7493 455.83C64.2293 455.83 64.4693 455.632 64.4693 455.236C64.4693 455.044 64.4243 454.891 64.3343 454.777C64.2443 454.663 64.0733 454.531 63.8213 454.381L63.6503 454.291C63.2243 454.051 62.9183 453.781 62.7323 453.481C62.5463 453.175 62.4533 452.812 62.4533 452.392C62.4533 451.822 62.6183 451.381 62.9483 451.069C63.2843 450.757 63.7523 450.601 64.3523 450.601C64.8863 450.601 65.3483 450.682 65.7383 450.844V452.095C65.3903 451.951 65.0003 451.879 64.5683 451.879C64.1303 451.879 63.9113 452.053 63.9113 452.401C63.9113 452.557 63.9713 452.692 64.0913 452.806C64.2113 452.914 64.4513 453.07 64.8113 453.274L64.9823 453.364C65.6603 453.712 65.9993 454.309 65.9993 455.155C65.9993 455.773 65.8223 456.253 65.4683 456.595C65.1143 456.931 64.6133 457.099 63.9653 457.099C63.3593 457.099 62.8763 456.997 62.5163 456.793Z" fill="#4D4D4D"/>
<path d="M27.773 380.7V383.589L29.006 380.7H30.581L29.177 383.652L30.68 387H29.06L27.773 383.922V387H26.342V380.7H27.773ZM34.7425 385.704V387H30.9085V385.695L33.0415 381.996H30.9805V380.7H34.6975V382.005L32.5735 385.704H34.7425ZM37.7644 384.417H38.8264V382.347H38.8084L37.7644 384.417ZM40.2124 385.713V387H38.7814V385.713H36.6394V384.462L38.5564 380.7H40.2124V384.408H40.8514V385.713H40.2124ZM44.7204 385.695V387H41.1744V385.668L41.8224 384.957C42.3144 384.477 42.6594 384.081 42.8574 383.769C43.0614 383.457 43.1634 383.139 43.1634 382.815C43.1634 382.527 43.1004 382.308 42.9744 382.158C42.8484 382.008 42.6384 381.933 42.3444 381.933C41.9844 381.933 41.6304 382.032 41.2824 382.23V380.871C41.7504 380.691 42.2724 380.601 42.8484 380.601C43.2024 380.601 43.5054 380.652 43.7574 380.754C44.0094 380.856 44.2014 381 44.3334 381.186C44.4654 381.366 44.5614 381.561 44.6214 381.771C44.6814 381.981 44.7114 382.212 44.7114 382.464C44.7114 383.016 44.5764 383.526 44.3064 383.994C44.0424 384.456 43.6464 384.945 43.1184 385.461L42.8754 385.677V385.695H44.7204ZM47.2794 385.83C47.4894 385.83 47.6364 385.698 47.7204 385.434C47.8104 385.164 47.8554 384.642 47.8554 383.868C47.8554 383.076 47.8104 382.545 47.7204 382.275C47.6364 382.005 47.4804 381.87 47.2524 381.87C47.0364 381.87 46.8864 382.008 46.8024 382.284C46.7184 382.56 46.6764 383.088 46.6764 383.868C46.6764 384.642 46.7184 385.164 46.8024 385.434C46.8924 385.698 47.0514 385.83 47.2794 385.83ZM47.2704 387.099C46.5504 387.099 46.0224 386.853 45.6864 386.361C45.3564 385.869 45.1914 385.032 45.1914 383.85C45.1914 382.668 45.3594 381.831 45.6954 381.339C46.0314 380.847 46.5504 380.601 47.2524 380.601C47.9904 380.601 48.5214 380.847 48.8454 381.339C49.1694 381.825 49.3314 382.662 49.3314 383.85C49.3314 385.032 49.1634 385.869 48.8274 386.361C48.4914 386.853 47.9724 387.099 47.2704 387.099ZM52.7681 385.713V384.606H52.0661V383.4H53.9831V386.694C53.5091 386.964 52.9631 387.099 52.3451 387.099C51.4691 387.099 50.8181 386.841 50.3921 386.325C49.9661 385.809 49.7531 385.011 49.7531 383.931C49.7531 382.767 49.9631 381.921 50.3831 381.393C50.8031 380.865 51.4751 380.601 52.3991 380.601C52.9031 380.601 53.3321 380.673 53.6861 380.817V382.113C53.4281 381.993 53.0801 381.933 52.6421 381.933C52.1501 381.933 51.7871 382.074 51.5531 382.356C51.3251 382.632 51.2111 383.136 51.2111 383.868C51.2111 384.552 51.3011 385.041 51.4811 385.335C51.6671 385.629 51.9581 385.776 52.3541 385.776C52.5101 385.776 52.6481 385.755 52.7681 385.713ZM56.2094 385.38C56.3594 385.662 56.5844 385.803 56.8844 385.803C57.1844 385.803 57.4004 385.665 57.5324 385.389C57.6704 385.107 57.7394 384.594 57.7394 383.85C57.7394 383.106 57.6704 382.596 57.5324 382.32C57.3944 382.038 57.1694 381.897 56.8574 381.897C56.5574 381.897 56.3384 382.041 56.2004 382.329C56.0624 382.611 55.9934 383.118 55.9934 383.85C55.9934 384.582 56.0654 385.092 56.2094 385.38ZM56.8844 387.099C56.0804 387.099 55.4804 386.844 55.0844 386.334C54.6884 385.824 54.4904 384.996 54.4904 383.85C54.4904 382.704 54.6884 381.876 55.0844 381.366C55.4804 380.856 56.0714 380.601 56.8574 380.601C57.6794 380.601 58.2824 380.859 58.6664 381.375C59.0504 381.885 59.2424 382.71 59.2424 383.85C59.2424 385.02 59.0444 385.854 58.6484 386.352C58.2584 386.85 57.6704 387.099 56.8844 387.099Z" fill="#4D4D4D"/>
<path d="M30.617 400.7V407H29.186V404.435H27.773V407H26.342V400.7H27.773V403.112H29.186V400.7H30.617ZM31.236 406.793V405.515C31.572 405.725 31.983 405.83 32.469 405.83C32.949 405.83 33.189 405.632 33.189 405.236C33.189 405.044 33.144 404.891 33.054 404.777C32.964 404.663 32.793 404.531 32.541 404.381L32.37 404.291C31.944 404.051 31.638 403.781 31.452 403.481C31.266 403.175 31.173 402.812 31.173 402.392C31.173 401.822 31.338 401.381 31.668 401.069C32.004 400.757 32.472 400.601 33.072 400.601C33.606 400.601 34.068 400.682 34.458 400.844V402.095C34.11 401.951 33.72 401.879 33.288 401.879C32.85 401.879 32.631 402.053 32.631 402.401C32.631 402.557 32.691 402.692 32.811 402.806C32.931 402.914 33.171 403.07 33.531 403.274L33.702 403.364C34.38 403.712 34.719 404.309 34.719 405.155C34.719 405.773 34.542 406.253 34.188 406.595C33.834 406.931 33.333 407.099 32.685 407.099C32.079 407.099 31.596 406.997 31.236 406.793ZM38.585 405.704V407H35.219V400.7H38.585V401.996H36.65V403.193H38.279V404.39H36.65V405.704H38.585Z" fill="#4D4D4D"/>
<path d="M28.799 483.068V488H27.368V483.068H26.099V481.7H30.068V483.068H28.799ZM32.9869 488L32.7169 486.686H31.3039L31.0429 488H29.6569L31.0339 481.7H33.0499L34.4089 488H32.9869ZM32.0149 483.167L31.5649 485.399H32.4649L32.0149 483.167ZM34.7795 488V481.7H36.6875C38.0015 481.7 38.6585 482.363 38.6585 483.689C38.6585 484.553 38.4005 485.153 37.8845 485.489L38.9015 488H37.3805L36.5435 485.795H36.2105V488H34.7795ZM36.1655 482.987V484.598H36.5615C36.7895 484.598 36.9545 484.535 37.0565 484.409C37.1585 484.283 37.2095 484.073 37.2095 483.779C37.2095 483.509 37.1585 483.311 37.0565 483.185C36.9545 483.053 36.7895 482.987 36.5615 482.987H36.1655ZM42.6807 486.704V488H39.3147V481.7H42.6807V482.996H40.7457V484.193H42.3747V485.39H40.7457V486.704H42.6807Z" fill="#4D4D4D"/>
<path d="M87.8635 528.955V527.938C88.0255 527.998 88.1785 528.028 88.3225 528.028C88.5505 528.028 88.7215 527.953 88.8355 527.803C88.9555 527.653 89.0155 527.398 89.0155 527.038V522.7H90.1315V527.263C90.1315 527.875 90.0115 528.331 89.7715 528.631C89.5315 528.925 89.1505 529.072 88.6285 529.072C88.3285 529.072 88.0735 529.033 87.8635 528.955ZM93.7375 529L93.4225 527.497H91.9285L91.6135 529H90.5155L91.9375 522.7H93.4495L94.8625 529H93.7375ZM92.6755 523.942L92.1355 526.489H93.2065L92.6755 523.942ZM96.8307 523.762V529H95.7147V523.762H94.4457V522.7H98.0907V523.762H96.8307ZM102.139 523.762V529H101.023V523.762H99.7543V522.7H103.399V523.762H102.139ZM103.892 529V522.7H105.548C106.712 522.7 107.294 523.306 107.294 524.518C107.294 525.406 107.03 525.994 106.502 526.282L107.555 529H106.34L105.413 526.507H105.008V529H103.892ZM104.981 523.726V525.526H105.458C105.698 525.526 105.872 525.457 105.98 525.319C106.094 525.181 106.151 524.944 106.151 524.608C106.151 524.308 106.097 524.086 105.989 523.942C105.881 523.798 105.701 523.726 105.449 523.726H104.981ZM110.946 529L110.631 527.497H109.137L108.822 529H107.724L109.146 522.7H110.658L112.071 529H110.946ZM109.884 523.942L109.344 526.489H110.415L109.884 523.942ZM116.357 522.7V529H115.169L113.558 524.662V529H112.505V522.7H113.756L115.313 526.912V522.7H116.357ZM117.056 528.802V527.785C117.368 527.971 117.734 528.064 118.154 528.064C118.682 528.064 118.946 527.812 118.946 527.308C118.946 527.062 118.898 526.867 118.802 526.723C118.706 526.573 118.526 526.405 118.262 526.219L118.109 526.12C117.719 525.856 117.437 525.58 117.263 525.292C117.095 524.998 117.011 524.656 117.011 524.266C117.011 523.75 117.164 523.348 117.47 523.06C117.776 522.766 118.193 522.619 118.721 522.619C119.177 522.619 119.567 522.691 119.891 522.835V523.834C119.591 523.702 119.255 523.636 118.883 523.636C118.409 523.636 118.172 523.852 118.172 524.284C118.172 524.464 118.232 524.632 118.352 524.788C118.472 524.944 118.7 525.13 119.036 525.346L119.189 525.436C119.825 525.814 120.143 526.414 120.143 527.236C120.143 527.806 119.981 528.256 119.657 528.586C119.333 528.916 118.886 529.081 118.316 529.081C117.788 529.081 117.368 528.988 117.056 528.802ZM121.83 523.726V525.877H122.271C122.541 525.877 122.736 525.793 122.856 525.625C122.976 525.451 123.036 525.172 123.036 524.788C123.036 524.398 122.976 524.125 122.856 523.969C122.742 523.807 122.547 523.726 122.271 523.726H121.83ZM121.857 526.894V529H120.741V522.7H122.37C122.976 522.7 123.426 522.862 123.72 523.186C124.02 523.51 124.17 524.032 124.17 524.752C124.17 525.466 124.017 526.003 123.711 526.363C123.405 526.717 122.925 526.894 122.271 526.894H121.857ZM126.801 528.055C127.137 528.055 127.383 527.899 127.539 527.587C127.695 527.275 127.773 526.696 127.773 525.85C127.773 525.262 127.734 524.806 127.656 524.482C127.578 524.152 127.47 523.93 127.332 523.816C127.194 523.702 127.008 523.645 126.774 523.645C126.438 523.645 126.189 523.801 126.027 524.113C125.865 524.425 125.784 525.004 125.784 525.85C125.784 526.42 125.826 526.873 125.91 527.209C126 527.539 126.114 527.764 126.252 527.884C126.396 527.998 126.579 528.055 126.801 528.055ZM126.792 529.081C126.054 529.081 125.505 528.832 125.145 528.334C124.785 527.836 124.605 527.008 124.605 525.85C124.605 524.686 124.785 523.858 125.145 523.366C125.505 522.868 126.048 522.619 126.774 522.619C127.524 522.619 128.076 522.871 128.43 523.375C128.784 523.873 128.961 524.698 128.961 525.85C128.961 527.02 128.781 527.851 128.421 528.343C128.061 528.835 127.518 529.081 126.792 529.081ZM129.6 529V522.7H131.256C132.42 522.7 133.002 523.306 133.002 524.518C133.002 525.406 132.738 525.994 132.21 526.282L133.263 529H132.048L131.121 526.507H130.716V529H129.6ZM130.689 523.726V525.526H131.166C131.406 525.526 131.58 525.457 131.688 525.319C131.802 525.181 131.859 524.944 131.859 524.608C131.859 524.308 131.805 524.086 131.697 523.942C131.589 523.798 131.409 523.726 131.157 523.726H130.689ZM135.643 523.762V529H134.527V523.762H133.258V522.7H136.903V523.762H135.643Z" fill="#FFA645"/>
<path d="M88.092 456.856V455.56C88.494 455.722 88.878 455.803 89.244 455.803C89.808 455.803 90.09 455.563 90.09 455.083C90.09 454.831 90.03 454.651 89.91 454.543C89.79 454.429 89.601 454.372 89.343 454.372H88.614V453.193H89.244C89.502 453.193 89.688 453.142 89.802 453.04C89.922 452.938 89.982 452.764 89.982 452.518C89.982 452.104 89.745 451.897 89.271 451.897C88.863 451.897 88.5 451.969 88.182 452.113V450.844C88.638 450.682 89.145 450.601 89.703 450.601C90.039 450.601 90.327 450.649 90.567 450.745C90.813 450.835 90.999 450.964 91.125 451.132C91.257 451.294 91.35 451.471 91.404 451.663C91.464 451.849 91.494 452.053 91.494 452.275C91.494 453.031 91.188 453.514 90.576 453.724V453.742C90.942 453.826 91.203 453.988 91.359 454.228C91.521 454.468 91.602 454.786 91.602 455.182C91.602 455.758 91.437 456.223 91.107 456.577C90.777 456.925 90.231 457.099 89.469 457.099C88.983 457.099 88.524 457.018 88.092 456.856ZM95.5573 455.695V457H92.0113V455.668L92.6593 454.957C93.1513 454.477 93.4963 454.081 93.6943 453.769C93.8983 453.457 94.0003 453.139 94.0003 452.815C94.0003 452.527 93.9373 452.308 93.8113 452.158C93.6853 452.008 93.4753 451.933 93.1813 451.933C92.8213 451.933 92.4673 452.032 92.1193 452.23V450.871C92.5873 450.691 93.1093 450.601 93.6853 450.601C94.0393 450.601 94.3423 450.652 94.5943 450.754C94.8463 450.856 95.0383 451 95.1703 451.186C95.3023 451.366 95.3983 451.561 95.4583 451.771C95.5183 451.981 95.5483 452.212 95.5483 452.464C95.5483 453.016 95.4133 453.526 95.1433 453.994C94.8793 454.456 94.4833 454.945 93.9553 455.461L93.7123 455.677V455.695H95.5573ZM97.7366 456.28C97.7366 456.538 97.6646 456.739 97.5206 456.883C97.3826 457.027 97.1846 457.099 96.9266 457.099C96.6866 457.099 96.4946 457.027 96.3506 456.883C96.2066 456.733 96.1346 456.532 96.1346 456.28C96.1346 456.022 96.2006 455.824 96.3326 455.686C96.4706 455.542 96.6686 455.47 96.9266 455.47C97.1726 455.47 97.3676 455.545 97.5116 455.695C97.6616 455.839 97.7366 456.034 97.7366 456.28ZM98.2978 456.865V455.614C98.5738 455.746 98.8978 455.812 99.2698 455.812C99.5938 455.812 99.8308 455.743 99.9808 455.605C100.131 455.461 100.206 455.23 100.206 454.912C100.206 454.6 100.14 454.375 100.008 454.237C99.8758 454.099 99.6508 454.03 99.3328 454.03C98.9968 454.03 98.6698 454.081 98.3518 454.183L98.4868 450.7H101.466V451.951H99.5488L99.5038 453.004C99.6418 452.968 99.8278 452.95 100.062 452.95C101.16 452.95 101.709 453.592 101.709 454.876C101.709 455.542 101.541 456.079 101.205 456.487C100.875 456.895 100.323 457.099 99.5488 457.099C99.0988 457.099 98.6818 457.021 98.2978 456.865ZM104.19 455.83C104.4 455.83 104.547 455.698 104.631 455.434C104.721 455.164 104.766 454.642 104.766 453.868C104.766 453.076 104.721 452.545 104.631 452.275C104.547 452.005 104.391 451.87 104.163 451.87C103.947 451.87 103.797 452.008 103.713 452.284C103.629 452.56 103.587 453.088 103.587 453.868C103.587 454.642 103.629 455.164 103.713 455.434C103.803 455.698 103.962 455.83 104.19 455.83ZM104.181 457.099C103.461 457.099 102.933 456.853 102.597 456.361C102.267 455.869 102.102 455.032 102.102 453.85C102.102 452.668 102.27 451.831 102.606 451.339C102.942 450.847 103.461 450.601 104.163 450.601C104.901 450.601 105.432 450.847 105.756 451.339C106.08 451.825 106.242 452.662 106.242 453.85C106.242 455.032 106.074 455.869 105.738 456.361C105.402 456.853 104.883 457.099 104.181 457.099ZM108.742 455.83C108.952 455.83 109.099 455.698 109.183 455.434C109.273 455.164 109.318 454.642 109.318 453.868C109.318 453.076 109.273 452.545 109.183 452.275C109.099 452.005 108.943 451.87 108.715 451.87C108.499 451.87 108.349 452.008 108.265 452.284C108.181 452.56 108.139 453.088 108.139 453.868C108.139 454.642 108.181 455.164 108.265 455.434C108.355 455.698 108.514 455.83 108.742 455.83ZM108.733 457.099C108.013 457.099 107.485 456.853 107.149 456.361C106.819 455.869 106.654 455.032 106.654 453.85C106.654 452.668 106.822 451.831 107.158 451.339C107.494 450.847 108.013 450.601 108.715 450.601C109.453 450.601 109.984 450.847 110.308 451.339C110.632 451.825 110.794 452.662 110.794 453.85C110.794 455.032 110.626 455.869 110.29 456.361C109.954 456.853 109.435 457.099 108.733 457.099Z" fill="#4D4D4D"/>
<path d="M91.634 487.856V486.56C92.036 486.722 92.42 486.803 92.786 486.803C93.35 486.803 93.632 486.563 93.632 486.083C93.632 485.831 93.572 485.651 93.452 485.543C93.332 485.429 93.143 485.372 92.885 485.372H92.156V484.193H92.786C93.044 484.193 93.23 484.142 93.344 484.04C93.464 483.938 93.524 483.764 93.524 483.518C93.524 483.104 93.287 482.897 92.813 482.897C92.405 482.897 92.042 482.969 91.724 483.113V481.844C92.18 481.682 92.687 481.601 93.245 481.601C93.581 481.601 93.869 481.649 94.109 481.745C94.355 481.835 94.541 481.964 94.667 482.132C94.799 482.294 94.892 482.471 94.946 482.663C95.006 482.849 95.036 483.053 95.036 483.275C95.036 484.031 94.73 484.514 94.118 484.724V484.742C94.484 484.826 94.745 484.988 94.901 485.228C95.063 485.468 95.144 485.786 95.144 486.182C95.144 486.758 94.979 487.223 94.649 487.577C94.319 487.925 93.773 488.099 93.011 488.099C92.525 488.099 92.066 488.018 91.634 487.856ZM97.2093 487.28C97.2093 487.538 97.1373 487.739 96.9933 487.883C96.8553 488.027 96.6573 488.099 96.3993 488.099C96.1593 488.099 95.9673 488.027 95.8233 487.883C95.6793 487.733 95.6073 487.532 95.6073 487.28C95.6073 487.022 95.6733 486.824 95.8053 486.686C95.9433 486.542 96.1413 486.47 96.3993 486.47C96.6453 486.47 96.8403 486.545 96.9843 486.695C97.1343 486.839 97.2093 487.034 97.2093 487.28ZM99.7954 484.31C100.071 484.052 100.209 483.746 100.209 483.392C100.209 482.96 100.032 482.744 99.6784 482.744C99.5164 482.744 99.3904 482.798 99.3004 482.906C99.2104 483.014 99.1654 483.164 99.1654 483.356C99.1654 483.59 99.2194 483.779 99.3274 483.923C99.4354 484.061 99.5914 484.19 99.7954 484.31ZM99.5884 485.183C99.2644 485.441 99.1024 485.762 99.1024 486.146C99.1024 486.686 99.3034 486.956 99.7054 486.956C100.083 486.956 100.272 486.698 100.272 486.182C100.272 486.002 100.23 485.843 100.146 485.705C100.068 485.561 99.9904 485.462 99.9124 485.408C99.8404 485.348 99.7324 485.273 99.5884 485.183ZM100.767 484.679C101.115 484.859 101.358 485.072 101.496 485.318C101.64 485.558 101.712 485.87 101.712 486.254C101.712 486.854 101.535 487.313 101.181 487.631C100.827 487.943 100.332 488.099 99.6964 488.099C99.0844 488.099 98.5924 487.949 98.2204 487.649C97.8484 487.343 97.6624 486.896 97.6624 486.308C97.6624 485.522 97.9804 484.979 98.6164 484.679C98.3284 484.499 98.1154 484.298 97.9774 484.076C97.8394 483.854 97.7704 483.563 97.7704 483.203C97.7704 482.699 97.9444 482.306 98.2924 482.024C98.6404 481.742 99.1144 481.601 99.7144 481.601C100.278 481.601 100.734 481.73 101.082 481.988C101.43 482.24 101.604 482.633 101.604 483.167C101.604 483.857 101.325 484.361 100.767 484.679ZM104.19 486.83C104.4 486.83 104.547 486.698 104.631 486.434C104.721 486.164 104.766 485.642 104.766 484.868C104.766 484.076 104.721 483.545 104.631 483.275C104.547 483.005 104.391 482.87 104.163 482.87C103.947 482.87 103.797 483.008 103.713 483.284C103.629 483.56 103.587 484.088 103.587 484.868C103.587 485.642 103.629 486.164 103.713 486.434C103.803 486.698 103.962 486.83 104.19 486.83ZM104.181 488.099C103.461 488.099 102.933 487.853 102.597 487.361C102.267 486.869 102.102 486.032 102.102 484.85C102.102 483.668 102.27 482.831 102.606 482.339C102.942 481.847 103.461 481.601 104.163 481.601C104.901 481.601 105.432 481.847 105.756 482.339C106.08 482.825 106.242 483.662 106.242 484.85C106.242 486.032 106.074 486.869 105.738 487.361C105.402 487.853 104.883 488.099 104.181 488.099ZM108.742 486.83C108.952 486.83 109.099 486.698 109.183 486.434C109.273 486.164 109.318 485.642 109.318 484.868C109.318 484.076 109.273 483.545 109.183 483.275C109.099 483.005 108.943 482.87 108.715 482.87C108.499 482.87 108.349 483.008 108.265 483.284C108.181 483.56 108.139 484.088 108.139 484.868C108.139 485.642 108.181 486.164 108.265 486.434C108.355 486.698 108.514 486.83 108.742 486.83ZM108.733 488.099C108.013 488.099 107.485 487.853 107.149 487.361C106.819 486.869 106.654 486.032 106.654 484.85C106.654 483.668 106.822 482.831 107.158 482.339C107.494 481.847 108.013 481.601 108.715 481.601C109.453 481.601 109.984 481.847 110.308 482.339C110.632 482.825 110.794 483.662 110.794 484.85C110.794 486.032 110.626 486.869 110.29 487.361C109.954 487.853 109.435 488.099 108.733 488.099Z" fill="#4D4D4D"/>
<path d="M92.5508 463.816L91.0478 469H89.4368L91.0118 463.969H88.9598V462.7H92.5508V463.816ZM95.6971 462.7V469H94.2751V464.338L93.4471 464.95L92.8351 463.933L94.5001 462.7H95.6971ZM98.0442 468.28C98.0442 468.538 97.9722 468.739 97.8282 468.883C97.6902 469.027 97.4922 469.099 97.2342 469.099C96.9942 469.099 96.8022 469.027 96.6582 468.883C96.5142 468.733 96.4422 468.532 96.4422 468.28C96.4422 468.022 96.5082 467.824 96.6402 467.686C96.7782 467.542 96.9762 467.47 97.2342 467.47C97.4802 467.47 97.6752 467.545 97.8192 467.695C97.9692 467.839 98.0442 468.034 98.0442 468.28ZM100.479 467.938C100.803 467.938 100.965 467.614 100.965 466.966C100.965 466.306 100.797 465.976 100.461 465.976C100.113 465.976 99.9386 466.261 99.9386 466.831C99.9386 467.569 100.119 467.938 100.479 467.938ZM102.018 462.763V464.041C101.724 463.921 101.403 463.861 101.055 463.861C100.263 463.861 99.8666 464.395 99.8666 465.463C100.083 465.115 100.431 464.941 100.911 464.941C101.373 464.941 101.739 465.097 102.009 465.409C102.285 465.721 102.423 466.225 102.423 466.921C102.423 467.623 102.255 468.163 101.919 468.541C101.589 468.913 101.124 469.099 100.524 469.099C99.8276 469.099 99.3116 468.853 98.9756 468.361C98.6456 467.869 98.4806 467.104 98.4806 466.066C98.4806 464.944 98.6666 464.086 99.0386 463.492C99.4106 462.898 100.023 462.601 100.875 462.601C101.283 462.601 101.664 462.655 102.018 462.763ZM102.851 468.865V467.614C103.127 467.746 103.451 467.812 103.823 467.812C104.147 467.812 104.384 467.743 104.534 467.605C104.684 467.461 104.759 467.23 104.759 466.912C104.759 466.6 104.693 466.375 104.561 466.237C104.429 466.099 104.204 466.03 103.885 466.03C103.55 466.03 103.223 466.081 102.905 466.183L103.04 462.7H106.019V463.951H104.102L104.057 465.004C104.195 464.968 104.381 464.95 104.615 464.95C105.713 464.95 106.262 465.592 106.262 466.876C106.262 467.542 106.094 468.079 105.758 468.487C105.428 468.895 104.876 469.099 104.102 469.099C103.652 469.099 103.235 469.021 102.851 468.865ZM108.742 467.83C108.952 467.83 109.099 467.698 109.183 467.434C109.273 467.164 109.318 466.642 109.318 465.868C109.318 465.076 109.273 464.545 109.183 464.275C109.099 464.005 108.943 463.87 108.715 463.87C108.499 463.87 108.349 464.008 108.265 464.284C108.181 464.56 108.139 465.088 108.139 465.868C108.139 466.642 108.181 467.164 108.265 467.434C108.355 467.698 108.514 467.83 108.742 467.83ZM108.733 469.099C108.013 469.099 107.485 468.853 107.149 468.361C106.819 467.869 106.654 467.032 106.654 465.85C106.654 464.668 106.822 463.831 107.158 463.339C107.494 462.847 108.013 462.601 108.715 462.601C109.453 462.601 109.984 462.847 110.308 463.339C110.632 463.825 110.794 464.662 110.794 465.85C110.794 467.032 110.626 467.869 110.29 468.361C109.954 468.853 109.435 469.099 108.733 469.099Z" fill="#4D4D4D"/>
<path d="M93.7398 496.31C94.0158 496.052 94.1538 495.746 94.1538 495.392C94.1538 494.96 93.9768 494.744 93.6228 494.744C93.4608 494.744 93.3348 494.798 93.2448 494.906C93.1548 495.014 93.1098 495.164 93.1098 495.356C93.1098 495.59 93.1638 495.779 93.2718 495.923C93.3798 496.061 93.5358 496.19 93.7398 496.31ZM93.5328 497.183C93.2088 497.441 93.0468 497.762 93.0468 498.146C93.0468 498.686 93.2478 498.956 93.6498 498.956C94.0278 498.956 94.2168 498.698 94.2168 498.182C94.2168 498.002 94.1748 497.843 94.0908 497.705C94.0128 497.561 93.9348 497.462 93.8568 497.408C93.7848 497.348 93.6768 497.273 93.5328 497.183ZM94.7118 496.679C95.0598 496.859 95.3028 497.072 95.4408 497.318C95.5848 497.558 95.6568 497.87 95.6568 498.254C95.6568 498.854 95.4798 499.313 95.1258 499.631C94.7718 499.943 94.2768 500.099 93.6408 500.099C93.0288 500.099 92.5368 499.949 92.1648 499.649C91.7928 499.343 91.6068 498.896 91.6068 498.308C91.6068 497.522 91.9248 496.979 92.5608 496.679C92.2728 496.499 92.0598 496.298 91.9218 496.076C91.7838 495.854 91.7148 495.563 91.7148 495.203C91.7148 494.699 91.8888 494.306 92.2368 494.024C92.5848 493.742 93.0588 493.601 93.6588 493.601C94.2228 493.601 94.6788 493.73 95.0268 493.988C95.3748 494.24 95.5488 494.633 95.5488 495.167C95.5488 495.857 95.2698 496.361 94.7118 496.679ZM97.7102 499.28C97.7102 499.538 97.6382 499.739 97.4942 499.883C97.3562 500.027 97.1582 500.099 96.9002 500.099C96.6602 500.099 96.4682 500.027 96.3242 499.883C96.1802 499.733 96.1082 499.532 96.1082 499.28C96.1082 499.022 96.1742 498.824 96.3062 498.686C96.4442 498.542 96.6422 498.47 96.9002 498.47C97.1462 498.47 97.3412 498.545 97.4852 498.695C97.6352 498.839 97.7102 499.034 97.7102 499.28ZM98.3049 499.856V498.56C98.7069 498.722 99.0909 498.803 99.4569 498.803C100.021 498.803 100.303 498.563 100.303 498.083C100.303 497.831 100.243 497.651 100.123 497.543C100.003 497.429 99.8139 497.372 99.5559 497.372H98.8269V496.193H99.4569C99.7149 496.193 99.9009 496.142 100.015 496.04C100.135 495.938 100.195 495.764 100.195 495.518C100.195 495.104 99.9579 494.897 99.4839 494.897C99.0759 494.897 98.7129 494.969 98.3949 495.113V493.844C98.8509 493.682 99.3579 493.601 99.9159 493.601C100.252 493.601 100.54 493.649 100.78 493.745C101.026 493.835 101.212 493.964 101.338 494.132C101.47 494.294 101.563 494.471 101.617 494.663C101.677 494.849 101.707 495.053 101.707 495.275C101.707 496.031 101.401 496.514 100.789 496.724V496.742C101.155 496.826 101.416 496.988 101.572 497.228C101.734 497.468 101.815 497.786 101.815 498.182C101.815 498.758 101.65 499.223 101.32 499.577C100.99 499.925 100.444 500.099 99.6819 500.099C99.1959 500.099 98.7369 500.018 98.3049 499.856ZM104.348 496.31C104.624 496.052 104.762 495.746 104.762 495.392C104.762 494.96 104.585 494.744 104.231 494.744C104.069 494.744 103.943 494.798 103.853 494.906C103.763 495.014 103.718 495.164 103.718 495.356C103.718 495.59 103.772 495.779 103.88 495.923C103.988 496.061 104.144 496.19 104.348 496.31ZM104.141 497.183C103.817 497.441 103.655 497.762 103.655 498.146C103.655 498.686 103.856 498.956 104.258 498.956C104.636 498.956 104.825 498.698 104.825 498.182C104.825 498.002 104.783 497.843 104.699 497.705C104.621 497.561 104.543 497.462 104.465 497.408C104.393 497.348 104.285 497.273 104.141 497.183ZM105.32 496.679C105.668 496.859 105.911 497.072 106.049 497.318C106.193 497.558 106.265 497.87 106.265 498.254C106.265 498.854 106.088 499.313 105.734 499.631C105.38 499.943 104.885 500.099 104.249 500.099C103.637 500.099 103.145 499.949 102.773 499.649C102.401 499.343 102.215 498.896 102.215 498.308C102.215 497.522 102.533 496.979 103.169 496.679C102.881 496.499 102.668 496.298 102.53 496.076C102.392 495.854 102.323 495.563 102.323 495.203C102.323 494.699 102.497 494.306 102.845 494.024C103.193 493.742 103.667 493.601 104.267 493.601C104.831 493.601 105.287 493.73 105.635 493.988C105.983 494.24 106.157 494.633 106.157 495.167C106.157 495.857 105.878 496.361 105.32 496.679ZM108.742 498.83C108.952 498.83 109.099 498.698 109.183 498.434C109.273 498.164 109.318 497.642 109.318 496.868C109.318 496.076 109.273 495.545 109.183 495.275C109.099 495.005 108.943 494.87 108.715 494.87C108.499 494.87 108.349 495.008 108.265 495.284C108.181 495.56 108.139 496.088 108.139 496.868C108.139 497.642 108.181 498.164 108.265 498.434C108.355 498.698 108.514 498.83 108.742 498.83ZM108.733 500.099C108.013 500.099 107.485 499.853 107.149 499.361C106.819 498.869 106.654 498.032 106.654 496.85C106.654 495.668 106.822 494.831 107.158 494.339C107.494 493.847 108.013 493.601 108.715 493.601C109.453 493.601 109.984 493.847 110.308 494.339C110.632 494.825 110.794 495.662 110.794 496.85C110.794 498.032 110.626 498.869 110.29 499.361C109.954 499.853 109.435 500.099 108.733 500.099Z" fill="#4D4D4D"/>
<path d="M129.575 450.25V454.363L130.448 452.41H131.852L130.826 454.471L131.987 457H130.547L129.575 454.651V457H128.297V450.25H129.575ZM134.524 452.959V452.41H135.775V456.946C135.775 457.342 135.718 457.678 135.604 457.954C135.49 458.23 135.328 458.437 135.118 458.575C134.914 458.719 134.692 458.821 134.452 458.881C134.212 458.941 133.942 458.971 133.642 458.971C133.072 458.971 132.643 458.896 132.355 458.746V457.594C132.667 457.756 133.036 457.837 133.462 457.837C133.852 457.837 134.122 457.753 134.272 457.585C134.428 457.423 134.506 457.153 134.506 456.775V456.316H134.488C134.302 456.772 133.951 457 133.435 457C132.973 457 132.616 456.832 132.364 456.496C132.112 456.16 131.986 455.578 131.986 454.75C131.986 453.886 132.106 453.268 132.346 452.896C132.592 452.524 132.967 452.338 133.471 452.338C133.987 452.338 134.335 452.545 134.515 452.959H134.524ZM133.885 453.427C133.681 453.427 133.531 453.517 133.435 453.697C133.345 453.871 133.3 454.201 133.3 454.687C133.3 455.137 133.351 455.455 133.453 455.641C133.555 455.821 133.702 455.911 133.894 455.911C134.104 455.911 134.257 455.818 134.353 455.632C134.455 455.446 134.506 455.128 134.506 454.678C134.506 454.216 134.455 453.892 134.353 453.706C134.257 453.52 134.101 453.427 133.885 453.427Z" fill="#4D4D4D"/>
<path d="M129.575 481.25V485.363L130.448 483.41H131.852L130.826 485.471L131.987 488H130.547L129.575 485.651V488H128.297V481.25H129.575ZM134.524 483.959V483.41H135.775V487.946C135.775 488.342 135.718 488.678 135.604 488.954C135.49 489.23 135.328 489.437 135.118 489.575C134.914 489.719 134.692 489.821 134.452 489.881C134.212 489.941 133.942 489.971 133.642 489.971C133.072 489.971 132.643 489.896 132.355 489.746V488.594C132.667 488.756 133.036 488.837 133.462 488.837C133.852 488.837 134.122 488.753 134.272 488.585C134.428 488.423 134.506 488.153 134.506 487.775V487.316H134.488C134.302 487.772 133.951 488 133.435 488C132.973 488 132.616 487.832 132.364 487.496C132.112 487.16 131.986 486.578 131.986 485.75C131.986 484.886 132.106 484.268 132.346 483.896C132.592 483.524 132.967 483.338 133.471 483.338C133.987 483.338 134.335 483.545 134.515 483.959H134.524ZM133.885 484.427C133.681 484.427 133.531 484.517 133.435 484.697C133.345 484.871 133.3 485.201 133.3 485.687C133.3 486.137 133.351 486.455 133.453 486.641C133.555 486.821 133.702 486.911 133.894 486.911C134.104 486.911 134.257 486.818 134.353 486.632C134.455 486.446 134.506 486.128 134.506 485.678C134.506 485.216 134.455 484.892 134.353 484.706C134.257 484.52 134.101 484.427 133.885 484.427Z" fill="#4D4D4D"/>
<path d="M129.575 462.25V469H128.297V462.25H129.575ZM131.411 468.469V469H130.16V462.25H131.438V465.013H131.447C131.525 464.815 131.657 464.653 131.843 464.527C132.035 464.401 132.278 464.338 132.572 464.338C133.016 464.338 133.355 464.509 133.589 464.851C133.829 465.193 133.949 465.784 133.949 466.624C133.949 467.5 133.829 468.127 133.589 468.505C133.355 468.883 132.98 469.072 132.464 469.072C131.966 469.072 131.618 468.871 131.42 468.469H131.411ZM132.05 467.983C132.26 467.983 132.41 467.893 132.5 467.713C132.59 467.527 132.635 467.173 132.635 466.651C132.635 466.189 132.587 465.871 132.491 465.697C132.395 465.517 132.251 465.427 132.059 465.427C131.849 465.427 131.693 465.523 131.591 465.715C131.489 465.907 131.438 466.24 131.438 466.714C131.438 467.56 131.642 467.983 132.05 467.983ZM134.378 468.874V467.794C134.654 467.98 135.032 468.073 135.512 468.073C135.818 468.073 135.971 467.953 135.971 467.713C135.971 467.593 135.911 467.488 135.791 467.398C135.677 467.308 135.539 467.224 135.377 467.146C135.215 467.068 135.05 466.978 134.882 466.876C134.72 466.774 134.579 466.621 134.459 466.417C134.345 466.213 134.288 465.964 134.288 465.67C134.288 464.77 134.825 464.32 135.899 464.32C136.289 464.32 136.655 464.371 136.997 464.473V465.526C136.739 465.4 136.409 465.337 136.007 465.337C135.701 465.337 135.548 465.436 135.548 465.634C135.548 465.742 135.605 465.838 135.719 465.922C135.839 466 135.98 466.078 136.142 466.156C136.304 466.228 136.466 466.318 136.628 466.426C136.796 466.528 136.937 466.684 137.051 466.894C137.171 467.098 137.231 467.35 137.231 467.65C137.231 468.61 136.685 469.09 135.593 469.09C135.125 469.09 134.72 469.018 134.378 468.874Z" fill="#4D4D4D"/>
<path d="M129.575 493.25V500H128.297V493.25H129.575ZM131.411 499.469V500H130.16V493.25H131.438V496.013H131.447C131.525 495.815 131.657 495.653 131.843 495.527C132.035 495.401 132.278 495.338 132.572 495.338C133.016 495.338 133.355 495.509 133.589 495.851C133.829 496.193 133.949 496.784 133.949 497.624C133.949 498.5 133.829 499.127 133.589 499.505C133.355 499.883 132.98 500.072 132.464 500.072C131.966 500.072 131.618 499.871 131.42 499.469H131.411ZM132.05 498.983C132.26 498.983 132.41 498.893 132.5 498.713C132.59 498.527 132.635 498.173 132.635 497.651C132.635 497.189 132.587 496.871 132.491 496.697C132.395 496.517 132.251 496.427 132.059 496.427C131.849 496.427 131.693 496.523 131.591 496.715C131.489 496.907 131.438 497.24 131.438 497.714C131.438 498.56 131.642 498.983 132.05 498.983ZM134.378 499.874V498.794C134.654 498.98 135.032 499.073 135.512 499.073C135.818 499.073 135.971 498.953 135.971 498.713C135.971 498.593 135.911 498.488 135.791 498.398C135.677 498.308 135.539 498.224 135.377 498.146C135.215 498.068 135.05 497.978 134.882 497.876C134.72 497.774 134.579 497.621 134.459 497.417C134.345 497.213 134.288 496.964 134.288 496.67C134.288 495.77 134.825 495.32 135.899 495.32C136.289 495.32 136.655 495.371 136.997 495.473V496.526C136.739 496.4 136.409 496.337 136.007 496.337C135.701 496.337 135.548 496.436 135.548 496.634C135.548 496.742 135.605 496.838 135.719 496.922C135.839 497 135.98 497.078 136.142 497.156C136.304 497.228 136.466 497.318 136.628 497.426C136.796 497.528 136.937 497.684 137.051 497.894C137.171 498.098 137.231 498.35 137.231 498.65C137.231 499.61 136.685 500.09 135.593 500.09C135.125 500.09 134.72 500.018 134.378 499.874Z" fill="#4D4D4D"/>
<rect x="26" y="522" width="17" height="17" fill="#FFA645"/>
<rect x="49" y="522" width="17" height="17" fill="#FFA645"/>
<path d="M77.4378 274.5C80.1321 269.833 86.8679 269.833 89.5622 274.5L118.574 324.75C121.268 329.417 117.9 335.25 112.512 335.25H54.4881C49.0995 335.25 45.7317 329.417 48.426 324.75L77.4378 274.5Z" fill="#4D4D4D"/>
<path d="M87.9492 321.375C87.9492 322.83 87.5593 323.973 86.7797 324.805C86.0339 325.602 84.9492 326 83.5254 326C82.1695 326 81.0847 325.584 80.2712 324.753C79.4915 323.921 79.1017 322.795 79.1017 321.375C79.1017 319.885 79.4746 318.742 80.2203 317.945C81 317.148 82.1017 316.75 83.5254 316.75C84.8814 316.75 85.9492 317.166 86.7288 317.997C87.5424 318.829 87.9492 319.955 87.9492 321.375ZM88 289L86.678 312.645H80.322L79 289H88Z" fill="#F8F9F9"/>
<defs>
<filter id="filter0_f_707_11" x="61" y="240" width="92" height="125" filterUnits="userSpaceOnUse" color-interpolation-filters="sRGB">
<feFlood flood-opacity="0" result="BackgroundImageFix"/>
<feBlend mode="normal" in="SourceGraphic" in2="BackgroundImageFix" result="shape"/>
<feGaussianBlur stdDeviation="13.5" result="effect1_foregroundBlur_707_11"/>
</filter>
</defs>
</svg>
