<svg width="119" height="56" viewBox="0 0 119 56" fill="none" xmlns="http://www.w3.org/2000/svg">
<path fill-rule="evenodd" clip-rule="evenodd" d="M24.1234 0H22.7052H21.285V1.41818V2.83841V4.20535V4.25659V5.62353V7.04376V8.46194V9.88012V11.3003V12.7185V14.1388V15.5569V16.9772V18.3953V19.8156V21.2338H19.8668H18.4466H17.0284H15.6102H14.19H12.7718H11.3516H9.9334H8.51318H7.095H5.67477H4.25659H2.83841H1.41818H0V22.654V24.0722V25.4903H1.41818H2.83841H4.25659H5.67477H7.095H8.51318H9.9334H11.3516H12.7718H14.19H15.6102H17.0284H18.4466H19.8668H21.285H22.7052H24.1234H25.5436V24.0722V22.654V21.2338V19.8156V18.3953V16.9772V15.5569V14.1388V12.7185V11.3003V9.88012V8.46194V7.04376V5.62353V4.25659V4.20535V2.83841V1.41818V0H24.1234ZM76.5161 0H75.0959H73.6777H72.2574H70.8393H69.419H68.0009H66.5806H65.1624H63.7443H62.324H60.9059H59.4856H58.0675H56.6472H55.229H53.8109H52.3906H50.9725H49.5522H48.1341H46.7138H45.2956H43.8754H42.4572V1.41818V2.83841V4.25659H42.4593V5.62148V7.03966V8.45784V9.87807V11.2962V12.7165V14.1347V15.5549V16.9731V18.3933V19.8115V21.2317V22.6499V24.0681V25.4883V26.9065V28.3267V29.7449V31.1651V32.5833V34.0035V35.4217V36.8399H43.8775H45.2956H46.7159V35.4217V34.0035V32.5833V31.1651V29.7449V28.3267V26.9065V25.4883V24.0681V22.6499V21.2317V19.8115V18.3933V16.9731V15.5549V14.1347V12.7165V11.2962V9.87807V8.45784V7.03966V5.62148V4.25659H48.1341H49.5522H50.9725H52.3906H53.8109H55.229H56.6472H58.0675H59.4856H60.9059H62.324H63.7443H65.1624H66.5806H68.0009H69.419H70.8393H72.2574H73.6777V5.62353V7.04376V8.46194V9.88012V11.3003V12.7185V14.1388V15.5569V16.9772V18.3953V19.8156V21.2338V22.654V24.0722V25.4903V26.9106V28.3287V29.749V31.1672V32.5874V34.0056V35.4258V36.844H75.0959H76.5161H77.9343V35.4258V34.0056V32.5874V31.1672V29.749V28.3287V26.9106V25.4903V24.0722V22.654V21.2338V19.8156V18.3953V16.9772V15.5569V14.1388V12.7185V11.3003V9.88012V8.46194V7.04376V5.62353V4.25659V4.20535V2.83841V1.41818V0H76.5161ZM117.582 0H116.162H114.743H113.323H111.905H110.485H109.067H107.646H106.228H104.81H103.39H101.972H100.551H99.1332H97.713H96.2948H94.8766H93.4564H92.0382H90.618H89.1998H87.7796H86.3614H84.9412H83.523V1.41818V2.83841V4.25659H84.9412H86.3614H87.7796H89.1998H90.618H92.0382H93.4564H94.8766H96.2948H97.713H99.1332H100.551H101.972H103.39H104.81H106.228H107.646H109.067H110.485H111.905H113.323H114.743H116.162H117.582H119V2.83841V1.41818V0H117.582ZM117.582 11.3003H116.162H114.743H113.323H111.905H110.485H109.067H107.646V12.7185V14.1387V15.5569V16.9772V18.3953V19.8156V21.2337V22.654V24.0721V25.4903V26.9106V28.3287V29.749V31.1671V32.5874V34.0056V35.4258V36.844H109.067H110.485H111.905V35.4258V34.0056V32.5874V31.1671V29.749V28.3287V26.9106V25.4903V24.0721V22.654V21.2337V19.8156V18.3953V16.9772V15.5569H113.323H114.743H116.162H117.582H119V14.1387V12.7185V11.3003H117.582ZM92.0382 11.3003H93.4564H94.8766V12.7185V14.1387V15.5569V16.9772V18.3953V19.8156V21.2337V22.654V24.0721V25.4903V26.9106V28.3287V29.749V31.1671V32.5874V34.0056V35.4258V36.844H93.4564H92.0382H90.618V35.4258V34.0056V32.5874V31.1671V29.749V28.3287V26.9106V25.4903V24.0721V22.654V21.2337V19.8156V18.3953V16.9772V15.5569H89.1998H87.7796H86.3614H84.9412H83.523V14.1387V12.7185V11.3003H84.9412H86.3614H87.7796H89.1998H90.618H92.0382ZM117.582 5.62367H116.162H114.743H113.323H111.905H110.485H109.067H107.646H106.228H104.81H103.39H101.972V7.04389V8.46207V9.88025V11.3005V12.7187V14.1389V15.5571V16.9773V18.3955V19.8157V21.2339V22.6541V24.0723V25.4905V26.9107V28.3289V29.7491V31.1673V32.5875V34.0057V35.4259V36.8441H103.39H104.81H106.228V35.4259V34.0057V32.5875V31.1673V29.7491V28.3289V26.9107V25.4905V24.0723V22.6541V21.2339V19.8157V18.3955V16.9773V15.5571V14.1389V12.7187V11.3005V9.88025H107.646H109.067H110.485H111.905H113.323H114.743H116.162H117.582H119V8.72645V8.46207V7.30622V7.04389V5.62367H117.582ZM97.713 5.62367H99.1332H100.551V7.04389V7.30622V8.46207V8.72645V9.88025V11.3005V12.7187V14.1389V15.5571V16.9773V18.3955V19.8157V21.2339V22.6541V24.0723V25.4905V26.9107V28.3289V29.7491V31.1673V32.5875V34.0057V35.4259V36.8441H99.1332H97.713H96.2948V35.4259V34.0057V32.5875V31.1673V29.7491V28.3289V26.9107V25.4905V24.0723V22.6541V21.2339V19.8157V18.3955V16.9773V15.5571V14.1389V12.7187V11.3005V9.88025H94.8766H93.4564H92.0382H90.618H89.1998H87.7796H86.3614H84.9412H83.523V8.46207V7.04389V5.62367H84.9412H86.3614H87.7796H89.1998H90.618H92.0382H93.4564H94.8766H96.2948H97.713ZM72.2575 8.72645V9.8782H72.2616V11.2964V12.7166V14.1348V15.555V16.9732V18.3934V19.8116V21.2318V22.65V24.0682V25.4884V26.9066V28.3268V29.745V31.1652V32.5834V34.0036V35.4218V36.84H70.8414H69.4232H68.003V35.4218V34.0036V32.5834V31.1652V29.745V28.3268V26.9066V25.4884V24.0682V22.65V21.2318V19.8116V18.3934V16.9732V15.555V14.1348V12.7166V11.2964V9.88026H68.0009H66.5807H65.1625H63.7443H62.3241H60.9059H59.4857H58.0675H56.6473H55.2291H53.8109H52.3907V11.2964V12.7166V14.1348V15.555V16.9732V18.3934V19.8116V21.2318V22.65V24.0682V25.4884V26.9066V28.3268V29.745V31.1652V32.5834V34.0036V35.4218V36.84H50.9725H49.5523H48.1341V35.4218V34.0036V32.5834V31.1652V29.745V28.3268V26.9066V25.4884V24.0682V22.65V21.2318V19.8116V18.3934V16.9732V15.555V14.1348V12.7166V11.2964V9.8782V8.46207V7.04389V5.62367H49.5523H50.9725H52.3907H53.8109H55.2291H56.6473H58.0675H59.4857H60.9059H62.3241H63.7443H65.1625H66.5807H68.0009H69.4191H70.8393H72.2575V7.04389V7.30622V8.46207V8.72645ZM65.1625 18.3933H64.9063H63.7443H62.3241H60.9059H59.4857H58.0675H56.6473H55.2291H53.8109V19.8115V21.2317V22.6479H53.8088V24.066H55.227H56.6473H58.0654V22.6499H58.0675H59.4857H60.9059H62.3241V24.0681V24.355V25.4863V26.9065V28.3247V29.7449V31.1631V32.5833V34.0015V35.4197H63.7443H65.1625H66.5807V34.0015V32.5833V31.1631V29.7449V28.3247V26.9065V25.4863V24.5517V24.0681V22.6499H66.5827V21.2317V19.8115V18.3933H65.1625ZM62.324 35.4218H63.7443H65.1624H66.5806V36.8399H65.1624H63.7443H62.324V35.4218ZM55.227 24.068H53.8088V25.4862V26.9064V28.3246V29.7449V31.163V32.5833V34.0014V35.4196H55.227H56.6473H58.0654V34.0014V32.5833V31.163V29.7449V28.3246V26.9064V25.4862V24.068H56.6473H55.227ZM53.8088 35.4218H55.227H56.6473H58.0654V36.8399H56.6473H55.227H53.8088V35.4218ZM28.3677 0H29.7879H31.2061V1.41818V2.83841V4.20535V4.25659V5.62353V7.04376V8.46194V9.88012V11.3003V12.7185V14.1388V15.5569V16.9772V18.3953V19.8156V21.2337V22.654V24.0722V25.4903V26.9106V28.3287V29.749V31.1672H29.7879H28.3677H26.9495V31.161H25.5436H24.1234H22.7052H21.285H19.8668H18.4466H17.0284H15.6102H14.19H12.7718H11.3516H9.9334H8.51318H7.095H5.67477H4.25659H2.83841H1.41818H0V29.7428V28.3246V26.9044H1.41818H2.83841H4.25659H5.67477H7.095H8.51318H9.9334H11.3516H12.7718H14.19H15.6102H17.0284H18.4466H19.8668H21.285H22.7052H24.1234H25.5436H26.9495V25.4903V24.0722V22.654V21.2337V19.8156V18.3953V16.9772V15.5569V14.1388V12.7185V11.3003V9.88012V8.46194V7.04376V5.62353V4.25659V4.20535V2.83841V1.41818V0H28.3677ZM35.4729 0H34.0547H32.6345V1.41818V2.83841V4.20535V4.25659V5.62353V7.04376V8.46194V9.88012V11.3003V12.7185V14.1388V15.5569V16.9772V18.3953V19.8156V21.2338V22.654V24.0722V25.4903V26.9106V28.3287V29.749V31.1672V32.5751H31.2184H29.8002H28.38H26.9618H25.5436H24.1234H22.7052H21.285H19.8668H18.4466H17.0284H15.6102H14.19H12.7718H11.3516H9.9334H8.51318H7.095H5.67477H4.25659H2.83841H1.41818H0V33.9953V35.4135V36.8337H1.41818H2.83841H4.25659H5.67477H7.095H8.51318H9.9334H11.3516H12.7718H14.19H15.6102H17.0284H18.4466H19.8668H21.285H22.7052H24.1234H25.5436H26.9618H28.38H29.8002H31.2184H32.6345V36.844H34.0547H35.4729H36.8932V35.4258V34.0056V32.5874V31.1672V29.749V28.3287V26.9106V25.4903V24.0722V22.654V21.2338V19.8156V18.3953V16.9772V15.5569V14.1388V12.7185V11.3003V9.88012V8.46194V7.04376V5.62353V4.25659V4.20535V2.83841V1.41818V0H35.4729ZM98.7213 44.9145H103.668C103.961 44.9156 104.242 45.0327 104.448 45.2401C104.655 45.4476 104.771 45.7284 104.771 46.0212V49.04C104.771 49.3335 104.654 49.615 104.447 49.8225C104.239 50.0301 103.958 50.1466 103.664 50.1466C103.958 50.1466 104.239 50.2632 104.447 50.4708C104.654 50.6783 104.771 50.9598 104.771 51.2533V55.0058H102.757V50.9705H100.74V55.0017H98.7213V46.0171V44.9145ZM102.757 48.9519V48.1321V46.9332H100.74V48.9519H102.757ZM89.542 44.9145H85.6994C85.4059 44.9145 85.1244 45.0311 84.9169 45.2387C84.7094 45.4462 84.5928 45.7277 84.5928 46.0212V53.8991C84.5928 54.1926 84.7094 54.4741 84.9169 54.6816C85.1244 54.8892 85.4059 55.0058 85.6994 55.0058H89.542C89.8355 55.0058 90.117 54.8892 90.3246 54.6816C90.5321 54.4741 90.6487 54.1926 90.6487 53.8991V46.0212C90.6487 45.7277 90.5321 45.4462 90.3246 45.2387C90.117 45.0311 89.8355 44.9145 89.542 44.9145ZM88.6301 48.9519V52.9892H86.6114V46.9332H88.6301V48.9519ZM62.4839 46.0212V47.5562L60.4653 47.548V46.9332H58.5655V48.9519H61.3772C61.6707 48.9519 61.9522 49.0685 62.1598 49.276C62.3673 49.4835 62.4839 49.765 62.4839 50.0585V53.8704C62.4839 54.1639 62.3673 54.4454 62.1598 54.6529C61.9522 54.8605 61.6707 54.9771 61.3772 54.9771H57.5695C57.276 54.9771 56.9945 54.8605 56.7869 54.6529C56.5794 54.4454 56.4628 54.1639 56.4628 53.8704V52.3415H58.4814V52.9564H60.4653V50.9705H57.6535C57.36 50.9705 57.0785 50.8539 56.871 50.6464C56.6634 50.4388 56.5468 50.1573 56.5468 49.8638V46.0212C56.5468 45.7277 56.6634 45.4462 56.871 45.2387C57.0785 45.0311 57.36 44.9145 57.6535 44.9145H61.3772C61.6707 44.9145 61.9522 45.0311 62.1598 45.2387C62.3673 45.4462 62.4839 45.7277 62.4839 46.0212ZM75.4135 44.9146H70.495V55.0058H72.5136V50.9705H75.4217C75.7152 50.9705 75.9967 50.8539 76.2043 50.6464C76.4118 50.4389 76.5284 50.1574 76.5284 49.8639V46.0213C76.5284 45.8752 76.4995 45.7307 76.4434 45.5958C76.3872 45.461 76.305 45.3387 76.2014 45.2358C76.0977 45.1329 75.9748 45.0516 75.8395 44.9965C75.7043 44.9413 75.5595 44.9135 75.4135 44.9146ZM72.5054 48.9519V46.9332H74.5015V48.9519H72.5054ZM42.4265 44.9145H47.3881C47.6798 44.9172 47.9587 45.035 48.164 45.2423C48.3693 45.4495 48.4845 45.7295 48.4845 46.0212V55.0058H46.4659V46.9332H44.4452V55.0058H42.4265V44.9145ZM33.1961 44.9146H29.3535C29.0599 44.9146 28.7785 45.0312 28.5709 45.2387C28.3634 45.4462 28.2468 45.7277 28.2468 46.0212V46.9332V55.0058H30.2654V50.9705H32.2882V55.0058H34.3068V46.0212C34.3068 45.8756 34.2781 45.7313 34.2222 45.5968C34.1663 45.4622 34.0844 45.3401 33.9812 45.2372C33.878 45.1344 33.7556 45.053 33.6208 44.9976C33.4861 44.9422 33.3417 44.914 33.1961 44.9146ZM32.2841 48.9519H30.2613V46.9332H32.2841V48.9519ZM14.1367 44.9145H19.088C19.3815 44.9145 19.663 45.0311 19.8706 45.2387C20.0781 45.4462 20.1947 45.7277 20.1947 46.0212V49.04C20.1944 49.2831 20.1138 49.5192 19.9656 49.7119C19.8174 49.9046 19.6098 50.043 19.3749 50.1057C19.5912 50.1311 19.7916 50.2316 19.9414 50.3896C20.0912 50.5477 20.1808 50.7532 20.1947 50.9705V55.0058H18.1761V50.9705H16.1594V55.0058H14.1367V44.9145ZM18.1761 48.9519V48.1321V46.9332H16.1594V48.9519H18.1761ZM116.885 44.9165H114.866H112.848V46.9331H114.866V48.9518V50.9704V52.9891V55.0057H116.885V52.9891V50.9704V48.9518V46.9331H118.904V44.9165H116.885ZM2.05348 44.9165H4.07213H6.09078V46.9331H4.07213V48.9518V50.9704V52.9891V55.0057H2.05348V52.9891V50.9704V48.9518V46.9331H0.0348252V44.9165H2.05348Z" fill="#630208"/>
</svg>
