<svg width="91" height="62" viewBox="0 0 91 62" fill="none" xmlns="http://www.w3.org/2000/svg">
<g filter="url(#filter0_f_332_629)">
<ellipse cx="79" cy="21.5" rx="13.5" ry="4" transform="rotate(-90 79 21.5)" fill="#4D4D4D"/>
</g>
<g filter="url(#filter1_f_332_629)">
<ellipse cx="21.5" cy="45.5" rx="8.5" ry="13.5" transform="rotate(-90 21.5 45.5)" fill="#4D4D4D"/>
</g>
<rect x="8" y="14" width="73" height="36" fill="#FFA645"/>
<path fill-rule="evenodd" clip-rule="evenodd" d="M23.9669 15.7162H23.1427H22.3173V16.5403V17.3657V18.1601V18.1899V18.9843V19.8096V20.6338V21.4579V22.2833V23.1075V23.9328V24.757V25.5823V26.4065V27.2318V28.056H21.4932H20.6678H19.8437H19.0195H18.1941H17.37H16.5446H15.7205H14.8951H14.071H13.2456H12.4214H11.5973H10.7719H9.94775V28.8814V29.7055V30.5297H10.7719H11.5973H12.4214H13.2456H14.071H14.8951H15.7205H16.5446H17.37H18.1941H19.0195H19.8437H20.6678H21.4932H22.3173H23.1427H23.9669H24.7922V29.7055V28.8814V28.056V27.2318V26.4065V25.5823V24.757V23.9328V23.1075V22.2833V21.4579V20.6338V19.8096V18.9843V18.1899V18.1601V17.3657V16.5403V15.7162H23.9669ZM54.4137 15.7162H53.5883H52.7641H51.9388H51.1146H50.2893H49.4651H48.6398H47.8156H46.9914H46.1661H45.3419H44.5166H43.6924H42.867H42.0429H41.2187H40.3934H39.5692H38.7438H37.9197H37.0943H36.2702H35.4448H34.6206V16.5403V17.3657V18.1899H34.6218V18.9831V19.8072V20.6314V21.4567V22.2809V23.1063V23.9304V24.7558V25.5799V26.4053V27.2295V28.0548V28.879V29.7031V30.5285V31.3527V32.178V33.0022V33.8275V34.6517V35.477V36.3012V37.1254H35.446H36.2702H37.0955V36.3012V35.477V34.6517V33.8275V33.0022V32.178V31.3527V30.5285V29.7031V28.879V28.0548V27.2295V26.4053V25.5799V24.7558V23.9304V23.1063V22.2809V21.4567V20.6314V19.8072V18.9831V18.1899H37.9197H38.7438H39.5692H40.3934H41.2187H42.0429H42.867H43.6924H44.5166H45.3419H46.1661H46.9914H47.8156H48.6398H49.4651H50.2893H51.1146H51.9388H52.7641V18.9843V19.8096V20.6338V21.4579V22.2833V23.1075V23.9328V24.757V25.5823V26.4065V27.2318V28.056V28.8814V29.7055V30.5297V31.355V32.1792V33.0045V33.8287V34.6541V35.4782V36.3036V37.1277H53.5883H54.4137H55.2378V36.3036V35.4782V34.6541V33.8287V33.0045V32.1792V31.355V30.5297V29.7055V28.8814V28.056V27.2318V26.4065V25.5823V24.757V23.9328V23.1075V22.2833V21.4579V20.6338V19.8096V18.9843V18.1899V18.1601V17.3657V16.5403V15.7162H54.4137ZM78.2792 15.7162H77.4538H76.6296H75.8043H74.9801H74.1548H73.3306H72.5053H71.6811H70.8569H70.0316H69.2074H68.3821H67.5579H66.7325H65.9084H65.0842H64.2589H63.4347H62.6093H61.7852H60.9598H60.1357H59.3103H58.4862V16.5403V17.3657V18.1899H59.3103H60.1357H60.9598H61.7852H62.6093H63.4347H64.2589H65.0842H65.9084H66.7325H67.5579H68.3821H69.2074H70.0316H70.8569H71.6811H72.5053H73.3306H74.1548H74.9801H75.8043H76.6296H77.4538H78.2792H79.1033V17.3657V16.5403V15.7162H78.2792ZM78.2791 22.2832H77.4537H76.6295H75.8042H74.98H74.1547H73.3305H72.5052V23.1074V23.9328V24.7569V25.5823V26.4064V27.2318V28.0559V28.8813V29.7055V30.5296V31.355V32.1791V33.0045V33.8287V34.654V35.4782V36.3035V37.1277H73.3305H74.1547H74.98V36.3035V35.4782V34.654V33.8287V33.0045V32.1791V31.355V30.5296V29.7055V28.8813V28.0559V27.2318V26.4064V25.5823V24.7569H75.8042H76.6295H77.4537H78.2791H79.1032V23.9328V23.1074V22.2832H78.2791ZM63.4347 22.2832H64.2589H65.0842V23.1074V23.9328V24.7569V25.5823V26.4064V27.2318V28.0559V28.8813V29.7055V30.5296V31.355V32.1791V33.0045V33.8287V34.654V35.4782V36.3035V37.1277H64.2589H63.4347H62.6093V36.3035V35.4782V34.654V33.8287V33.0045V32.1791V31.355V30.5296V29.7055V28.8813V28.0559V27.2318V26.4064V25.5823V24.7569H61.7852H60.9598H60.1357H59.3103H58.4862V23.9328V23.1074V22.2832H59.3103H60.1357H60.9598H61.7852H62.6093H63.4347ZM78.2793 18.9843H77.4539H76.6298H75.8044H74.9803H74.1549H73.3307H72.5054H71.6812H70.8571H70.0317H69.2076V19.8097V20.6338V21.458V22.2834V23.1075V23.9329V24.757V25.5824V26.4066V27.2319V28.0561V28.8814V29.7056V30.5298V31.3551V32.1793V33.0046V33.8288V34.6541V35.4783V36.3037V37.1278H70.0317H70.8571H71.6812V36.3037V35.4783V34.6541V33.8288V33.0046V32.1793V31.3551V30.5298V29.7056V28.8814V28.0561V27.2319V26.4066V25.5824V24.757V23.9329V23.1075V22.2834V21.458H72.5054H73.3307H74.1549H74.9803H75.8044H76.6298H77.4539H78.2793H79.1035V20.7875V20.6338V19.9621V19.8097V18.9843H78.2793ZM66.7325 18.9843H67.5579H68.3821V19.8097V19.9621V20.6338V20.7875V21.458V22.2834V23.1075V23.9329V24.757V25.5824V26.4066V27.2319V28.0561V28.8814V29.7056V30.5298V31.3551V32.1793V33.0046V33.8288V34.6541V35.4783V36.3037V37.1278H67.5579H66.7325H65.9084V36.3037V35.4783V34.6541V33.8288V33.0046V32.1793V31.3551V30.5298V29.7056V28.8814V28.0561V27.2319V26.4066V25.5824V24.757V23.9329V23.1075V22.2834V21.458H65.0842H64.2589H63.4347H62.6093H61.7852H60.9598H60.1357H59.3103H58.4862V20.6338V19.8097V18.9843H59.3103H60.1357H60.9598H61.7852H62.6093H63.4347H64.2589H65.0842H65.9084H66.7325ZM51.9396 20.7875V21.4568H51.942V22.281V23.1063V23.9305V24.7559V25.58V26.4054V27.2295V28.0549V28.8791V29.7032V30.5286V31.3527V32.1781V33.0022V33.8276V34.6518V35.4771V36.3013V37.1254H51.1167H50.2925H49.4672V36.3013V35.4771V34.6518V33.8276V33.0022V32.1781V31.3527V30.5286V29.7032V28.8791V28.0549V27.2295V26.4054V25.58V24.7559V23.9305V23.1063V22.281V21.458H49.466H48.6406H47.8165H46.9923H46.1669H45.3428H44.5174H43.6933H42.8679H42.0437H41.2196H40.3942V22.281V23.1063V23.9305V24.7559V25.58V26.4054V27.2295V28.0549V28.8791V29.7032V30.5286V31.3527V32.1781V33.0022V33.8276V34.6518V35.4771V36.3013V37.1254H39.5701H38.7447H37.9205V36.3013V35.4771V34.6518V33.8276V33.0022V32.1781V31.3527V30.5286V29.7032V28.8791V28.0549V27.2295V26.4054V25.58V24.7559V23.9305V23.1063V22.281V21.4568V20.6338V19.8097V18.9843H38.7447H39.5701H40.3942H41.2196H42.0437H42.8679H43.6933H44.5174H45.3428H46.1669H46.9923H47.8165H48.6406H49.466H50.2901H51.1155H51.9396V19.8097V19.9621V20.6338V20.7875ZM47.8162 26.4053H47.6674H46.9921H46.1667H45.3426H44.5172H43.693H42.8677H42.0435H41.2194V27.2294V28.0548V28.8777H41.2182V29.7019H42.0423H42.8677H43.6918V28.8789H43.693H44.5172H45.3426H46.1667V29.7031V29.8698V30.5273V31.3526V32.1768V33.0021V33.8263V34.6516V35.4758V36.3H46.9921H47.8162H48.6404V35.4758V34.6516V33.8263V33.0021V32.1768V31.3526V30.5273V29.9842V29.7031V28.8789H48.6416V28.0548V27.2294V26.4053H47.8162ZM46.1666 36.3012H46.9919H47.8161H48.6403V37.1254H47.8161H46.9919H46.1666V36.3012ZM42.0423 29.7032H41.2182V30.5273V31.3527V32.1768V33.0022V33.8264V34.6517V35.4759V36.3H42.0423H42.8677H43.6918V35.4759V34.6517V33.8264V33.0022V32.1768V31.3527V30.5273V29.7032H42.8677H42.0423ZM41.2182 36.3012H42.0423H42.8677H43.6918V37.1254H42.8677H42.0423H41.2182V36.3012ZM26.4334 15.7162H27.2587H28.0829V16.5403V17.3657V18.1601V18.1899V18.9843V19.8096V20.6338V21.4579V22.2833V23.1075V23.9328V24.757V25.5823V26.4065V27.2318V28.056V28.8814V29.7055V30.5297V31.355V32.1792V33.0046V33.8287H27.2587H26.4334H25.6092V33.8251H24.7922H23.9669H23.1427H22.3173H21.4932H20.6678H19.8437H19.0195H18.1941H17.37H16.5446H15.7205H14.8951H14.071H13.2456H12.4214H11.5973H10.7719H9.94775V33.001V32.1768V31.3515H10.7719H11.5973H12.4214H13.2456H14.071H14.8951H15.7205H16.5446H17.37H18.1941H19.0195H19.8437H20.6678H21.4932H22.3173H23.1427H23.9669H24.7922H25.6092V30.5297V29.7055V28.8814V28.056V27.2318V26.4065V25.5823V24.757V23.9328V23.1075V22.2833V21.4579V20.6338V19.8096V18.9843V18.1899V18.1601V17.3657V16.5403V15.7162H26.4334ZM30.5625 15.7162H29.7384H28.913V16.5403V17.3657V18.1601V18.1899V18.9843V19.8096V20.6338V21.4579V22.2833V23.1075V23.9328V24.757V25.5823V26.4065V27.2318V28.056V28.8814V29.7055V30.5297V31.355V32.1792V33.0045V33.8287V34.6469H28.0901H27.2659H26.4405H25.6164H24.7922H23.9669H23.1427H22.3173H21.4932H20.6678H19.8437H19.0195H18.1941H17.37H16.5446H15.7205H14.8951H14.071H13.2456H12.4214H11.5973H10.7719H9.94775V35.4723V36.2964V37.1218H10.7719H11.5973H12.4214H13.2456H14.071H14.8951H15.7205H16.5446H17.37H18.1941H19.0195H19.8437H20.6678H21.4932H22.3173H23.1427H23.9669H24.7922H25.6164H26.4405H27.2659H28.0901H28.913V37.1277H29.7384H30.5625H31.3879V36.3036V35.4782V34.6541V33.8287V33.0045V32.1792V31.355V30.5297V29.7055V28.8814V28.056V27.2318V26.4065V25.5823V24.757V23.9328V23.1075V22.2833V21.4579V20.6338V19.8096V18.9843V18.1899V18.1601V17.3657V16.5403V15.7162H30.5625ZM67.3193 41.8179H70.1943C70.3645 41.8185 70.5275 41.8865 70.6475 42.0071C70.7676 42.1276 70.8351 42.2908 70.8351 42.461V44.2153C70.8351 44.3859 70.7673 44.5495 70.6467 44.6701C70.5261 44.7907 70.3625 44.8585 70.1919 44.8585C70.3625 44.8585 70.5261 44.9262 70.6467 45.0468C70.7673 45.1674 70.8351 45.331 70.8351 45.5016V47.6823H69.6643V45.3372H68.4924V47.6799H67.3193V42.4586V41.8179ZM69.6643 44.1641V43.6877V42.991H68.4924V44.1641H69.6643ZM61.9849 41.8179H59.7518C59.5813 41.8179 59.4177 41.8856 59.2971 42.0062C59.1765 42.1269 59.1087 42.2904 59.1087 42.461V47.0392C59.1087 47.2097 59.1765 47.3733 59.2971 47.4939C59.4177 47.6145 59.5813 47.6823 59.7518 47.6823H61.9849C62.1555 47.6823 62.3191 47.6145 62.4397 47.4939C62.5603 47.3733 62.6281 47.2097 62.6281 47.0392V42.461C62.6281 42.2904 62.5603 42.1269 62.4397 42.0062C62.3191 41.8856 62.1555 41.8179 61.9849 41.8179ZM61.455 44.1641V46.5104H60.2818V42.991H61.455V44.1641ZM46.2594 42.461V43.3531L45.0862 43.3483V42.991H43.9822V44.1641H45.6162C45.7868 44.1641 45.9504 44.2319 46.071 44.3525C46.1916 44.4731 46.2594 44.6367 46.2594 44.8072V47.0225C46.2594 47.1931 46.1916 47.3566 46.071 47.4772C45.9504 47.5979 45.7868 47.6656 45.6162 47.6656H43.4034C43.2328 47.6656 43.0692 47.5979 42.9486 47.4772C42.828 47.3566 42.7603 47.1931 42.7603 47.0225V46.134H43.9334V46.4913H45.0862V45.3372H43.4522C43.2816 45.3372 43.1181 45.2695 42.9974 45.1489C42.8768 45.0283 42.8091 44.8647 42.8091 44.6941V42.461C42.8091 42.2904 42.8768 42.1269 42.9974 42.0062C43.1181 41.8856 43.2816 41.8179 43.4522 41.8179H45.6162C45.7868 41.8179 45.9504 41.8856 46.071 42.0062C46.1916 42.1269 46.2594 42.2904 46.2594 42.461ZM53.7743 41.8179H50.9159V47.6823H52.089V45.3373H53.779C53.9496 45.3373 54.1132 45.2695 54.2338 45.1489C54.3544 45.0283 54.4221 44.8647 54.4221 44.6941V42.461C54.4222 42.3762 54.4054 42.2921 54.3727 42.2138C54.3401 42.1355 54.2923 42.0643 54.2321 42.0046C54.1719 41.9448 54.1004 41.8975 54.0218 41.8655C53.9433 41.8334 53.8591 41.8173 53.7743 41.8179ZM52.0842 44.1641V42.991H53.2443V44.1641H52.0842ZM34.6035 41.8179H37.4869C37.6564 41.8194 37.8184 41.8879 37.9378 42.0083C38.0571 42.1288 38.124 42.2915 38.124 42.461V47.6823H36.9509V42.991H35.7766V47.6823H34.6035V41.8179ZM29.24 41.8179H27.0069C26.8363 41.8179 26.6727 41.8856 26.5521 42.0062C26.4315 42.1269 26.3637 42.2904 26.3637 42.461V42.991V47.6823H27.5369V45.3372H28.7124V47.6823H29.8855V42.461C29.8855 42.3764 29.8688 42.2925 29.8363 42.2143C29.8038 42.1362 29.7562 42.0652 29.6963 42.0054C29.6363 41.9457 29.5651 41.8983 29.4868 41.8661C29.4085 41.834 29.3246 41.8176 29.24 41.8179ZM28.71 44.1641H27.5345V42.991H28.71V44.1641ZM18.1635 41.8179H21.0409C21.2115 41.8179 21.375 41.8856 21.4957 42.0062C21.6163 42.1269 21.684 42.2904 21.684 42.461V44.2153C21.6838 44.3566 21.637 44.4938 21.5509 44.6058C21.4648 44.7178 21.3441 44.7982 21.2076 44.8346C21.3333 44.8494 21.4498 44.9078 21.5368 44.9997C21.6239 45.0915 21.676 45.211 21.684 45.3372V47.6823H20.5109V45.3372H19.339V47.6823H18.1635V41.8179ZM20.5109 44.1641V43.6877V42.991H19.339V44.1641H20.5109ZM77.8744 41.819H76.7012H75.5281V42.9909H76.7012V44.1641V45.3372V46.5103V47.6822H77.8744V46.5103V45.3372V44.1641V42.9909H79.0475V41.819H77.8744ZM11.1409 41.819H12.314H13.4871V42.9909H12.314V44.1641V45.3372V46.5103V47.6822H11.1409V46.5103V45.3372V44.1641V42.9909H9.96778V41.819H11.1409Z" fill="#4D4D4D"/>
<defs>
<filter id="filter0_f_332_629" x="67" y="0" width="24" height="43" filterUnits="userSpaceOnUse" color-interpolation-filters="sRGB">
<feFlood flood-opacity="0" result="BackgroundImageFix"/>
<feBlend mode="normal" in="SourceGraphic" in2="BackgroundImageFix" result="shape"/>
<feGaussianBlur stdDeviation="4" result="effect1_foregroundBlur_332_629"/>
</filter>
<filter id="filter1_f_332_629" x="0" y="29" width="43" height="33" filterUnits="userSpaceOnUse" color-interpolation-filters="sRGB">
<feFlood flood-opacity="0" result="BackgroundImageFix"/>
<feBlend mode="normal" in="SourceGraphic" in2="BackgroundImageFix" result="shape"/>
<feGaussianBlur stdDeviation="4" result="effect1_foregroundBlur_332_629"/>
</filter>
</defs>
</svg>
