<svg width="112" height="143" viewBox="0 0 112 143" fill="none" xmlns="http://www.w3.org/2000/svg">
<path d="M6.03 71.7V78H4.689V73.626L3.825 78H2.556L1.683 73.68V78H0.342V71.7H2.403L3.222 76.2L4.05 71.7H6.03ZM9.72907 78L9.45907 76.686H8.04607L7.78507 78H6.39907L7.77607 71.7H9.79207L11.1511 78H9.72907ZM8.75707 73.167L8.30707 75.399H9.20707L8.75707 73.167ZM15.9283 78H14.3263L13.5883 75.849L12.8953 78H11.3473L12.5533 74.751L11.4373 71.7H13.0123L13.6423 73.734L14.3083 71.7H15.8473L14.6593 74.733L15.9283 78ZM17.7971 77.28C17.7971 77.538 17.7251 77.739 17.5811 77.883C17.4431 78.027 17.2451 78.099 16.9871 78.099C16.7471 78.099 16.5551 78.027 16.4111 77.883C16.2671 77.733 16.1951 77.532 16.1951 77.28C16.1951 77.022 16.2611 76.824 16.3931 76.686C16.5311 76.542 16.7291 76.47 16.9871 76.47C17.2331 76.47 17.4281 76.545 17.5721 76.695C17.7221 76.839 17.7971 77.034 17.7971 77.28ZM21.2749 76.713V75.606H20.5729V74.4H22.4899V77.694C22.0159 77.964 21.4699 78.099 20.8519 78.099C19.9759 78.099 19.3249 77.841 18.8989 77.325C18.4729 76.809 18.2599 76.011 18.2599 74.931C18.2599 73.767 18.4699 72.921 18.8899 72.393C19.3099 71.865 19.9819 71.601 20.9059 71.601C21.4099 71.601 21.8389 71.673 22.1929 71.817V73.113C21.9349 72.993 21.5869 72.933 21.1489 72.933C20.6569 72.933 20.2939 73.074 20.0599 73.356C19.8319 73.632 19.7179 74.136 19.7179 74.868C19.7179 75.552 19.8079 76.041 19.9879 76.335C20.1739 76.629 20.4649 76.776 20.8609 76.776C21.0169 76.776 21.1549 76.755 21.2749 76.713ZM23.1233 78V71.7H25.0312C26.3453 71.7 27.0023 72.363 27.0023 73.689C27.0023 74.553 26.7443 75.153 26.2283 75.489L27.2453 78H25.7243L24.8873 75.795H24.5543V78H23.1233ZM24.5093 72.987V74.598H24.9053C25.1333 74.598 25.2983 74.535 25.4003 74.409C25.5023 74.283 25.5533 74.073 25.5533 73.779C25.5533 73.509 25.5023 73.311 25.4003 73.185C25.2983 73.053 25.1333 72.987 24.9053 72.987H24.5093ZM29.1723 76.38C29.3223 76.662 29.5473 76.803 29.8473 76.803C30.1473 76.803 30.3633 76.665 30.4953 76.389C30.6333 76.107 30.7023 75.594 30.7023 74.85C30.7023 74.106 30.6333 73.596 30.4953 73.32C30.3573 73.038 30.1323 72.897 29.8203 72.897C29.5203 72.897 29.3013 73.041 29.1633 73.329C29.0253 73.611 28.9563 74.118 28.9563 74.85C28.9563 75.582 29.0283 76.092 29.1723 76.38ZM29.8473 78.099C29.0433 78.099 28.4433 77.844 28.0473 77.334C27.6513 76.824 27.4533 75.996 27.4533 74.85C27.4533 73.704 27.6513 72.876 28.0473 72.366C28.4433 71.856 29.0343 71.601 29.8203 71.601C30.6423 71.601 31.2453 71.859 31.6293 72.375C32.0133 72.885 32.2053 73.71 32.2053 74.85C32.2053 76.02 32.0073 76.854 31.6113 77.352C31.2213 77.85 30.6333 78.099 29.8473 78.099ZM32.7019 77.793V76.515C33.0379 76.725 33.4489 76.83 33.9349 76.83C34.4149 76.83 34.6549 76.632 34.6549 76.236C34.6549 76.044 34.6099 75.891 34.5199 75.777C34.4299 75.663 34.2589 75.531 34.0069 75.381L33.8359 75.291C33.4099 75.051 33.1039 74.781 32.9179 74.481C32.7319 74.175 32.6389 73.812 32.6389 73.392C32.6389 72.822 32.8039 72.381 33.1339 72.069C33.4699 71.757 33.9379 71.601 34.5379 71.601C35.0719 71.601 35.5339 71.682 35.9239 71.844V73.095C35.5759 72.951 35.1859 72.879 34.7539 72.879C34.3159 72.879 34.0969 73.053 34.0969 73.401C34.0969 73.557 34.1569 73.692 34.2769 73.806C34.3969 73.914 34.6369 74.07 34.9969 74.274L35.1679 74.364C35.8459 74.712 36.1849 75.309 36.1849 76.155C36.1849 76.773 36.0079 77.253 35.6539 77.595C35.2999 77.931 34.7989 78.099 34.1509 78.099C33.5449 78.099 33.0619 77.997 32.7019 77.793ZM36.5163 77.793V76.515C36.8523 76.725 37.2633 76.83 37.7493 76.83C38.2293 76.83 38.4693 76.632 38.4693 76.236C38.4693 76.044 38.4243 75.891 38.3343 75.777C38.2443 75.663 38.0733 75.531 37.8213 75.381L37.6503 75.291C37.2243 75.051 36.9183 74.781 36.7323 74.481C36.5463 74.175 36.4533 73.812 36.4533 73.392C36.4533 72.822 36.6183 72.381 36.9483 72.069C37.2843 71.757 37.7523 71.601 38.3523 71.601C38.8863 71.601 39.3483 71.682 39.7383 71.844V73.095C39.3903 72.951 39.0003 72.879 38.5683 72.879C38.1303 72.879 37.9113 73.053 37.9113 73.401C37.9113 73.557 37.9713 73.692 38.0913 73.806C38.2113 73.914 38.4513 74.07 38.8113 74.274L38.9823 74.364C39.6603 74.712 39.9993 75.309 39.9993 76.155C39.9993 76.773 39.8223 77.253 39.4683 77.595C39.1143 77.931 38.6133 78.099 37.9653 78.099C37.3593 78.099 36.8763 77.997 36.5163 77.793Z" fill="#4D4D4D"/>
<path d="M0.162 115.937V114.623C0.324 114.689 0.489 114.722 0.657 114.722C1.131 114.722 1.368 114.398 1.368 113.75V109.7H2.79V114.029C2.79 114.731 2.652 115.25 2.376 115.586C2.106 115.916 1.671 116.081 1.071 116.081C0.741 116.081 0.438 116.033 0.162 115.937ZM6.42438 116L6.15438 114.686H4.74138L4.48038 116H3.09438L4.47138 109.7H6.48738L7.84638 116H6.42438ZM5.45238 111.167L5.00238 113.399H5.90238L5.45238 111.167ZM10.1379 111.068V116H8.70687V111.068H7.43787V109.7H11.4069V111.068H10.1379Z" fill="#4D4D4D"/>
<path d="M72.799 111.068V116H71.368V111.068H70.099V109.7H74.068V111.068H72.799ZM74.508 116V109.7H76.416C77.73 109.7 78.387 110.363 78.387 111.689C78.387 112.553 78.129 113.153 77.613 113.489L78.63 116H77.109L76.272 113.795H75.939V116H74.508ZM75.894 110.987V112.598H76.29C76.518 112.598 76.683 112.535 76.785 112.409C76.887 112.283 76.938 112.073 76.938 111.779C76.938 111.509 76.887 111.311 76.785 111.185C76.683 111.053 76.518 110.987 76.29 110.987H75.894ZM82.1197 116L81.8497 114.686H80.4367L80.1757 116H78.7897L80.1667 109.7H82.1827L83.5417 116H82.1197ZM81.1477 111.167L80.6977 113.399H81.5977L81.1477 111.167ZM88.1783 109.7V116H86.7293L85.2533 112.175V116H83.9123V109.7H85.4333L86.8373 113.39V109.7H88.1783ZM88.7976 115.793V114.515C89.1336 114.725 89.5446 114.83 90.0306 114.83C90.5106 114.83 90.7506 114.632 90.7506 114.236C90.7506 114.044 90.7056 113.891 90.6156 113.777C90.5256 113.663 90.3546 113.531 90.1026 113.381L89.9316 113.291C89.5056 113.051 89.1996 112.781 89.0136 112.481C88.8276 112.175 88.7346 111.812 88.7346 111.392C88.7346 110.822 88.8996 110.381 89.2296 110.069C89.5656 109.757 90.0336 109.601 90.6336 109.601C91.1676 109.601 91.6296 109.682 92.0196 109.844V111.095C91.6716 110.951 91.2816 110.879 90.8496 110.879C90.4116 110.879 90.1926 111.053 90.1926 111.401C90.1926 111.557 90.2526 111.692 90.3726 111.806C90.4926 111.914 90.7326 112.07 91.0926 112.274L91.2636 112.364C91.9416 112.712 92.2806 113.309 92.2806 114.155C92.2806 114.773 92.1036 115.253 91.7496 115.595C91.3956 115.931 90.8946 116.099 90.2466 116.099C89.6406 116.099 89.1576 115.997 88.7976 115.793ZM94.1665 110.987V112.832H94.5535C94.7935 112.832 94.9645 112.76 95.0665 112.616C95.1745 112.466 95.2285 112.229 95.2285 111.905C95.2285 111.563 95.1775 111.326 95.0755 111.194C94.9735 111.056 94.7965 110.987 94.5445 110.987H94.1665ZM94.2115 114.119V116H92.7805V109.7H94.6525C95.3365 109.7 95.8435 109.871 96.1735 110.213C96.5035 110.555 96.6685 111.098 96.6685 111.842C96.6685 113.36 95.9635 114.119 94.5535 114.119H94.2115ZM98.7592 114.38C98.9092 114.662 99.1342 114.803 99.4342 114.803C99.7342 114.803 99.9502 114.665 100.082 114.389C100.22 114.107 100.289 113.594 100.289 112.85C100.289 112.106 100.22 111.596 100.082 111.32C99.9442 111.038 99.7192 110.897 99.4072 110.897C99.1072 110.897 98.8882 111.041 98.7502 111.329C98.6122 111.611 98.5432 112.118 98.5432 112.85C98.5432 113.582 98.6152 114.092 98.7592 114.38ZM99.4342 116.099C98.6302 116.099 98.0302 115.844 97.6342 115.334C97.2382 114.824 97.0402 113.996 97.0402 112.85C97.0402 111.704 97.2382 110.876 97.6342 110.366C98.0302 109.856 98.6212 109.601 99.4072 109.601C100.229 109.601 100.832 109.859 101.216 110.375C101.6 110.885 101.792 111.71 101.792 112.85C101.792 114.02 101.594 114.854 101.198 115.352C100.808 115.85 100.22 116.099 99.4342 116.099ZM102.352 116V109.7H104.26C105.574 109.7 106.231 110.363 106.231 111.689C106.231 112.553 105.973 113.153 105.457 113.489L106.474 116H104.953L104.116 113.795H103.783V116H102.352ZM103.738 110.987V112.598H104.134C104.362 112.598 104.527 112.535 104.629 112.409C104.731 112.283 104.782 112.073 104.782 111.779C104.782 111.509 104.731 111.311 104.629 111.185C104.527 111.053 104.362 110.987 104.134 110.987H103.738ZM109.195 111.068V116H107.764V111.068H106.495V109.7H110.464V111.068H109.195Z" fill="#4D4D4D"/>
<path d="M0.279 127.793V126.515C0.615 126.725 1.026 126.83 1.512 126.83C1.992 126.83 2.232 126.632 2.232 126.236C2.232 126.044 2.187 125.891 2.097 125.777C2.007 125.663 1.836 125.531 1.584 125.381L1.413 125.291C0.987 125.051 0.681 124.781 0.495 124.481C0.309 124.175 0.216 123.812 0.216 123.392C0.216 122.822 0.381 122.381 0.711 122.069C1.047 121.757 1.515 121.601 2.115 121.601C2.649 121.601 3.111 121.682 3.501 121.844V123.095C3.153 122.951 2.763 122.879 2.331 122.879C1.893 122.879 1.674 123.053 1.674 123.401C1.674 123.557 1.734 123.692 1.854 123.806C1.974 123.914 2.214 124.07 2.574 124.274L2.745 124.364C3.423 124.712 3.762 125.309 3.762 126.155C3.762 126.773 3.585 127.253 3.231 127.595C2.877 127.931 2.376 128.099 1.728 128.099C1.122 128.099 0.639 127.997 0.279 127.793ZM7.62792 126.704V128H4.26192V121.7H7.62792V122.996H5.69292V124.193H7.32192V125.39H5.69292V126.704H7.62792ZM8.17305 128V121.7H10.0811C11.3951 121.7 12.0521 122.363 12.0521 123.689C12.0521 124.553 11.7941 125.153 11.2781 125.489L12.2951 128H10.7741L9.93705 125.795H9.60405V128H8.17305ZM9.55905 122.987V124.598H9.95505C10.1831 124.598 10.3481 124.535 10.4501 124.409C10.5521 124.283 10.6031 124.073 10.6031 123.779C10.6031 123.509 10.5521 123.311 10.4501 123.185C10.3481 123.053 10.1831 122.987 9.95505 122.987H9.55905ZM16.8426 121.7L15.4926 128H13.5936L12.2436 121.7H13.7826L14.5836 126.029L15.3936 121.7H16.8426ZM18.6304 121.7V128H17.1994V121.7H18.6304ZM22.9536 126.497V127.847C22.6536 128.015 22.2336 128.099 21.6936 128.099C20.8296 128.099 20.1966 127.847 19.7946 127.343C19.3926 126.833 19.1916 126.029 19.1916 124.931C19.1916 123.761 19.3956 122.915 19.8036 122.393C20.2116 121.865 20.8716 121.601 21.7836 121.601C22.2456 121.601 22.6326 121.67 22.9446 121.808V123.158C22.6446 123.032 22.3356 122.969 22.0176 122.969C21.5676 122.969 21.2346 123.107 21.0186 123.383C20.8026 123.653 20.6946 124.142 20.6946 124.85C20.6946 125.54 20.7966 126.026 21.0006 126.308C21.2046 126.59 21.5376 126.731 21.9996 126.731C22.3476 126.731 22.6656 126.653 22.9536 126.497ZM26.8848 126.704V128H23.5188V121.7H26.8848V122.996H24.9498V124.193H26.5788V125.39H24.9498V126.704H26.8848Z" fill="#4D4D4D"/>
<path d="M3.519 138.632V140H0.342V133.7H1.773V138.632H3.519ZM5.36273 138.38C5.51273 138.662 5.73773 138.803 6.03773 138.803C6.33773 138.803 6.55373 138.665 6.68573 138.389C6.82373 138.107 6.89273 137.594 6.89273 136.85C6.89273 136.106 6.82373 135.596 6.68573 135.32C6.54773 135.038 6.32273 134.897 6.01073 134.897C5.71073 134.897 5.49173 135.041 5.35373 135.329C5.21573 135.611 5.14673 136.118 5.14673 136.85C5.14673 137.582 5.21873 138.092 5.36273 138.38ZM6.03773 140.099C5.23373 140.099 4.63373 139.844 4.23773 139.334C3.84173 138.824 3.64373 137.996 3.64373 136.85C3.64373 135.704 3.84173 134.876 4.23773 134.366C4.63373 133.856 5.22473 133.601 6.01073 133.601C6.83273 133.601 7.43573 133.859 7.81973 134.375C8.20373 134.885 8.39573 135.71 8.39573 136.85C8.39573 138.02 8.19773 138.854 7.80173 139.352C7.41173 139.85 6.82373 140.099 6.03773 140.099ZM11.8443 138.713V137.606H11.1423V136.4H13.0593V139.694C12.5853 139.964 12.0393 140.099 11.4213 140.099C10.5453 140.099 9.89428 139.841 9.46828 139.325C9.04228 138.809 8.82928 138.011 8.82928 136.931C8.82928 135.767 9.03928 134.921 9.45928 134.393C9.87928 133.865 10.5513 133.601 11.4753 133.601C11.9793 133.601 12.4083 133.673 12.7623 133.817V135.113C12.5043 134.993 12.1563 134.933 11.7183 134.933C11.2263 134.933 10.8633 135.074 10.6293 135.356C10.4013 135.632 10.2873 136.136 10.2873 136.868C10.2873 137.552 10.3773 138.041 10.5573 138.335C10.7433 138.629 11.0343 138.776 11.4303 138.776C11.5863 138.776 11.7243 138.755 11.8443 138.713ZM15.1236 133.7V140H13.6926V133.7H15.1236ZM15.7478 139.793V138.515C16.0838 138.725 16.4948 138.83 16.9808 138.83C17.4608 138.83 17.7008 138.632 17.7008 138.236C17.7008 138.044 17.6558 137.891 17.5658 137.777C17.4758 137.663 17.3048 137.531 17.0528 137.381L16.8818 137.291C16.4558 137.051 16.1498 136.781 15.9638 136.481C15.7778 136.175 15.6848 135.812 15.6848 135.392C15.6848 134.822 15.8498 134.381 16.1798 134.069C16.5158 133.757 16.9838 133.601 17.5838 133.601C18.1178 133.601 18.5798 133.682 18.9698 133.844V135.095C18.6218 134.951 18.2318 134.879 17.7998 134.879C17.3618 134.879 17.1428 135.053 17.1428 135.401C17.1428 135.557 17.2028 135.692 17.3228 135.806C17.4428 135.914 17.6828 136.07 18.0428 136.274L18.2138 136.364C18.8918 136.712 19.2308 137.309 19.2308 138.155C19.2308 138.773 19.0538 139.253 18.6998 139.595C18.3458 139.931 17.8448 140.099 17.1968 140.099C16.5908 140.099 16.1078 139.997 15.7478 139.793ZM22.0558 135.068V140H20.6248V135.068H19.3558V133.7H23.3248V135.068H22.0558ZM25.1959 133.7V140H23.7649V133.7H25.1959ZM29.519 138.497V139.847C29.219 140.015 28.799 140.099 28.259 140.099C27.395 140.099 26.762 139.847 26.36 139.343C25.958 138.833 25.757 138.029 25.757 136.931C25.757 135.761 25.961 134.915 26.369 134.393C26.777 133.865 27.437 133.601 28.349 133.601C28.811 133.601 29.198 133.67 29.51 133.808V135.158C29.21 135.032 28.901 134.969 28.583 134.969C28.133 134.969 27.8 135.107 27.584 135.383C27.368 135.653 27.26 136.142 27.26 136.85C27.26 137.54 27.362 138.026 27.566 138.308C27.77 138.59 28.103 138.731 28.565 138.731C28.913 138.731 29.231 138.653 29.519 138.497Z" fill="#4D4D4D"/>
<path d="M62.092 77.856V76.56C62.494 76.722 62.878 76.803 63.244 76.803C63.808 76.803 64.09 76.563 64.09 76.083C64.09 75.831 64.03 75.651 63.91 75.543C63.79 75.429 63.601 75.372 63.343 75.372H62.614V74.193H63.244C63.502 74.193 63.688 74.142 63.802 74.04C63.922 73.938 63.982 73.764 63.982 73.518C63.982 73.104 63.745 72.897 63.271 72.897C62.863 72.897 62.5 72.969 62.182 73.113V71.844C62.638 71.682 63.145 71.601 63.703 71.601C64.039 71.601 64.327 71.649 64.567 71.745C64.813 71.835 64.999 71.964 65.125 72.132C65.257 72.294 65.35 72.471 65.404 72.663C65.464 72.849 65.494 73.053 65.494 73.275C65.494 74.031 65.188 74.514 64.576 74.724V74.742C64.942 74.826 65.203 74.988 65.359 75.228C65.521 75.468 65.602 75.786 65.602 76.182C65.602 76.758 65.437 77.223 65.107 77.577C64.777 77.925 64.231 78.099 63.469 78.099C62.983 78.099 62.524 78.018 62.092 77.856ZM69.5573 76.695V78H66.0113V76.668L66.6593 75.957C67.1513 75.477 67.4963 75.081 67.6943 74.769C67.8983 74.457 68.0003 74.139 68.0003 73.815C68.0003 73.527 67.9373 73.308 67.8113 73.158C67.6853 73.008 67.4753 72.933 67.1813 72.933C66.8213 72.933 66.4673 73.032 66.1193 73.23V71.871C66.5873 71.691 67.1093 71.601 67.6853 71.601C68.0393 71.601 68.3423 71.652 68.5943 71.754C68.8463 71.856 69.0383 72 69.1703 72.186C69.3023 72.366 69.3983 72.561 69.4583 72.771C69.5183 72.981 69.5483 73.212 69.5483 73.464C69.5483 74.016 69.4133 74.526 69.1433 74.994C68.8793 75.456 68.4833 75.945 67.9553 76.461L67.7123 76.677V76.695H69.5573ZM71.7366 77.28C71.7366 77.538 71.6646 77.739 71.5206 77.883C71.3826 78.027 71.1846 78.099 70.9266 78.099C70.6866 78.099 70.4946 78.027 70.3506 77.883C70.2066 77.733 70.1346 77.532 70.1346 77.28C70.1346 77.022 70.2006 76.824 70.3326 76.686C70.4706 76.542 70.6686 76.47 70.9266 76.47C71.1726 76.47 71.3676 76.545 71.5116 76.695C71.6616 76.839 71.7366 77.034 71.7366 77.28ZM72.2978 77.865V76.614C72.5738 76.746 72.8978 76.812 73.2698 76.812C73.5938 76.812 73.8308 76.743 73.9808 76.605C74.1308 76.461 74.2058 76.23 74.2058 75.912C74.2058 75.6 74.1398 75.375 74.0078 75.237C73.8758 75.099 73.6508 75.03 73.3328 75.03C72.9968 75.03 72.6698 75.081 72.3518 75.183L72.4868 71.7H75.4658V72.951H73.5488L73.5038 74.004C73.6418 73.968 73.8278 73.95 74.0618 73.95C75.1598 73.95 75.7088 74.592 75.7088 75.876C75.7088 76.542 75.5408 77.079 75.2048 77.487C74.8748 77.895 74.3228 78.099 73.5488 78.099C73.0988 78.099 72.6818 78.021 72.2978 77.865ZM78.1895 76.83C78.3995 76.83 78.5465 76.698 78.6305 76.434C78.7205 76.164 78.7655 75.642 78.7655 74.868C78.7655 74.076 78.7205 73.545 78.6305 73.275C78.5465 73.005 78.3905 72.87 78.1625 72.87C77.9465 72.87 77.7965 73.008 77.7125 73.284C77.6285 73.56 77.5865 74.088 77.5865 74.868C77.5865 75.642 77.6285 76.164 77.7125 76.434C77.8025 76.698 77.9615 76.83 78.1895 76.83ZM78.1805 78.099C77.4605 78.099 76.9325 77.853 76.5965 77.361C76.2665 76.869 76.1015 76.032 76.1015 74.85C76.1015 73.668 76.2695 72.831 76.6055 72.339C76.9415 71.847 77.4605 71.601 78.1625 71.601C78.9005 71.601 79.4315 71.847 79.7555 72.339C80.0795 72.825 80.2415 73.662 80.2415 74.85C80.2415 76.032 80.0735 76.869 79.7375 77.361C79.4015 77.853 78.8825 78.099 78.1805 78.099ZM82.7423 76.83C82.9523 76.83 83.0993 76.698 83.1833 76.434C83.2733 76.164 83.3183 75.642 83.3183 74.868C83.3183 74.076 83.2733 73.545 83.1833 73.275C83.0993 73.005 82.9433 72.87 82.7153 72.87C82.4993 72.87 82.3493 73.008 82.2653 73.284C82.1813 73.56 82.1393 74.088 82.1393 74.868C82.1393 75.642 82.1813 76.164 82.2653 76.434C82.3553 76.698 82.5143 76.83 82.7423 76.83ZM82.7333 78.099C82.0133 78.099 81.4853 77.853 81.1493 77.361C80.8193 76.869 80.6543 76.032 80.6543 74.85C80.6543 73.668 80.8223 72.831 81.1583 72.339C81.4943 71.847 82.0133 71.601 82.7153 71.601C83.4533 71.601 83.9843 71.847 84.3083 72.339C84.6323 72.825 84.7943 73.662 84.7943 74.85C84.7943 76.032 84.6263 76.869 84.2903 77.361C83.9543 77.853 83.4353 78.099 82.7333 78.099Z" fill="#4D4D4D"/>
<path d="M66.5508 84.816L65.0478 90H63.4368L65.0118 84.969H62.9598V83.7H66.5508V84.816ZM69.6971 83.7V90H68.2751V85.338L67.4471 85.95L66.8351 84.933L68.5001 83.7H69.6971ZM72.0442 89.28C72.0442 89.538 71.9722 89.739 71.8282 89.883C71.6902 90.027 71.4922 90.099 71.2342 90.099C70.9942 90.099 70.8022 90.027 70.6582 89.883C70.5142 89.733 70.4422 89.532 70.4422 89.28C70.4422 89.022 70.5082 88.824 70.6402 88.686C70.7782 88.542 70.9762 88.47 71.2342 88.47C71.4802 88.47 71.6752 88.545 71.8192 88.695C71.9692 88.839 72.0442 89.034 72.0442 89.28ZM74.4786 88.938C74.8026 88.938 74.9646 88.614 74.9646 87.966C74.9646 87.306 74.7966 86.976 74.4606 86.976C74.1126 86.976 73.9386 87.261 73.9386 87.831C73.9386 88.569 74.1186 88.938 74.4786 88.938ZM76.0176 83.763V85.041C75.7236 84.921 75.4026 84.861 75.0546 84.861C74.2626 84.861 73.8666 85.395 73.8666 86.463C74.0826 86.115 74.4306 85.941 74.9106 85.941C75.3726 85.941 75.7386 86.097 76.0086 86.409C76.2846 86.721 76.4226 87.225 76.4226 87.921C76.4226 88.623 76.2546 89.163 75.9186 89.541C75.5886 89.913 75.1236 90.099 74.5236 90.099C73.8276 90.099 73.3116 89.853 72.9756 89.361C72.6456 88.869 72.4806 88.104 72.4806 87.066C72.4806 85.944 72.6666 85.086 73.0386 84.492C73.4106 83.898 74.0226 83.601 74.8746 83.601C75.2826 83.601 75.6636 83.655 76.0176 83.763ZM76.8505 89.865V88.614C77.1265 88.746 77.4505 88.812 77.8225 88.812C78.1465 88.812 78.3835 88.743 78.5335 88.605C78.6835 88.461 78.7585 88.23 78.7585 87.912C78.7585 87.6 78.6925 87.375 78.5605 87.237C78.4285 87.099 78.2035 87.03 77.8855 87.03C77.5495 87.03 77.2225 87.081 76.9045 87.183L77.0395 83.7H80.0185V84.951H78.1015L78.0565 86.004C78.1945 85.968 78.3805 85.95 78.6145 85.95C79.7125 85.95 80.2615 86.592 80.2615 87.876C80.2615 88.542 80.0935 89.079 79.7575 89.487C79.4275 89.895 78.8755 90.099 78.1015 90.099C77.6515 90.099 77.2345 90.021 76.8505 89.865ZM82.7423 88.83C82.9523 88.83 83.0993 88.698 83.1833 88.434C83.2733 88.164 83.3183 87.642 83.3183 86.868C83.3183 86.076 83.2733 85.545 83.1833 85.275C83.0993 85.005 82.9433 84.87 82.7153 84.87C82.4993 84.87 82.3493 85.008 82.2653 85.284C82.1813 85.56 82.1393 86.088 82.1393 86.868C82.1393 87.642 82.1813 88.164 82.2653 88.434C82.3553 88.698 82.5143 88.83 82.7423 88.83ZM82.7333 90.099C82.0133 90.099 81.4853 89.853 81.1493 89.361C80.8193 88.869 80.6543 88.032 80.6543 86.85C80.6543 85.668 80.8223 84.831 81.1583 84.339C81.4943 83.847 82.0133 83.601 82.7153 83.601C83.4533 83.601 83.9843 83.847 84.3083 84.339C84.6323 84.825 84.7943 85.662 84.7943 86.85C84.7943 88.032 84.6263 88.869 84.2903 89.361C83.9543 89.853 83.4353 90.099 82.7333 90.099Z" fill="#4D4D4D"/>
<path d="M103.575 71.25V75.363L104.448 73.41H105.852L104.826 75.471L105.987 78H104.547L103.575 75.651V78H102.297V71.25H103.575ZM108.524 73.959V73.41H109.775V77.946C109.775 78.342 109.718 78.678 109.604 78.954C109.49 79.23 109.328 79.437 109.118 79.575C108.914 79.719 108.692 79.821 108.452 79.881C108.212 79.941 107.942 79.971 107.642 79.971C107.072 79.971 106.643 79.896 106.355 79.746V78.594C106.667 78.756 107.036 78.837 107.462 78.837C107.852 78.837 108.122 78.753 108.272 78.585C108.428 78.423 108.506 78.153 108.506 77.775V77.316H108.488C108.302 77.772 107.951 78 107.435 78C106.973 78 106.616 77.832 106.364 77.496C106.112 77.16 105.986 76.578 105.986 75.75C105.986 74.886 106.106 74.268 106.346 73.896C106.592 73.524 106.967 73.338 107.471 73.338C107.987 73.338 108.335 73.545 108.515 73.959H108.524ZM107.885 74.427C107.681 74.427 107.531 74.517 107.435 74.697C107.345 74.871 107.3 75.201 107.3 75.687C107.3 76.137 107.351 76.455 107.453 76.641C107.555 76.821 107.702 76.911 107.894 76.911C108.104 76.911 108.257 76.818 108.353 76.632C108.455 76.446 108.506 76.128 108.506 75.678C108.506 75.216 108.455 74.892 108.353 74.706C108.257 74.52 108.101 74.427 107.885 74.427Z" fill="#4D4D4D"/>
<path d="M103.575 83.25V90H102.297V83.25H103.575ZM105.411 89.469V90H104.16V83.25H105.438V86.013H105.447C105.525 85.815 105.657 85.653 105.843 85.527C106.035 85.401 106.278 85.338 106.572 85.338C107.016 85.338 107.355 85.509 107.589 85.851C107.829 86.193 107.949 86.784 107.949 87.624C107.949 88.5 107.829 89.127 107.589 89.505C107.355 89.883 106.98 90.072 106.464 90.072C105.966 90.072 105.618 89.871 105.42 89.469H105.411ZM106.05 88.983C106.26 88.983 106.41 88.893 106.5 88.713C106.59 88.527 106.635 88.173 106.635 87.651C106.635 87.189 106.587 86.871 106.491 86.697C106.395 86.517 106.251 86.427 106.059 86.427C105.849 86.427 105.693 86.523 105.591 86.715C105.489 86.907 105.438 87.24 105.438 87.714C105.438 88.56 105.642 88.983 106.05 88.983ZM108.378 89.874V88.794C108.654 88.98 109.032 89.073 109.512 89.073C109.818 89.073 109.971 88.953 109.971 88.713C109.971 88.593 109.911 88.488 109.791 88.398C109.677 88.308 109.539 88.224 109.377 88.146C109.215 88.068 109.05 87.978 108.882 87.876C108.72 87.774 108.579 87.621 108.459 87.417C108.345 87.213 108.288 86.964 108.288 86.67C108.288 85.77 108.825 85.32 109.899 85.32C110.289 85.32 110.655 85.371 110.997 85.473V86.526C110.739 86.4 110.409 86.337 110.007 86.337C109.701 86.337 109.548 86.436 109.548 86.634C109.548 86.742 109.605 86.838 109.719 86.922C109.839 87 109.98 87.078 110.142 87.156C110.304 87.228 110.466 87.318 110.628 87.426C110.796 87.528 110.937 87.684 111.051 87.894C111.171 88.098 111.231 88.35 111.231 88.65C111.231 89.61 110.685 90.09 109.593 90.09C109.125 90.09 108.72 90.018 108.378 89.874Z" fill="#4D4D4D"/>
<rect width="111" height="61" fill="#FFA645"/>
<g filter="url(#filter0_f_654_11)">
<ellipse cx="83.5" cy="20.5" rx="11.5" ry="3.5" transform="rotate(-90 83.5 20.5)" fill="#4D4D4D"/>
</g>
<g filter="url(#filter1_f_654_11)">
<ellipse cx="34.5" cy="41" rx="7" ry="11.5" transform="rotate(-90 34.5 41)" fill="#4D4D4D"/>
</g>
<rect x="23" y="14" width="62" height="31" fill="#FFA645"/>
<path fill-rule="evenodd" clip-rule="evenodd" d="M36.6251 15.5845H35.9218H35.2175V16.2878V16.9921V17.6699V17.6953V18.3732V19.0775V19.7808V20.4841V21.1884V21.8917V22.596V23.2993V24.0036V24.7069V25.4112V26.1144H34.5142H33.8099H33.1066H32.4033H31.699H30.9957H30.2914H29.5882H28.8839H28.1806H27.4763H26.773H26.0697H25.3654H24.6621V26.8187V27.522V28.2253H25.3654H26.0697H26.773H27.4763H28.1806H28.8839H29.5882H30.2914H30.9957H31.699H32.4033H33.1066H33.8099H34.5142H35.2175H35.9218H36.6251H37.3294V27.522V26.8187V26.1144V25.4112V24.7069V24.0036V23.2993V22.596V21.8917V21.1884V20.4841V19.7808V19.0775V18.3732V17.6953V17.6699V16.9921V16.2878V15.5845H36.6251ZM62.6065 15.5845H61.9022H61.1989H60.4946H59.7914H59.087H58.3838H57.6795H56.9762H56.2729H55.5686H54.8653H54.161H53.4577H52.7534H52.0501H51.3468H50.6425H49.9393H49.235H48.5317H47.8274H47.1241H46.4198H45.7165V16.2878V16.9921V17.6953H45.7175V18.3722V19.0755V19.7788V20.4831V21.1864V21.8907V22.594V23.2983V24.0015V24.7058V25.4091V26.1134V26.8167V27.52V28.2243V28.9276V29.6319V30.3352V31.0395V31.7428V32.4471V33.1504V33.8536H46.4208H47.1241H47.8284V33.1504V32.4471V31.7428V31.0395V30.3352V29.6319V28.9276V28.2243V27.52V26.8167V26.1134V25.4091V24.7058V24.0015V23.2983V22.594V21.8907V21.1864V20.4831V19.7788V19.0755V18.3722V17.6953H48.5317H49.235H49.9393H50.6425H51.3468H52.0501H52.7534H53.4577H54.161H54.8653H55.5686H56.2729H56.9762H57.6795H58.3838H59.087H59.7914H60.4946H61.1989V18.3732V19.0775V19.7808V20.4841V21.1884V21.8917V22.596V23.2993V24.0036V24.7069V25.4112V26.1144V26.8187V27.522V28.2253V28.9296V29.6329V30.3372V31.0405V31.7448V32.4481V33.1524V33.8557H61.9022H62.6065H63.3098V33.1524V32.4481V31.7448V31.0405V30.3372V29.6329V28.9296V28.2253V27.522V26.8187V26.1144V25.4112V24.7069V24.0036V23.2993V22.596V21.8917V21.1884V20.4841V19.7808V19.0775V18.3732V17.6953V17.6699V16.9921V16.2878V15.5845H62.6065ZM82.9718 15.5845H82.2675H81.5642H80.8599H80.1566H79.4523H78.749H78.0447H77.3414H76.6381H75.9338H75.2306H74.5263H73.823H73.1187H72.4154H71.7121H71.0078H70.3045H69.6002H68.8969H68.1926H67.4893H66.785H66.0818V16.2878V16.9921V17.6953H66.785H67.4893H68.1926H68.8969H69.6002H70.3045H71.0078H71.7121H72.4154H73.1187H73.823H74.5263H75.2306H75.9338H76.6381H77.3414H78.0447H78.749H79.4523H80.1566H80.8599H81.5642H82.2675H82.9718H83.6751V16.9921V16.2878V15.5845H82.9718ZM82.9715 21.1884H82.2672H81.5639H80.8596H80.1563H79.452H78.7487H78.0444V21.8917V22.596V23.2993V24.0036V24.7069V25.4112V26.1144V26.8187V27.522V28.2253V28.9296V29.6329V30.3372V31.0405V31.7448V32.4481V33.1524V33.8557H78.7487H79.452H80.1563V33.1524V32.4481V31.7448V31.0405V30.3372V29.6329V28.9296V28.2253V27.522V26.8187V26.1144V25.4112V24.7069V24.0036V23.2993H80.8596H81.5639H82.2672H82.9715H83.6748V22.596V21.8917V21.1884H82.9715ZM70.3045 21.1884H71.0078H71.7121V21.8917V22.596V23.2993V24.0036V24.7069V25.4112V26.1144V26.8187V27.522V28.2253V28.9296V29.6329V30.3372V31.0405V31.7448V32.4481V33.1524V33.8557H71.0078H70.3045H69.6002V33.1524V32.4481V31.7448V31.0405V30.3372V29.6329V28.9296V28.2253V27.522V26.8187V26.1144V25.4112V24.7069V24.0036V23.2993H68.8969H68.1926H67.4893H66.785H66.0818V22.596V21.8917V21.1884H66.785H67.4893H68.1926H68.8969H69.6002H70.3045ZM82.9715 18.3733H82.2672H81.5639H80.8596H80.1563H79.452H78.7487H78.0444H77.3412H76.6379H75.9336H75.2303V19.0776V19.7809V20.4842V21.1885V21.8917V22.5961V23.2993V24.0036V24.7069V25.4112V26.1145V26.8188V27.5221V28.2254V28.9297V29.633V30.3373V31.0406V31.7449V32.4481V33.1524V33.8557H75.9336H76.6379H77.3412V33.1524V32.4481V31.7449V31.0406V30.3373V29.633V28.9297V28.2254V27.5221V26.8188V26.1145V25.4112V24.7069V24.0036V23.2993V22.5961V21.8917V21.1885V20.4842H78.0444H78.7487H79.452H80.1563H80.8596H81.5639H82.2672H82.9715H83.6748V19.912V19.7809V19.2077V19.0776V18.3733H82.9715ZM73.1187 18.3733H73.823H74.5263V19.0776V19.2077V19.7809V19.912V20.4842V21.1885V21.8917V22.5961V23.2993V24.0036V24.7069V25.4112V26.1145V26.8188V27.5221V28.2254V28.9297V29.633V30.3373V31.0406V31.7449V32.4481V33.1524V33.8557H73.823H73.1187H72.4154V33.1524V32.4481V31.7449V31.0406V30.3373V29.633V28.9297V28.2254V27.5221V26.8188V26.1145V25.4112V24.7069V24.0036V23.2993V22.5961V21.8917V21.1885V20.4842H71.7121H71.0078H70.3045H69.6002H68.8969H68.1926H67.4893H66.785H66.0818V19.7809V19.0776V18.3733H66.785H67.4893H68.1926H68.8969H69.6002H70.3045H71.0078H71.7121H72.4154H73.1187ZM60.4952 19.912V20.4831H60.4972V21.1864V21.8907V22.594V23.2983V24.0016V24.7059V25.4092V26.1135V26.8168V27.5201V28.2244V28.9277V29.632V30.3352V31.0395V31.7428V32.4471V33.1504V33.8537H59.7929H59.0897H58.3854V33.1504V32.4471V31.7428V31.0395V30.3352V29.632V28.9277V28.2244V27.5201V26.8168V26.1135V25.4092V24.7059V24.0016V23.2983V22.594V21.8907V21.1864V20.4842H58.3843H57.68H56.9767H56.2735H55.5692H54.8659H54.1616H53.4583H52.754H52.0507H51.3474H50.6431V21.1864V21.8907V22.594V23.2983V24.0016V24.7059V25.4092V26.1135V26.8168V27.5201V28.2244V28.9277V29.632V30.3352V31.0395V31.7428V32.4471V33.1504V33.8537H49.9398H49.2355H48.5322V33.1504V32.4471V31.7428V31.0395V30.3352V29.632V28.9277V28.2244V27.5201V26.8168V26.1135V25.4092V24.7059V24.0016V23.2983V22.594V21.8907V21.1864V20.4831V19.7809V19.0776V18.3733H49.2355H49.9398H50.6431H51.3474H52.0507H52.754H53.4583H54.1616H54.8659H55.5692H56.2735H56.9767H57.68H58.3843H59.0876H59.7919H60.4952V19.0776V19.2077V19.7809V19.912ZM56.9767 24.7059H56.8497H56.2734H55.5691H54.8658H54.1615H53.4582H52.7539H52.0507H51.3474V25.4091V26.1134V26.8157H51.3464V27.519H52.0496H52.7539H53.4572V26.8167H53.4582H54.1615H54.8658H55.5691V27.52V27.6623V28.2233V28.9276V29.6309V30.3352V31.0385V31.7428V32.4461V33.1493H56.2734H56.9767H57.68V32.4461V31.7428V31.0385V30.3352V29.6309V28.9276V28.2233V27.7599V27.52V26.8167H57.681V26.1134V25.4091V24.7059H56.9767ZM55.5688 33.1504H56.2731H56.9763H57.6796V33.8537H56.9763H56.2731H55.5688V33.1504ZM52.0496 27.52H51.3464V28.2233V28.9276V29.6309V30.3352V31.0385V31.7428V32.446V33.1493H52.0496H52.7539H53.4572V32.446V31.7428V31.0385V30.3352V29.6309V28.9276V28.2233V27.52H52.7539H52.0496ZM51.3464 33.1504H52.0496H52.7539H53.4572V33.8537H52.7539H52.0496H51.3464V33.1504ZM38.7299 15.5845H39.4342H40.1374V16.2878V16.9921V17.6699V17.6953V18.3732V19.0775V19.7808V20.4841V21.1884V21.8917V22.596V23.2993V24.0036V24.7069V25.4112V26.1144V26.8187V27.522V28.2253V28.9296V29.6329V30.3372V31.0405H39.4342H38.7299H38.0266V31.0374H37.3294H36.6251H35.9218H35.2175H34.5142H33.8099H33.1066H32.4033H31.699H30.9957H30.2914H29.5882H28.8839H28.1806H27.4763H26.773H26.0697H25.3654H24.6621V30.3342V29.6309V28.9266H25.3654H26.0697H26.773H27.4763H28.1806H28.8839H29.5882H30.2914H30.9957H31.699H32.4033H33.1066H33.8099H34.5142H35.2175H35.9218H36.6251H37.3294H38.0266V28.2253V27.522V26.8187V26.1144V25.4112V24.7069V24.0036V23.2993V22.596V21.8917V21.1884V20.4841V19.7808V19.0775V18.3732V17.6953V17.6699V16.9921V16.2878V15.5845H38.7299ZM42.2534 15.5845H41.5501H40.8458V16.2878V16.9921V17.6699V17.6953V18.3732V19.0775V19.7808V20.4841V21.1884V21.8917V22.596V23.2993V24.0036V24.7069V25.4112V26.1144V26.8187V27.522V28.2253V28.9296V29.6329V30.3372V31.0405V31.7387H40.1435H39.4403H38.736H38.0327H37.3294H36.6251H35.9218H35.2175H34.5142H33.8099H33.1066H32.4033H31.699H30.9957H30.2914H29.5882H28.8839H28.1806H27.4763H26.773H26.0697H25.3654H24.6621V32.443V33.1463V33.8506H25.3654H26.0697H26.773H27.4763H28.1806H28.8839H29.5882H30.2914H30.9957H31.699H32.4033H33.1066H33.8099H34.5142H35.2175H35.9218H36.6251H37.3294H38.0327H38.736H39.4403H40.1435H40.8458V33.8557H41.5501H42.2534H42.9577V33.1524V32.4481V31.7448V31.0405V30.3372V29.6329V28.9296V28.2253V27.522V26.8187V26.1144V25.4112V24.7069V24.0036V23.2993V22.596V21.8917V21.1884V20.4841V19.7808V19.0775V18.3732V17.6953V17.6699V16.9921V16.2878V15.5845H42.2534ZM73.6191 37.8579H76.0725C76.2177 37.8585 76.3567 37.9165 76.4592 38.0194C76.5617 38.1223 76.6192 38.2615 76.6192 38.4067V39.9038C76.6192 40.0493 76.5614 40.1889 76.4585 40.2918C76.3556 40.3947 76.216 40.4526 76.0704 40.4526C76.216 40.4526 76.3556 40.5104 76.4585 40.6133C76.5614 40.7162 76.6192 40.8558 76.6192 41.0014V42.8622H75.6202V40.8611H74.6202V42.8602H73.6191V38.4047V37.8579ZM75.6202 39.8601V39.4535V38.859H74.6202V39.8601H75.6202ZM69.067 37.8579H67.1614C67.0159 37.8579 66.8763 37.9158 66.7733 38.0187C66.6704 38.1216 66.6126 38.2612 66.6126 38.4067V42.3134C66.6126 42.459 66.6704 42.5986 66.7733 42.7015C66.8763 42.8044 67.0159 42.8622 67.1614 42.8622H69.067C69.2125 42.8622 69.3521 42.8044 69.455 42.7015C69.558 42.5986 69.6158 42.459 69.6158 42.3134V38.4067C69.6158 38.2612 69.558 38.1216 69.455 38.0187C69.3521 37.9158 69.2125 37.8579 69.067 37.8579ZM68.6147 39.8601V41.8622H67.6137V38.859H68.6147V39.8601ZM55.648 38.4067V39.168L54.647 39.1639V38.859H53.7048V39.8601H55.0992C55.2448 39.8601 55.3844 39.9179 55.4873 40.0208C55.5902 40.1237 55.648 40.2633 55.648 40.4089V42.2992C55.648 42.4448 55.5902 42.5843 55.4873 42.6873C55.3844 42.7902 55.2448 42.848 55.0992 42.848H53.2109C53.0654 42.848 52.9258 42.7902 52.8228 42.6873C52.7199 42.5843 52.6621 42.4448 52.6621 42.2992V41.541H53.6632V41.8459H54.647V40.8611H53.2526C53.107 40.8611 52.9674 40.8033 52.8645 40.7004C52.7616 40.5975 52.7038 40.4579 52.7038 40.3123V38.4067C52.7038 38.2612 52.7616 38.1216 52.8645 38.0187C52.9674 37.9158 53.107 37.8579 53.2526 37.8579H55.0992C55.2448 37.8579 55.3844 37.9158 55.4873 38.0187C55.5902 38.1216 55.648 38.2612 55.648 38.4067ZM62.0607 37.8579H59.6215V42.8623H60.6226V40.8611H62.0647C62.2103 40.8611 62.3499 40.8033 62.4528 40.7004C62.5557 40.5975 62.6135 40.4579 62.6135 40.3123V38.4068C62.6135 38.3343 62.5992 38.2626 62.5714 38.1958C62.5435 38.1289 62.5028 38.0683 62.4514 38.0172C62.4 37.9662 62.339 37.9259 62.2719 37.8986C62.2049 37.8712 62.1331 37.8574 62.0607 37.8579ZM60.6185 39.8601V38.859H61.6084V39.8601H60.6185ZM45.7019 37.8579H48.1624C48.307 37.8593 48.4453 37.9177 48.5471 38.0205C48.649 38.1232 48.7061 38.2621 48.7061 38.4067V42.8622H47.705V38.859H46.7029V42.8622H45.7019V37.8579ZM41.1246 37.8579H39.219C39.0735 37.8579 38.9339 37.9158 38.831 38.0187C38.728 38.1216 38.6702 38.2612 38.6702 38.4067V38.859V42.8622H39.6713V40.8611H40.6744V42.8622H41.6755V38.4067C41.6755 38.3345 41.6612 38.263 41.6335 38.1963C41.6058 38.1295 41.5652 38.0689 41.514 38.018C41.4628 37.967 41.4021 37.9266 41.3353 37.8991C41.2684 37.8717 41.1969 37.8577 41.1246 37.8579ZM40.6724 39.8601H39.6693V38.859H40.6724V39.8601ZM31.6727 37.8579H34.1281C34.2736 37.8579 34.4132 37.9158 34.5161 38.0187C34.619 38.1216 34.6769 38.2612 34.6769 38.4067V39.9038C34.6767 40.0243 34.6368 40.1414 34.5633 40.237C34.4898 40.3325 34.3868 40.4012 34.2703 40.4322C34.3776 40.4449 34.477 40.4947 34.5513 40.5731C34.6256 40.6514 34.67 40.7534 34.6769 40.8611V42.8622H33.6758V40.8611H32.6758V42.8622H31.6727V37.8579ZM33.6758 39.8601V39.4535V38.859H32.6758V39.8601H33.6758ZM82.6261 37.8589H81.625H80.624V38.859H81.625V39.86V40.8611V41.8621V42.8622H82.6261V41.8621V40.8611V39.86V38.859H83.6272V37.8589H82.6261ZM25.6802 37.8589H26.6813H27.6823V38.859H26.6813V39.86V40.8611V41.8621V42.8622H25.6802V41.8621V40.8611V39.86V38.859H24.6792V37.8589H25.6802Z" fill="#4D4D4D"/>
<defs>
<filter id="filter0_f_654_11" x="72" y="1" width="23" height="39" filterUnits="userSpaceOnUse" color-interpolation-filters="sRGB">
<feFlood flood-opacity="0" result="BackgroundImageFix"/>
<feBlend mode="normal" in="SourceGraphic" in2="BackgroundImageFix" result="shape"/>
<feGaussianBlur stdDeviation="4" result="effect1_foregroundBlur_654_11"/>
</filter>
<filter id="filter1_f_654_11" x="15" y="26" width="39" height="30" filterUnits="userSpaceOnUse" color-interpolation-filters="sRGB">
<feFlood flood-opacity="0" result="BackgroundImageFix"/>
<feBlend mode="normal" in="SourceGraphic" in2="BackgroundImageFix" result="shape"/>
<feGaussianBlur stdDeviation="4" result="effect1_foregroundBlur_654_11"/>
</filter>
</defs>
</svg>
