<svg width="112" height="98" viewBox="0 0 112 98" fill="none" xmlns="http://www.w3.org/2000/svg">
<g filter="url(#filter0_f_654_10)">
<ellipse cx="43.5" cy="66" rx="24" ry="3.5" transform="rotate(-90 43.5 66)" fill="#4D4D4D"/>
</g>
<rect x="4" y="53" width="43" height="45" fill="#F8F9F9"/>
<path fill-rule="evenodd" clip-rule="evenodd" d="M31.1234 56H29.7052H28.285V57.4182V58.8384V60.2054V60.2566V61.6235V63.0438V64.4619V65.8801V67.3003V68.7185V70.1388V71.5569V72.9772V74.3953V75.8156V77.2338H26.8668H25.4466H24.0284H22.6102H21.19H19.7718H18.3516H16.9334H15.5132H14.095H12.6748H11.2566H9.83841H8.41818H7V78.654V80.0722V81.4903H8.41818H9.83841H11.2566H12.6748H14.095H15.5132H16.9334H18.3516H19.7718H21.19H22.6102H24.0284H25.4466H26.8668H28.285H29.7052H31.1234H32.5436V80.0722V78.654V77.2338V75.8156V74.3953V72.9772V71.5569V70.1388V68.7185V67.3003V65.8801V64.4619V63.0438V61.6235V60.2566V60.2054V58.8384V57.4182V56H31.1234ZM36.7879 56H35.3677H33.9495V57.4182V58.8384V60.2054V60.2566V61.6235V63.0438V64.4619V65.8801V67.3003V68.7185V70.1388V71.5569V72.9772V74.3953V75.8156V77.2337V78.654V80.0722V81.4903V82.9044H32.5436H31.1234H29.7052H28.285H26.8668H25.4466H24.0284H22.6102H21.19H19.7718H18.3516H16.9334H15.5132H14.095H12.6748H11.2566H9.83841H8.41818H7V84.3246V85.7428V87.161H8.41818H9.83841H11.2566H12.6748H14.095H15.5132H16.9334H18.3516H19.7718H21.19H22.6102H24.0284H25.4466H26.8668H28.285H29.7052H31.1234H32.5436H33.9495V87.1672H35.3677H36.7879H38.2061V85.749V84.3287V82.9106V81.4903V80.0722V78.654V77.2337V75.8156V74.3953V72.9772V71.5569V70.1388V68.7185V67.3003V65.8801V64.4619V63.0438V61.6235V60.2566V60.2054V58.8384V57.4182V56H36.7879ZM41.0547 56H42.4729H43.8932V57.4182V58.8384V60.2054V60.2566V61.6235V63.0438V64.4619V65.8801V67.3003V68.7185V70.1388V71.5569V72.9772V74.3953V75.8156V77.2338V78.654V80.0722V81.4903V82.9106V84.3287V85.749V87.1672V88.5874V90.0056V91.4258V92.844H42.4729H41.0547H39.6345V92.8337H38.2184H36.8002H35.38H33.9618H32.5436H31.1234H29.7052H28.285H26.8668H25.4466H24.0284H22.6102H21.19H19.7718H18.3516H16.9334H15.5132H14.095H12.6748H11.2566H9.83841H8.41818H7V91.4135V89.9953V88.5751H8.41818H9.83841H11.2566H12.6748H14.095H15.5132H16.9334H18.3516H19.7718H21.19H22.6102H24.0284H25.4466H26.8668H28.285H29.7052H31.1234H32.5436H33.9618H35.38H36.8002H38.2184H39.6345V87.1672V85.749V84.3287V82.9106V81.4903V80.0722V78.654V77.2338V75.8156V74.3953V72.9772V71.5569V70.1388V68.7185V67.3003V65.8801V64.4619V63.0438V61.6235V60.2566V60.2054V58.8384V57.4182V56H41.0547Z" fill="#4D4D4D"/>
<path d="M1.728 3.987V5.832H2.115C2.355 5.832 2.526 5.76 2.628 5.616C2.736 5.466 2.79 5.229 2.79 4.905C2.79 4.563 2.739 4.326 2.637 4.194C2.535 4.056 2.358 3.987 2.106 3.987H1.728ZM1.773 7.119V9H0.342V2.7H2.214C2.898 2.7 3.405 2.871 3.735 3.213C4.065 3.555 4.23 4.098 4.23 4.842C4.23 6.36 3.525 7.119 2.115 7.119H1.773ZM7.3736 9L7.1036 7.686H5.6906L5.4296 9H4.0436L5.4206 2.7H7.4366L8.7956 9H7.3736ZM6.4016 4.167L5.9516 6.399H6.8516L6.4016 4.167ZM11.1528 6.705V9H9.72183V6.705L8.15583 2.7H9.73083L10.4508 4.977L11.1438 2.7H12.7098L11.1528 6.705ZM16.2104 7.632V9H13.0334V2.7H14.4644V7.632H16.2104ZM18.0541 7.38C18.2041 7.662 18.4291 7.803 18.7291 7.803C19.0291 7.803 19.2451 7.665 19.3771 7.389C19.5151 7.107 19.5841 6.594 19.5841 5.85C19.5841 5.106 19.5151 4.596 19.3771 4.32C19.2391 4.038 19.0141 3.897 18.7021 3.897C18.4021 3.897 18.1831 4.041 18.0451 4.329C17.9071 4.611 17.8381 5.118 17.8381 5.85C17.8381 6.582 17.9101 7.092 18.0541 7.38ZM18.7291 9.099C17.9251 9.099 17.3251 8.844 16.9291 8.334C16.5331 7.824 16.3351 6.996 16.3351 5.85C16.3351 4.704 16.5331 3.876 16.9291 3.366C17.3251 2.856 17.9161 2.601 18.7021 2.601C19.5241 2.601 20.1271 2.859 20.5111 3.375C20.8951 3.885 21.0871 4.71 21.0871 5.85C21.0871 7.02 20.8891 7.854 20.4931 8.352C20.1031 8.85 19.5151 9.099 18.7291 9.099ZM24.5123 9L24.2423 7.686H22.8293L22.5683 9H21.1823L22.5593 2.7H24.5753L25.9343 9H24.5123ZM23.5403 4.167L23.0903 6.399H23.9903L23.5403 4.167ZM27.7269 3.996V7.704H28.0509C28.4349 7.704 28.7109 7.56 28.8789 7.272C29.0469 6.978 29.1309 6.492 29.1309 5.814C29.1309 5.136 29.0529 4.665 28.8969 4.401C28.7409 4.131 28.4739 3.996 28.0959 3.996H27.7269ZM28.0239 9H26.3049V2.7H28.0959C29.0139 2.7 29.6559 2.949 30.0219 3.447C30.3939 3.945 30.5799 4.719 30.5799 5.769C30.5799 6.867 30.3759 7.68 29.9679 8.208C29.5599 8.736 28.9119 9 28.0239 9Z" fill="#4D4D4D"/>
<path d="M65.4088 7.695V9H61.8628V7.668L62.5108 6.957C63.0028 6.477 63.3478 6.081 63.5458 5.769C63.7498 5.457 63.8518 5.139 63.8518 4.815C63.8518 4.527 63.7888 4.308 63.6628 4.158C63.5368 4.008 63.3268 3.933 63.0328 3.933C62.6728 3.933 62.3188 4.032 61.9708 4.23V2.871C62.4388 2.691 62.9608 2.601 63.5368 2.601C63.8908 2.601 64.1938 2.652 64.4458 2.754C64.6978 2.856 64.8898 3 65.0218 3.186C65.1538 3.366 65.2498 3.561 65.3098 3.771C65.3698 3.981 65.3998 4.212 65.3998 4.464C65.3998 5.016 65.2648 5.526 64.9948 5.994C64.7308 6.456 64.3348 6.945 63.8068 7.461L63.5638 7.677V7.695H65.4088ZM67.9859 5.31C68.2619 5.052 68.3999 4.746 68.3999 4.392C68.3999 3.96 68.2229 3.744 67.8689 3.744C67.7069 3.744 67.5809 3.798 67.4909 3.906C67.4009 4.014 67.3559 4.164 67.3559 4.356C67.3559 4.59 67.4099 4.779 67.5179 4.923C67.6259 5.061 67.7819 5.19 67.9859 5.31ZM67.7789 6.183C67.4549 6.441 67.2929 6.762 67.2929 7.146C67.2929 7.686 67.4939 7.956 67.8959 7.956C68.2739 7.956 68.4629 7.698 68.4629 7.182C68.4629 7.002 68.4209 6.843 68.3369 6.705C68.2589 6.561 68.1809 6.462 68.1029 6.408C68.0309 6.348 67.9229 6.273 67.7789 6.183ZM68.9579 5.679C69.3059 5.859 69.5489 6.072 69.6869 6.318C69.8309 6.558 69.9029 6.87 69.9029 7.254C69.9029 7.854 69.7259 8.313 69.3719 8.631C69.0179 8.943 68.5229 9.099 67.8869 9.099C67.2749 9.099 66.7829 8.949 66.4109 8.649C66.0389 8.343 65.8529 7.896 65.8529 7.308C65.8529 6.522 66.1709 5.979 66.8069 5.679C66.5189 5.499 66.3059 5.298 66.1679 5.076C66.0299 4.854 65.9609 4.563 65.9609 4.203C65.9609 3.699 66.1349 3.306 66.4829 3.024C66.8309 2.742 67.3049 2.601 67.9049 2.601C68.4689 2.601 68.9249 2.73 69.2729 2.988C69.6209 3.24 69.7949 3.633 69.7949 4.167C69.7949 4.857 69.5159 5.361 68.9579 5.679ZM71.9563 8.28C71.9563 8.538 71.8843 8.739 71.7403 8.883C71.6023 9.027 71.4043 9.099 71.1463 9.099C70.9063 9.099 70.7143 9.027 70.5703 8.883C70.4263 8.733 70.3543 8.532 70.3543 8.28C70.3543 8.022 70.4203 7.824 70.5523 7.686C70.6903 7.542 70.8883 7.47 71.1463 7.47C71.3923 7.47 71.5873 7.545 71.7313 7.695C71.8813 7.839 71.9563 8.034 71.9563 8.28ZM75.7002 3.816L74.1972 9H72.5862L74.1612 3.969H72.1092V2.7H75.7002V3.816ZM78.1895 7.83C78.3995 7.83 78.5465 7.698 78.6305 7.434C78.7205 7.164 78.7655 6.642 78.7655 5.868C78.7655 5.076 78.7205 4.545 78.6305 4.275C78.5465 4.005 78.3905 3.87 78.1625 3.87C77.9465 3.87 77.7965 4.008 77.7125 4.284C77.6285 4.56 77.5865 5.088 77.5865 5.868C77.5865 6.642 77.6285 7.164 77.7125 7.434C77.8025 7.698 77.9615 7.83 78.1895 7.83ZM78.1805 9.099C77.4605 9.099 76.9325 8.853 76.5965 8.361C76.2665 7.869 76.1015 7.032 76.1015 5.85C76.1015 4.668 76.2695 3.831 76.6055 3.339C76.9415 2.847 77.4605 2.601 78.1625 2.601C78.9005 2.601 79.4315 2.847 79.7555 3.339C80.0795 3.825 80.2415 4.662 80.2415 5.85C80.2415 7.032 80.0735 7.869 79.7375 8.361C79.4015 8.853 78.8825 9.099 78.1805 9.099ZM82.7423 7.83C82.9523 7.83 83.0993 7.698 83.1833 7.434C83.2733 7.164 83.3183 6.642 83.3183 5.868C83.3183 5.076 83.2733 4.545 83.1833 4.275C83.0993 4.005 82.9433 3.87 82.7153 3.87C82.4993 3.87 82.3493 4.008 82.2653 4.284C82.1813 4.56 82.1393 5.088 82.1393 5.868C82.1393 6.642 82.1813 7.164 82.2653 7.434C82.3553 7.698 82.5143 7.83 82.7423 7.83ZM82.7333 9.099C82.0133 9.099 81.4853 8.853 81.1493 8.361C80.8193 7.869 80.6543 7.032 80.6543 5.85C80.6543 4.668 80.8223 3.831 81.1583 3.339C81.4943 2.847 82.0133 2.601 82.7153 2.601C83.4533 2.601 83.9843 2.847 84.3083 3.339C84.6323 3.825 84.7943 4.662 84.7943 5.85C84.7943 7.032 84.6263 7.869 84.2903 8.361C83.9543 8.853 83.4353 9.099 82.7333 9.099Z" fill="#4D4D4D"/>
<path d="M64.257 19.938C64.581 19.938 64.743 19.614 64.743 18.966C64.743 18.306 64.575 17.976 64.239 17.976C63.891 17.976 63.717 18.261 63.717 18.831C63.717 19.569 63.897 19.938 64.257 19.938ZM65.796 14.763V16.041C65.502 15.921 65.181 15.861 64.833 15.861C64.041 15.861 63.645 16.395 63.645 17.463C63.861 17.115 64.209 16.941 64.689 16.941C65.151 16.941 65.517 17.097 65.787 17.409C66.063 17.721 66.201 18.225 66.201 18.921C66.201 19.623 66.033 20.163 65.697 20.541C65.367 20.913 64.902 21.099 64.302 21.099C63.606 21.099 63.09 20.853 62.754 20.361C62.424 19.869 62.259 19.104 62.259 18.066C62.259 16.944 62.445 16.086 62.817 15.492C63.189 14.898 63.801 14.601 64.653 14.601C65.061 14.601 65.442 14.655 65.796 14.763ZM66.5568 20.856V19.56C66.9588 19.722 67.3428 19.803 67.7088 19.803C68.2728 19.803 68.5548 19.563 68.5548 19.083C68.5548 18.831 68.4948 18.651 68.3748 18.543C68.2548 18.429 68.0658 18.372 67.8078 18.372H67.0788V17.193H67.7088C67.9668 17.193 68.1528 17.142 68.2668 17.04C68.3868 16.938 68.4468 16.764 68.4468 16.518C68.4468 16.104 68.2098 15.897 67.7358 15.897C67.3278 15.897 66.9648 15.969 66.6468 16.113V14.844C67.1028 14.682 67.6098 14.601 68.1678 14.601C68.5038 14.601 68.7918 14.649 69.0318 14.745C69.2778 14.835 69.4638 14.964 69.5898 15.132C69.7218 15.294 69.8148 15.471 69.8688 15.663C69.9288 15.849 69.9588 16.053 69.9588 16.275C69.9588 17.031 69.6528 17.514 69.0408 17.724V17.742C69.4068 17.826 69.6678 17.988 69.8238 18.228C69.9858 18.468 70.0668 18.786 70.0668 19.182C70.0668 19.758 69.9018 20.223 69.5718 20.577C69.2418 20.925 68.6958 21.099 67.9338 21.099C67.4478 21.099 66.9888 21.018 66.5568 20.856ZM72.1321 20.28C72.1321 20.538 72.0601 20.739 71.9161 20.883C71.7781 21.027 71.5801 21.099 71.3221 21.099C71.0821 21.099 70.8901 21.027 70.7461 20.883C70.6021 20.733 70.5301 20.532 70.5301 20.28C70.5301 20.022 70.5961 19.824 70.7281 19.686C70.8661 19.542 71.0641 19.47 71.3221 19.47C71.5681 19.47 71.7631 19.545 71.9071 19.695C72.0571 19.839 72.1321 20.034 72.1321 20.28ZM76.2809 19.695V21H72.7349V19.668L73.3829 18.957C73.8749 18.477 74.2199 18.081 74.4179 17.769C74.6219 17.457 74.7239 17.139 74.7239 16.815C74.7239 16.527 74.6609 16.308 74.5349 16.158C74.4089 16.008 74.1989 15.933 73.9049 15.933C73.5449 15.933 73.1909 16.032 72.8429 16.23V14.871C73.3109 14.691 73.8329 14.601 74.4089 14.601C74.7629 14.601 75.0659 14.652 75.3179 14.754C75.5699 14.856 75.7619 15 75.8939 15.186C76.0259 15.366 76.1219 15.561 76.1819 15.771C76.2419 15.981 76.2719 16.212 76.2719 16.464C76.2719 17.016 76.1369 17.526 75.8669 17.994C75.6029 18.456 75.2069 18.945 74.6789 19.461L74.4359 19.677V19.695H76.2809ZM80.2529 15.816L78.7499 21H77.1389L78.7139 15.969H76.6619V14.7H80.2529V15.816ZM82.7423 19.83C82.9523 19.83 83.0993 19.698 83.1833 19.434C83.2733 19.164 83.3183 18.642 83.3183 17.868C83.3183 17.076 83.2733 16.545 83.1833 16.275C83.0993 16.005 82.9433 15.87 82.7153 15.87C82.4993 15.87 82.3493 16.008 82.2653 16.284C82.1813 16.56 82.1393 17.088 82.1393 17.868C82.1393 18.642 82.1813 19.164 82.2653 19.434C82.3553 19.698 82.5143 19.83 82.7423 19.83ZM82.7333 21.099C82.0133 21.099 81.4853 20.853 81.1493 20.361C80.8193 19.869 80.6543 19.032 80.6543 17.85C80.6543 16.668 80.8223 15.831 81.1583 15.339C81.4943 14.847 82.0133 14.601 82.7153 14.601C83.4533 14.601 83.9843 14.847 84.3083 15.339C84.6323 15.825 84.7943 16.662 84.7943 17.85C84.7943 19.032 84.6263 19.869 84.2903 20.361C83.9543 20.853 83.4353 21.099 82.7333 21.099Z" fill="#4D4D4D"/>
<path d="M103.575 2.25V6.363L104.448 4.41H105.852L104.826 6.471L105.987 9H104.547L103.575 6.651V9H102.297V2.25H103.575ZM108.524 4.959V4.41H109.775V8.946C109.775 9.342 109.718 9.678 109.604 9.954C109.49 10.23 109.328 10.437 109.118 10.575C108.914 10.719 108.692 10.821 108.452 10.881C108.212 10.941 107.942 10.971 107.642 10.971C107.072 10.971 106.643 10.896 106.355 10.746V9.594C106.667 9.756 107.036 9.837 107.462 9.837C107.852 9.837 108.122 9.753 108.272 9.585C108.428 9.423 108.506 9.153 108.506 8.775V8.316H108.488C108.302 8.772 107.951 9 107.435 9C106.973 9 106.616 8.832 106.364 8.496C106.112 8.16 105.986 7.578 105.986 6.75C105.986 5.886 106.106 5.268 106.346 4.896C106.592 4.524 106.967 4.338 107.471 4.338C107.987 4.338 108.335 4.545 108.515 4.959H108.524ZM107.885 5.427C107.681 5.427 107.531 5.517 107.435 5.697C107.345 5.871 107.3 6.201 107.3 6.687C107.3 7.137 107.351 7.455 107.453 7.641C107.555 7.821 107.702 7.911 107.894 7.911C108.104 7.911 108.257 7.818 108.353 7.632C108.455 7.446 108.506 7.128 108.506 6.678C108.506 6.216 108.455 5.892 108.353 5.706C108.257 5.52 108.101 5.427 107.885 5.427Z" fill="#4D4D4D"/>
<path d="M103.575 14.25V21H102.297V14.25H103.575ZM105.411 20.469V21H104.16V14.25H105.438V17.013H105.447C105.525 16.815 105.657 16.653 105.843 16.527C106.035 16.401 106.278 16.338 106.572 16.338C107.016 16.338 107.355 16.509 107.589 16.851C107.829 17.193 107.949 17.784 107.949 18.624C107.949 19.5 107.829 20.127 107.589 20.505C107.355 20.883 106.98 21.072 106.464 21.072C105.966 21.072 105.618 20.871 105.42 20.469H105.411ZM106.05 19.983C106.26 19.983 106.41 19.893 106.5 19.713C106.59 19.527 106.635 19.173 106.635 18.651C106.635 18.189 106.587 17.871 106.491 17.697C106.395 17.517 106.251 17.427 106.059 17.427C105.849 17.427 105.693 17.523 105.591 17.715C105.489 17.907 105.438 18.24 105.438 18.714C105.438 19.56 105.642 19.983 106.05 19.983ZM108.378 20.874V19.794C108.654 19.98 109.032 20.073 109.512 20.073C109.818 20.073 109.971 19.953 109.971 19.713C109.971 19.593 109.911 19.488 109.791 19.398C109.677 19.308 109.539 19.224 109.377 19.146C109.215 19.068 109.05 18.978 108.882 18.876C108.72 18.774 108.579 18.621 108.459 18.417C108.345 18.213 108.288 17.964 108.288 17.67C108.288 16.77 108.825 16.32 109.899 16.32C110.289 16.32 110.655 16.371 110.997 16.473V17.526C110.739 17.4 110.409 17.337 110.007 17.337C109.701 17.337 109.548 17.436 109.548 17.634C109.548 17.742 109.605 17.838 109.719 17.922C109.839 18 109.98 18.078 110.142 18.156C110.304 18.228 110.466 18.318 110.628 18.426C110.796 18.528 110.937 18.684 111.051 18.894C111.171 19.098 111.231 19.35 111.231 19.65C111.231 20.61 110.685 21.09 109.593 21.09C109.125 21.09 108.72 21.018 108.378 20.874Z" fill="#4D4D4D"/>
<defs>
<filter id="filter0_f_654_10" x="32" y="34" width="23" height="64" filterUnits="userSpaceOnUse" color-interpolation-filters="sRGB">
<feFlood flood-opacity="0" result="BackgroundImageFix"/>
<feBlend mode="normal" in="SourceGraphic" in2="BackgroundImageFix" result="shape"/>
<feGaussianBlur stdDeviation="4" result="effect1_foregroundBlur_654_10"/>
</filter>
</defs>
</svg>
