<svg width="112" height="132" viewBox="0 0 112 132" fill="none" xmlns="http://www.w3.org/2000/svg">
<path d="M6.03 43.7V50H4.689V45.626L3.825 50H2.556L1.683 45.68V50H0.342V43.7H2.403L3.222 48.2L4.05 43.7H6.03ZM9.72907 50L9.45907 48.686H8.04607L7.78507 50H6.39907L7.77607 43.7H9.79207L11.1511 50H9.72907ZM8.75707 45.167L8.30707 47.399H9.20707L8.75707 45.167ZM15.9283 50H14.3263L13.5883 47.849L12.8953 50H11.3473L12.5533 46.751L11.4373 43.7H13.0123L13.6423 45.734L14.3083 43.7H15.8473L14.6593 46.733L15.9283 50ZM17.7971 49.28C17.7971 49.538 17.7251 49.739 17.5811 49.883C17.4431 50.027 17.2451 50.099 16.9871 50.099C16.7471 50.099 16.5551 50.027 16.4111 49.883C16.2671 49.733 16.1951 49.532 16.1951 49.28C16.1951 49.022 16.2611 48.824 16.3931 48.686C16.5311 48.542 16.7291 48.47 16.9871 48.47C17.2331 48.47 17.4281 48.545 17.5721 48.695C17.7221 48.839 17.7971 49.034 17.7971 49.28ZM21.2749 48.713V47.606H20.5729V46.4H22.4899V49.694C22.0159 49.964 21.4699 50.099 20.8519 50.099C19.9759 50.099 19.3249 49.841 18.8989 49.325C18.4729 48.809 18.2599 48.011 18.2599 46.931C18.2599 45.767 18.4699 44.921 18.8899 44.393C19.3099 43.865 19.9819 43.601 20.9059 43.601C21.4099 43.601 21.8389 43.673 22.1929 43.817V45.113C21.9349 44.993 21.5869 44.933 21.1489 44.933C20.6569 44.933 20.2939 45.074 20.0599 45.356C19.8319 45.632 19.7179 46.136 19.7179 46.868C19.7179 47.552 19.8079 48.041 19.9879 48.335C20.1739 48.629 20.4649 48.776 20.8609 48.776C21.0169 48.776 21.1549 48.755 21.2749 48.713ZM23.1233 50V43.7H25.0312C26.3453 43.7 27.0023 44.363 27.0023 45.689C27.0023 46.553 26.7443 47.153 26.2283 47.489L27.2453 50H25.7243L24.8873 47.795H24.5543V50H23.1233ZM24.5093 44.987V46.598H24.9053C25.1333 46.598 25.2983 46.535 25.4003 46.409C25.5023 46.283 25.5533 46.073 25.5533 45.779C25.5533 45.509 25.5023 45.311 25.4003 45.185C25.2983 45.053 25.1333 44.987 24.9053 44.987H24.5093ZM29.1723 48.38C29.3223 48.662 29.5473 48.803 29.8473 48.803C30.1473 48.803 30.3633 48.665 30.4953 48.389C30.6333 48.107 30.7023 47.594 30.7023 46.85C30.7023 46.106 30.6333 45.596 30.4953 45.32C30.3573 45.038 30.1323 44.897 29.8203 44.897C29.5203 44.897 29.3013 45.041 29.1633 45.329C29.0253 45.611 28.9563 46.118 28.9563 46.85C28.9563 47.582 29.0283 48.092 29.1723 48.38ZM29.8473 50.099C29.0433 50.099 28.4433 49.844 28.0473 49.334C27.6513 48.824 27.4533 47.996 27.4533 46.85C27.4533 45.704 27.6513 44.876 28.0473 44.366C28.4433 43.856 29.0343 43.601 29.8203 43.601C30.6423 43.601 31.2453 43.859 31.6293 44.375C32.0133 44.885 32.2053 45.71 32.2053 46.85C32.2053 48.02 32.0073 48.854 31.6113 49.352C31.2213 49.85 30.6333 50.099 29.8473 50.099ZM32.7019 49.793V48.515C33.0379 48.725 33.4489 48.83 33.9349 48.83C34.4149 48.83 34.6549 48.632 34.6549 48.236C34.6549 48.044 34.6099 47.891 34.5199 47.777C34.4299 47.663 34.2589 47.531 34.0069 47.381L33.8359 47.291C33.4099 47.051 33.1039 46.781 32.9179 46.481C32.7319 46.175 32.6389 45.812 32.6389 45.392C32.6389 44.822 32.8039 44.381 33.1339 44.069C33.4699 43.757 33.9379 43.601 34.5379 43.601C35.0719 43.601 35.5339 43.682 35.9239 43.844V45.095C35.5759 44.951 35.1859 44.879 34.7539 44.879C34.3159 44.879 34.0969 45.053 34.0969 45.401C34.0969 45.557 34.1569 45.692 34.2769 45.806C34.3969 45.914 34.6369 46.07 34.9969 46.274L35.1679 46.364C35.8459 46.712 36.1849 47.309 36.1849 48.155C36.1849 48.773 36.0079 49.253 35.6539 49.595C35.2999 49.931 34.7989 50.099 34.1509 50.099C33.5449 50.099 33.0619 49.997 32.7019 49.793ZM36.5163 49.793V48.515C36.8523 48.725 37.2633 48.83 37.7493 48.83C38.2293 48.83 38.4693 48.632 38.4693 48.236C38.4693 48.044 38.4243 47.891 38.3343 47.777C38.2443 47.663 38.0733 47.531 37.8213 47.381L37.6503 47.291C37.2243 47.051 36.9183 46.781 36.7323 46.481C36.5463 46.175 36.4533 45.812 36.4533 45.392C36.4533 44.822 36.6183 44.381 36.9483 44.069C37.2843 43.757 37.7523 43.601 38.3523 43.601C38.8863 43.601 39.3483 43.682 39.7383 43.844V45.095C39.3903 44.951 39.0003 44.879 38.5683 44.879C38.1303 44.879 37.9113 45.053 37.9113 45.401C37.9113 45.557 37.9713 45.692 38.0913 45.806C38.2113 45.914 38.4513 46.07 38.8113 46.274L38.9823 46.364C39.6603 46.712 39.9993 47.309 39.9993 48.155C39.9993 48.773 39.8223 49.253 39.4683 49.595C39.1143 49.931 38.6133 50.099 37.9653 50.099C37.3593 50.099 36.8763 49.997 36.5163 49.793Z" fill="#4D4D4D"/>
<path d="M1.773 2.7V5.589L3.006 2.7H4.581L3.177 5.652L4.68 9H3.06L1.773 5.922V9H0.342V2.7H1.773ZM8.74252 7.704V9H4.90852V7.695L7.04152 3.996H4.98052V2.7H8.69752V4.005L6.57352 7.704H8.74252ZM11.7644 6.417H12.8264V4.347H12.8084L11.7644 6.417ZM14.2124 7.713V9H12.7814V7.713H10.6394V6.462L12.5564 2.7H14.2124V6.408H14.8514V7.713H14.2124ZM18.7204 7.695V9H15.1744V7.668L15.8224 6.957C16.3144 6.477 16.6594 6.081 16.8574 5.769C17.0614 5.457 17.1634 5.139 17.1634 4.815C17.1634 4.527 17.1004 4.308 16.9744 4.158C16.8484 4.008 16.6384 3.933 16.3444 3.933C15.9844 3.933 15.6304 4.032 15.2824 4.23V2.871C15.7504 2.691 16.2724 2.601 16.8484 2.601C17.2024 2.601 17.5054 2.652 17.7574 2.754C18.0094 2.856 18.2014 3 18.3334 3.186C18.4654 3.366 18.5614 3.561 18.6214 3.771C18.6814 3.981 18.7114 4.212 18.7114 4.464C18.7114 5.016 18.5764 5.526 18.3064 5.994C18.0424 6.456 17.6464 6.945 17.1184 7.461L16.8754 7.677V7.695H18.7204ZM21.2794 7.83C21.4894 7.83 21.6364 7.698 21.7204 7.434C21.8104 7.164 21.8554 6.642 21.8554 5.868C21.8554 5.076 21.8104 4.545 21.7204 4.275C21.6364 4.005 21.4804 3.87 21.2524 3.87C21.0364 3.87 20.8864 4.008 20.8024 4.284C20.7184 4.56 20.6764 5.088 20.6764 5.868C20.6764 6.642 20.7184 7.164 20.8024 7.434C20.8924 7.698 21.0514 7.83 21.2794 7.83ZM21.2704 9.099C20.5504 9.099 20.0224 8.853 19.6864 8.361C19.3564 7.869 19.1914 7.032 19.1914 5.85C19.1914 4.668 19.3594 3.831 19.6954 3.339C20.0314 2.847 20.5504 2.601 21.2524 2.601C21.9904 2.601 22.5214 2.847 22.8454 3.339C23.1694 3.825 23.3314 4.662 23.3314 5.85C23.3314 7.032 23.1634 7.869 22.8274 8.361C22.4914 8.853 21.9724 9.099 21.2704 9.099ZM26.7681 7.713V6.606H26.0661V5.4H27.9831V8.694C27.5091 8.964 26.9631 9.099 26.3451 9.099C25.4691 9.099 24.8181 8.841 24.3921 8.325C23.9661 7.809 23.7531 7.011 23.7531 5.931C23.7531 4.767 23.9631 3.921 24.3831 3.393C24.8031 2.865 25.4751 2.601 26.3991 2.601C26.9031 2.601 27.3321 2.673 27.6861 2.817V4.113C27.4281 3.993 27.0801 3.933 26.6421 3.933C26.1501 3.933 25.7871 4.074 25.5531 4.356C25.3251 4.632 25.2111 5.136 25.2111 5.868C25.2111 6.552 25.3011 7.041 25.4811 7.335C25.6671 7.629 25.9581 7.776 26.3541 7.776C26.5101 7.776 26.6481 7.755 26.7681 7.713ZM30.2094 7.38C30.3594 7.662 30.5844 7.803 30.8844 7.803C31.1844 7.803 31.4004 7.665 31.5324 7.389C31.6704 7.107 31.7394 6.594 31.7394 5.85C31.7394 5.106 31.6704 4.596 31.5324 4.32C31.3944 4.038 31.1694 3.897 30.8574 3.897C30.5574 3.897 30.3384 4.041 30.2004 4.329C30.0624 4.611 29.9934 5.118 29.9934 5.85C29.9934 6.582 30.0654 7.092 30.2094 7.38ZM30.8844 9.099C30.0804 9.099 29.4804 8.844 29.0844 8.334C28.6884 7.824 28.4904 6.996 28.4904 5.85C28.4904 4.704 28.6884 3.876 29.0844 3.366C29.4804 2.856 30.0714 2.601 30.8574 2.601C31.6794 2.601 32.2824 2.859 32.6664 3.375C33.0504 3.885 33.2424 4.71 33.2424 5.85C33.2424 7.02 33.0444 7.854 32.6484 8.352C32.2584 8.85 31.6704 9.099 30.8844 9.099Z" fill="#4D4D4D"/>
<path d="M2.799 76.068V81H1.368V76.068H0.099V74.7H4.068V76.068H2.799ZM6.98688 81L6.71688 79.686H5.30388L5.04288 81H3.65688L5.03388 74.7H7.04988L8.40888 81H6.98688ZM6.01488 76.167L5.56488 78.399H6.46488L6.01488 76.167ZM8.7795 81V74.7H10.6875C12.0015 74.7 12.6585 75.363 12.6585 76.689C12.6585 77.553 12.4005 78.153 11.8845 78.489L12.9015 81H11.3805L10.5435 78.795H10.2105V81H8.7795ZM10.1655 75.987V77.598H10.5615C10.7895 77.598 10.9545 77.535 11.0565 77.409C11.1585 77.283 11.2095 77.073 11.2095 76.779C11.2095 76.509 11.1585 76.311 11.0565 76.185C10.9545 76.053 10.7895 75.987 10.5615 75.987H10.1655ZM16.6807 79.704V81H13.3147V74.7H16.6807V75.996H14.7457V77.193H16.3747V78.39H14.7457V79.704H16.6807Z" fill="#4D4D4D"/>
<path d="M61.8635 121.955V120.938C62.0255 120.998 62.1785 121.028 62.3225 121.028C62.5505 121.028 62.7215 120.953 62.8355 120.803C62.9555 120.653 63.0155 120.398 63.0155 120.038V115.7H64.1315V120.263C64.1315 120.875 64.0115 121.331 63.7715 121.631C63.5315 121.925 63.1505 122.072 62.6285 122.072C62.3285 122.072 62.0735 122.033 61.8635 121.955ZM67.7375 122L67.4225 120.497H65.9285L65.6135 122H64.5155L65.9375 115.7H67.4495L68.8625 122H67.7375ZM66.6755 116.942L66.1355 119.489H67.2065L66.6755 116.942ZM70.8307 116.762V122H69.7147V116.762H68.4457V115.7H72.0907V116.762H70.8307ZM76.1393 116.762V122H75.0233V116.762H73.7543V115.7H77.3993V116.762H76.1393ZM77.8921 122V115.7H79.5481C80.7121 115.7 81.2941 116.306 81.2941 117.518C81.2941 118.406 81.0301 118.994 80.5021 119.282L81.5551 122H80.3401L79.4131 119.507H79.0081V122H77.8921ZM78.9811 116.726V118.526H79.4581C79.6981 118.526 79.8721 118.457 79.9801 118.319C80.0941 118.181 80.1511 117.944 80.1511 117.608C80.1511 117.308 80.0971 117.086 79.9891 116.942C79.8811 116.798 79.7011 116.726 79.4491 116.726H78.9811ZM84.9465 122L84.6315 120.497H83.1375L82.8225 122H81.7245L83.1465 115.7H84.6585L86.0715 122H84.9465ZM83.8845 116.942L83.3445 119.489H84.4155L83.8845 116.942ZM90.3574 115.7V122H89.1694L87.5584 117.662V122H86.5054V115.7H87.7564L89.3134 119.912V115.7H90.3574ZM91.056 121.802V120.785C91.368 120.971 91.734 121.064 92.154 121.064C92.682 121.064 92.946 120.812 92.946 120.308C92.946 120.062 92.898 119.867 92.802 119.723C92.706 119.573 92.526 119.405 92.262 119.219L92.109 119.12C91.719 118.856 91.437 118.58 91.263 118.292C91.095 117.998 91.011 117.656 91.011 117.266C91.011 116.75 91.164 116.348 91.47 116.06C91.776 115.766 92.193 115.619 92.721 115.619C93.177 115.619 93.567 115.691 93.891 115.835V116.834C93.591 116.702 93.255 116.636 92.883 116.636C92.409 116.636 92.172 116.852 92.172 117.284C92.172 117.464 92.232 117.632 92.352 117.788C92.472 117.944 92.7 118.13 93.036 118.346L93.189 118.436C93.825 118.814 94.143 119.414 94.143 120.236C94.143 120.806 93.981 121.256 93.657 121.586C93.333 121.916 92.886 122.081 92.316 122.081C91.788 122.081 91.368 121.988 91.056 121.802ZM95.8297 116.726V118.877H96.2707C96.5407 118.877 96.7357 118.793 96.8557 118.625C96.9757 118.451 97.0357 118.172 97.0357 117.788C97.0357 117.398 96.9757 117.125 96.8557 116.969C96.7417 116.807 96.5467 116.726 96.2707 116.726H95.8297ZM95.8567 119.894V122H94.7407V115.7H96.3697C96.9757 115.7 97.4257 115.862 97.7197 116.186C98.0197 116.51 98.1697 117.032 98.1697 117.752C98.1697 118.466 98.0167 119.003 97.7107 119.363C97.4047 119.717 96.9247 119.894 96.2707 119.894H95.8567ZM100.801 121.055C101.137 121.055 101.383 120.899 101.539 120.587C101.695 120.275 101.773 119.696 101.773 118.85C101.773 118.262 101.734 117.806 101.656 117.482C101.578 117.152 101.47 116.93 101.332 116.816C101.194 116.702 101.008 116.645 100.774 116.645C100.438 116.645 100.189 116.801 100.027 117.113C99.8645 117.425 99.7835 118.004 99.7835 118.85C99.7835 119.42 99.8255 119.873 99.9095 120.209C99.9995 120.539 100.114 120.764 100.252 120.884C100.396 120.998 100.579 121.055 100.801 121.055ZM100.792 122.081C100.054 122.081 99.5045 121.832 99.1445 121.334C98.7845 120.836 98.6045 120.008 98.6045 118.85C98.6045 117.686 98.7845 116.858 99.1445 116.366C99.5045 115.868 100.048 115.619 100.774 115.619C101.524 115.619 102.076 115.871 102.43 116.375C102.784 116.873 102.961 117.698 102.961 118.85C102.961 120.02 102.781 120.851 102.421 121.343C102.061 121.835 101.518 122.081 100.792 122.081ZM103.6 122V115.7H105.256C106.42 115.7 107.002 116.306 107.002 117.518C107.002 118.406 106.738 118.994 106.21 119.282L107.263 122H106.048L105.121 119.507H104.716V122H103.6ZM104.689 116.726V118.526H105.166C105.406 118.526 105.58 118.457 105.688 118.319C105.802 118.181 105.859 117.944 105.859 117.608C105.859 117.308 105.805 117.086 105.697 116.942C105.589 116.798 105.409 116.726 105.157 116.726H104.689ZM109.643 116.762V122H108.527V116.762H107.258V115.7H110.903V116.762H109.643Z" fill="#FFA645"/>
<path d="M62.092 49.856V48.56C62.494 48.722 62.878 48.803 63.244 48.803C63.808 48.803 64.09 48.563 64.09 48.083C64.09 47.831 64.03 47.651 63.91 47.543C63.79 47.429 63.601 47.372 63.343 47.372H62.614V46.193H63.244C63.502 46.193 63.688 46.142 63.802 46.04C63.922 45.938 63.982 45.764 63.982 45.518C63.982 45.104 63.745 44.897 63.271 44.897C62.863 44.897 62.5 44.969 62.182 45.113V43.844C62.638 43.682 63.145 43.601 63.703 43.601C64.039 43.601 64.327 43.649 64.567 43.745C64.813 43.835 64.999 43.964 65.125 44.132C65.257 44.294 65.35 44.471 65.404 44.663C65.464 44.849 65.494 45.053 65.494 45.275C65.494 46.031 65.188 46.514 64.576 46.724V46.742C64.942 46.826 65.203 46.988 65.359 47.228C65.521 47.468 65.602 47.786 65.602 48.182C65.602 48.758 65.437 49.223 65.107 49.577C64.777 49.925 64.231 50.099 63.469 50.099C62.983 50.099 62.524 50.018 62.092 49.856ZM69.5573 48.695V50H66.0113V48.668L66.6593 47.957C67.1513 47.477 67.4963 47.081 67.6943 46.769C67.8983 46.457 68.0003 46.139 68.0003 45.815C68.0003 45.527 67.9373 45.308 67.8113 45.158C67.6853 45.008 67.4753 44.933 67.1813 44.933C66.8213 44.933 66.4673 45.032 66.1193 45.23V43.871C66.5873 43.691 67.1093 43.601 67.6853 43.601C68.0393 43.601 68.3423 43.652 68.5943 43.754C68.8463 43.856 69.0383 44 69.1703 44.186C69.3023 44.366 69.3983 44.561 69.4583 44.771C69.5183 44.981 69.5483 45.212 69.5483 45.464C69.5483 46.016 69.4133 46.526 69.1433 46.994C68.8793 47.456 68.4833 47.945 67.9553 48.461L67.7123 48.677V48.695H69.5573ZM71.7366 49.28C71.7366 49.538 71.6646 49.739 71.5206 49.883C71.3826 50.027 71.1846 50.099 70.9266 50.099C70.6866 50.099 70.4946 50.027 70.3506 49.883C70.2066 49.733 70.1346 49.532 70.1346 49.28C70.1346 49.022 70.2006 48.824 70.3326 48.686C70.4706 48.542 70.6686 48.47 70.9266 48.47C71.1726 48.47 71.3676 48.545 71.5116 48.695C71.6616 48.839 71.7366 49.034 71.7366 49.28ZM72.2978 49.865V48.614C72.5738 48.746 72.8978 48.812 73.2698 48.812C73.5938 48.812 73.8308 48.743 73.9808 48.605C74.1308 48.461 74.2058 48.23 74.2058 47.912C74.2058 47.6 74.1398 47.375 74.0078 47.237C73.8758 47.099 73.6508 47.03 73.3328 47.03C72.9968 47.03 72.6698 47.081 72.3518 47.183L72.4868 43.7H75.4658V44.951H73.5488L73.5038 46.004C73.6418 45.968 73.8278 45.95 74.0618 45.95C75.1598 45.95 75.7088 46.592 75.7088 47.876C75.7088 48.542 75.5408 49.079 75.2048 49.487C74.8748 49.895 74.3228 50.099 73.5488 50.099C73.0988 50.099 72.6818 50.021 72.2978 49.865ZM78.1895 48.83C78.3995 48.83 78.5465 48.698 78.6305 48.434C78.7205 48.164 78.7655 47.642 78.7655 46.868C78.7655 46.076 78.7205 45.545 78.6305 45.275C78.5465 45.005 78.3905 44.87 78.1625 44.87C77.9465 44.87 77.7965 45.008 77.7125 45.284C77.6285 45.56 77.5865 46.088 77.5865 46.868C77.5865 47.642 77.6285 48.164 77.7125 48.434C77.8025 48.698 77.9615 48.83 78.1895 48.83ZM78.1805 50.099C77.4605 50.099 76.9325 49.853 76.5965 49.361C76.2665 48.869 76.1015 48.032 76.1015 46.85C76.1015 45.668 76.2695 44.831 76.6055 44.339C76.9415 43.847 77.4605 43.601 78.1625 43.601C78.9005 43.601 79.4315 43.847 79.7555 44.339C80.0795 44.825 80.2415 45.662 80.2415 46.85C80.2415 48.032 80.0735 48.869 79.7375 49.361C79.4015 49.853 78.8825 50.099 78.1805 50.099ZM82.7423 48.83C82.9523 48.83 83.0993 48.698 83.1833 48.434C83.2733 48.164 83.3183 47.642 83.3183 46.868C83.3183 46.076 83.2733 45.545 83.1833 45.275C83.0993 45.005 82.9433 44.87 82.7153 44.87C82.4993 44.87 82.3493 45.008 82.2653 45.284C82.1813 45.56 82.1393 46.088 82.1393 46.868C82.1393 47.642 82.1813 48.164 82.2653 48.434C82.3553 48.698 82.5143 48.83 82.7423 48.83ZM82.7333 50.099C82.0133 50.099 81.4853 49.853 81.1493 49.361C80.8193 48.869 80.6543 48.032 80.6543 46.85C80.6543 45.668 80.8223 44.831 81.1583 44.339C81.4943 43.847 82.0133 43.601 82.7153 43.601C83.4533 43.601 83.9843 43.847 84.3083 44.339C84.6323 44.825 84.7943 45.662 84.7943 46.85C84.7943 48.032 84.6263 48.869 84.2903 49.361C83.9543 49.853 83.4353 50.099 82.7333 50.099Z" fill="#4D4D4D"/>
<path d="M65.634 80.856V79.56C66.036 79.722 66.42 79.803 66.786 79.803C67.35 79.803 67.632 79.563 67.632 79.083C67.632 78.831 67.572 78.651 67.452 78.543C67.332 78.429 67.143 78.372 66.885 78.372H66.156V77.193H66.786C67.044 77.193 67.23 77.142 67.344 77.04C67.464 76.938 67.524 76.764 67.524 76.518C67.524 76.104 67.287 75.897 66.813 75.897C66.405 75.897 66.042 75.969 65.724 76.113V74.844C66.18 74.682 66.687 74.601 67.245 74.601C67.581 74.601 67.869 74.649 68.109 74.745C68.355 74.835 68.541 74.964 68.667 75.132C68.799 75.294 68.892 75.471 68.946 75.663C69.006 75.849 69.036 76.053 69.036 76.275C69.036 77.031 68.73 77.514 68.118 77.724V77.742C68.484 77.826 68.745 77.988 68.901 78.228C69.063 78.468 69.144 78.786 69.144 79.182C69.144 79.758 68.979 80.223 68.649 80.577C68.319 80.925 67.773 81.099 67.011 81.099C66.525 81.099 66.066 81.018 65.634 80.856ZM71.2093 80.28C71.2093 80.538 71.1373 80.739 70.9933 80.883C70.8553 81.027 70.6573 81.099 70.3993 81.099C70.1593 81.099 69.9673 81.027 69.8233 80.883C69.6793 80.733 69.6073 80.532 69.6073 80.28C69.6073 80.022 69.6733 79.824 69.8053 79.686C69.9433 79.542 70.1413 79.47 70.3993 79.47C70.6453 79.47 70.8403 79.545 70.9843 79.695C71.1343 79.839 71.2093 80.034 71.2093 80.28ZM73.7954 77.31C74.0714 77.052 74.2094 76.746 74.2094 76.392C74.2094 75.96 74.0324 75.744 73.6784 75.744C73.5164 75.744 73.3904 75.798 73.3004 75.906C73.2104 76.014 73.1654 76.164 73.1654 76.356C73.1654 76.59 73.2194 76.779 73.3274 76.923C73.4354 77.061 73.5914 77.19 73.7954 77.31ZM73.5884 78.183C73.2644 78.441 73.1024 78.762 73.1024 79.146C73.1024 79.686 73.3034 79.956 73.7054 79.956C74.0834 79.956 74.2724 79.698 74.2724 79.182C74.2724 79.002 74.2304 78.843 74.1464 78.705C74.0684 78.561 73.9904 78.462 73.9124 78.408C73.8404 78.348 73.7324 78.273 73.5884 78.183ZM74.7674 77.679C75.1154 77.859 75.3584 78.072 75.4964 78.318C75.6404 78.558 75.7124 78.87 75.7124 79.254C75.7124 79.854 75.5354 80.313 75.1814 80.631C74.8274 80.943 74.3324 81.099 73.6964 81.099C73.0844 81.099 72.5924 80.949 72.2204 80.649C71.8484 80.343 71.6624 79.896 71.6624 79.308C71.6624 78.522 71.9804 77.979 72.6164 77.679C72.3284 77.499 72.1154 77.298 71.9774 77.076C71.8394 76.854 71.7704 76.563 71.7704 76.203C71.7704 75.699 71.9444 75.306 72.2924 75.024C72.6404 74.742 73.1144 74.601 73.7144 74.601C74.2784 74.601 74.7344 74.73 75.0824 74.988C75.4304 75.24 75.6044 75.633 75.6044 76.167C75.6044 76.857 75.3254 77.361 74.7674 77.679ZM78.1895 79.83C78.3995 79.83 78.5465 79.698 78.6305 79.434C78.7205 79.164 78.7655 78.642 78.7655 77.868C78.7655 77.076 78.7205 76.545 78.6305 76.275C78.5465 76.005 78.3905 75.87 78.1625 75.87C77.9465 75.87 77.7965 76.008 77.7125 76.284C77.6285 76.56 77.5865 77.088 77.5865 77.868C77.5865 78.642 77.6285 79.164 77.7125 79.434C77.8025 79.698 77.9615 79.83 78.1895 79.83ZM78.1805 81.099C77.4605 81.099 76.9325 80.853 76.5965 80.361C76.2665 79.869 76.1015 79.032 76.1015 77.85C76.1015 76.668 76.2695 75.831 76.6055 75.339C76.9415 74.847 77.4605 74.601 78.1625 74.601C78.9005 74.601 79.4315 74.847 79.7555 75.339C80.0795 75.825 80.2415 76.662 80.2415 77.85C80.2415 79.032 80.0735 79.869 79.7375 80.361C79.4015 80.853 78.8825 81.099 78.1805 81.099ZM82.7423 79.83C82.9523 79.83 83.0993 79.698 83.1833 79.434C83.2733 79.164 83.3183 78.642 83.3183 77.868C83.3183 77.076 83.2733 76.545 83.1833 76.275C83.0993 76.005 82.9433 75.87 82.7153 75.87C82.4993 75.87 82.3493 76.008 82.2653 76.284C82.1813 76.56 82.1393 77.088 82.1393 77.868C82.1393 78.642 82.1813 79.164 82.2653 79.434C82.3553 79.698 82.5143 79.83 82.7423 79.83ZM82.7333 81.099C82.0133 81.099 81.4853 80.853 81.1493 80.361C80.8193 79.869 80.6543 79.032 80.6543 77.85C80.6543 76.668 80.8223 75.831 81.1583 75.339C81.4943 74.847 82.0133 74.601 82.7153 74.601C83.4533 74.601 83.9843 74.847 84.3083 75.339C84.6323 75.825 84.7943 76.662 84.7943 77.85C84.7943 79.032 84.6263 79.869 84.2903 80.361C83.9543 80.853 83.4353 81.099 82.7333 81.099Z" fill="#4D4D4D"/>
<path d="M66.5508 56.816L65.0478 62H63.4368L65.0118 56.969H62.9598V55.7H66.5508V56.816ZM69.6971 55.7V62H68.2751V57.338L67.4471 57.95L66.8351 56.933L68.5001 55.7H69.6971ZM72.0442 61.28C72.0442 61.538 71.9722 61.739 71.8282 61.883C71.6902 62.027 71.4922 62.099 71.2342 62.099C70.9942 62.099 70.8022 62.027 70.6582 61.883C70.5142 61.733 70.4422 61.532 70.4422 61.28C70.4422 61.022 70.5082 60.824 70.6402 60.686C70.7782 60.542 70.9762 60.47 71.2342 60.47C71.4802 60.47 71.6752 60.545 71.8192 60.695C71.9692 60.839 72.0442 61.034 72.0442 61.28ZM74.4786 60.938C74.8026 60.938 74.9646 60.614 74.9646 59.966C74.9646 59.306 74.7966 58.976 74.4606 58.976C74.1126 58.976 73.9386 59.261 73.9386 59.831C73.9386 60.569 74.1186 60.938 74.4786 60.938ZM76.0176 55.763V57.041C75.7236 56.921 75.4026 56.861 75.0546 56.861C74.2626 56.861 73.8666 57.395 73.8666 58.463C74.0826 58.115 74.4306 57.941 74.9106 57.941C75.3726 57.941 75.7386 58.097 76.0086 58.409C76.2846 58.721 76.4226 59.225 76.4226 59.921C76.4226 60.623 76.2546 61.163 75.9186 61.541C75.5886 61.913 75.1236 62.099 74.5236 62.099C73.8276 62.099 73.3116 61.853 72.9756 61.361C72.6456 60.869 72.4806 60.104 72.4806 59.066C72.4806 57.944 72.6666 57.086 73.0386 56.492C73.4106 55.898 74.0226 55.601 74.8746 55.601C75.2826 55.601 75.6636 55.655 76.0176 55.763ZM76.8505 61.865V60.614C77.1265 60.746 77.4505 60.812 77.8225 60.812C78.1465 60.812 78.3835 60.743 78.5335 60.605C78.6835 60.461 78.7585 60.23 78.7585 59.912C78.7585 59.6 78.6925 59.375 78.5605 59.237C78.4285 59.099 78.2035 59.03 77.8855 59.03C77.5495 59.03 77.2225 59.081 76.9045 59.183L77.0395 55.7H80.0185V56.951H78.1015L78.0565 58.004C78.1945 57.968 78.3805 57.95 78.6145 57.95C79.7125 57.95 80.2615 58.592 80.2615 59.876C80.2615 60.542 80.0935 61.079 79.7575 61.487C79.4275 61.895 78.8755 62.099 78.1015 62.099C77.6515 62.099 77.2345 62.021 76.8505 61.865ZM82.7423 60.83C82.9523 60.83 83.0993 60.698 83.1833 60.434C83.2733 60.164 83.3183 59.642 83.3183 58.868C83.3183 58.076 83.2733 57.545 83.1833 57.275C83.0993 57.005 82.9433 56.87 82.7153 56.87C82.4993 56.87 82.3493 57.008 82.2653 57.284C82.1813 57.56 82.1393 58.088 82.1393 58.868C82.1393 59.642 82.1813 60.164 82.2653 60.434C82.3553 60.698 82.5143 60.83 82.7423 60.83ZM82.7333 62.099C82.0133 62.099 81.4853 61.853 81.1493 61.361C80.8193 60.869 80.6543 60.032 80.6543 58.85C80.6543 57.668 80.8223 56.831 81.1583 56.339C81.4943 55.847 82.0133 55.601 82.7153 55.601C83.4533 55.601 83.9843 55.847 84.3083 56.339C84.6323 56.825 84.7943 57.662 84.7943 58.85C84.7943 60.032 84.6263 60.869 84.2903 61.361C83.9543 61.853 83.4353 62.099 82.7333 62.099Z" fill="#4D4D4D"/>
<path d="M67.7398 89.31C68.0158 89.052 68.1538 88.746 68.1538 88.392C68.1538 87.96 67.9768 87.744 67.6228 87.744C67.4608 87.744 67.3348 87.798 67.2448 87.906C67.1548 88.014 67.1098 88.164 67.1098 88.356C67.1098 88.59 67.1638 88.779 67.2718 88.923C67.3798 89.061 67.5358 89.19 67.7398 89.31ZM67.5328 90.183C67.2088 90.441 67.0468 90.762 67.0468 91.146C67.0468 91.686 67.2478 91.956 67.6498 91.956C68.0278 91.956 68.2168 91.698 68.2168 91.182C68.2168 91.002 68.1748 90.843 68.0908 90.705C68.0128 90.561 67.9348 90.462 67.8568 90.408C67.7848 90.348 67.6768 90.273 67.5328 90.183ZM68.7118 89.679C69.0598 89.859 69.3028 90.072 69.4408 90.318C69.5848 90.558 69.6568 90.87 69.6568 91.254C69.6568 91.854 69.4798 92.313 69.1258 92.631C68.7718 92.943 68.2768 93.099 67.6408 93.099C67.0288 93.099 66.5368 92.949 66.1648 92.649C65.7928 92.343 65.6068 91.896 65.6068 91.308C65.6068 90.522 65.9248 89.979 66.5608 89.679C66.2728 89.499 66.0598 89.298 65.9218 89.076C65.7838 88.854 65.7148 88.563 65.7148 88.203C65.7148 87.699 65.8888 87.306 66.2368 87.024C66.5848 86.742 67.0588 86.601 67.6588 86.601C68.2228 86.601 68.6788 86.73 69.0268 86.988C69.3748 87.24 69.5488 87.633 69.5488 88.167C69.5488 88.857 69.2698 89.361 68.7118 89.679ZM71.7102 92.28C71.7102 92.538 71.6382 92.739 71.4942 92.883C71.3562 93.027 71.1582 93.099 70.9002 93.099C70.6602 93.099 70.4682 93.027 70.3242 92.883C70.1802 92.733 70.1082 92.532 70.1082 92.28C70.1082 92.022 70.1742 91.824 70.3062 91.686C70.4442 91.542 70.6422 91.47 70.9002 91.47C71.1462 91.47 71.3412 91.545 71.4852 91.695C71.6352 91.839 71.7102 92.034 71.7102 92.28ZM72.3049 92.856V91.56C72.7069 91.722 73.0909 91.803 73.4569 91.803C74.0209 91.803 74.3029 91.563 74.3029 91.083C74.3029 90.831 74.2429 90.651 74.1229 90.543C74.0029 90.429 73.8139 90.372 73.5559 90.372H72.8269V89.193H73.4569C73.7149 89.193 73.9009 89.142 74.0149 89.04C74.1349 88.938 74.1949 88.764 74.1949 88.518C74.1949 88.104 73.9579 87.897 73.4839 87.897C73.0759 87.897 72.7129 87.969 72.3949 88.113V86.844C72.8509 86.682 73.3579 86.601 73.9159 86.601C74.2519 86.601 74.5399 86.649 74.7799 86.745C75.0259 86.835 75.2119 86.964 75.3379 87.132C75.4699 87.294 75.5629 87.471 75.6169 87.663C75.6769 87.849 75.7069 88.053 75.7069 88.275C75.7069 89.031 75.4009 89.514 74.7889 89.724V89.742C75.1549 89.826 75.4159 89.988 75.5719 90.228C75.7339 90.468 75.8149 90.786 75.8149 91.182C75.8149 91.758 75.6499 92.223 75.3199 92.577C74.9899 92.925 74.4439 93.099 73.6819 93.099C73.1959 93.099 72.7369 93.018 72.3049 92.856ZM78.3482 89.31C78.6242 89.052 78.7622 88.746 78.7622 88.392C78.7622 87.96 78.5852 87.744 78.2312 87.744C78.0692 87.744 77.9432 87.798 77.8532 87.906C77.7632 88.014 77.7182 88.164 77.7182 88.356C77.7182 88.59 77.7722 88.779 77.8802 88.923C77.9882 89.061 78.1442 89.19 78.3482 89.31ZM78.1412 90.183C77.8172 90.441 77.6552 90.762 77.6552 91.146C77.6552 91.686 77.8562 91.956 78.2582 91.956C78.6362 91.956 78.8252 91.698 78.8252 91.182C78.8252 91.002 78.7832 90.843 78.6992 90.705C78.6212 90.561 78.5432 90.462 78.4652 90.408C78.3932 90.348 78.2852 90.273 78.1412 90.183ZM79.3202 89.679C79.6682 89.859 79.9112 90.072 80.0492 90.318C80.1932 90.558 80.2652 90.87 80.2652 91.254C80.2652 91.854 80.0882 92.313 79.7342 92.631C79.3802 92.943 78.8852 93.099 78.2492 93.099C77.6372 93.099 77.1452 92.949 76.7732 92.649C76.4012 92.343 76.2152 91.896 76.2152 91.308C76.2152 90.522 76.5332 89.979 77.1692 89.679C76.8812 89.499 76.6682 89.298 76.5302 89.076C76.3922 88.854 76.3232 88.563 76.3232 88.203C76.3232 87.699 76.4972 87.306 76.8452 87.024C77.1932 86.742 77.6672 86.601 78.2672 86.601C78.8312 86.601 79.2872 86.73 79.6352 86.988C79.9832 87.24 80.1572 87.633 80.1572 88.167C80.1572 88.857 79.8782 89.361 79.3202 89.679ZM82.7423 91.83C82.9523 91.83 83.0993 91.698 83.1833 91.434C83.2733 91.164 83.3183 90.642 83.3183 89.868C83.3183 89.076 83.2733 88.545 83.1833 88.275C83.0993 88.005 82.9433 87.87 82.7153 87.87C82.4993 87.87 82.3493 88.008 82.2653 88.284C82.1813 88.56 82.1393 89.088 82.1393 89.868C82.1393 90.642 82.1813 91.164 82.2653 91.434C82.3553 91.698 82.5143 91.83 82.7423 91.83ZM82.7333 93.099C82.0133 93.099 81.4853 92.853 81.1493 92.361C80.8193 91.869 80.6543 91.032 80.6543 89.85C80.6543 88.668 80.8223 87.831 81.1583 87.339C81.4943 86.847 82.0133 86.601 82.7153 86.601C83.4533 86.601 83.9843 86.847 84.3083 87.339C84.6323 87.825 84.7943 88.662 84.7943 89.85C84.7943 91.032 84.6263 91.869 84.2903 92.361C83.9543 92.853 83.4353 93.099 82.7333 93.099Z" fill="#4D4D4D"/>
<path d="M103.575 43.25V47.363L104.448 45.41H105.852L104.826 47.471L105.987 50H104.547L103.575 47.651V50H102.297V43.25H103.575ZM108.524 45.959V45.41H109.775V49.946C109.775 50.342 109.718 50.678 109.604 50.954C109.49 51.23 109.328 51.437 109.118 51.575C108.914 51.719 108.692 51.821 108.452 51.881C108.212 51.941 107.942 51.971 107.642 51.971C107.072 51.971 106.643 51.896 106.355 51.746V50.594C106.667 50.756 107.036 50.837 107.462 50.837C107.852 50.837 108.122 50.753 108.272 50.585C108.428 50.423 108.506 50.153 108.506 49.775V49.316H108.488C108.302 49.772 107.951 50 107.435 50C106.973 50 106.616 49.832 106.364 49.496C106.112 49.16 105.986 48.578 105.986 47.75C105.986 46.886 106.106 46.268 106.346 45.896C106.592 45.524 106.967 45.338 107.471 45.338C107.987 45.338 108.335 45.545 108.515 45.959H108.524ZM107.885 46.427C107.681 46.427 107.531 46.517 107.435 46.697C107.345 46.871 107.3 47.201 107.3 47.687C107.3 48.137 107.351 48.455 107.453 48.641C107.555 48.821 107.702 48.911 107.894 48.911C108.104 48.911 108.257 48.818 108.353 48.632C108.455 48.446 108.506 48.128 108.506 47.678C108.506 47.216 108.455 46.892 108.353 46.706C108.257 46.52 108.101 46.427 107.885 46.427Z" fill="#4D4D4D"/>
<path d="M103.575 74.25V78.363L104.448 76.41H105.852L104.826 78.471L105.987 81H104.547L103.575 78.651V81H102.297V74.25H103.575ZM108.524 76.959V76.41H109.775V80.946C109.775 81.342 109.718 81.678 109.604 81.954C109.49 82.23 109.328 82.437 109.118 82.575C108.914 82.719 108.692 82.821 108.452 82.881C108.212 82.941 107.942 82.971 107.642 82.971C107.072 82.971 106.643 82.896 106.355 82.746V81.594C106.667 81.756 107.036 81.837 107.462 81.837C107.852 81.837 108.122 81.753 108.272 81.585C108.428 81.423 108.506 81.153 108.506 80.775V80.316H108.488C108.302 80.772 107.951 81 107.435 81C106.973 81 106.616 80.832 106.364 80.496C106.112 80.16 105.986 79.578 105.986 78.75C105.986 77.886 106.106 77.268 106.346 76.896C106.592 76.524 106.967 76.338 107.471 76.338C107.987 76.338 108.335 76.545 108.515 76.959H108.524ZM107.885 77.427C107.681 77.427 107.531 77.517 107.435 77.697C107.345 77.871 107.3 78.201 107.3 78.687C107.3 79.137 107.351 79.455 107.453 79.641C107.555 79.821 107.702 79.911 107.894 79.911C108.104 79.911 108.257 79.818 108.353 79.632C108.455 79.446 108.506 79.128 108.506 78.678C108.506 78.216 108.455 77.892 108.353 77.706C108.257 77.52 108.101 77.427 107.885 77.427Z" fill="#4D4D4D"/>
<path d="M103.575 55.25V62H102.297V55.25H103.575ZM105.411 61.469V62H104.16V55.25H105.438V58.013H105.447C105.525 57.815 105.657 57.653 105.843 57.527C106.035 57.401 106.278 57.338 106.572 57.338C107.016 57.338 107.355 57.509 107.589 57.851C107.829 58.193 107.949 58.784 107.949 59.624C107.949 60.5 107.829 61.127 107.589 61.505C107.355 61.883 106.98 62.072 106.464 62.072C105.966 62.072 105.618 61.871 105.42 61.469H105.411ZM106.05 60.983C106.26 60.983 106.41 60.893 106.5 60.713C106.59 60.527 106.635 60.173 106.635 59.651C106.635 59.189 106.587 58.871 106.491 58.697C106.395 58.517 106.251 58.427 106.059 58.427C105.849 58.427 105.693 58.523 105.591 58.715C105.489 58.907 105.438 59.24 105.438 59.714C105.438 60.56 105.642 60.983 106.05 60.983ZM108.378 61.874V60.794C108.654 60.98 109.032 61.073 109.512 61.073C109.818 61.073 109.971 60.953 109.971 60.713C109.971 60.593 109.911 60.488 109.791 60.398C109.677 60.308 109.539 60.224 109.377 60.146C109.215 60.068 109.05 59.978 108.882 59.876C108.72 59.774 108.579 59.621 108.459 59.417C108.345 59.213 108.288 58.964 108.288 58.67C108.288 57.77 108.825 57.32 109.899 57.32C110.289 57.32 110.655 57.371 110.997 57.473V58.526C110.739 58.4 110.409 58.337 110.007 58.337C109.701 58.337 109.548 58.436 109.548 58.634C109.548 58.742 109.605 58.838 109.719 58.922C109.839 59 109.98 59.078 110.142 59.156C110.304 59.228 110.466 59.318 110.628 59.426C110.796 59.528 110.937 59.684 111.051 59.894C111.171 60.098 111.231 60.35 111.231 60.65C111.231 61.61 110.685 62.09 109.593 62.09C109.125 62.09 108.72 62.018 108.378 61.874Z" fill="#4D4D4D"/>
<path d="M103.575 86.25V93H102.297V86.25H103.575ZM105.411 92.469V93H104.16V86.25H105.438V89.013H105.447C105.525 88.815 105.657 88.653 105.843 88.527C106.035 88.401 106.278 88.338 106.572 88.338C107.016 88.338 107.355 88.509 107.589 88.851C107.829 89.193 107.949 89.784 107.949 90.624C107.949 91.5 107.829 92.127 107.589 92.505C107.355 92.883 106.98 93.072 106.464 93.072C105.966 93.072 105.618 92.871 105.42 92.469H105.411ZM106.05 91.983C106.26 91.983 106.41 91.893 106.5 91.713C106.59 91.527 106.635 91.173 106.635 90.651C106.635 90.189 106.587 89.871 106.491 89.697C106.395 89.517 106.251 89.427 106.059 89.427C105.849 89.427 105.693 89.523 105.591 89.715C105.489 89.907 105.438 90.24 105.438 90.714C105.438 91.56 105.642 91.983 106.05 91.983ZM108.378 92.874V91.794C108.654 91.98 109.032 92.073 109.512 92.073C109.818 92.073 109.971 91.953 109.971 91.713C109.971 91.593 109.911 91.488 109.791 91.398C109.677 91.308 109.539 91.224 109.377 91.146C109.215 91.068 109.05 90.978 108.882 90.876C108.72 90.774 108.579 90.621 108.459 90.417C108.345 90.213 108.288 89.964 108.288 89.67C108.288 88.77 108.825 88.32 109.899 88.32C110.289 88.32 110.655 88.371 110.997 88.473V89.526C110.739 89.4 110.409 89.337 110.007 89.337C109.701 89.337 109.548 89.436 109.548 89.634C109.548 89.742 109.605 89.838 109.719 89.922C109.839 90 109.98 90.078 110.142 90.156C110.304 90.228 110.466 90.318 110.628 90.426C110.796 90.528 110.937 90.684 111.051 90.894C111.171 91.098 111.231 91.35 111.231 91.65C111.231 92.61 110.685 93.09 109.593 93.09C109.125 93.09 108.72 93.018 108.378 92.874Z" fill="#4D4D4D"/>
<rect y="115" width="17" height="17" fill="#FFA645"/>
<rect x="23" y="115" width="17" height="17" fill="#FFA645"/>
</svg>
