<svg width="148" height="66" viewBox="0 0 148 66" fill="none" xmlns="http://www.w3.org/2000/svg">
<path d="M82.1421 23.8298C85.8465 23.8298 88.1586 25.6023 89.526 27.6948L86.3685 29.3934C85.5481 28.1379 84.0067 27.1532 82.1421 27.1532C78.9101 27.1532 76.5483 29.615 76.5483 32.963C76.5483 36.311 78.9101 38.7728 82.1421 38.7728C83.783 38.7728 85.2249 38.1081 85.9956 37.4188V35.2771H81.2222V32.0521H89.7497V38.822C87.9348 40.8407 85.3741 42.17 82.1421 42.17C76.9212 42.17 72.6451 38.5512 72.6451 32.9876C72.6451 27.3994 76.9212 23.8298 82.1421 23.8298Z" fill="#3E3B38"/>
<path d="M100.167 23.8298C105.586 23.8298 109.515 27.6456 109.515 32.9876C109.515 38.3296 105.586 42.1454 100.167 42.1454C94.7717 42.1454 90.8436 38.3296 90.8436 32.9876C90.8436 27.6456 94.7966 23.8298 100.167 23.8298ZM100.167 27.1778C96.8601 27.1778 94.7468 29.6642 94.7468 32.9876C94.7468 36.2864 96.8601 38.7974 100.167 38.7974C103.473 38.7974 105.611 36.2864 105.611 32.9876C105.611 29.6642 103.473 27.1778 100.167 27.1778Z" fill="#3E3B38"/>
<path d="M111.131 24.1252H114.934V38.502H122.492V41.8254H111.131V24.1252Z" fill="#3E3B38"/>
<path d="M124.059 24.1252H131.094C136.688 24.1252 140.566 27.6456 140.566 32.9876C140.566 38.3296 136.688 41.8254 131.094 41.8254H124.059V24.1252ZM131.119 38.502C134.649 38.502 136.713 35.991 136.713 32.9876C136.713 29.8612 134.774 27.4486 131.119 27.4486H127.887V38.502H131.119Z" fill="#3E3B38"/>
<path d="M14.0964 33.0123L16.0107 28.458L20.8339 16.9123L20.7095 16.9616L20.6847 16.74L20.3118 16.7154L12.4058 15.8538L7.40869 27.818L13.8727 33.0123L14.0467 32.8646L14.0964 33.0123Z" fill="#E2E2E2"/>
<path d="M20.8339 16.9124L25.8807 14.8445L29.7591 13.2444L37.0932 10.241L36.9441 10.1918L37.0932 10.0195L31.8723 3.59424L27.5962 5.34209L19.7897 8.54239L20.6101 16.1246L20.6847 16.7647L20.9084 16.7893L20.8339 16.9124Z" fill="#E2E2E2"/>
<path d="M20.8339 49.1122L14.8671 34.8093L14.0964 33.0122L14.0467 33.1353L13.8727 33.0122L7.40869 38.1819L12.4058 50.1461L15.2898 49.8261L20.6847 49.2599L20.7095 49.0629L20.8339 49.1122Z" fill="#E2E2E2"/>
<path d="M37.1181 55.7837L20.8339 49.1123L20.9084 49.2354L20.6847 49.26L19.7897 57.4577L31.8723 62.4305L37.1181 56.0053L36.9689 55.8329L37.1181 55.7837Z" fill="#E2E2E2"/>
<path d="M35.2535 29.8365C35.2535 26.5378 32.9662 24.1252 29.2619 24.1252H26.2537H20.9084V41.8254H24.7122V35.474H27.4967L31.0022 41.8254H32.4939H35.3778L31.3502 35.0801C33.2894 34.637 35.2535 32.963 35.2535 29.8365ZM24.7122 32.2491V27.3748H26.8255H28.6901C30.2066 27.3748 31.3751 28.3349 31.3751 29.8119C31.3751 31.289 30.2315 32.2491 28.6901 32.2491H28.1183H24.7122Z" fill="#3E3B38"/>
<path d="M53.3775 49.1123L42.339 53.642L37.1181 55.7837L37.2424 55.8329L37.1181 56.0053L42.339 62.4305L50.0958 59.2302L54.4217 57.4577L53.5266 49.26L53.3029 49.2354L53.3775 49.1123Z" fill="#E2E2E2"/>
<path d="M44.8003 33.8985C45.4218 34.3909 46.0682 34.8586 46.7146 35.3018H49.5737V37.1481V37.4681C48.803 38.1574 47.361 38.8221 45.7201 38.8221C42.4882 38.8221 40.1263 36.3603 40.1263 33.0123C40.1263 32.0276 40.3252 31.1167 40.723 30.329C41.618 28.4334 43.4578 27.2025 45.745 27.2025C47.6096 27.2025 49.151 28.1872 49.9714 29.4427L53.1288 27.7441C51.7615 25.6516 49.4245 23.8792 45.745 23.8792C42.5876 23.8792 39.7783 25.1839 38.038 27.4487C36.8943 28.9258 36.2231 30.8213 36.2231 33.0369C36.2231 38.6005 40.4992 42.2193 45.7201 42.2193C48.8278 42.2193 51.314 40.9884 53.1288 39.0929C53.2034 39.019 53.278 38.9452 53.3277 38.8713V32.1015H44.8003V33.8985Z" fill="#3E3B38"/>
<path d="M60.1646 33.1353L60.1149 33.0122L56.8829 40.6929L53.3775 49.1122L53.5018 49.0629L53.5266 49.2599L61.8055 50.1461L64.764 43.0808L66.8026 38.1819L60.3387 33.0122L60.1646 33.1353Z" fill="#E2E2E2"/>
<path d="M53.3775 16.9123L60.1149 33.0123L60.1646 32.8646L60.3387 33.0123L66.8026 27.818L61.8055 15.8538L53.5266 16.74L53.5018 16.9616L53.3775 16.9123Z" fill="#E2E2E2"/>
<path d="M37.1181 10.241L53.3775 16.9124L53.3029 16.7647L53.5266 16.7401L54.4217 8.54239L42.339 3.59424L37.1181 10.0195L37.2424 10.1672L37.1181 10.241Z" fill="#E2E2E2"/>
</svg>
