<svg width="149" height="1825" viewBox="0 0 149 1825" fill="none" xmlns="http://www.w3.org/2000/svg">
<g filter="url(#filter0_f_707_9)">
<ellipse cx="103" cy="190.5" rx="35.5" ry="19" transform="rotate(-90 103 190.5)" fill="#4D4D4D"/>
</g>
<rect x="10" y="168" width="103" height="108" fill="#F8F9F9"/>
<path fill-rule="evenodd" clip-rule="evenodd" d="M74.97 175.535H71.573H68.171V178.932V182.334V185.608V185.731V189.005V192.407V195.804V199.201V202.603V206V209.402V212.799V216.201V219.598V223V226.397H64.774H61.372H57.975H54.578H51.176H47.779H44.377H40.98H37.5781H34.181H30.7791H27.3821H23.985H20.5831H17.186V229.799V233.196V236.593H20.5831H23.985H27.3821H30.7791H34.181H37.5781H40.98H44.377H47.779H51.176H54.578H57.975H61.372H64.774H68.171H71.573H74.97H78.3719V233.196V229.799V226.397V223V219.598V216.201V212.799V209.402V206V202.603V199.201V195.804V192.407V189.005V185.731V185.608V182.334V178.932V175.535H74.97ZM88.5385 175.535H85.1365H81.7395V178.932V182.334V185.608V185.731V189.005V192.407V195.804V199.201V202.603V206V209.402V212.799V216.201V219.598V223V226.397V229.799V233.196V236.593V239.98H78.3719H74.97H71.573H68.171H64.774H61.372H57.975H54.578H51.176H47.779H44.377H40.98H37.5781H34.181H30.7791H27.3821H23.985H20.5831H17.186V243.382V246.779V250.176H20.5831H23.985H27.3821H30.7791H34.181H37.5781H40.98H44.377H47.779H51.176H54.578H57.975H61.372H64.774H68.171H71.573H74.97H78.3719H81.7395V250.191H85.1365H88.5385H91.9355V246.794V243.392V239.995V236.593V233.196V229.799V226.397V223V219.598V216.201V212.799V209.402V206V202.603V199.201V195.804V192.407V189.005V185.731V185.608V182.334V178.932V175.535H88.5385ZM98.759 175.535H102.156H105.558V178.932V182.334V185.608V185.731V189.005V192.407V195.804V199.201V202.603V206V209.402V212.799V216.201V219.598V223V226.397V229.799V233.196V236.593V239.995V243.392V246.794V250.191V253.593V256.99V260.392V263.789H102.156H98.759H95.3571V263.765H91.965H88.5679H85.166H81.769H78.3719H74.97H71.5729H68.171H64.774H61.372H57.975H54.578H51.176H47.779H44.377H40.98H37.5781H34.181H30.7791H27.3821H23.985H20.5831H17.186V260.363V256.966V253.564H20.5831H23.985H27.3821H30.7791H34.181H37.5781H40.98H44.377H47.779H51.176H54.578H57.975H61.372H64.774H68.171H71.5729H74.97H78.3719H81.769H85.166H88.5679H91.965H95.3571V250.191V246.794V243.392V239.995V236.593V233.196V229.799V226.397V223V219.598V216.201V212.799V209.402V206V202.603V199.201V195.804V192.407V189.005V185.731V185.608V182.334V178.932V175.535H98.759Z" fill="#4D4D4D"/>
<path d="M7.728 3.987V5.832H8.115C8.355 5.832 8.526 5.76 8.628 5.616C8.736 5.466 8.79 5.229 8.79 4.905C8.79 4.563 8.739 4.326 8.637 4.194C8.535 4.056 8.358 3.987 8.106 3.987H7.728ZM7.773 7.119V9H6.342V2.7H8.214C8.898 2.7 9.405 2.871 9.735 3.213C10.065 3.555 10.23 4.098 10.23 4.842C10.23 6.36 9.525 7.119 8.115 7.119H7.773ZM13.3736 9L13.1036 7.686H11.6906L11.4296 9H10.0436L11.4206 2.7H13.4366L14.7956 9H13.3736ZM12.4016 4.167L11.9516 6.399H12.8516L12.4016 4.167ZM17.1528 6.705V9H15.7218V6.705L14.1558 2.7H15.7308L16.4508 4.977L17.1438 2.7H18.7098L17.1528 6.705ZM22.2104 7.632V9H19.0334V2.7H20.4644V7.632H22.2104ZM24.0541 7.38C24.2041 7.662 24.4291 7.803 24.7291 7.803C25.0291 7.803 25.2451 7.665 25.3771 7.389C25.5151 7.107 25.5841 6.594 25.5841 5.85C25.5841 5.106 25.5151 4.596 25.3771 4.32C25.2391 4.038 25.0141 3.897 24.7021 3.897C24.4021 3.897 24.1831 4.041 24.0451 4.329C23.9071 4.611 23.8381 5.118 23.8381 5.85C23.8381 6.582 23.9101 7.092 24.0541 7.38ZM24.7291 9.099C23.9251 9.099 23.3251 8.844 22.9291 8.334C22.5331 7.824 22.3351 6.996 22.3351 5.85C22.3351 4.704 22.5331 3.876 22.9291 3.366C23.3251 2.856 23.9161 2.601 24.7021 2.601C25.5241 2.601 26.1271 2.859 26.5111 3.375C26.8951 3.885 27.0871 4.71 27.0871 5.85C27.0871 7.02 26.8891 7.854 26.4931 8.352C26.1031 8.85 25.5151 9.099 24.7291 9.099ZM30.5123 9L30.2423 7.686H28.8293L28.5683 9H27.1823L28.5593 2.7H30.5753L31.9343 9H30.5123ZM29.5403 4.167L29.0903 6.399H29.9903L29.5403 4.167ZM33.7269 3.996V7.704H34.0509C34.4349 7.704 34.7109 7.56 34.8789 7.272C35.0469 6.978 35.1309 6.492 35.1309 5.814C35.1309 5.136 35.0529 4.665 34.8969 4.401C34.7409 4.131 34.4739 3.996 34.0959 3.996H33.7269ZM34.0239 9H32.3049V2.7H34.0959C35.0139 2.7 35.6559 2.949 36.0219 3.447C36.3939 3.945 36.5799 4.719 36.5799 5.769C36.5799 6.867 36.3759 7.68 35.9679 8.208C35.5599 8.736 34.9119 9 34.0239 9Z" fill="#4D4D4D"/>
<path d="M71.4088 7.695V9H67.8628V7.668L68.5108 6.957C69.0028 6.477 69.3478 6.081 69.5458 5.769C69.7498 5.457 69.8518 5.139 69.8518 4.815C69.8518 4.527 69.7888 4.308 69.6628 4.158C69.5368 4.008 69.3268 3.933 69.0328 3.933C68.6728 3.933 68.3188 4.032 67.9708 4.23V2.871C68.4388 2.691 68.9608 2.601 69.5368 2.601C69.8908 2.601 70.1938 2.652 70.4458 2.754C70.6978 2.856 70.8898 3 71.0218 3.186C71.1538 3.366 71.2498 3.561 71.3098 3.771C71.3698 3.981 71.3998 4.212 71.3998 4.464C71.3998 5.016 71.2648 5.526 70.9948 5.994C70.7308 6.456 70.3348 6.945 69.8068 7.461L69.5638 7.677V7.695H71.4088ZM73.9859 5.31C74.2619 5.052 74.3999 4.746 74.3999 4.392C74.3999 3.96 74.2229 3.744 73.8689 3.744C73.7069 3.744 73.5809 3.798 73.4909 3.906C73.4009 4.014 73.3559 4.164 73.3559 4.356C73.3559 4.59 73.4099 4.779 73.5179 4.923C73.6259 5.061 73.7819 5.19 73.9859 5.31ZM73.7789 6.183C73.4549 6.441 73.2929 6.762 73.2929 7.146C73.2929 7.686 73.4939 7.956 73.8959 7.956C74.2739 7.956 74.4629 7.698 74.4629 7.182C74.4629 7.002 74.4209 6.843 74.3369 6.705C74.2589 6.561 74.1809 6.462 74.1029 6.408C74.0309 6.348 73.9229 6.273 73.7789 6.183ZM74.9579 5.679C75.3059 5.859 75.5489 6.072 75.6869 6.318C75.8309 6.558 75.9029 6.87 75.9029 7.254C75.9029 7.854 75.7259 8.313 75.3719 8.631C75.0179 8.943 74.5229 9.099 73.8869 9.099C73.2749 9.099 72.7829 8.949 72.4109 8.649C72.0389 8.343 71.8529 7.896 71.8529 7.308C71.8529 6.522 72.1709 5.979 72.8069 5.679C72.5189 5.499 72.3059 5.298 72.1679 5.076C72.0299 4.854 71.9609 4.563 71.9609 4.203C71.9609 3.699 72.1349 3.306 72.4829 3.024C72.8309 2.742 73.3049 2.601 73.9049 2.601C74.4689 2.601 74.9249 2.73 75.2729 2.988C75.6209 3.24 75.7949 3.633 75.7949 4.167C75.7949 4.857 75.5159 5.361 74.9579 5.679ZM77.9563 8.28C77.9563 8.538 77.8843 8.739 77.7403 8.883C77.6023 9.027 77.4043 9.099 77.1463 9.099C76.9063 9.099 76.7143 9.027 76.5703 8.883C76.4263 8.733 76.3543 8.532 76.3543 8.28C76.3543 8.022 76.4203 7.824 76.5523 7.686C76.6903 7.542 76.8883 7.47 77.1463 7.47C77.3923 7.47 77.5873 7.545 77.7313 7.695C77.8813 7.839 77.9563 8.034 77.9563 8.28ZM81.7002 3.816L80.1972 9H78.5862L80.1612 3.969H78.1092V2.7H81.7002V3.816ZM84.1895 7.83C84.3995 7.83 84.5465 7.698 84.6305 7.434C84.7205 7.164 84.7655 6.642 84.7655 5.868C84.7655 5.076 84.7205 4.545 84.6305 4.275C84.5465 4.005 84.3905 3.87 84.1625 3.87C83.9465 3.87 83.7965 4.008 83.7125 4.284C83.6285 4.56 83.5865 5.088 83.5865 5.868C83.5865 6.642 83.6285 7.164 83.7125 7.434C83.8025 7.698 83.9615 7.83 84.1895 7.83ZM84.1805 9.099C83.4605 9.099 82.9325 8.853 82.5965 8.361C82.2665 7.869 82.1015 7.032 82.1015 5.85C82.1015 4.668 82.2695 3.831 82.6055 3.339C82.9415 2.847 83.4605 2.601 84.1625 2.601C84.9005 2.601 85.4315 2.847 85.7555 3.339C86.0795 3.825 86.2415 4.662 86.2415 5.85C86.2415 7.032 86.0735 7.869 85.7375 8.361C85.4015 8.853 84.8825 9.099 84.1805 9.099ZM88.7423 7.83C88.9523 7.83 89.0993 7.698 89.1833 7.434C89.2733 7.164 89.3183 6.642 89.3183 5.868C89.3183 5.076 89.2733 4.545 89.1833 4.275C89.0993 4.005 88.9433 3.87 88.7153 3.87C88.4993 3.87 88.3493 4.008 88.2653 4.284C88.1813 4.56 88.1393 5.088 88.1393 5.868C88.1393 6.642 88.1813 7.164 88.2653 7.434C88.3553 7.698 88.5143 7.83 88.7423 7.83ZM88.7333 9.099C88.0133 9.099 87.4853 8.853 87.1493 8.361C86.8193 7.869 86.6543 7.032 86.6543 5.85C86.6543 4.668 86.8223 3.831 87.1583 3.339C87.4943 2.847 88.0133 2.601 88.7153 2.601C89.4533 2.601 89.9843 2.847 90.3083 3.339C90.6323 3.825 90.7943 4.662 90.7943 5.85C90.7943 7.032 90.6263 7.869 90.2903 8.361C89.9543 8.853 89.4353 9.099 88.7333 9.099Z" fill="#4D4D4D"/>
<path d="M70.257 19.938C70.581 19.938 70.743 19.614 70.743 18.966C70.743 18.306 70.575 17.976 70.239 17.976C69.891 17.976 69.717 18.261 69.717 18.831C69.717 19.569 69.897 19.938 70.257 19.938ZM71.796 14.763V16.041C71.502 15.921 71.181 15.861 70.833 15.861C70.041 15.861 69.645 16.395 69.645 17.463C69.861 17.115 70.209 16.941 70.689 16.941C71.151 16.941 71.517 17.097 71.787 17.409C72.063 17.721 72.201 18.225 72.201 18.921C72.201 19.623 72.033 20.163 71.697 20.541C71.367 20.913 70.902 21.099 70.302 21.099C69.606 21.099 69.09 20.853 68.754 20.361C68.424 19.869 68.259 19.104 68.259 18.066C68.259 16.944 68.445 16.086 68.817 15.492C69.189 14.898 69.801 14.601 70.653 14.601C71.061 14.601 71.442 14.655 71.796 14.763ZM72.5568 20.856V19.56C72.9588 19.722 73.3428 19.803 73.7088 19.803C74.2728 19.803 74.5548 19.563 74.5548 19.083C74.5548 18.831 74.4948 18.651 74.3748 18.543C74.2548 18.429 74.0658 18.372 73.8078 18.372H73.0788V17.193H73.7088C73.9668 17.193 74.1528 17.142 74.2668 17.04C74.3868 16.938 74.4468 16.764 74.4468 16.518C74.4468 16.104 74.2098 15.897 73.7358 15.897C73.3278 15.897 72.9648 15.969 72.6468 16.113V14.844C73.1028 14.682 73.6098 14.601 74.1678 14.601C74.5038 14.601 74.7918 14.649 75.0318 14.745C75.2778 14.835 75.4638 14.964 75.5898 15.132C75.7218 15.294 75.8148 15.471 75.8688 15.663C75.9288 15.849 75.9588 16.053 75.9588 16.275C75.9588 17.031 75.6528 17.514 75.0408 17.724V17.742C75.4068 17.826 75.6678 17.988 75.8238 18.228C75.9858 18.468 76.0668 18.786 76.0668 19.182C76.0668 19.758 75.9018 20.223 75.5718 20.577C75.2418 20.925 74.6958 21.099 73.9338 21.099C73.4478 21.099 72.9888 21.018 72.5568 20.856ZM78.1321 20.28C78.1321 20.538 78.0601 20.739 77.9161 20.883C77.7781 21.027 77.5801 21.099 77.3221 21.099C77.0821 21.099 76.8901 21.027 76.7461 20.883C76.6021 20.733 76.5301 20.532 76.5301 20.28C76.5301 20.022 76.5961 19.824 76.7281 19.686C76.8661 19.542 77.0641 19.47 77.3221 19.47C77.5681 19.47 77.7631 19.545 77.9071 19.695C78.0571 19.839 78.1321 20.034 78.1321 20.28ZM82.2809 19.695V21H78.7349V19.668L79.3829 18.957C79.8749 18.477 80.2199 18.081 80.4179 17.769C80.6219 17.457 80.7239 17.139 80.7239 16.815C80.7239 16.527 80.6609 16.308 80.5349 16.158C80.4089 16.008 80.1989 15.933 79.9049 15.933C79.5449 15.933 79.1909 16.032 78.8429 16.23V14.871C79.3109 14.691 79.8329 14.601 80.4089 14.601C80.7629 14.601 81.0659 14.652 81.3179 14.754C81.5699 14.856 81.7619 15 81.8939 15.186C82.0259 15.366 82.1219 15.561 82.1819 15.771C82.2419 15.981 82.2719 16.212 82.2719 16.464C82.2719 17.016 82.1369 17.526 81.8669 17.994C81.6029 18.456 81.2069 18.945 80.6789 19.461L80.4359 19.677V19.695H82.2809ZM86.2529 15.816L84.7499 21H83.1389L84.7139 15.969H82.6619V14.7H86.2529V15.816ZM88.7423 19.83C88.9523 19.83 89.0993 19.698 89.1833 19.434C89.2733 19.164 89.3183 18.642 89.3183 17.868C89.3183 17.076 89.2733 16.545 89.1833 16.275C89.0993 16.005 88.9433 15.87 88.7153 15.87C88.4993 15.87 88.3493 16.008 88.2653 16.284C88.1813 16.56 88.1393 17.088 88.1393 17.868C88.1393 18.642 88.1813 19.164 88.2653 19.434C88.3553 19.698 88.5143 19.83 88.7423 19.83ZM88.7333 21.099C88.0133 21.099 87.4853 20.853 87.1493 20.361C86.8193 19.869 86.6543 19.032 86.6543 17.85C86.6543 16.668 86.8223 15.831 87.1583 15.339C87.4943 14.847 88.0133 14.601 88.7153 14.601C89.4533 14.601 89.9843 14.847 90.3083 15.339C90.6323 15.825 90.7943 16.662 90.7943 17.85C90.7943 19.032 90.6263 19.869 90.2903 20.361C89.9543 20.853 89.4353 21.099 88.7333 21.099Z" fill="#4D4D4D"/>
<path d="M109.575 2.25V6.363L110.448 4.41H111.852L110.826 6.471L111.987 9H110.547L109.575 6.651V9H108.297V2.25H109.575ZM114.524 4.959V4.41H115.775V8.946C115.775 9.342 115.718 9.678 115.604 9.954C115.49 10.23 115.328 10.437 115.118 10.575C114.914 10.719 114.692 10.821 114.452 10.881C114.212 10.941 113.942 10.971 113.642 10.971C113.072 10.971 112.643 10.896 112.355 10.746V9.594C112.667 9.756 113.036 9.837 113.462 9.837C113.852 9.837 114.122 9.753 114.272 9.585C114.428 9.423 114.506 9.153 114.506 8.775V8.316H114.488C114.302 8.772 113.951 9 113.435 9C112.973 9 112.616 8.832 112.364 8.496C112.112 8.16 111.986 7.578 111.986 6.75C111.986 5.886 112.106 5.268 112.346 4.896C112.592 4.524 112.967 4.338 113.471 4.338C113.987 4.338 114.335 4.545 114.515 4.959H114.524ZM113.885 5.427C113.681 5.427 113.531 5.517 113.435 5.697C113.345 5.871 113.3 6.201 113.3 6.687C113.3 7.137 113.351 7.455 113.453 7.641C113.555 7.821 113.702 7.911 113.894 7.911C114.104 7.911 114.257 7.818 114.353 7.632C114.455 7.446 114.506 7.128 114.506 6.678C114.506 6.216 114.455 5.892 114.353 5.706C114.257 5.52 114.101 5.427 113.885 5.427Z" fill="#4D4D4D"/>
<path d="M109.575 14.25V21H108.297V14.25H109.575ZM111.411 20.469V21H110.16V14.25H111.438V17.013H111.447C111.525 16.815 111.657 16.653 111.843 16.527C112.035 16.401 112.278 16.338 112.572 16.338C113.016 16.338 113.355 16.509 113.589 16.851C113.829 17.193 113.949 17.784 113.949 18.624C113.949 19.5 113.829 20.127 113.589 20.505C113.355 20.883 112.98 21.072 112.464 21.072C111.966 21.072 111.618 20.871 111.42 20.469H111.411ZM112.05 19.983C112.26 19.983 112.41 19.893 112.5 19.713C112.59 19.527 112.635 19.173 112.635 18.651C112.635 18.189 112.587 17.871 112.491 17.697C112.395 17.517 112.251 17.427 112.059 17.427C111.849 17.427 111.693 17.523 111.591 17.715C111.489 17.907 111.438 18.24 111.438 18.714C111.438 19.56 111.642 19.983 112.05 19.983ZM114.378 20.874V19.794C114.654 19.98 115.032 20.073 115.512 20.073C115.818 20.073 115.971 19.953 115.971 19.713C115.971 19.593 115.911 19.488 115.791 19.398C115.677 19.308 115.539 19.224 115.377 19.146C115.215 19.068 115.05 18.978 114.882 18.876C114.72 18.774 114.579 18.621 114.459 18.417C114.345 18.213 114.288 17.964 114.288 17.67C114.288 16.77 114.825 16.32 115.899 16.32C116.289 16.32 116.655 16.371 116.997 16.473V17.526C116.739 17.4 116.409 17.337 116.007 17.337C115.701 17.337 115.548 17.436 115.548 17.634C115.548 17.742 115.605 17.838 115.719 17.922C115.839 18 115.98 18.078 116.142 18.156C116.304 18.228 116.466 18.318 116.628 18.426C116.796 18.528 116.937 18.684 117.051 18.894C117.171 19.098 117.231 19.35 117.231 19.65C117.231 20.61 116.685 21.09 115.593 21.09C115.125 21.09 114.72 21.018 114.378 20.874Z" fill="#4D4D4D"/>
<path d="M7.03 755.7V762H5.689V757.626L4.825 762H3.556L2.683 757.68V762H1.342V755.7H3.403L4.222 760.2L5.05 755.7H7.03ZM10.7291 762L10.4591 760.686H9.04607L8.78507 762H7.39907L8.77607 755.7H10.7921L12.1511 762H10.7291ZM9.75707 757.167L9.30707 759.399H10.2071L9.75707 757.167ZM16.9283 762H15.3263L14.5883 759.849L13.8953 762H12.3473L13.5533 758.751L12.4373 755.7H14.0123L14.6423 757.734L15.3083 755.7H16.8473L15.6593 758.733L16.9283 762ZM18.7971 761.28C18.7971 761.538 18.7251 761.739 18.5811 761.883C18.4431 762.027 18.2451 762.099 17.9871 762.099C17.7471 762.099 17.5551 762.027 17.4111 761.883C17.2671 761.733 17.1951 761.532 17.1951 761.28C17.1951 761.022 17.2611 760.824 17.3931 760.686C17.5311 760.542 17.7291 760.47 17.9871 760.47C18.2331 760.47 18.4281 760.545 18.5721 760.695C18.7221 760.839 18.7971 761.034 18.7971 761.28ZM22.2749 760.713V759.606H21.5729V758.4H23.4899V761.694C23.0159 761.964 22.4699 762.099 21.8519 762.099C20.9759 762.099 20.3249 761.841 19.8989 761.325C19.4729 760.809 19.2599 760.011 19.2599 758.931C19.2599 757.767 19.4699 756.921 19.8899 756.393C20.3099 755.865 20.9819 755.601 21.9059 755.601C22.4099 755.601 22.8389 755.673 23.1929 755.817V757.113C22.9349 756.993 22.5869 756.933 22.1489 756.933C21.6569 756.933 21.2939 757.074 21.0599 757.356C20.8319 757.632 20.7179 758.136 20.7179 758.868C20.7179 759.552 20.8079 760.041 20.9879 760.335C21.1739 760.629 21.4649 760.776 21.8609 760.776C22.0169 760.776 22.1549 760.755 22.2749 760.713ZM24.1233 762V755.7H26.0312C27.3453 755.7 28.0023 756.363 28.0023 757.689C28.0023 758.553 27.7443 759.153 27.2283 759.489L28.2453 762H26.7243L25.8873 759.795H25.5543V762H24.1233ZM25.5093 756.987V758.598H25.9053C26.1333 758.598 26.2983 758.535 26.4003 758.409C26.5023 758.283 26.5533 758.073 26.5533 757.779C26.5533 757.509 26.5023 757.311 26.4003 757.185C26.2983 757.053 26.1333 756.987 25.9053 756.987H25.5093ZM30.1723 760.38C30.3223 760.662 30.5473 760.803 30.8473 760.803C31.1473 760.803 31.3633 760.665 31.4953 760.389C31.6333 760.107 31.7023 759.594 31.7023 758.85C31.7023 758.106 31.6333 757.596 31.4953 757.32C31.3573 757.038 31.1323 756.897 30.8203 756.897C30.5203 756.897 30.3013 757.041 30.1633 757.329C30.0253 757.611 29.9563 758.118 29.9563 758.85C29.9563 759.582 30.0283 760.092 30.1723 760.38ZM30.8473 762.099C30.0433 762.099 29.4433 761.844 29.0473 761.334C28.6513 760.824 28.4533 759.996 28.4533 758.85C28.4533 757.704 28.6513 756.876 29.0473 756.366C29.4433 755.856 30.0343 755.601 30.8203 755.601C31.6423 755.601 32.2453 755.859 32.6293 756.375C33.0133 756.885 33.2053 757.71 33.2053 758.85C33.2053 760.02 33.0073 760.854 32.6113 761.352C32.2213 761.85 31.6333 762.099 30.8473 762.099ZM33.7019 761.793V760.515C34.0379 760.725 34.4489 760.83 34.9349 760.83C35.4149 760.83 35.6549 760.632 35.6549 760.236C35.6549 760.044 35.6099 759.891 35.5199 759.777C35.4299 759.663 35.2589 759.531 35.0069 759.381L34.8359 759.291C34.4099 759.051 34.1039 758.781 33.9179 758.481C33.7319 758.175 33.6389 757.812 33.6389 757.392C33.6389 756.822 33.8039 756.381 34.1339 756.069C34.4699 755.757 34.9379 755.601 35.5379 755.601C36.0719 755.601 36.5339 755.682 36.9239 755.844V757.095C36.5759 756.951 36.1859 756.879 35.7539 756.879C35.3159 756.879 35.0969 757.053 35.0969 757.401C35.0969 757.557 35.1569 757.692 35.2769 757.806C35.3969 757.914 35.6369 758.07 35.9969 758.274L36.1679 758.364C36.8459 758.712 37.1849 759.309 37.1849 760.155C37.1849 760.773 37.0079 761.253 36.6539 761.595C36.2999 761.931 35.7989 762.099 35.1509 762.099C34.5449 762.099 34.0619 761.997 33.7019 761.793ZM37.5163 761.793V760.515C37.8523 760.725 38.2633 760.83 38.7493 760.83C39.2293 760.83 39.4693 760.632 39.4693 760.236C39.4693 760.044 39.4243 759.891 39.3343 759.777C39.2443 759.663 39.0733 759.531 38.8213 759.381L38.6503 759.291C38.2243 759.051 37.9183 758.781 37.7323 758.481C37.5463 758.175 37.4533 757.812 37.4533 757.392C37.4533 756.822 37.6183 756.381 37.9483 756.069C38.2843 755.757 38.7523 755.601 39.3523 755.601C39.8863 755.601 40.3483 755.682 40.7383 755.844V757.095C40.3903 756.951 40.0003 756.879 39.5683 756.879C39.1303 756.879 38.9113 757.053 38.9113 757.401C38.9113 757.557 38.9713 757.692 39.0913 757.806C39.2113 757.914 39.4513 758.07 39.8113 758.274L39.9823 758.364C40.6603 758.712 40.9993 759.309 40.9993 760.155C40.9993 760.773 40.8223 761.253 40.4683 761.595C40.1143 761.931 39.6133 762.099 38.9653 762.099C38.3593 762.099 37.8763 761.997 37.5163 761.793Z" fill="#4D4D4D"/>
<path d="M2.773 714.7V717.589L4.006 714.7H5.581L4.177 717.652L5.68 721H4.06L2.773 717.922V721H1.342V714.7H2.773ZM9.74252 719.704V721H5.90852V719.695L8.04152 715.996H5.98052V714.7H9.69752V716.005L7.57352 719.704H9.74252ZM12.7644 718.417H13.8264V716.347H13.8084L12.7644 718.417ZM15.2124 719.713V721H13.7814V719.713H11.6394V718.462L13.5564 714.7H15.2124V718.408H15.8514V719.713H15.2124ZM19.7204 719.695V721H16.1744V719.668L16.8224 718.957C17.3144 718.477 17.6594 718.081 17.8574 717.769C18.0614 717.457 18.1634 717.139 18.1634 716.815C18.1634 716.527 18.1004 716.308 17.9744 716.158C17.8484 716.008 17.6384 715.933 17.3444 715.933C16.9844 715.933 16.6304 716.032 16.2824 716.23V714.871C16.7504 714.691 17.2724 714.601 17.8484 714.601C18.2024 714.601 18.5054 714.652 18.7574 714.754C19.0094 714.856 19.2014 715 19.3334 715.186C19.4654 715.366 19.5614 715.561 19.6214 715.771C19.6814 715.981 19.7114 716.212 19.7114 716.464C19.7114 717.016 19.5764 717.526 19.3064 717.994C19.0424 718.456 18.6464 718.945 18.1184 719.461L17.8754 719.677V719.695H19.7204ZM22.2794 719.83C22.4894 719.83 22.6364 719.698 22.7204 719.434C22.8104 719.164 22.8554 718.642 22.8554 717.868C22.8554 717.076 22.8104 716.545 22.7204 716.275C22.6364 716.005 22.4804 715.87 22.2524 715.87C22.0364 715.87 21.8864 716.008 21.8024 716.284C21.7184 716.56 21.6764 717.088 21.6764 717.868C21.6764 718.642 21.7184 719.164 21.8024 719.434C21.8924 719.698 22.0514 719.83 22.2794 719.83ZM22.2704 721.099C21.5504 721.099 21.0224 720.853 20.6864 720.361C20.3564 719.869 20.1914 719.032 20.1914 717.85C20.1914 716.668 20.3594 715.831 20.6954 715.339C21.0314 714.847 21.5504 714.601 22.2524 714.601C22.9904 714.601 23.5214 714.847 23.8454 715.339C24.1694 715.825 24.3314 716.662 24.3314 717.85C24.3314 719.032 24.1634 719.869 23.8274 720.361C23.4914 720.853 22.9724 721.099 22.2704 721.099ZM27.7681 719.713V718.606H27.0661V717.4H28.9831V720.694C28.5091 720.964 27.9631 721.099 27.3451 721.099C26.4691 721.099 25.8181 720.841 25.3921 720.325C24.9661 719.809 24.7531 719.011 24.7531 717.931C24.7531 716.767 24.9631 715.921 25.3831 715.393C25.8031 714.865 26.4751 714.601 27.3991 714.601C27.9031 714.601 28.3321 714.673 28.6861 714.817V716.113C28.4281 715.993 28.0801 715.933 27.6421 715.933C27.1501 715.933 26.7871 716.074 26.5531 716.356C26.3251 716.632 26.2111 717.136 26.2111 717.868C26.2111 718.552 26.3011 719.041 26.4811 719.335C26.6671 719.629 26.9581 719.776 27.3541 719.776C27.5101 719.776 27.6481 719.755 27.7681 719.713ZM31.2094 719.38C31.3594 719.662 31.5844 719.803 31.8844 719.803C32.1844 719.803 32.4004 719.665 32.5324 719.389C32.6704 719.107 32.7394 718.594 32.7394 717.85C32.7394 717.106 32.6704 716.596 32.5324 716.32C32.3944 716.038 32.1694 715.897 31.8574 715.897C31.5574 715.897 31.3384 716.041 31.2004 716.329C31.0624 716.611 30.9934 717.118 30.9934 717.85C30.9934 718.582 31.0654 719.092 31.2094 719.38ZM31.8844 721.099C31.0804 721.099 30.4804 720.844 30.0844 720.334C29.6884 719.824 29.4904 718.996 29.4904 717.85C29.4904 716.704 29.6884 715.876 30.0844 715.366C30.4804 714.856 31.0714 714.601 31.8574 714.601C32.6794 714.601 33.2824 714.859 33.6664 715.375C34.0504 715.885 34.2424 716.71 34.2424 717.85C34.2424 719.02 34.0444 719.854 33.6484 720.352C33.2584 720.85 32.6704 721.099 31.8844 721.099Z" fill="#4D4D4D"/>
<path d="M3.799 788.068V793H2.368V788.068H1.099V786.7H5.068V788.068H3.799ZM7.98688 793L7.71688 791.686H6.30388L6.04288 793H4.65688L6.03388 786.7H8.04988L9.40888 793H7.98688ZM7.01488 788.167L6.56488 790.399H7.46488L7.01488 788.167ZM9.7795 793V786.7H11.6875C13.0015 786.7 13.6585 787.363 13.6585 788.689C13.6585 789.553 13.4005 790.153 12.8845 790.489L13.9015 793H12.3805L11.5435 790.795H11.2105V793H9.7795ZM11.1655 787.987V789.598H11.5615C11.7895 789.598 11.9545 789.535 12.0565 789.409C12.1585 789.283 12.2095 789.073 12.2095 788.779C12.2095 788.509 12.1585 788.311 12.0565 788.185C11.9545 788.053 11.7895 787.987 11.5615 787.987H11.1655ZM17.6807 791.704V793H14.3147V786.7H17.6807V787.996H15.7457V789.193H17.3747V790.39H15.7457V791.704H17.6807Z" fill="#4D4D4D"/>
<path d="M62.8635 1182.95V1181.94C63.0255 1182 63.1785 1182.03 63.3225 1182.03C63.5505 1182.03 63.7215 1181.95 63.8355 1181.8C63.9555 1181.65 64.0155 1181.4 64.0155 1181.04V1176.7H65.1315V1181.26C65.1315 1181.87 65.0115 1182.33 64.7715 1182.63C64.5315 1182.92 64.1505 1183.07 63.6285 1183.07C63.3285 1183.07 63.0735 1183.03 62.8635 1182.95ZM68.7375 1183L68.4225 1181.5H66.9285L66.6135 1183H65.5155L66.9375 1176.7H68.4495L69.8625 1183H68.7375ZM67.6755 1177.94L67.1355 1180.49H68.2065L67.6755 1177.94ZM71.8307 1177.76V1183H70.7147V1177.76H69.4457V1176.7H73.0907V1177.76H71.8307ZM77.1393 1177.76V1183H76.0233V1177.76H74.7543V1176.7H78.3993V1177.76H77.1393ZM78.8921 1183V1176.7H80.5481C81.7121 1176.7 82.2941 1177.31 82.2941 1178.52C82.2941 1179.41 82.0301 1179.99 81.5021 1180.28L82.5551 1183H81.3401L80.4131 1180.51H80.0081V1183H78.8921ZM79.9811 1177.73V1179.53H80.4581C80.6981 1179.53 80.8721 1179.46 80.9801 1179.32C81.0941 1179.18 81.1511 1178.94 81.1511 1178.61C81.1511 1178.31 81.0971 1178.09 80.9891 1177.94C80.8811 1177.8 80.7011 1177.73 80.4491 1177.73H79.9811ZM85.9465 1183L85.6315 1181.5H84.1375L83.8225 1183H82.7245L84.1465 1176.7H85.6585L87.0715 1183H85.9465ZM84.8845 1177.94L84.3445 1180.49H85.4155L84.8845 1177.94ZM91.3574 1176.7V1183H90.1694L88.5584 1178.66V1183H87.5054V1176.7H88.7564L90.3134 1180.91V1176.7H91.3574ZM92.056 1182.8V1181.78C92.368 1181.97 92.734 1182.06 93.154 1182.06C93.682 1182.06 93.946 1181.81 93.946 1181.31C93.946 1181.06 93.898 1180.87 93.802 1180.72C93.706 1180.57 93.526 1180.4 93.262 1180.22L93.109 1180.12C92.719 1179.86 92.437 1179.58 92.263 1179.29C92.095 1179 92.011 1178.66 92.011 1178.27C92.011 1177.75 92.164 1177.35 92.47 1177.06C92.776 1176.77 93.193 1176.62 93.721 1176.62C94.177 1176.62 94.567 1176.69 94.891 1176.83V1177.83C94.591 1177.7 94.255 1177.64 93.883 1177.64C93.409 1177.64 93.172 1177.85 93.172 1178.28C93.172 1178.46 93.232 1178.63 93.352 1178.79C93.472 1178.94 93.7 1179.13 94.036 1179.35L94.189 1179.44C94.825 1179.81 95.143 1180.41 95.143 1181.24C95.143 1181.81 94.981 1182.26 94.657 1182.59C94.333 1182.92 93.886 1183.08 93.316 1183.08C92.788 1183.08 92.368 1182.99 92.056 1182.8ZM96.8297 1177.73V1179.88H97.2707C97.5407 1179.88 97.7357 1179.79 97.8557 1179.62C97.9757 1179.45 98.0357 1179.17 98.0357 1178.79C98.0357 1178.4 97.9757 1178.12 97.8557 1177.97C97.7417 1177.81 97.5467 1177.73 97.2707 1177.73H96.8297ZM96.8567 1180.89V1183H95.7407V1176.7H97.3697C97.9757 1176.7 98.4257 1176.86 98.7197 1177.19C99.0197 1177.51 99.1697 1178.03 99.1697 1178.75C99.1697 1179.47 99.0167 1180 98.7107 1180.36C98.4047 1180.72 97.9247 1180.89 97.2707 1180.89H96.8567ZM101.801 1182.05C102.137 1182.05 102.383 1181.9 102.539 1181.59C102.695 1181.27 102.773 1180.7 102.773 1179.85C102.773 1179.26 102.734 1178.81 102.656 1178.48C102.578 1178.15 102.47 1177.93 102.332 1177.82C102.194 1177.7 102.008 1177.64 101.774 1177.64C101.438 1177.64 101.189 1177.8 101.027 1178.11C100.865 1178.42 100.784 1179 100.784 1179.85C100.784 1180.42 100.826 1180.87 100.91 1181.21C101 1181.54 101.114 1181.76 101.252 1181.88C101.396 1182 101.579 1182.05 101.801 1182.05ZM101.792 1183.08C101.054 1183.08 100.505 1182.83 100.145 1182.33C99.7845 1181.84 99.6045 1181.01 99.6045 1179.85C99.6045 1178.69 99.7845 1177.86 100.145 1177.37C100.505 1176.87 101.048 1176.62 101.774 1176.62C102.524 1176.62 103.076 1176.87 103.43 1177.38C103.784 1177.87 103.961 1178.7 103.961 1179.85C103.961 1181.02 103.781 1181.85 103.421 1182.34C103.061 1182.83 102.518 1183.08 101.792 1183.08ZM104.6 1183V1176.7H106.256C107.42 1176.7 108.002 1177.31 108.002 1178.52C108.002 1179.41 107.738 1179.99 107.21 1180.28L108.263 1183H107.048L106.121 1180.51H105.716V1183H104.6ZM105.689 1177.73V1179.53H106.166C106.406 1179.53 106.58 1179.46 106.688 1179.32C106.802 1179.18 106.859 1178.94 106.859 1178.61C106.859 1178.31 106.805 1178.09 106.697 1177.94C106.589 1177.8 106.409 1177.73 106.157 1177.73H105.689ZM110.643 1177.76V1183H109.527V1177.76H108.258V1176.7H111.903V1177.76H110.643Z" fill="#FFA645"/>
<path d="M63.092 761.856V760.56C63.494 760.722 63.878 760.803 64.244 760.803C64.808 760.803 65.09 760.563 65.09 760.083C65.09 759.831 65.03 759.651 64.91 759.543C64.79 759.429 64.601 759.372 64.343 759.372H63.614V758.193H64.244C64.502 758.193 64.688 758.142 64.802 758.04C64.922 757.938 64.982 757.764 64.982 757.518C64.982 757.104 64.745 756.897 64.271 756.897C63.863 756.897 63.5 756.969 63.182 757.113V755.844C63.638 755.682 64.145 755.601 64.703 755.601C65.039 755.601 65.327 755.649 65.567 755.745C65.813 755.835 65.999 755.964 66.125 756.132C66.257 756.294 66.35 756.471 66.404 756.663C66.464 756.849 66.494 757.053 66.494 757.275C66.494 758.031 66.188 758.514 65.576 758.724V758.742C65.942 758.826 66.203 758.988 66.359 759.228C66.521 759.468 66.602 759.786 66.602 760.182C66.602 760.758 66.437 761.223 66.107 761.577C65.777 761.925 65.231 762.099 64.469 762.099C63.983 762.099 63.524 762.018 63.092 761.856ZM70.5573 760.695V762H67.0113V760.668L67.6593 759.957C68.1513 759.477 68.4963 759.081 68.6943 758.769C68.8983 758.457 69.0003 758.139 69.0003 757.815C69.0003 757.527 68.9373 757.308 68.8113 757.158C68.6853 757.008 68.4753 756.933 68.1813 756.933C67.8213 756.933 67.4673 757.032 67.1193 757.23V755.871C67.5873 755.691 68.1093 755.601 68.6853 755.601C69.0393 755.601 69.3423 755.652 69.5943 755.754C69.8463 755.856 70.0383 756 70.1703 756.186C70.3023 756.366 70.3983 756.561 70.4583 756.771C70.5183 756.981 70.5483 757.212 70.5483 757.464C70.5483 758.016 70.4133 758.526 70.1433 758.994C69.8793 759.456 69.4833 759.945 68.9553 760.461L68.7123 760.677V760.695H70.5573ZM72.7366 761.28C72.7366 761.538 72.6646 761.739 72.5206 761.883C72.3826 762.027 72.1846 762.099 71.9266 762.099C71.6866 762.099 71.4946 762.027 71.3506 761.883C71.2066 761.733 71.1346 761.532 71.1346 761.28C71.1346 761.022 71.2006 760.824 71.3326 760.686C71.4706 760.542 71.6686 760.47 71.9266 760.47C72.1726 760.47 72.3676 760.545 72.5116 760.695C72.6616 760.839 72.7366 761.034 72.7366 761.28ZM73.2978 761.865V760.614C73.5738 760.746 73.8978 760.812 74.2698 760.812C74.5938 760.812 74.8308 760.743 74.9808 760.605C75.1308 760.461 75.2058 760.23 75.2058 759.912C75.2058 759.6 75.1398 759.375 75.0078 759.237C74.8758 759.099 74.6508 759.03 74.3328 759.03C73.9968 759.03 73.6698 759.081 73.3518 759.183L73.4868 755.7H76.4658V756.951H74.5488L74.5038 758.004C74.6418 757.968 74.8278 757.95 75.0618 757.95C76.1598 757.95 76.7088 758.592 76.7088 759.876C76.7088 760.542 76.5408 761.079 76.2048 761.487C75.8748 761.895 75.3228 762.099 74.5488 762.099C74.0988 762.099 73.6818 762.021 73.2978 761.865ZM79.1895 760.83C79.3995 760.83 79.5465 760.698 79.6305 760.434C79.7205 760.164 79.7655 759.642 79.7655 758.868C79.7655 758.076 79.7205 757.545 79.6305 757.275C79.5465 757.005 79.3905 756.87 79.1625 756.87C78.9465 756.87 78.7965 757.008 78.7125 757.284C78.6285 757.56 78.5865 758.088 78.5865 758.868C78.5865 759.642 78.6285 760.164 78.7125 760.434C78.8025 760.698 78.9615 760.83 79.1895 760.83ZM79.1805 762.099C78.4605 762.099 77.9325 761.853 77.5965 761.361C77.2665 760.869 77.1015 760.032 77.1015 758.85C77.1015 757.668 77.2695 756.831 77.6055 756.339C77.9415 755.847 78.4605 755.601 79.1625 755.601C79.9005 755.601 80.4315 755.847 80.7555 756.339C81.0795 756.825 81.2415 757.662 81.2415 758.85C81.2415 760.032 81.0735 760.869 80.7375 761.361C80.4015 761.853 79.8825 762.099 79.1805 762.099ZM83.7423 760.83C83.9523 760.83 84.0993 760.698 84.1833 760.434C84.2733 760.164 84.3183 759.642 84.3183 758.868C84.3183 758.076 84.2733 757.545 84.1833 757.275C84.0993 757.005 83.9433 756.87 83.7153 756.87C83.4993 756.87 83.3493 757.008 83.2653 757.284C83.1813 757.56 83.1393 758.088 83.1393 758.868C83.1393 759.642 83.1813 760.164 83.2653 760.434C83.3553 760.698 83.5143 760.83 83.7423 760.83ZM83.7333 762.099C83.0133 762.099 82.4853 761.853 82.1493 761.361C81.8193 760.869 81.6543 760.032 81.6543 758.85C81.6543 757.668 81.8223 756.831 82.1583 756.339C82.4943 755.847 83.0133 755.601 83.7153 755.601C84.4533 755.601 84.9843 755.847 85.3083 756.339C85.6323 756.825 85.7943 757.662 85.7943 758.85C85.7943 760.032 85.6263 760.869 85.2903 761.361C84.9543 761.853 84.4353 762.099 83.7333 762.099Z" fill="#4D4D4D"/>
<path d="M66.634 792.856V791.56C67.036 791.722 67.42 791.803 67.786 791.803C68.35 791.803 68.632 791.563 68.632 791.083C68.632 790.831 68.572 790.651 68.452 790.543C68.332 790.429 68.143 790.372 67.885 790.372H67.156V789.193H67.786C68.044 789.193 68.23 789.142 68.344 789.04C68.464 788.938 68.524 788.764 68.524 788.518C68.524 788.104 68.287 787.897 67.813 787.897C67.405 787.897 67.042 787.969 66.724 788.113V786.844C67.18 786.682 67.687 786.601 68.245 786.601C68.581 786.601 68.869 786.649 69.109 786.745C69.355 786.835 69.541 786.964 69.667 787.132C69.799 787.294 69.892 787.471 69.946 787.663C70.006 787.849 70.036 788.053 70.036 788.275C70.036 789.031 69.73 789.514 69.118 789.724V789.742C69.484 789.826 69.745 789.988 69.901 790.228C70.063 790.468 70.144 790.786 70.144 791.182C70.144 791.758 69.979 792.223 69.649 792.577C69.319 792.925 68.773 793.099 68.011 793.099C67.525 793.099 67.066 793.018 66.634 792.856ZM72.2093 792.28C72.2093 792.538 72.1373 792.739 71.9933 792.883C71.8553 793.027 71.6573 793.099 71.3993 793.099C71.1593 793.099 70.9673 793.027 70.8233 792.883C70.6793 792.733 70.6073 792.532 70.6073 792.28C70.6073 792.022 70.6733 791.824 70.8053 791.686C70.9433 791.542 71.1413 791.47 71.3993 791.47C71.6453 791.47 71.8403 791.545 71.9843 791.695C72.1343 791.839 72.2093 792.034 72.2093 792.28ZM74.7954 789.31C75.0714 789.052 75.2094 788.746 75.2094 788.392C75.2094 787.96 75.0324 787.744 74.6784 787.744C74.5164 787.744 74.3904 787.798 74.3004 787.906C74.2104 788.014 74.1654 788.164 74.1654 788.356C74.1654 788.59 74.2194 788.779 74.3274 788.923C74.4354 789.061 74.5914 789.19 74.7954 789.31ZM74.5884 790.183C74.2644 790.441 74.1024 790.762 74.1024 791.146C74.1024 791.686 74.3034 791.956 74.7054 791.956C75.0834 791.956 75.2724 791.698 75.2724 791.182C75.2724 791.002 75.2304 790.843 75.1464 790.705C75.0684 790.561 74.9904 790.462 74.9124 790.408C74.8404 790.348 74.7324 790.273 74.5884 790.183ZM75.7674 789.679C76.1154 789.859 76.3584 790.072 76.4964 790.318C76.6404 790.558 76.7124 790.87 76.7124 791.254C76.7124 791.854 76.5354 792.313 76.1814 792.631C75.8274 792.943 75.3324 793.099 74.6964 793.099C74.0844 793.099 73.5924 792.949 73.2204 792.649C72.8484 792.343 72.6624 791.896 72.6624 791.308C72.6624 790.522 72.9804 789.979 73.6164 789.679C73.3284 789.499 73.1154 789.298 72.9774 789.076C72.8394 788.854 72.7704 788.563 72.7704 788.203C72.7704 787.699 72.9444 787.306 73.2924 787.024C73.6404 786.742 74.1144 786.601 74.7144 786.601C75.2784 786.601 75.7344 786.73 76.0824 786.988C76.4304 787.24 76.6044 787.633 76.6044 788.167C76.6044 788.857 76.3254 789.361 75.7674 789.679ZM79.1895 791.83C79.3995 791.83 79.5465 791.698 79.6305 791.434C79.7205 791.164 79.7655 790.642 79.7655 789.868C79.7655 789.076 79.7205 788.545 79.6305 788.275C79.5465 788.005 79.3905 787.87 79.1625 787.87C78.9465 787.87 78.7965 788.008 78.7125 788.284C78.6285 788.56 78.5865 789.088 78.5865 789.868C78.5865 790.642 78.6285 791.164 78.7125 791.434C78.8025 791.698 78.9615 791.83 79.1895 791.83ZM79.1805 793.099C78.4605 793.099 77.9325 792.853 77.5965 792.361C77.2665 791.869 77.1015 791.032 77.1015 789.85C77.1015 788.668 77.2695 787.831 77.6055 787.339C77.9415 786.847 78.4605 786.601 79.1625 786.601C79.9005 786.601 80.4315 786.847 80.7555 787.339C81.0795 787.825 81.2415 788.662 81.2415 789.85C81.2415 791.032 81.0735 791.869 80.7375 792.361C80.4015 792.853 79.8825 793.099 79.1805 793.099ZM83.7423 791.83C83.9523 791.83 84.0993 791.698 84.1833 791.434C84.2733 791.164 84.3183 790.642 84.3183 789.868C84.3183 789.076 84.2733 788.545 84.1833 788.275C84.0993 788.005 83.9433 787.87 83.7153 787.87C83.4993 787.87 83.3493 788.008 83.2653 788.284C83.1813 788.56 83.1393 789.088 83.1393 789.868C83.1393 790.642 83.1813 791.164 83.2653 791.434C83.3553 791.698 83.5143 791.83 83.7423 791.83ZM83.7333 793.099C83.0133 793.099 82.4853 792.853 82.1493 792.361C81.8193 791.869 81.6543 791.032 81.6543 789.85C81.6543 788.668 81.8223 787.831 82.1583 787.339C82.4943 786.847 83.0133 786.601 83.7153 786.601C84.4533 786.601 84.9843 786.847 85.3083 787.339C85.6323 787.825 85.7943 788.662 85.7943 789.85C85.7943 791.032 85.6263 791.869 85.2903 792.361C84.9543 792.853 84.4353 793.099 83.7333 793.099Z" fill="#4D4D4D"/>
<path d="M67.5508 768.816L66.0478 774H64.4368L66.0118 768.969H63.9598V767.7H67.5508V768.816ZM70.6971 767.7V774H69.2751V769.338L68.4471 769.95L67.8351 768.933L69.5001 767.7H70.6971ZM73.0442 773.28C73.0442 773.538 72.9722 773.739 72.8282 773.883C72.6902 774.027 72.4922 774.099 72.2342 774.099C71.9942 774.099 71.8022 774.027 71.6582 773.883C71.5142 773.733 71.4422 773.532 71.4422 773.28C71.4422 773.022 71.5082 772.824 71.6402 772.686C71.7782 772.542 71.9762 772.47 72.2342 772.47C72.4802 772.47 72.6752 772.545 72.8192 772.695C72.9692 772.839 73.0442 773.034 73.0442 773.28ZM75.4786 772.938C75.8026 772.938 75.9646 772.614 75.9646 771.966C75.9646 771.306 75.7966 770.976 75.4606 770.976C75.1126 770.976 74.9386 771.261 74.9386 771.831C74.9386 772.569 75.1186 772.938 75.4786 772.938ZM77.0176 767.763V769.041C76.7236 768.921 76.4026 768.861 76.0546 768.861C75.2626 768.861 74.8666 769.395 74.8666 770.463C75.0826 770.115 75.4306 769.941 75.9106 769.941C76.3726 769.941 76.7386 770.097 77.0086 770.409C77.2846 770.721 77.4226 771.225 77.4226 771.921C77.4226 772.623 77.2546 773.163 76.9186 773.541C76.5886 773.913 76.1236 774.099 75.5236 774.099C74.8276 774.099 74.3116 773.853 73.9756 773.361C73.6456 772.869 73.4806 772.104 73.4806 771.066C73.4806 769.944 73.6666 769.086 74.0386 768.492C74.4106 767.898 75.0226 767.601 75.8746 767.601C76.2826 767.601 76.6636 767.655 77.0176 767.763ZM77.8505 773.865V772.614C78.1265 772.746 78.4505 772.812 78.8225 772.812C79.1465 772.812 79.3835 772.743 79.5335 772.605C79.6835 772.461 79.7585 772.23 79.7585 771.912C79.7585 771.6 79.6925 771.375 79.5605 771.237C79.4285 771.099 79.2035 771.03 78.8855 771.03C78.5495 771.03 78.2225 771.081 77.9045 771.183L78.0395 767.7H81.0185V768.951H79.1015L79.0565 770.004C79.1945 769.968 79.3805 769.95 79.6145 769.95C80.7125 769.95 81.2615 770.592 81.2615 771.876C81.2615 772.542 81.0935 773.079 80.7575 773.487C80.4275 773.895 79.8755 774.099 79.1015 774.099C78.6515 774.099 78.2345 774.021 77.8505 773.865ZM83.7423 772.83C83.9523 772.83 84.0993 772.698 84.1833 772.434C84.2733 772.164 84.3183 771.642 84.3183 770.868C84.3183 770.076 84.2733 769.545 84.1833 769.275C84.0993 769.005 83.9433 768.87 83.7153 768.87C83.4993 768.87 83.3493 769.008 83.2653 769.284C83.1813 769.56 83.1393 770.088 83.1393 770.868C83.1393 771.642 83.1813 772.164 83.2653 772.434C83.3553 772.698 83.5143 772.83 83.7423 772.83ZM83.7333 774.099C83.0133 774.099 82.4853 773.853 82.1493 773.361C81.8193 772.869 81.6543 772.032 81.6543 770.85C81.6543 769.668 81.8223 768.831 82.1583 768.339C82.4943 767.847 83.0133 767.601 83.7153 767.601C84.4533 767.601 84.9843 767.847 85.3083 768.339C85.6323 768.825 85.7943 769.662 85.7943 770.85C85.7943 772.032 85.6263 772.869 85.2903 773.361C84.9543 773.853 84.4353 774.099 83.7333 774.099Z" fill="#4D4D4D"/>
<path d="M68.7398 801.31C69.0158 801.052 69.1538 800.746 69.1538 800.392C69.1538 799.96 68.9768 799.744 68.6228 799.744C68.4608 799.744 68.3348 799.798 68.2448 799.906C68.1548 800.014 68.1098 800.164 68.1098 800.356C68.1098 800.59 68.1638 800.779 68.2718 800.923C68.3798 801.061 68.5358 801.19 68.7398 801.31ZM68.5328 802.183C68.2088 802.441 68.0468 802.762 68.0468 803.146C68.0468 803.686 68.2478 803.956 68.6498 803.956C69.0278 803.956 69.2168 803.698 69.2168 803.182C69.2168 803.002 69.1748 802.843 69.0908 802.705C69.0128 802.561 68.9348 802.462 68.8568 802.408C68.7848 802.348 68.6768 802.273 68.5328 802.183ZM69.7118 801.679C70.0598 801.859 70.3028 802.072 70.4408 802.318C70.5848 802.558 70.6568 802.87 70.6568 803.254C70.6568 803.854 70.4798 804.313 70.1258 804.631C69.7718 804.943 69.2768 805.099 68.6408 805.099C68.0288 805.099 67.5368 804.949 67.1648 804.649C66.7928 804.343 66.6068 803.896 66.6068 803.308C66.6068 802.522 66.9248 801.979 67.5608 801.679C67.2728 801.499 67.0598 801.298 66.9218 801.076C66.7838 800.854 66.7148 800.563 66.7148 800.203C66.7148 799.699 66.8888 799.306 67.2368 799.024C67.5848 798.742 68.0588 798.601 68.6588 798.601C69.2228 798.601 69.6788 798.73 70.0268 798.988C70.3748 799.24 70.5488 799.633 70.5488 800.167C70.5488 800.857 70.2698 801.361 69.7118 801.679ZM72.7102 804.28C72.7102 804.538 72.6382 804.739 72.4942 804.883C72.3562 805.027 72.1582 805.099 71.9002 805.099C71.6602 805.099 71.4682 805.027 71.3242 804.883C71.1802 804.733 71.1082 804.532 71.1082 804.28C71.1082 804.022 71.1742 803.824 71.3062 803.686C71.4442 803.542 71.6422 803.47 71.9002 803.47C72.1462 803.47 72.3412 803.545 72.4852 803.695C72.6352 803.839 72.7102 804.034 72.7102 804.28ZM73.3049 804.856V803.56C73.7069 803.722 74.0909 803.803 74.4569 803.803C75.0209 803.803 75.3029 803.563 75.3029 803.083C75.3029 802.831 75.2429 802.651 75.1229 802.543C75.0029 802.429 74.8139 802.372 74.5559 802.372H73.8269V801.193H74.4569C74.7149 801.193 74.9009 801.142 75.0149 801.04C75.1349 800.938 75.1949 800.764 75.1949 800.518C75.1949 800.104 74.9579 799.897 74.4839 799.897C74.0759 799.897 73.7129 799.969 73.3949 800.113V798.844C73.8509 798.682 74.3579 798.601 74.9159 798.601C75.2519 798.601 75.5399 798.649 75.7799 798.745C76.0259 798.835 76.2119 798.964 76.3379 799.132C76.4699 799.294 76.5629 799.471 76.6169 799.663C76.6769 799.849 76.7069 800.053 76.7069 800.275C76.7069 801.031 76.4009 801.514 75.7889 801.724V801.742C76.1549 801.826 76.4159 801.988 76.5719 802.228C76.7339 802.468 76.8149 802.786 76.8149 803.182C76.8149 803.758 76.6499 804.223 76.3199 804.577C75.9899 804.925 75.4439 805.099 74.6819 805.099C74.1959 805.099 73.7369 805.018 73.3049 804.856ZM79.3482 801.31C79.6242 801.052 79.7622 800.746 79.7622 800.392C79.7622 799.96 79.5852 799.744 79.2312 799.744C79.0692 799.744 78.9432 799.798 78.8532 799.906C78.7632 800.014 78.7182 800.164 78.7182 800.356C78.7182 800.59 78.7722 800.779 78.8802 800.923C78.9882 801.061 79.1442 801.19 79.3482 801.31ZM79.1412 802.183C78.8172 802.441 78.6552 802.762 78.6552 803.146C78.6552 803.686 78.8562 803.956 79.2582 803.956C79.6362 803.956 79.8252 803.698 79.8252 803.182C79.8252 803.002 79.7832 802.843 79.6992 802.705C79.6212 802.561 79.5432 802.462 79.4652 802.408C79.3932 802.348 79.2852 802.273 79.1412 802.183ZM80.3202 801.679C80.6682 801.859 80.9112 802.072 81.0492 802.318C81.1932 802.558 81.2652 802.87 81.2652 803.254C81.2652 803.854 81.0882 804.313 80.7342 804.631C80.3802 804.943 79.8852 805.099 79.2492 805.099C78.6372 805.099 78.1452 804.949 77.7732 804.649C77.4012 804.343 77.2152 803.896 77.2152 803.308C77.2152 802.522 77.5332 801.979 78.1692 801.679C77.8812 801.499 77.6682 801.298 77.5302 801.076C77.3922 800.854 77.3232 800.563 77.3232 800.203C77.3232 799.699 77.4972 799.306 77.8452 799.024C78.1932 798.742 78.6672 798.601 79.2672 798.601C79.8312 798.601 80.2872 798.73 80.6352 798.988C80.9832 799.24 81.1572 799.633 81.1572 800.167C81.1572 800.857 80.8782 801.361 80.3202 801.679ZM83.7423 803.83C83.9523 803.83 84.0993 803.698 84.1833 803.434C84.2733 803.164 84.3183 802.642 84.3183 801.868C84.3183 801.076 84.2733 800.545 84.1833 800.275C84.0993 800.005 83.9433 799.87 83.7153 799.87C83.4993 799.87 83.3493 800.008 83.2653 800.284C83.1813 800.56 83.1393 801.088 83.1393 801.868C83.1393 802.642 83.1813 803.164 83.2653 803.434C83.3553 803.698 83.5143 803.83 83.7423 803.83ZM83.7333 805.099C83.0133 805.099 82.4853 804.853 82.1493 804.361C81.8193 803.869 81.6543 803.032 81.6543 801.85C81.6543 800.668 81.8223 799.831 82.1583 799.339C82.4943 798.847 83.0133 798.601 83.7153 798.601C84.4533 798.601 84.9843 798.847 85.3083 799.339C85.6323 799.825 85.7943 800.662 85.7943 801.85C85.7943 803.032 85.6263 803.869 85.2903 804.361C84.9543 804.853 84.4353 805.099 83.7333 805.099Z" fill="#4D4D4D"/>
<path d="M104.575 755.25V759.363L105.448 757.41H106.852L105.826 759.471L106.987 762H105.547L104.575 759.651V762H103.297V755.25H104.575ZM109.524 757.959V757.41H110.775V761.946C110.775 762.342 110.718 762.678 110.604 762.954C110.49 763.23 110.328 763.437 110.118 763.575C109.914 763.719 109.692 763.821 109.452 763.881C109.212 763.941 108.942 763.971 108.642 763.971C108.072 763.971 107.643 763.896 107.355 763.746V762.594C107.667 762.756 108.036 762.837 108.462 762.837C108.852 762.837 109.122 762.753 109.272 762.585C109.428 762.423 109.506 762.153 109.506 761.775V761.316H109.488C109.302 761.772 108.951 762 108.435 762C107.973 762 107.616 761.832 107.364 761.496C107.112 761.16 106.986 760.578 106.986 759.75C106.986 758.886 107.106 758.268 107.346 757.896C107.592 757.524 107.967 757.338 108.471 757.338C108.987 757.338 109.335 757.545 109.515 757.959H109.524ZM108.885 758.427C108.681 758.427 108.531 758.517 108.435 758.697C108.345 758.871 108.3 759.201 108.3 759.687C108.3 760.137 108.351 760.455 108.453 760.641C108.555 760.821 108.702 760.911 108.894 760.911C109.104 760.911 109.257 760.818 109.353 760.632C109.455 760.446 109.506 760.128 109.506 759.678C109.506 759.216 109.455 758.892 109.353 758.706C109.257 758.52 109.101 758.427 108.885 758.427Z" fill="#4D4D4D"/>
<path d="M104.575 786.25V790.363L105.448 788.41H106.852L105.826 790.471L106.987 793H105.547L104.575 790.651V793H103.297V786.25H104.575ZM109.524 788.959V788.41H110.775V792.946C110.775 793.342 110.718 793.678 110.604 793.954C110.49 794.23 110.328 794.437 110.118 794.575C109.914 794.719 109.692 794.821 109.452 794.881C109.212 794.941 108.942 794.971 108.642 794.971C108.072 794.971 107.643 794.896 107.355 794.746V793.594C107.667 793.756 108.036 793.837 108.462 793.837C108.852 793.837 109.122 793.753 109.272 793.585C109.428 793.423 109.506 793.153 109.506 792.775V792.316H109.488C109.302 792.772 108.951 793 108.435 793C107.973 793 107.616 792.832 107.364 792.496C107.112 792.16 106.986 791.578 106.986 790.75C106.986 789.886 107.106 789.268 107.346 788.896C107.592 788.524 107.967 788.338 108.471 788.338C108.987 788.338 109.335 788.545 109.515 788.959H109.524ZM108.885 789.427C108.681 789.427 108.531 789.517 108.435 789.697C108.345 789.871 108.3 790.201 108.3 790.687C108.3 791.137 108.351 791.455 108.453 791.641C108.555 791.821 108.702 791.911 108.894 791.911C109.104 791.911 109.257 791.818 109.353 791.632C109.455 791.446 109.506 791.128 109.506 790.678C109.506 790.216 109.455 789.892 109.353 789.706C109.257 789.52 109.101 789.427 108.885 789.427Z" fill="#4D4D4D"/>
<path d="M104.575 767.25V774H103.297V767.25H104.575ZM106.411 773.469V774H105.16V767.25H106.438V770.013H106.447C106.525 769.815 106.657 769.653 106.843 769.527C107.035 769.401 107.278 769.338 107.572 769.338C108.016 769.338 108.355 769.509 108.589 769.851C108.829 770.193 108.949 770.784 108.949 771.624C108.949 772.5 108.829 773.127 108.589 773.505C108.355 773.883 107.98 774.072 107.464 774.072C106.966 774.072 106.618 773.871 106.42 773.469H106.411ZM107.05 772.983C107.26 772.983 107.41 772.893 107.5 772.713C107.59 772.527 107.635 772.173 107.635 771.651C107.635 771.189 107.587 770.871 107.491 770.697C107.395 770.517 107.251 770.427 107.059 770.427C106.849 770.427 106.693 770.523 106.591 770.715C106.489 770.907 106.438 771.24 106.438 771.714C106.438 772.56 106.642 772.983 107.05 772.983ZM109.378 773.874V772.794C109.654 772.98 110.032 773.073 110.512 773.073C110.818 773.073 110.971 772.953 110.971 772.713C110.971 772.593 110.911 772.488 110.791 772.398C110.677 772.308 110.539 772.224 110.377 772.146C110.215 772.068 110.05 771.978 109.882 771.876C109.72 771.774 109.579 771.621 109.459 771.417C109.345 771.213 109.288 770.964 109.288 770.67C109.288 769.77 109.825 769.32 110.899 769.32C111.289 769.32 111.655 769.371 111.997 769.473V770.526C111.739 770.4 111.409 770.337 111.007 770.337C110.701 770.337 110.548 770.436 110.548 770.634C110.548 770.742 110.605 770.838 110.719 770.922C110.839 771 110.98 771.078 111.142 771.156C111.304 771.228 111.466 771.318 111.628 771.426C111.796 771.528 111.937 771.684 112.051 771.894C112.171 772.098 112.231 772.35 112.231 772.65C112.231 773.61 111.685 774.09 110.593 774.09C110.125 774.09 109.72 774.018 109.378 773.874Z" fill="#4D4D4D"/>
<path d="M104.575 798.25V805H103.297V798.25H104.575ZM106.411 804.469V805H105.16V798.25H106.438V801.013H106.447C106.525 800.815 106.657 800.653 106.843 800.527C107.035 800.401 107.278 800.338 107.572 800.338C108.016 800.338 108.355 800.509 108.589 800.851C108.829 801.193 108.949 801.784 108.949 802.624C108.949 803.5 108.829 804.127 108.589 804.505C108.355 804.883 107.98 805.072 107.464 805.072C106.966 805.072 106.618 804.871 106.42 804.469H106.411ZM107.05 803.983C107.26 803.983 107.41 803.893 107.5 803.713C107.59 803.527 107.635 803.173 107.635 802.651C107.635 802.189 107.587 801.871 107.491 801.697C107.395 801.517 107.251 801.427 107.059 801.427C106.849 801.427 106.693 801.523 106.591 801.715C106.489 801.907 106.438 802.24 106.438 802.714C106.438 803.56 106.642 803.983 107.05 803.983ZM109.378 804.874V803.794C109.654 803.98 110.032 804.073 110.512 804.073C110.818 804.073 110.971 803.953 110.971 803.713C110.971 803.593 110.911 803.488 110.791 803.398C110.677 803.308 110.539 803.224 110.377 803.146C110.215 803.068 110.05 802.978 109.882 802.876C109.72 802.774 109.579 802.621 109.459 802.417C109.345 802.213 109.288 801.964 109.288 801.67C109.288 800.77 109.825 800.32 110.899 800.32C111.289 800.32 111.655 800.371 111.997 800.473V801.526C111.739 801.4 111.409 801.337 111.007 801.337C110.701 801.337 110.548 801.436 110.548 801.634C110.548 801.742 110.605 801.838 110.719 801.922C110.839 802 110.98 802.078 111.142 802.156C111.304 802.228 111.466 802.318 111.628 802.426C111.796 802.528 111.937 802.684 112.051 802.894C112.171 803.098 112.231 803.35 112.231 803.65C112.231 804.61 111.685 805.09 110.593 805.09C110.125 805.09 109.72 805.018 109.378 804.874Z" fill="#4D4D4D"/>
<rect x="1" y="1176" width="17" height="17" fill="#FFA645"/>
<rect x="24" y="1176" width="17" height="17" fill="#FFA645"/>
<path d="M6.03 1753.7V1760H4.689V1755.63L3.825 1760H2.556L1.683 1755.68V1760H0.342V1753.7H2.403L3.222 1758.2L4.05 1753.7H6.03ZM9.72907 1760L9.45907 1758.69H8.04607L7.78507 1760H6.39907L7.77607 1753.7H9.79207L11.1511 1760H9.72907ZM8.75707 1755.17L8.30707 1757.4H9.20707L8.75707 1755.17ZM15.9283 1760H14.3263L13.5883 1757.85L12.8953 1760H11.3473L12.5533 1756.75L11.4373 1753.7H13.0123L13.6423 1755.73L14.3083 1753.7H15.8473L14.6593 1756.73L15.9283 1760ZM17.7971 1759.28C17.7971 1759.54 17.7251 1759.74 17.5811 1759.88C17.4431 1760.03 17.2451 1760.1 16.9871 1760.1C16.7471 1760.1 16.5551 1760.03 16.4111 1759.88C16.2671 1759.73 16.1951 1759.53 16.1951 1759.28C16.1951 1759.02 16.2611 1758.82 16.3931 1758.69C16.5311 1758.54 16.7291 1758.47 16.9871 1758.47C17.2331 1758.47 17.4281 1758.54 17.5721 1758.69C17.7221 1758.84 17.7971 1759.03 17.7971 1759.28ZM21.2749 1758.71V1757.61H20.5729V1756.4H22.4899V1759.69C22.0159 1759.96 21.4699 1760.1 20.8519 1760.1C19.9759 1760.1 19.3249 1759.84 18.8989 1759.32C18.4729 1758.81 18.2599 1758.01 18.2599 1756.93C18.2599 1755.77 18.4699 1754.92 18.8899 1754.39C19.3099 1753.86 19.9819 1753.6 20.9059 1753.6C21.4099 1753.6 21.8389 1753.67 22.1929 1753.82V1755.11C21.9349 1754.99 21.5869 1754.93 21.1489 1754.93C20.6569 1754.93 20.2939 1755.07 20.0599 1755.36C19.8319 1755.63 19.7179 1756.14 19.7179 1756.87C19.7179 1757.55 19.8079 1758.04 19.9879 1758.33C20.1739 1758.63 20.4649 1758.78 20.8609 1758.78C21.0169 1758.78 21.1549 1758.75 21.2749 1758.71ZM23.1233 1760V1753.7H25.0312C26.3453 1753.7 27.0023 1754.36 27.0023 1755.69C27.0023 1756.55 26.7443 1757.15 26.2283 1757.49L27.2453 1760H25.7243L24.8873 1757.79H24.5543V1760H23.1233ZM24.5093 1754.99V1756.6H24.9053C25.1333 1756.6 25.2983 1756.53 25.4003 1756.41C25.5023 1756.28 25.5533 1756.07 25.5533 1755.78C25.5533 1755.51 25.5023 1755.31 25.4003 1755.18C25.2983 1755.05 25.1333 1754.99 24.9053 1754.99H24.5093ZM29.1723 1758.38C29.3223 1758.66 29.5473 1758.8 29.8473 1758.8C30.1473 1758.8 30.3633 1758.66 30.4953 1758.39C30.6333 1758.11 30.7023 1757.59 30.7023 1756.85C30.7023 1756.11 30.6333 1755.6 30.4953 1755.32C30.3573 1755.04 30.1323 1754.9 29.8203 1754.9C29.5203 1754.9 29.3013 1755.04 29.1633 1755.33C29.0253 1755.61 28.9563 1756.12 28.9563 1756.85C28.9563 1757.58 29.0283 1758.09 29.1723 1758.38ZM29.8473 1760.1C29.0433 1760.1 28.4433 1759.84 28.0473 1759.33C27.6513 1758.82 27.4533 1758 27.4533 1756.85C27.4533 1755.7 27.6513 1754.88 28.0473 1754.37C28.4433 1753.86 29.0343 1753.6 29.8203 1753.6C30.6423 1753.6 31.2453 1753.86 31.6293 1754.38C32.0133 1754.88 32.2053 1755.71 32.2053 1756.85C32.2053 1758.02 32.0073 1758.85 31.6113 1759.35C31.2213 1759.85 30.6333 1760.1 29.8473 1760.1ZM32.7019 1759.79V1758.51C33.0379 1758.72 33.4489 1758.83 33.9349 1758.83C34.4149 1758.83 34.6549 1758.63 34.6549 1758.24C34.6549 1758.04 34.6099 1757.89 34.5199 1757.78C34.4299 1757.66 34.2589 1757.53 34.0069 1757.38L33.8359 1757.29C33.4099 1757.05 33.1039 1756.78 32.9179 1756.48C32.7319 1756.17 32.6389 1755.81 32.6389 1755.39C32.6389 1754.82 32.8039 1754.38 33.1339 1754.07C33.4699 1753.76 33.9379 1753.6 34.5379 1753.6C35.0719 1753.6 35.5339 1753.68 35.9239 1753.84V1755.09C35.5759 1754.95 35.1859 1754.88 34.7539 1754.88C34.3159 1754.88 34.0969 1755.05 34.0969 1755.4C34.0969 1755.56 34.1569 1755.69 34.2769 1755.81C34.3969 1755.91 34.6369 1756.07 34.9969 1756.27L35.1679 1756.36C35.8459 1756.71 36.1849 1757.31 36.1849 1758.15C36.1849 1758.77 36.0079 1759.25 35.6539 1759.59C35.2999 1759.93 34.7989 1760.1 34.1509 1760.1C33.5449 1760.1 33.0619 1760 32.7019 1759.79ZM36.5163 1759.79V1758.51C36.8523 1758.72 37.2633 1758.83 37.7493 1758.83C38.2293 1758.83 38.4693 1758.63 38.4693 1758.24C38.4693 1758.04 38.4243 1757.89 38.3343 1757.78C38.2443 1757.66 38.0733 1757.53 37.8213 1757.38L37.6503 1757.29C37.2243 1757.05 36.9183 1756.78 36.7323 1756.48C36.5463 1756.17 36.4533 1755.81 36.4533 1755.39C36.4533 1754.82 36.6183 1754.38 36.9483 1754.07C37.2843 1753.76 37.7523 1753.6 38.3523 1753.6C38.8863 1753.6 39.3483 1753.68 39.7383 1753.84V1755.09C39.3903 1754.95 39.0003 1754.88 38.5683 1754.88C38.1303 1754.88 37.9113 1755.05 37.9113 1755.4C37.9113 1755.56 37.9713 1755.69 38.0913 1755.81C38.2113 1755.91 38.4513 1756.07 38.8113 1756.27L38.9823 1756.36C39.6603 1756.71 39.9993 1757.31 39.9993 1758.15C39.9993 1758.77 39.8223 1759.25 39.4683 1759.59C39.1143 1759.93 38.6133 1760.1 37.9653 1760.1C37.3593 1760.1 36.8763 1760 36.5163 1759.79Z" fill="#4D4D4D"/>
<path d="M0.162 1797.94V1796.62C0.324 1796.69 0.489 1796.72 0.657 1796.72C1.131 1796.72 1.368 1796.4 1.368 1795.75V1791.7H2.79V1796.03C2.79 1796.73 2.652 1797.25 2.376 1797.59C2.106 1797.92 1.671 1798.08 1.071 1798.08C0.741 1798.08 0.438 1798.03 0.162 1797.94ZM6.42438 1798L6.15438 1796.69H4.74138L4.48038 1798H3.09438L4.47138 1791.7H6.48738L7.84638 1798H6.42438ZM5.45238 1793.17L5.00238 1795.4H5.90238L5.45238 1793.17ZM10.1379 1793.07V1798H8.70687V1793.07H7.43787V1791.7H11.4069V1793.07H10.1379Z" fill="#4D4D4D"/>
<path d="M72.799 1793.07V1798H71.368V1793.07H70.099V1791.7H74.068V1793.07H72.799ZM74.508 1798V1791.7H76.416C77.73 1791.7 78.387 1792.36 78.387 1793.69C78.387 1794.55 78.129 1795.15 77.613 1795.49L78.63 1798H77.109L76.272 1795.79H75.939V1798H74.508ZM75.894 1792.99V1794.6H76.29C76.518 1794.6 76.683 1794.53 76.785 1794.41C76.887 1794.28 76.938 1794.07 76.938 1793.78C76.938 1793.51 76.887 1793.31 76.785 1793.18C76.683 1793.05 76.518 1792.99 76.29 1792.99H75.894ZM82.1197 1798L81.8497 1796.69H80.4367L80.1757 1798H78.7897L80.1667 1791.7H82.1827L83.5417 1798H82.1197ZM81.1477 1793.17L80.6977 1795.4H81.5977L81.1477 1793.17ZM88.1783 1791.7V1798H86.7293L85.2533 1794.17V1798H83.9123V1791.7H85.4333L86.8373 1795.39V1791.7H88.1783ZM88.7976 1797.79V1796.51C89.1336 1796.72 89.5446 1796.83 90.0306 1796.83C90.5106 1796.83 90.7506 1796.63 90.7506 1796.24C90.7506 1796.04 90.7056 1795.89 90.6156 1795.78C90.5256 1795.66 90.3546 1795.53 90.1026 1795.38L89.9316 1795.29C89.5056 1795.05 89.1996 1794.78 89.0136 1794.48C88.8276 1794.17 88.7346 1793.81 88.7346 1793.39C88.7346 1792.82 88.8996 1792.38 89.2296 1792.07C89.5656 1791.76 90.0336 1791.6 90.6336 1791.6C91.1676 1791.6 91.6296 1791.68 92.0196 1791.84V1793.09C91.6716 1792.95 91.2816 1792.88 90.8496 1792.88C90.4116 1792.88 90.1926 1793.05 90.1926 1793.4C90.1926 1793.56 90.2526 1793.69 90.3726 1793.81C90.4926 1793.91 90.7326 1794.07 91.0926 1794.27L91.2636 1794.36C91.9416 1794.71 92.2806 1795.31 92.2806 1796.15C92.2806 1796.77 92.1036 1797.25 91.7496 1797.59C91.3956 1797.93 90.8946 1798.1 90.2466 1798.1C89.6406 1798.1 89.1576 1798 88.7976 1797.79ZM94.1665 1792.99V1794.83H94.5535C94.7935 1794.83 94.9645 1794.76 95.0665 1794.62C95.1745 1794.47 95.2285 1794.23 95.2285 1793.9C95.2285 1793.56 95.1775 1793.33 95.0755 1793.19C94.9735 1793.06 94.7965 1792.99 94.5445 1792.99H94.1665ZM94.2115 1796.12V1798H92.7805V1791.7H94.6525C95.3365 1791.7 95.8435 1791.87 96.1735 1792.21C96.5035 1792.55 96.6685 1793.1 96.6685 1793.84C96.6685 1795.36 95.9635 1796.12 94.5535 1796.12H94.2115ZM98.7592 1796.38C98.9092 1796.66 99.1342 1796.8 99.4342 1796.8C99.7342 1796.8 99.9502 1796.66 100.082 1796.39C100.22 1796.11 100.289 1795.59 100.289 1794.85C100.289 1794.11 100.22 1793.6 100.082 1793.32C99.9442 1793.04 99.7192 1792.9 99.4072 1792.9C99.1072 1792.9 98.8882 1793.04 98.7502 1793.33C98.6122 1793.61 98.5432 1794.12 98.5432 1794.85C98.5432 1795.58 98.6152 1796.09 98.7592 1796.38ZM99.4342 1798.1C98.6302 1798.1 98.0302 1797.84 97.6342 1797.33C97.2382 1796.82 97.0402 1796 97.0402 1794.85C97.0402 1793.7 97.2382 1792.88 97.6342 1792.37C98.0302 1791.86 98.6212 1791.6 99.4072 1791.6C100.229 1791.6 100.832 1791.86 101.216 1792.38C101.6 1792.88 101.792 1793.71 101.792 1794.85C101.792 1796.02 101.594 1796.85 101.198 1797.35C100.808 1797.85 100.22 1798.1 99.4342 1798.1ZM102.352 1798V1791.7H104.26C105.574 1791.7 106.231 1792.36 106.231 1793.69C106.231 1794.55 105.973 1795.15 105.457 1795.49L106.474 1798H104.953L104.116 1795.79H103.783V1798H102.352ZM103.738 1792.99V1794.6H104.134C104.362 1794.6 104.527 1794.53 104.629 1794.41C104.731 1794.28 104.782 1794.07 104.782 1793.78C104.782 1793.51 104.731 1793.31 104.629 1793.18C104.527 1793.05 104.362 1792.99 104.134 1792.99H103.738ZM109.195 1793.07V1798H107.764V1793.07H106.495V1791.7H110.464V1793.07H109.195Z" fill="#4D4D4D"/>
<path d="M0.279 1809.79V1808.51C0.615 1808.72 1.026 1808.83 1.512 1808.83C1.992 1808.83 2.232 1808.63 2.232 1808.24C2.232 1808.04 2.187 1807.89 2.097 1807.78C2.007 1807.66 1.836 1807.53 1.584 1807.38L1.413 1807.29C0.987 1807.05 0.681 1806.78 0.495 1806.48C0.309 1806.17 0.216 1805.81 0.216 1805.39C0.216 1804.82 0.381 1804.38 0.711 1804.07C1.047 1803.76 1.515 1803.6 2.115 1803.6C2.649 1803.6 3.111 1803.68 3.501 1803.84V1805.09C3.153 1804.95 2.763 1804.88 2.331 1804.88C1.893 1804.88 1.674 1805.05 1.674 1805.4C1.674 1805.56 1.734 1805.69 1.854 1805.81C1.974 1805.91 2.214 1806.07 2.574 1806.27L2.745 1806.36C3.423 1806.71 3.762 1807.31 3.762 1808.15C3.762 1808.77 3.585 1809.25 3.231 1809.59C2.877 1809.93 2.376 1810.1 1.728 1810.1C1.122 1810.1 0.639 1810 0.279 1809.79ZM7.62792 1808.7V1810H4.26192V1803.7H7.62792V1805H5.69292V1806.19H7.32192V1807.39H5.69292V1808.7H7.62792ZM8.17305 1810V1803.7H10.0811C11.3951 1803.7 12.0521 1804.36 12.0521 1805.69C12.0521 1806.55 11.7941 1807.15 11.2781 1807.49L12.2951 1810H10.7741L9.93705 1807.79H9.60405V1810H8.17305ZM9.55905 1804.99V1806.6H9.95505C10.1831 1806.6 10.3481 1806.53 10.4501 1806.41C10.5521 1806.28 10.6031 1806.07 10.6031 1805.78C10.6031 1805.51 10.5521 1805.31 10.4501 1805.18C10.3481 1805.05 10.1831 1804.99 9.95505 1804.99H9.55905ZM16.8426 1803.7L15.4926 1810H13.5936L12.2436 1803.7H13.7826L14.5836 1808.03L15.3936 1803.7H16.8426ZM18.6304 1803.7V1810H17.1994V1803.7H18.6304ZM22.9536 1808.5V1809.85C22.6536 1810.02 22.2336 1810.1 21.6936 1810.1C20.8296 1810.1 20.1966 1809.85 19.7946 1809.34C19.3926 1808.83 19.1916 1808.03 19.1916 1806.93C19.1916 1805.76 19.3956 1804.91 19.8036 1804.39C20.2116 1803.86 20.8716 1803.6 21.7836 1803.6C22.2456 1803.6 22.6326 1803.67 22.9446 1803.81V1805.16C22.6446 1805.03 22.3356 1804.97 22.0176 1804.97C21.5676 1804.97 21.2346 1805.11 21.0186 1805.38C20.8026 1805.65 20.6946 1806.14 20.6946 1806.85C20.6946 1807.54 20.7966 1808.03 21.0006 1808.31C21.2046 1808.59 21.5376 1808.73 21.9996 1808.73C22.3476 1808.73 22.6656 1808.65 22.9536 1808.5ZM26.8848 1808.7V1810H23.5188V1803.7H26.8848V1805H24.9498V1806.19H26.5788V1807.39H24.9498V1808.7H26.8848Z" fill="#4D4D4D"/>
<path d="M3.519 1820.63V1822H0.342V1815.7H1.773V1820.63H3.519ZM5.36273 1820.38C5.51273 1820.66 5.73773 1820.8 6.03773 1820.8C6.33773 1820.8 6.55373 1820.66 6.68573 1820.39C6.82373 1820.11 6.89273 1819.59 6.89273 1818.85C6.89273 1818.11 6.82373 1817.6 6.68573 1817.32C6.54773 1817.04 6.32273 1816.9 6.01073 1816.9C5.71073 1816.9 5.49173 1817.04 5.35373 1817.33C5.21573 1817.61 5.14673 1818.12 5.14673 1818.85C5.14673 1819.58 5.21873 1820.09 5.36273 1820.38ZM6.03773 1822.1C5.23373 1822.1 4.63373 1821.84 4.23773 1821.33C3.84173 1820.82 3.64373 1820 3.64373 1818.85C3.64373 1817.7 3.84173 1816.88 4.23773 1816.37C4.63373 1815.86 5.22473 1815.6 6.01073 1815.6C6.83273 1815.6 7.43573 1815.86 7.81973 1816.38C8.20373 1816.88 8.39573 1817.71 8.39573 1818.85C8.39573 1820.02 8.19773 1820.85 7.80173 1821.35C7.41173 1821.85 6.82373 1822.1 6.03773 1822.1ZM11.8443 1820.71V1819.61H11.1423V1818.4H13.0593V1821.69C12.5853 1821.96 12.0393 1822.1 11.4213 1822.1C10.5453 1822.1 9.89428 1821.84 9.46828 1821.32C9.04228 1820.81 8.82928 1820.01 8.82928 1818.93C8.82928 1817.77 9.03928 1816.92 9.45928 1816.39C9.87928 1815.86 10.5513 1815.6 11.4753 1815.6C11.9793 1815.6 12.4083 1815.67 12.7623 1815.82V1817.11C12.5043 1816.99 12.1563 1816.93 11.7183 1816.93C11.2263 1816.93 10.8633 1817.07 10.6293 1817.36C10.4013 1817.63 10.2873 1818.14 10.2873 1818.87C10.2873 1819.55 10.3773 1820.04 10.5573 1820.33C10.7433 1820.63 11.0343 1820.78 11.4303 1820.78C11.5863 1820.78 11.7243 1820.75 11.8443 1820.71ZM15.1236 1815.7V1822H13.6926V1815.7H15.1236ZM15.7478 1821.79V1820.51C16.0838 1820.72 16.4948 1820.83 16.9808 1820.83C17.4608 1820.83 17.7008 1820.63 17.7008 1820.24C17.7008 1820.04 17.6558 1819.89 17.5658 1819.78C17.4758 1819.66 17.3048 1819.53 17.0528 1819.38L16.8818 1819.29C16.4558 1819.05 16.1498 1818.78 15.9638 1818.48C15.7778 1818.17 15.6848 1817.81 15.6848 1817.39C15.6848 1816.82 15.8498 1816.38 16.1798 1816.07C16.5158 1815.76 16.9838 1815.6 17.5838 1815.6C18.1178 1815.6 18.5798 1815.68 18.9698 1815.84V1817.09C18.6218 1816.95 18.2318 1816.88 17.7998 1816.88C17.3618 1816.88 17.1428 1817.05 17.1428 1817.4C17.1428 1817.56 17.2028 1817.69 17.3228 1817.81C17.4428 1817.91 17.6828 1818.07 18.0428 1818.27L18.2138 1818.36C18.8918 1818.71 19.2308 1819.31 19.2308 1820.15C19.2308 1820.77 19.0538 1821.25 18.6998 1821.59C18.3458 1821.93 17.8448 1822.1 17.1968 1822.1C16.5908 1822.1 16.1078 1822 15.7478 1821.79ZM22.0558 1817.07V1822H20.6248V1817.07H19.3558V1815.7H23.3248V1817.07H22.0558ZM25.1959 1815.7V1822H23.7649V1815.7H25.1959ZM29.519 1820.5V1821.85C29.219 1822.02 28.799 1822.1 28.259 1822.1C27.395 1822.1 26.762 1821.85 26.36 1821.34C25.958 1820.83 25.757 1820.03 25.757 1818.93C25.757 1817.76 25.961 1816.91 26.369 1816.39C26.777 1815.86 27.437 1815.6 28.349 1815.6C28.811 1815.6 29.198 1815.67 29.51 1815.81V1817.16C29.21 1817.03 28.901 1816.97 28.583 1816.97C28.133 1816.97 27.8 1817.11 27.584 1817.38C27.368 1817.65 27.26 1818.14 27.26 1818.85C27.26 1819.54 27.362 1820.03 27.566 1820.31C27.77 1820.59 28.103 1820.73 28.565 1820.73C28.913 1820.73 29.231 1820.65 29.519 1820.5Z" fill="#4D4D4D"/>
<path d="M62.092 1759.86V1758.56C62.494 1758.72 62.878 1758.8 63.244 1758.8C63.808 1758.8 64.09 1758.56 64.09 1758.08C64.09 1757.83 64.03 1757.65 63.91 1757.54C63.79 1757.43 63.601 1757.37 63.343 1757.37H62.614V1756.19H63.244C63.502 1756.19 63.688 1756.14 63.802 1756.04C63.922 1755.94 63.982 1755.76 63.982 1755.52C63.982 1755.1 63.745 1754.9 63.271 1754.9C62.863 1754.9 62.5 1754.97 62.182 1755.11V1753.84C62.638 1753.68 63.145 1753.6 63.703 1753.6C64.039 1753.6 64.327 1753.65 64.567 1753.74C64.813 1753.83 64.999 1753.96 65.125 1754.13C65.257 1754.29 65.35 1754.47 65.404 1754.66C65.464 1754.85 65.494 1755.05 65.494 1755.27C65.494 1756.03 65.188 1756.51 64.576 1756.72V1756.74C64.942 1756.83 65.203 1756.99 65.359 1757.23C65.521 1757.47 65.602 1757.79 65.602 1758.18C65.602 1758.76 65.437 1759.22 65.107 1759.58C64.777 1759.92 64.231 1760.1 63.469 1760.1C62.983 1760.1 62.524 1760.02 62.092 1759.86ZM69.5573 1758.69V1760H66.0113V1758.67L66.6593 1757.96C67.1513 1757.48 67.4963 1757.08 67.6943 1756.77C67.8983 1756.46 68.0003 1756.14 68.0003 1755.81C68.0003 1755.53 67.9373 1755.31 67.8113 1755.16C67.6853 1755.01 67.4753 1754.93 67.1813 1754.93C66.8213 1754.93 66.4673 1755.03 66.1193 1755.23V1753.87C66.5873 1753.69 67.1093 1753.6 67.6853 1753.6C68.0393 1753.6 68.3423 1753.65 68.5943 1753.75C68.8463 1753.86 69.0383 1754 69.1703 1754.19C69.3023 1754.37 69.3983 1754.56 69.4583 1754.77C69.5183 1754.98 69.5483 1755.21 69.5483 1755.46C69.5483 1756.02 69.4133 1756.53 69.1433 1756.99C68.8793 1757.46 68.4833 1757.94 67.9553 1758.46L67.7123 1758.68V1758.69H69.5573ZM71.7366 1759.28C71.7366 1759.54 71.6646 1759.74 71.5206 1759.88C71.3826 1760.03 71.1846 1760.1 70.9266 1760.1C70.6866 1760.1 70.4946 1760.03 70.3506 1759.88C70.2066 1759.73 70.1346 1759.53 70.1346 1759.28C70.1346 1759.02 70.2006 1758.82 70.3326 1758.69C70.4706 1758.54 70.6686 1758.47 70.9266 1758.47C71.1726 1758.47 71.3676 1758.54 71.5116 1758.69C71.6616 1758.84 71.7366 1759.03 71.7366 1759.28ZM72.2978 1759.86V1758.61C72.5738 1758.75 72.8978 1758.81 73.2698 1758.81C73.5938 1758.81 73.8308 1758.74 73.9808 1758.6C74.1308 1758.46 74.2058 1758.23 74.2058 1757.91C74.2058 1757.6 74.1398 1757.37 74.0078 1757.24C73.8758 1757.1 73.6508 1757.03 73.3328 1757.03C72.9968 1757.03 72.6698 1757.08 72.3518 1757.18L72.4868 1753.7H75.4658V1754.95H73.5488L73.5038 1756C73.6418 1755.97 73.8278 1755.95 74.0618 1755.95C75.1598 1755.95 75.7088 1756.59 75.7088 1757.88C75.7088 1758.54 75.5408 1759.08 75.2048 1759.49C74.8748 1759.89 74.3228 1760.1 73.5488 1760.1C73.0988 1760.1 72.6818 1760.02 72.2978 1759.86ZM78.1895 1758.83C78.3995 1758.83 78.5465 1758.7 78.6305 1758.43C78.7205 1758.16 78.7655 1757.64 78.7655 1756.87C78.7655 1756.08 78.7205 1755.54 78.6305 1755.27C78.5465 1755 78.3905 1754.87 78.1625 1754.87C77.9465 1754.87 77.7965 1755.01 77.7125 1755.28C77.6285 1755.56 77.5865 1756.09 77.5865 1756.87C77.5865 1757.64 77.6285 1758.16 77.7125 1758.43C77.8025 1758.7 77.9615 1758.83 78.1895 1758.83ZM78.1805 1760.1C77.4605 1760.1 76.9325 1759.85 76.5965 1759.36C76.2665 1758.87 76.1015 1758.03 76.1015 1756.85C76.1015 1755.67 76.2695 1754.83 76.6055 1754.34C76.9415 1753.85 77.4605 1753.6 78.1625 1753.6C78.9005 1753.6 79.4315 1753.85 79.7555 1754.34C80.0795 1754.82 80.2415 1755.66 80.2415 1756.85C80.2415 1758.03 80.0735 1758.87 79.7375 1759.36C79.4015 1759.85 78.8825 1760.1 78.1805 1760.1ZM82.7423 1758.83C82.9523 1758.83 83.0993 1758.7 83.1833 1758.43C83.2733 1758.16 83.3183 1757.64 83.3183 1756.87C83.3183 1756.08 83.2733 1755.54 83.1833 1755.27C83.0993 1755 82.9433 1754.87 82.7153 1754.87C82.4993 1754.87 82.3493 1755.01 82.2653 1755.28C82.1813 1755.56 82.1393 1756.09 82.1393 1756.87C82.1393 1757.64 82.1813 1758.16 82.2653 1758.43C82.3553 1758.7 82.5143 1758.83 82.7423 1758.83ZM82.7333 1760.1C82.0133 1760.1 81.4853 1759.85 81.1493 1759.36C80.8193 1758.87 80.6543 1758.03 80.6543 1756.85C80.6543 1755.67 80.8223 1754.83 81.1583 1754.34C81.4943 1753.85 82.0133 1753.6 82.7153 1753.6C83.4533 1753.6 83.9843 1753.85 84.3083 1754.34C84.6323 1754.82 84.7943 1755.66 84.7943 1756.85C84.7943 1758.03 84.6263 1758.87 84.2903 1759.36C83.9543 1759.85 83.4353 1760.1 82.7333 1760.1Z" fill="#4D4D4D"/>
<path d="M66.5508 1766.82L65.0478 1772H63.4368L65.0118 1766.97H62.9598V1765.7H66.5508V1766.82ZM69.6971 1765.7V1772H68.2751V1767.34L67.4471 1767.95L66.8351 1766.93L68.5001 1765.7H69.6971ZM72.0442 1771.28C72.0442 1771.54 71.9722 1771.74 71.8282 1771.88C71.6902 1772.03 71.4922 1772.1 71.2342 1772.1C70.9942 1772.1 70.8022 1772.03 70.6582 1771.88C70.5142 1771.73 70.4422 1771.53 70.4422 1771.28C70.4422 1771.02 70.5082 1770.82 70.6402 1770.69C70.7782 1770.54 70.9762 1770.47 71.2342 1770.47C71.4802 1770.47 71.6752 1770.54 71.8192 1770.69C71.9692 1770.84 72.0442 1771.03 72.0442 1771.28ZM74.4786 1770.94C74.8026 1770.94 74.9646 1770.61 74.9646 1769.97C74.9646 1769.31 74.7966 1768.98 74.4606 1768.98C74.1126 1768.98 73.9386 1769.26 73.9386 1769.83C73.9386 1770.57 74.1186 1770.94 74.4786 1770.94ZM76.0176 1765.76V1767.04C75.7236 1766.92 75.4026 1766.86 75.0546 1766.86C74.2626 1766.86 73.8666 1767.39 73.8666 1768.46C74.0826 1768.11 74.4306 1767.94 74.9106 1767.94C75.3726 1767.94 75.7386 1768.1 76.0086 1768.41C76.2846 1768.72 76.4226 1769.22 76.4226 1769.92C76.4226 1770.62 76.2546 1771.16 75.9186 1771.54C75.5886 1771.91 75.1236 1772.1 74.5236 1772.1C73.8276 1772.1 73.3116 1771.85 72.9756 1771.36C72.6456 1770.87 72.4806 1770.1 72.4806 1769.07C72.4806 1767.94 72.6666 1767.09 73.0386 1766.49C73.4106 1765.9 74.0226 1765.6 74.8746 1765.6C75.2826 1765.6 75.6636 1765.65 76.0176 1765.76ZM76.8505 1771.86V1770.61C77.1265 1770.75 77.4505 1770.81 77.8225 1770.81C78.1465 1770.81 78.3835 1770.74 78.5335 1770.6C78.6835 1770.46 78.7585 1770.23 78.7585 1769.91C78.7585 1769.6 78.6925 1769.37 78.5605 1769.24C78.4285 1769.1 78.2035 1769.03 77.8855 1769.03C77.5495 1769.03 77.2225 1769.08 76.9045 1769.18L77.0395 1765.7H80.0185V1766.95H78.1015L78.0565 1768C78.1945 1767.97 78.3805 1767.95 78.6145 1767.95C79.7125 1767.95 80.2615 1768.59 80.2615 1769.88C80.2615 1770.54 80.0935 1771.08 79.7575 1771.49C79.4275 1771.89 78.8755 1772.1 78.1015 1772.1C77.6515 1772.1 77.2345 1772.02 76.8505 1771.86ZM82.7423 1770.83C82.9523 1770.83 83.0993 1770.7 83.1833 1770.43C83.2733 1770.16 83.3183 1769.64 83.3183 1768.87C83.3183 1768.08 83.2733 1767.54 83.1833 1767.27C83.0993 1767 82.9433 1766.87 82.7153 1766.87C82.4993 1766.87 82.3493 1767.01 82.2653 1767.28C82.1813 1767.56 82.1393 1768.09 82.1393 1768.87C82.1393 1769.64 82.1813 1770.16 82.2653 1770.43C82.3553 1770.7 82.5143 1770.83 82.7423 1770.83ZM82.7333 1772.1C82.0133 1772.1 81.4853 1771.85 81.1493 1771.36C80.8193 1770.87 80.6543 1770.03 80.6543 1768.85C80.6543 1767.67 80.8223 1766.83 81.1583 1766.34C81.4943 1765.85 82.0133 1765.6 82.7153 1765.6C83.4533 1765.6 83.9843 1765.85 84.3083 1766.34C84.6323 1766.82 84.7943 1767.66 84.7943 1768.85C84.7943 1770.03 84.6263 1770.87 84.2903 1771.36C83.9543 1771.85 83.4353 1772.1 82.7333 1772.1Z" fill="#4D4D4D"/>
<path d="M103.575 1753.25V1757.36L104.448 1755.41H105.852L104.826 1757.47L105.987 1760H104.547L103.575 1757.65V1760H102.297V1753.25H103.575ZM108.524 1755.96V1755.41H109.775V1759.95C109.775 1760.34 109.718 1760.68 109.604 1760.95C109.49 1761.23 109.328 1761.44 109.118 1761.58C108.914 1761.72 108.692 1761.82 108.452 1761.88C108.212 1761.94 107.942 1761.97 107.642 1761.97C107.072 1761.97 106.643 1761.9 106.355 1761.75V1760.59C106.667 1760.76 107.036 1760.84 107.462 1760.84C107.852 1760.84 108.122 1760.75 108.272 1760.59C108.428 1760.42 108.506 1760.15 108.506 1759.77V1759.32H108.488C108.302 1759.77 107.951 1760 107.435 1760C106.973 1760 106.616 1759.83 106.364 1759.5C106.112 1759.16 105.986 1758.58 105.986 1757.75C105.986 1756.89 106.106 1756.27 106.346 1755.9C106.592 1755.52 106.967 1755.34 107.471 1755.34C107.987 1755.34 108.335 1755.54 108.515 1755.96H108.524ZM107.885 1756.43C107.681 1756.43 107.531 1756.52 107.435 1756.7C107.345 1756.87 107.3 1757.2 107.3 1757.69C107.3 1758.14 107.351 1758.45 107.453 1758.64C107.555 1758.82 107.702 1758.91 107.894 1758.91C108.104 1758.91 108.257 1758.82 108.353 1758.63C108.455 1758.45 108.506 1758.13 108.506 1757.68C108.506 1757.22 108.455 1756.89 108.353 1756.71C108.257 1756.52 108.101 1756.43 107.885 1756.43Z" fill="#4D4D4D"/>
<path d="M103.575 1765.25V1772H102.297V1765.25H103.575ZM105.411 1771.47V1772H104.16V1765.25H105.438V1768.01H105.447C105.525 1767.81 105.657 1767.65 105.843 1767.53C106.035 1767.4 106.278 1767.34 106.572 1767.34C107.016 1767.34 107.355 1767.51 107.589 1767.85C107.829 1768.19 107.949 1768.78 107.949 1769.62C107.949 1770.5 107.829 1771.13 107.589 1771.5C107.355 1771.88 106.98 1772.07 106.464 1772.07C105.966 1772.07 105.618 1771.87 105.42 1771.47H105.411ZM106.05 1770.98C106.26 1770.98 106.41 1770.89 106.5 1770.71C106.59 1770.53 106.635 1770.17 106.635 1769.65C106.635 1769.19 106.587 1768.87 106.491 1768.7C106.395 1768.52 106.251 1768.43 106.059 1768.43C105.849 1768.43 105.693 1768.52 105.591 1768.71C105.489 1768.91 105.438 1769.24 105.438 1769.71C105.438 1770.56 105.642 1770.98 106.05 1770.98ZM108.378 1771.87V1770.79C108.654 1770.98 109.032 1771.07 109.512 1771.07C109.818 1771.07 109.971 1770.95 109.971 1770.71C109.971 1770.59 109.911 1770.49 109.791 1770.4C109.677 1770.31 109.539 1770.22 109.377 1770.15C109.215 1770.07 109.05 1769.98 108.882 1769.88C108.72 1769.77 108.579 1769.62 108.459 1769.42C108.345 1769.21 108.288 1768.96 108.288 1768.67C108.288 1767.77 108.825 1767.32 109.899 1767.32C110.289 1767.32 110.655 1767.37 110.997 1767.47V1768.53C110.739 1768.4 110.409 1768.34 110.007 1768.34C109.701 1768.34 109.548 1768.44 109.548 1768.63C109.548 1768.74 109.605 1768.84 109.719 1768.92C109.839 1769 109.98 1769.08 110.142 1769.16C110.304 1769.23 110.466 1769.32 110.628 1769.43C110.796 1769.53 110.937 1769.68 111.051 1769.89C111.171 1770.1 111.231 1770.35 111.231 1770.65C111.231 1771.61 110.685 1772.09 109.593 1772.09C109.125 1772.09 108.72 1772.02 108.378 1771.87Z" fill="#4D4D4D"/>
<defs>
<filter id="filter0_f_707_9" x="57" y="128" width="92" height="125" filterUnits="userSpaceOnUse" color-interpolation-filters="sRGB">
<feFlood flood-opacity="0" result="BackgroundImageFix"/>
<feBlend mode="normal" in="SourceGraphic" in2="BackgroundImageFix" result="shape"/>
<feGaussianBlur stdDeviation="13.5" result="effect1_foregroundBlur_707_9"/>
</filter>
</defs>
</svg>
