<svg width="99" height="88" viewBox="0 0 99 88" fill="none" xmlns="http://www.w3.org/2000/svg">
<path d="M91.1867 41.5257L51.7057 2.11931C50.533 0.948848 48.6317 0.948851 47.459 2.11931L7.97829 41.5254C6.80561 42.6958 6.80561 44.5935 7.97829 45.764L47.4594 85.1704C48.632 86.3409 50.5333 86.3409 51.706 85.1704L91.1867 45.7644C92.3594 44.5939 92.3594 42.6962 91.1867 41.5257Z" fill="#FFE800"/>
<mask id="mask0_734_1009" style="mask-type:alpha" maskUnits="userSpaceOnUse" x="7" y="1" width="86" height="86">
<path d="M91.1868 41.5257L51.7057 2.11931C50.533 0.948848 48.6317 0.948851 47.4591 2.11931L7.97835 41.5254C6.80567 42.6958 6.80567 44.5935 7.97835 45.764L47.4594 85.1704C48.6321 86.3409 50.5334 86.3409 51.7061 85.1704L91.1868 45.7644C92.3595 44.5939 92.3595 42.6962 91.1868 41.5257Z" fill="#FFE800"/>
</mask>
<g mask="url(#mask0_734_1009)">
<rect x="5.85504" y="43.4067" width="91.3353" height="47.3836" fill="white"/>
</g>
<path d="M85.8186 41.5564L51.7359 7.53826C50.5633 6.36779 48.662 6.36779 47.4893 7.53826L13.4065 41.5566C12.2338 42.7271 12.2338 44.6248 13.4065 45.7952L47.4891 79.8134C48.6618 80.9838 50.5631 80.9838 51.7358 79.8134L85.8186 45.795C86.9912 44.6246 86.9912 42.7269 85.8186 41.5564Z" stroke="#393940" stroke-width="2" stroke-miterlimit="10"/>
<path d="M42.6255 43.8037V31.0037L44.0255 32.4037H39.8255V29.8037H45.8655V43.8037H42.6255ZM48.1776 43.8037V41.7037L53.5776 36.6037C54.0042 36.217 54.3176 35.8704 54.5176 35.5637C54.7176 35.257 54.8509 34.977 54.9176 34.7237C54.9976 34.4704 55.0376 34.237 55.0376 34.0237C55.0376 33.4637 54.8442 33.037 54.4576 32.7437C54.0842 32.437 53.5309 32.2837 52.7976 32.2837C52.2109 32.2837 51.6642 32.397 51.1576 32.6237C50.6642 32.8504 50.2442 33.2037 49.8976 33.6837L47.5376 32.1637C48.0709 31.3637 48.8176 30.7304 49.7776 30.2637C50.7376 29.797 51.8442 29.5637 53.0976 29.5637C54.1376 29.5637 55.0442 29.737 55.8176 30.0837C56.6042 30.417 57.2109 30.8904 57.6376 31.5037C58.0776 32.117 58.2976 32.8504 58.2976 33.7037C58.2976 34.157 58.2376 34.6104 58.1176 35.0637C58.0109 35.5037 57.7842 35.9704 57.4376 36.4637C57.1042 36.957 56.6109 37.5104 55.9576 38.1237L51.4776 42.3437L50.8576 41.1637H58.7576V43.8037H48.1776ZM43.7388 50.8697C43.6668 50.8697 43.5908 50.8637 43.5108 50.8517C43.4348 50.8397 43.3508 50.8237 43.2588 50.8037L43.3188 49.9817C43.3748 49.9977 43.4328 50.0057 43.4928 50.0057C43.6568 50.0057 43.7848 49.9397 43.8768 49.8077C43.9688 49.6717 44.0348 49.4777 44.0748 49.2257C44.1148 48.9737 44.1408 48.6677 44.1528 48.3077L44.2128 46.6037H47.4408V50.8037H46.4808V47.1737L46.7028 47.3957H44.8488L45.0468 47.1617L45.0108 48.2717C44.9988 48.6837 44.9708 49.0497 44.9268 49.3697C44.8828 49.6897 44.8148 49.9617 44.7228 50.1857C44.6308 50.4097 44.5048 50.5797 44.3448 50.6957C44.1848 50.8117 43.9828 50.8697 43.7388 50.8697ZM49.3838 48.2957H51.4058V49.0517H49.3838V48.2957ZM49.4558 50.0237H51.7418V50.8037H48.4898V46.6037H51.6638V47.3837H49.4558V50.0237ZM53.4329 50.8037V47.1737L53.6549 47.3957H52.0949V46.6037H55.7369V47.3957H54.1769L54.3929 47.1737V50.8037H53.4329ZM33.2459 57.8037L31.9379 55.7817L32.7239 55.3077L34.3499 57.8037H33.2459ZM30.5159 57.8037V53.6037H31.4819V57.8037H30.5159ZM31.1999 56.1117V55.3017H32.6639V56.1117H31.1999ZM32.8139 55.8117L31.9199 55.7037L33.2819 53.6037H34.3079L32.8139 55.8117ZM36.7976 57.8757C36.4656 57.8757 36.1576 57.8217 35.8736 57.7137C35.5936 57.6057 35.3496 57.4537 35.1416 57.2577C34.9376 57.0617 34.7776 56.8317 34.6616 56.5677C34.5496 56.3037 34.4936 56.0157 34.4936 55.7037C34.4936 55.3917 34.5496 55.1037 34.6616 54.8397C34.7776 54.5757 34.9396 54.3457 35.1476 54.1497C35.3556 53.9537 35.5996 53.8017 35.8796 53.6937C36.1596 53.5857 36.4636 53.5317 36.7916 53.5317C37.1236 53.5317 37.4276 53.5857 37.7036 53.6937C37.9836 53.8017 38.2256 53.9537 38.4296 54.1497C38.6376 54.3457 38.7996 54.5757 38.9156 54.8397C39.0316 55.0997 39.0896 55.3877 39.0896 55.7037C39.0896 56.0157 39.0316 56.3057 38.9156 56.5737C38.7996 56.8377 38.6376 57.0677 38.4296 57.2637C38.2256 57.4557 37.9836 57.6057 37.7036 57.7137C37.4276 57.8217 37.1256 57.8757 36.7976 57.8757ZM36.7916 57.0477C36.9796 57.0477 37.1516 57.0157 37.3076 56.9517C37.4676 56.8877 37.6076 56.7957 37.7276 56.6757C37.8476 56.5557 37.9396 56.4137 38.0036 56.2497C38.0716 56.0857 38.1056 55.9037 38.1056 55.7037C38.1056 55.5037 38.0716 55.3217 38.0036 55.1577C37.9396 54.9937 37.8476 54.8517 37.7276 54.7317C37.6116 54.6117 37.4736 54.5197 37.3136 54.4557C37.1536 54.3917 36.9796 54.3597 36.7916 54.3597C36.6036 54.3597 36.4296 54.3917 36.2696 54.4557C36.1136 54.5197 35.9756 54.6117 35.8556 54.7317C35.7356 54.8517 35.6416 54.9937 35.5736 55.1577C35.5096 55.3217 35.4776 55.5037 35.4776 55.7037C35.4776 55.8997 35.5096 56.0817 35.5736 56.2497C35.6416 56.4137 35.7336 56.5557 35.8496 56.6757C35.9696 56.7957 36.1096 56.8877 36.2696 56.9517C36.4296 57.0157 36.6036 57.0477 36.7916 57.0477ZM39.8384 57.8037V53.6037H40.6424L42.4304 56.5677H42.0044L43.7624 53.6037H44.5664L44.5724 57.8037H43.6604L43.6544 55.0017H43.8284L42.4184 57.3597H41.9864L40.5464 55.0017H40.7504V57.8037H39.8384ZM45.6158 57.8037V53.6037H49.4438V57.8037H48.4778V54.1737L48.6998 54.3957H46.3598L46.5818 54.1737V57.8037H45.6158ZM50.0109 57.8037L51.8829 53.6037H52.8429L54.7209 57.8037H53.7009L52.1649 54.0957H52.5489L51.0069 57.8037H50.0109ZM50.9469 56.9037L51.2049 56.1657H53.3649L53.6289 56.9037H50.9469ZM58.1579 53.6037H59.1299V57.8037H58.1579V53.6037ZM56.2499 57.8037H55.2779V53.6037H56.2499V57.8037ZM58.2299 56.0817H56.1779V55.2597H58.2299V56.0817ZM60.1822 57.8037V53.6037H61.1482V56.3397L63.1522 53.6037H64.0642V57.8037H63.1042V55.0737L61.1002 57.8037H60.1822ZM67.5039 57.8037V56.4777L67.7439 56.6877H66.5919C66.2279 56.6877 65.9139 56.6277 65.6499 56.5077C65.3859 56.3877 65.1839 56.2137 65.0439 55.9857C64.9039 55.7577 64.8339 55.4857 64.8339 55.1697C64.8339 54.8417 64.9079 54.5617 65.0559 54.3297C65.2079 54.0937 65.4199 53.9137 65.6919 53.7897C65.9639 53.6657 66.2839 53.6037 66.6519 53.6037H68.4639V57.8037H67.5039ZM64.8459 57.8037L65.8899 56.2977H66.8739L65.8719 57.8037H64.8459ZM67.5039 56.1657V54.1437L67.7439 54.3957H66.6759C66.3999 54.3957 66.1879 54.4597 66.0399 54.5877C65.8959 54.7157 65.8239 54.9057 65.8239 55.1577C65.8239 55.4017 65.8939 55.5897 66.0339 55.7217C66.1739 55.8537 66.3799 55.9197 66.6519 55.9197H67.7439L67.5039 56.1657Z" fill="#131313"/>
</svg>
