<svg width="99" height="88" viewBox="0 0 99 88" fill="none" xmlns="http://www.w3.org/2000/svg">
<path d="M90.3318 41.5257L50.8507 2.11931C49.6781 0.948848 47.7768 0.948851 46.6041 2.11931L7.12337 41.5254C5.95069 42.6958 5.95069 44.5935 7.12337 45.764L46.6044 85.1704C47.7771 86.3409 49.6784 86.3409 50.8511 85.1704L90.3318 45.7644C91.5045 44.5939 91.5045 42.6962 90.3318 41.5257Z" fill="#FFE800"/>
<mask id="mask0_734_988" style="mask-type:alpha" maskUnits="userSpaceOnUse" x="6" y="1" width="86" height="86">
<path d="M90.3318 41.5257L50.8507 2.11931C49.678 0.948848 47.7767 0.948851 46.604 2.11931L7.1233 41.5254C5.95062 42.6958 5.95063 44.5935 7.12331 45.764L46.6044 85.1704C47.7771 86.3409 49.6784 86.3409 50.851 85.1704L90.3318 45.7644C91.5044 44.5939 91.5044 42.6962 90.3318 41.5257Z" fill="#FFE800"/>
</mask>
<g mask="url(#mask0_734_988)">
<rect x="5.00006" y="43.4067" width="91.3353" height="47.3836" fill="white"/>
</g>
<path d="M84.9636 41.5564L50.881 7.53826C49.7083 6.36779 47.807 6.36779 46.6343 7.53826L12.5515 41.5566C11.3788 42.7271 11.3788 44.6248 12.5515 45.7952L46.6341 79.8134C47.8068 80.9838 49.7081 80.9838 50.8808 79.8134L84.9636 45.795C86.1363 44.6246 86.1363 42.7269 84.9636 41.5564Z" stroke="#393940" stroke-width="2" stroke-miterlimit="10"/>
<path d="M38.1898 29.8037V43.8037H34.9498V32.4037H32.1498V29.8037H38.1898ZM46.6218 44.0437C45.4618 44.0437 44.4285 43.757 43.5218 43.1837C42.6151 42.6104 41.9018 41.7837 41.3818 40.7037C40.8751 39.6104 40.6218 38.3104 40.6218 36.8037C40.6218 35.297 40.8751 34.0037 41.3818 32.9237C41.9018 31.8304 42.6151 30.997 43.5218 30.4237C44.4285 29.8504 45.4618 29.5637 46.6218 29.5637C47.7818 29.5637 48.8151 29.8504 49.7218 30.4237C50.6285 30.997 51.3351 31.8304 51.8418 32.9237C52.3618 34.0037 52.6218 35.297 52.6218 36.8037C52.6218 38.3104 52.3618 39.6104 51.8418 40.7037C51.3351 41.7837 50.6285 42.6104 49.7218 43.1837C48.8151 43.757 47.7818 44.0437 46.6218 44.0437ZM46.6218 41.3037C47.4751 41.3037 48.1418 40.937 48.6218 40.2037C49.1151 39.4704 49.3618 38.337 49.3618 36.8037C49.3618 35.2704 49.1151 34.137 48.6218 33.4037C48.1418 32.6704 47.4751 32.3037 46.6218 32.3037C45.7818 32.3037 45.1151 32.6704 44.6218 33.4037C44.1418 34.137 43.9018 35.2704 43.9018 36.8037C43.9018 38.337 44.1418 39.4704 44.6218 40.2037C45.1151 40.937 45.7818 41.3037 46.6218 41.3037ZM60.196 44.0437C59.036 44.0437 58.0027 43.757 57.096 43.1837C56.1893 42.6104 55.476 41.7837 54.956 40.7037C54.4493 39.6104 54.196 38.3104 54.196 36.8037C54.196 35.297 54.4493 34.0037 54.956 32.9237C55.476 31.8304 56.1893 30.997 57.096 30.4237C58.0027 29.8504 59.036 29.5637 60.196 29.5637C61.356 29.5637 62.3893 29.8504 63.296 30.4237C64.2027 30.997 64.9093 31.8304 65.416 32.9237C65.936 34.0037 66.196 35.297 66.196 36.8037C66.196 38.3104 65.936 39.6104 65.416 40.7037C64.9093 41.7837 64.2027 42.6104 63.296 43.1837C62.3893 43.757 61.356 44.0437 60.196 44.0437ZM60.196 41.3037C61.0493 41.3037 61.716 40.937 62.196 40.2037C62.6893 39.4704 62.936 38.337 62.936 36.8037C62.936 35.2704 62.6893 34.137 62.196 33.4037C61.716 32.6704 61.0493 32.3037 60.196 32.3037C59.356 32.3037 58.6893 32.6704 58.196 33.4037C57.716 34.137 57.476 35.2704 57.476 36.8037C57.476 38.337 57.716 39.4704 58.196 40.2037C58.6893 40.937 59.356 41.3037 60.196 41.3037ZM32.1568 48.6037H33.1228V51.3397L35.1268 48.6037H36.0388V52.8037H35.0788V50.0737L33.0748 52.8037H32.1568V48.6037ZM38.7837 48.6037H42.1737V49.3777H39.7497V50.2417H40.9137C41.4217 50.2417 41.8077 50.3477 42.0717 50.5597C42.3397 50.7717 42.4737 51.0777 42.4737 51.4777C42.4737 51.8977 42.3257 52.2237 42.0297 52.4557C41.7337 52.6877 41.3157 52.8037 40.7757 52.8037H38.7837V48.6037ZM40.7217 52.0837C40.9697 52.0837 41.1597 52.0357 41.2917 51.9397C41.4237 51.8397 41.4897 51.6957 41.4897 51.5077C41.4897 51.1397 41.2337 50.9557 40.7217 50.9557H39.7497V52.0837H40.7217ZM45.2174 52.8757C44.7814 52.8757 44.3874 52.7817 44.0354 52.5937C43.6874 52.4057 43.4134 52.1477 43.2134 51.8197C43.0174 51.4877 42.9194 51.1157 42.9194 50.7037C42.9194 50.2917 43.0174 49.9217 43.2134 49.5937C43.4134 49.2617 43.6874 49.0017 44.0354 48.8137C44.3874 48.6257 44.7814 48.5317 45.2174 48.5317C45.6534 48.5317 46.0454 48.6257 46.3934 48.8137C46.7414 49.0017 47.0154 49.2617 47.2154 49.5937C47.4154 49.9217 47.5154 50.2917 47.5154 50.7037C47.5154 51.1157 47.4154 51.4877 47.2154 51.8197C47.0154 52.1477 46.7414 52.4057 46.3934 52.5937C46.0454 52.7817 45.6534 52.8757 45.2174 52.8757ZM45.2174 52.0477C45.4654 52.0477 45.6894 51.9917 45.8894 51.8797C46.0894 51.7637 46.2454 51.6037 46.3574 51.3997C46.4734 51.1957 46.5314 50.9637 46.5314 50.7037C46.5314 50.4437 46.4734 50.2117 46.3574 50.0077C46.2454 49.8037 46.0894 49.6457 45.8894 49.5337C45.6894 49.4177 45.4654 49.3597 45.2174 49.3597C44.9694 49.3597 44.7454 49.4177 44.5454 49.5337C44.3454 49.6457 44.1874 49.8037 44.0714 50.0077C43.9594 50.2117 43.9034 50.4437 43.9034 50.7037C43.9034 50.9637 43.9594 51.1957 44.0714 51.3997C44.1874 51.6037 44.3454 51.7637 44.5454 51.8797C44.7454 51.9917 44.9694 52.0477 45.2174 52.0477ZM51.891 48.6037V52.8037H50.931V49.3957H49.491L49.461 50.2717C49.441 50.8677 49.393 51.3517 49.317 51.7237C49.241 52.0917 49.113 52.3757 48.933 52.5757C48.757 52.7717 48.509 52.8697 48.189 52.8697C48.057 52.8697 47.897 52.8477 47.709 52.8037L47.769 51.9817C47.821 51.9977 47.879 52.0057 47.943 52.0057C48.175 52.0057 48.337 51.8697 48.429 51.5977C48.521 51.3217 48.579 50.8917 48.603 50.3077L48.663 48.6037H51.891ZM54.974 49.9837C55.486 49.9837 55.878 50.0977 56.15 50.3257C56.426 50.5537 56.564 50.8917 56.564 51.3397C56.564 51.8157 56.412 52.1797 56.108 52.4317C55.808 52.6797 55.384 52.8037 54.836 52.8037H52.94V48.6037H53.906V49.9837H54.974ZM54.782 52.0837C55.034 52.0837 55.23 52.0217 55.37 51.8977C55.514 51.7737 55.586 51.5937 55.586 51.3577C55.586 50.9217 55.318 50.7037 54.782 50.7037H53.906V52.0837H54.782ZM62.8082 48.6037V52.8037H57.2642V48.6037H58.2302V52.0117H59.5562V48.6037H60.5222V52.0117H61.8422V48.6037H62.8082ZM67.1021 52.0237V52.8037H63.8501V48.6037H67.0241V49.3837H64.8161V50.2957H66.7661V51.0517H64.8161V52.0237H67.1021Z" fill="#131313"/>
</svg>
