<svg width="73" height="62" viewBox="0 0 73 62" fill="none" xmlns="http://www.w3.org/2000/svg">
<path d="M6 58.7287L36.5765 6L67.153 58.7287H6Z" fill="#FFE800" stroke="#393940" stroke-width="6" stroke-miterlimit="10"/>
<path d="M34.425 43.925C34.425 43.0583 34.6167 42.3417 35 41.775C35.4 41.2083 35.975 40.5833 36.725 39.9C37.275 39.4 37.675 38.9833 37.925 38.65C38.1917 38.3 38.325 37.9083 38.325 37.475C38.325 36.8583 38.075 36.375 37.575 36.025C37.0917 35.6583 36.4417 35.475 35.625 35.475C34.8417 35.475 34.1417 35.6417 33.525 35.975C32.925 36.2917 32.4167 36.7417 32 37.325L28.975 35.55C29.675 34.4833 30.6167 33.6583 31.8 33.075C33 32.4917 34.4167 32.2 36.05 32.2C37.9667 32.2 39.5 32.6083 40.65 33.425C41.8167 34.2417 42.4 35.375 42.4 36.825C42.4 37.5083 42.2833 38.1083 42.05 38.625C41.8333 39.1417 41.5583 39.5833 41.225 39.95C40.9083 40.3 40.4917 40.7083 39.975 41.175C39.3583 41.725 38.9083 42.1917 38.625 42.575C38.3417 42.9417 38.2 43.3917 38.2 43.925H34.425ZM36.325 50.2C35.6417 50.2 35.0667 49.9833 34.6 49.55C34.15 49.1 33.925 48.5583 33.925 47.925C33.925 47.2917 34.15 46.7667 34.6 46.35C35.05 45.9167 35.625 45.7 36.325 45.7C37.025 45.7 37.6 45.9167 38.05 46.35C38.5 46.7667 38.725 47.2917 38.725 47.925C38.725 48.5583 38.4917 49.1 38.025 49.55C37.575 49.9833 37.0083 50.2 36.325 50.2Z" fill="#393940"/>
</svg>
