<svg width="99" height="88" viewBox="0 0 99 88" fill="none" xmlns="http://www.w3.org/2000/svg">
<path d="M90.3318 41.5257L50.8507 2.11931C49.6781 0.948848 47.7768 0.948851 46.6041 2.11931L7.12337 41.5254C5.95069 42.6958 5.95069 44.5935 7.12337 45.764L46.6044 85.1704C47.7771 86.3409 49.6784 86.3409 50.8511 85.1704L90.3318 45.7644C91.5045 44.5939 91.5045 42.6962 90.3318 41.5257Z" fill="#FFE800"/>
<mask id="mask0_734_988" style="mask-type:alpha" maskUnits="userSpaceOnUse" x="6" y="1" width="86" height="86">
<path d="M90.3318 41.5257L50.8507 2.11931C49.678 0.948848 47.7767 0.948851 46.604 2.11931L7.1233 41.5254C5.95062 42.6958 5.95063 44.5935 7.12331 45.764L46.6044 85.1704C47.7771 86.3409 49.6784 86.3409 50.851 85.1704L90.3318 45.7644C91.5044 44.5939 91.5044 42.6962 90.3318 41.5257Z" fill="#FFE800"/>
</mask>
<g mask="url(#mask0_734_988)">
<rect x="5.00006" y="43.4067" width="91.3353" height="47.3836" fill="white"/>
</g>
<path d="M84.9636 41.5564L50.881 7.53826C49.7083 6.36779 47.807 6.36779 46.6343 7.53826L12.5515 41.5566C11.3788 42.7271 11.3788 44.6248 12.5515 45.7952L46.6341 79.8134C47.8068 80.9838 49.7081 80.9838 50.8808 79.8134L84.9636 45.795C86.1363 44.6246 86.1363 42.7269 84.9636 41.5564Z" stroke="#393940" stroke-width="2" stroke-miterlimit="10"/>
<path d="M34.9498 43.8037V31.0037L36.3498 32.4037H32.1498V29.8037H38.1898V43.8037H34.9498ZM46.6218 44.0437C45.4751 44.0437 44.4485 43.7637 43.5418 43.2037C42.6351 42.6304 41.9218 41.8037 41.4018 40.7237C40.8818 39.6437 40.6218 38.337 40.6218 36.8037C40.6218 35.2704 40.8818 33.9637 41.4018 32.8837C41.9218 31.8037 42.6351 30.9837 43.5418 30.4237C44.4485 29.8504 45.4751 29.5637 46.6218 29.5637C47.7818 29.5637 48.8085 29.8504 49.7018 30.4237C50.6085 30.9837 51.3218 31.8037 51.8418 32.8837C52.3618 33.9637 52.6218 35.2704 52.6218 36.8037C52.6218 38.337 52.3618 39.6437 51.8418 40.7237C51.3218 41.8037 50.6085 42.6304 49.7018 43.2037C48.8085 43.7637 47.7818 44.0437 46.6218 44.0437ZM46.6218 41.3037C47.1685 41.3037 47.6418 41.1504 48.0418 40.8437C48.4551 40.537 48.7751 40.0504 49.0018 39.3837C49.2418 38.717 49.3618 37.857 49.3618 36.8037C49.3618 35.7504 49.2418 34.8904 49.0018 34.2237C48.7751 33.557 48.4551 33.0704 48.0418 32.7637C47.6418 32.457 47.1685 32.3037 46.6218 32.3037C46.0885 32.3037 45.6151 32.457 45.2018 32.7637C44.8018 33.0704 44.4818 33.557 44.2418 34.2237C44.0151 34.8904 43.9018 35.7504 43.9018 36.8037C43.9018 37.857 44.0151 38.717 44.2418 39.3837C44.4818 40.0504 44.8018 40.537 45.2018 40.8437C45.6151 41.1504 46.0885 41.3037 46.6218 41.3037ZM60.196 44.0437C59.0493 44.0437 58.0227 43.7637 57.116 43.2037C56.2093 42.6304 55.496 41.8037 54.976 40.7237C54.456 39.6437 54.196 38.337 54.196 36.8037C54.196 35.2704 54.456 33.9637 54.976 32.8837C55.496 31.8037 56.2093 30.9837 57.116 30.4237C58.0227 29.8504 59.0493 29.5637 60.196 29.5637C61.356 29.5637 62.3827 29.8504 63.276 30.4237C64.1827 30.9837 64.896 31.8037 65.416 32.8837C65.936 33.9637 66.196 35.2704 66.196 36.8037C66.196 38.337 65.936 39.6437 65.416 40.7237C64.896 41.8037 64.1827 42.6304 63.276 43.2037C62.3827 43.7637 61.356 44.0437 60.196 44.0437ZM60.196 41.3037C60.7427 41.3037 61.216 41.1504 61.616 40.8437C62.0293 40.537 62.3493 40.0504 62.576 39.3837C62.816 38.717 62.936 37.857 62.936 36.8037C62.936 35.7504 62.816 34.8904 62.576 34.2237C62.3493 33.557 62.0293 33.0704 61.616 32.7637C61.216 32.457 60.7427 32.3037 60.196 32.3037C59.6627 32.3037 59.1893 32.457 58.776 32.7637C58.376 33.0704 58.056 33.557 57.816 34.2237C57.5893 34.8904 57.476 35.7504 57.476 36.8037C57.476 37.857 57.5893 38.717 57.816 39.3837C58.056 40.0504 58.376 40.537 58.776 40.8437C59.1893 41.1504 59.6627 41.3037 60.196 41.3037ZM30.5361 52.8037V48.6037H31.3401L33.1281 51.5677H32.7021L34.4601 48.6037H35.2581L35.2701 52.8037H34.3581L34.3521 50.0017H34.5201L33.1161 52.3597H32.6781L31.2441 50.0017H31.4481V52.8037H30.5361ZM38.3066 52.8757C37.9746 52.8757 37.6666 52.8217 37.3826 52.7137C37.1026 52.6057 36.8586 52.4537 36.6506 52.2577C36.4466 52.0617 36.2866 51.8317 36.1706 51.5677C36.0586 51.3037 36.0026 51.0157 36.0026 50.7037C36.0026 50.3917 36.0586 50.1037 36.1706 49.8397C36.2866 49.5757 36.4486 49.3457 36.6566 49.1497C36.8646 48.9537 37.1086 48.8017 37.3886 48.6937C37.6686 48.5857 37.9726 48.5317 38.3006 48.5317C38.6326 48.5317 38.9366 48.5857 39.2126 48.6937C39.4926 48.8017 39.7346 48.9537 39.9386 49.1497C40.1466 49.3457 40.3086 49.5757 40.4246 49.8397C40.5406 50.0997 40.5986 50.3877 40.5986 50.7037C40.5986 51.0157 40.5406 51.3057 40.4246 51.5737C40.3086 51.8377 40.1466 52.0677 39.9386 52.2637C39.7346 52.4557 39.4926 52.6057 39.2126 52.7137C38.9366 52.8217 38.6346 52.8757 38.3066 52.8757ZM38.3006 52.0477C38.4886 52.0477 38.6606 52.0157 38.8166 51.9517C38.9766 51.8877 39.1166 51.7957 39.2366 51.6757C39.3566 51.5557 39.4486 51.4137 39.5126 51.2497C39.5806 51.0857 39.6146 50.9037 39.6146 50.7037C39.6146 50.5037 39.5806 50.3217 39.5126 50.1577C39.4486 49.9937 39.3566 49.8517 39.2366 49.7317C39.1206 49.6117 38.9826 49.5197 38.8226 49.4557C38.6626 49.3917 38.4886 49.3597 38.3006 49.3597C38.1126 49.3597 37.9386 49.3917 37.7786 49.4557C37.6226 49.5197 37.4846 49.6117 37.3646 49.7317C37.2446 49.8517 37.1506 49.9937 37.0826 50.1577C37.0186 50.3217 36.9866 50.5037 36.9866 50.7037C36.9866 50.8997 37.0186 51.0817 37.0826 51.2497C37.1506 51.4137 37.2426 51.5557 37.3586 51.6757C37.4786 51.7957 37.6186 51.8877 37.7786 51.9517C37.9386 52.0157 38.1126 52.0477 38.3006 52.0477ZM41.3291 52.8037V48.6037H43.1471C43.5231 48.6037 43.8471 48.6657 44.1191 48.7897C44.3911 48.9097 44.6011 49.0837 44.7491 49.3117C44.8971 49.5397 44.9711 49.8117 44.9711 50.1277C44.9711 50.4397 44.8971 50.7097 44.7491 50.9377C44.6011 51.1617 44.3911 51.3337 44.1191 51.4537C43.8471 51.5737 43.5231 51.6337 43.1471 51.6337H41.8691L42.3011 51.2077V52.8037H41.3291ZM43.9991 52.8037L42.9491 51.2797H43.9871L45.0491 52.8037H43.9991ZM42.3011 51.3157L41.8691 50.8597H43.0931C43.3931 50.8597 43.6171 50.7957 43.7651 50.6677C43.9131 50.5357 43.9871 50.3557 43.9871 50.1277C43.9871 49.8957 43.9131 49.7157 43.7651 49.5877C43.6171 49.4597 43.3931 49.3957 43.0931 49.3957H41.8691L42.3011 48.9337V51.3157ZM46.6352 50.2957H48.6572V51.0517H46.6352V50.2957ZM46.7072 52.0237H48.9932V52.8037H45.7412V48.6037H48.9152V49.3837H46.7072V52.0237ZM52.3358 52.8037V49.3957H50.9918V48.6037H54.6518V49.3957H53.3078V52.8037H52.3358ZM58.0548 48.6037H59.0268V52.8037H58.0548V48.6037ZM56.1468 52.8037H55.1748V48.6037H56.1468V52.8037ZM58.1268 51.0817H56.0748V50.2597H58.1268V51.0817ZM59.4685 52.8037L61.3405 48.6037H62.3005L64.1785 52.8037H63.1585L61.6225 49.0957H62.0065L60.4645 52.8037H59.4685ZM60.4045 51.9037L60.6625 51.1657H62.8225L63.0865 51.9037H60.4045ZM64.6142 52.8037V48.6037H65.4182L67.8962 51.6277H67.5062V48.6037H68.4662V52.8037H67.6682L65.1842 49.7797H65.5742V52.8037H64.6142Z" fill="#131313"/>
</svg>
