<svg width="79" height="79" viewBox="0 0 79 79" fill="none" xmlns="http://www.w3.org/2000/svg">
<path d="M76.6532 37.3756L41.5039 2.12439C40.334 0.951121 38.4372 0.951123 37.2674 2.12439L2.11833 37.3753C0.94845 38.5486 0.948453 40.4508 2.11833 41.6241L37.2677 76.8753C38.4376 78.0485 40.3343 78.0485 41.5042 76.8753L76.6532 41.6244C77.8231 40.4511 77.8231 38.5489 76.6532 37.3756Z" fill="#FFE800"/>
<path d="M71.8179 37.4025L41.531 7.0278C40.3611 5.85453 38.4643 5.85453 37.2945 7.0278L7.00737 37.4027C5.8375 38.5759 5.8375 40.4782 7.00737 41.6514L37.2943 72.0261C38.4642 73.1994 40.3609 73.1994 41.5308 72.0261L71.8179 41.6513C72.9878 40.478 72.9878 38.5758 71.8179 37.4025Z" stroke="#393940" stroke-miterlimit="10"/>
<g clip-path="url(#clip0_734_488)">
<path d="M35.3445 40.8158C36.5206 42.3929 37.5898 43.8385 38.7481 45.378C41.7062 41.9235 44.6109 38.5441 47.569 35.1083C49.8856 37.7931 52.1665 40.4215 54.4831 43.1063C53.1823 44.1764 51.9705 45.1903 50.7231 46.2229C48.8342 44.214 46.9809 42.2427 45.0207 40.1962C43.2031 41.7733 41.4746 43.2565 39.7282 44.7585C40.94 45.9037 40.94 45.9037 42.0626 44.8899C42.9536 44.0826 43.8624 43.2753 44.9138 42.3365C46.7671 44.383 48.6026 46.4106 50.4558 48.4571C52.1844 46.9926 53.7882 45.6596 55.4276 44.2703C56.9601 46.0351 58.457 47.7436 60.0608 49.5835C49.6361 49.5835 39.3718 49.5835 28.9115 49.5835C31.0855 46.6171 33.1883 43.7634 35.3445 40.8158Z" fill="#393940"/>
<path d="M39.3541 41.4354C39.1759 36.1409 37.3582 31.7477 33.6339 28.1429C30.8361 31.973 28.1275 35.7091 25.3298 39.5391C24.1893 38.4877 23.0844 37.4739 21.9261 36.4038C24.5279 32.8554 27.0939 29.3257 29.7135 25.7398C29.3036 25.552 28.9829 25.4018 28.573 25.2141C29.3036 23.6934 29.9986 22.2102 30.747 20.6331C31.4598 20.9147 32.1192 21.1776 32.832 21.4592C33.2953 20.8396 33.7586 20.2201 34.2754 19.5254C35.4515 20.4829 36.5742 21.3841 37.7681 22.3604C37.3582 22.9236 37.0197 23.5056 36.592 24.0125C36.2178 24.4631 36.1999 24.7635 36.5385 25.2892C39.5501 29.9077 40.352 35.0144 39.5857 40.4778C39.5679 40.7782 39.4432 41.0599 39.3541 41.4354Z" fill="#393940"/>
<path d="M19.3779 39.9706C20.5362 40.9845 21.6054 41.942 22.728 42.937C21.9974 43.9884 21.1777 44.8708 19.9659 45.1712C18.8789 45.4341 18.1127 44.7957 18.0414 43.6317C17.9523 42.2424 18.5225 41.1159 19.3779 39.9706Z" fill="#393940"/>
<path d="M20.162 38.8259C20.4293 38.4504 20.6609 38.1125 20.9817 37.6807C22.1756 38.6945 23.3339 39.6708 24.5279 40.6846C24.2071 41.0601 23.9398 41.3793 23.5656 41.8299C22.4251 40.816 21.3025 39.8397 20.162 38.8259Z" fill="#393940"/>
</g>
<defs>
<clipPath id="clip0_734_488">
<rect width="42.0551" height="30.0394" fill="white" transform="translate(18.0236 19.5254)"/>
</clipPath>
</defs>
</svg>
