<svg width="79" height="79" viewBox="0 0 79 79" fill="none" xmlns="http://www.w3.org/2000/svg">
<path d="M76.6532 37.3756L41.5039 2.12439C40.334 0.951121 38.4372 0.951123 37.2674 2.12439L2.11833 37.3753C0.94845 38.5486 0.948453 40.4508 2.11833 41.6241L37.2677 76.8753C38.4376 78.0485 40.3343 78.0485 41.5042 76.8753L76.6532 41.6244C77.8231 40.4511 77.8231 38.5489 76.6532 37.3756Z" fill="#FFE800"/>
<path d="M71.8179 37.4025L41.531 7.0278C40.3611 5.85453 38.4643 5.85453 37.2945 7.0278L7.00737 37.4027C5.8375 38.5759 5.8375 40.4782 7.00737 41.6514L37.2943 72.0261C38.4642 73.1994 40.3609 73.1994 41.5308 72.0261L71.8179 41.6513C72.9878 40.478 72.9878 38.5758 71.8179 37.4025Z" stroke="#393940" stroke-miterlimit="10"/>
<g clip-path="url(#clip0_734_499)">
<path d="M33.8947 52.5688C30.9238 52.5688 27.9529 52.5688 24.9819 52.5688C24.0973 52.5688 24.0312 52.5043 24.0312 51.6661C24.0312 47.6943 24.0312 43.7097 24.0312 39.7379C24.0312 38.4871 24.4538 38.0873 25.7478 38.0873C31.1879 38.0873 36.6148 38.0873 42.0549 38.0873C43.2696 38.0873 43.6658 38.4871 43.6658 39.6734C43.6658 43.6968 43.6658 47.7072 43.6658 51.7306C43.6658 52.5172 43.613 52.5688 42.8075 52.5688C39.8366 52.5688 36.8657 52.5688 33.8947 52.5688ZM41.1702 42.8973C41.1702 42.4201 41.157 41.9559 41.1702 41.4788C41.1834 41.0274 40.9589 40.8469 40.5364 40.8469C39.5461 40.8469 38.5558 40.8211 37.5787 40.8727C37.3674 40.8856 37.0241 41.1951 37.0109 41.3885C36.9581 42.3944 36.9581 43.4002 37.0109 44.406C37.0241 44.5866 37.3278 44.896 37.5127 44.9089C38.5426 44.9605 39.5725 44.9347 40.6024 44.9347C40.9853 44.9347 41.157 44.7542 41.157 44.3802C41.157 43.8773 41.1702 43.3873 41.1702 42.8973ZM33.8551 44.9218C34.3437 44.9218 34.819 44.9089 35.3076 44.9218C35.7829 44.9476 35.9942 44.7542 35.9942 44.29C35.981 43.3486 35.981 42.4073 35.9942 41.453C35.9942 41.0661 35.8357 40.834 35.4132 40.834C34.3965 40.834 33.393 40.834 32.3763 40.834C31.9669 40.834 31.7953 41.0403 31.7953 41.4401C31.8085 42.4072 31.7953 43.3744 31.7953 44.3416C31.7953 44.7284 31.9669 44.9347 32.3895 44.9218C32.878 44.9089 33.3666 44.9218 33.8551 44.9218ZM35.981 47.7846C35.981 47.3591 35.9678 46.9206 35.981 46.4951C36.0074 46.005 35.8093 45.7858 35.2944 45.7858C34.3569 45.7987 33.4062 45.7987 32.4555 45.7858C31.9405 45.7729 31.7689 46.005 31.7821 46.4951C31.8085 47.372 31.8085 48.2488 31.7821 49.1386C31.7689 49.6544 31.9405 49.8865 32.4951 49.8737C33.4194 49.8479 34.3437 49.8479 35.268 49.8737C35.8225 49.8865 36.0074 49.6286 35.981 49.1386C35.9678 48.6873 35.981 48.2359 35.981 47.7846ZM39.1103 45.7987C38.6218 45.7987 38.1464 45.8116 37.6579 45.7987C37.1825 45.7729 36.9713 45.9793 36.9845 46.4435C36.9977 47.3591 36.9977 48.2875 36.9845 49.2031C36.9845 49.6544 37.1693 49.8737 37.6447 49.8737C38.6086 49.8608 39.5725 49.8608 40.5364 49.8737C40.9853 49.8737 41.1702 49.6802 41.1702 49.2547C41.157 48.3391 41.1438 47.4106 41.1702 46.4951C41.1834 45.9535 40.9457 45.7729 40.4176 45.7987C39.9818 45.8245 39.5461 45.7987 39.1103 45.7987ZM26.6193 42.8586C26.6193 43.3486 26.6325 43.8386 26.6193 44.3416C26.6061 44.7413 26.7777 44.9347 27.2002 44.9347C28.2038 44.9218 29.2205 44.9218 30.224 44.9347C30.6201 44.9347 30.7786 44.7413 30.7786 44.3931C30.7786 43.3873 30.7786 42.3815 30.7786 41.3756C30.7786 40.9888 30.5937 40.7953 30.1712 40.8082C29.1809 40.8211 28.2038 40.8211 27.2134 40.8082C26.8041 40.8082 26.6061 40.9888 26.6193 41.3885C26.6325 41.8656 26.6193 42.3557 26.6193 42.8586ZM28.7187 45.7987C28.2566 45.7987 27.7944 45.8116 27.3323 45.7987C26.8305 45.7729 26.5928 45.9535 26.6061 46.4564C26.6325 47.3849 26.6193 48.3004 26.6061 49.2289C26.5928 49.6544 26.7513 49.8737 27.2134 49.8737C28.2038 49.8608 29.1941 49.8737 30.1844 49.8737C30.6069 49.8737 30.7786 49.6544 30.7786 49.2676C30.7786 48.3004 30.7786 47.3333 30.7786 46.3661C30.7786 45.9664 30.5937 45.7858 30.1712 45.7987C29.6958 45.8116 29.2073 45.7987 28.7187 45.7987Z" fill="#393940"/>
<path d="M52.09 47.0758C49.6736 47.0758 47.3233 47.0758 44.9466 47.0758C44.9202 46.9984 44.8673 46.921 44.8673 46.8436C44.8805 44.1356 44.7617 41.4405 45.1974 38.7454C45.6068 36.2179 45.8708 33.6775 46.1877 31.15C46.3198 30.1055 46.6103 29.8218 47.7062 29.8089C48.274 29.8089 48.855 29.8089 49.4228 29.8089C50.347 29.8218 50.6904 30.1184 50.796 31.0082C51.0733 33.2004 51.2845 35.4055 51.6411 37.5848C52.1428 40.5894 52.1692 43.6069 52.1296 46.6373C52.1164 46.7663 52.1032 46.8823 52.09 47.0758Z" fill="#393940"/>
<path d="M30.8842 26.8299C32.4422 26.8299 33.9211 26.8299 35.4528 26.8299C35.4528 30.2987 35.4528 33.7418 35.4528 37.2106C33.9211 37.2106 32.4158 37.2106 30.8842 37.2106C30.8842 33.7418 30.8842 30.3116 30.8842 26.8299Z" fill="#393940"/>
<path d="M44.6162 52.5685C44.6162 50.9953 44.6162 49.5252 44.6162 47.9649C44.8407 47.952 45.0387 47.9262 45.25 47.9262C47.7984 47.9262 50.3468 47.9262 52.9084 47.9262C53.8195 47.9262 54.0572 48.1454 54.0572 49.0223C54.0704 49.9894 54.0572 50.9566 54.0572 51.9237C54.0572 52.3493 53.8855 52.5814 53.4366 52.5814C50.5317 52.5685 47.6003 52.5685 44.6162 52.5685Z" fill="#393940"/>
<path d="M50.3206 29.3569C50.2942 29.3569 50.2809 29.3569 50.2545 29.3569C49.4491 29.0861 48.5776 28.9055 47.8514 28.4929C47.5213 28.2995 47.2968 27.6805 47.2836 27.242C47.2572 26.6489 47.6929 26.2491 48.2739 26.0041C48.604 25.8751 48.8945 25.6559 49.2114 25.5012C49.5019 25.3722 49.8452 25.1272 50.1093 25.1917C50.8487 25.3593 51.5485 25.2304 52.2748 25.1917C53.0406 25.1401 53.714 25.6817 53.9649 26.3909C54.2158 27.1131 54.0177 27.7579 53.4103 28.2995C53.2255 28.4671 53.067 28.6734 52.935 28.8797C52.5124 29.589 51.7994 29.8211 51.0204 29.4858C50.8091 29.3956 50.5846 29.344 50.3602 29.2795C50.347 29.3053 50.3338 29.3311 50.3206 29.3569Z" fill="#393940"/>
<path d="M30.8049 25.8237C30.8049 25.4755 30.7917 25.1789 30.8049 24.8823C30.8313 24.3794 31.135 24.0699 31.6368 24.057C32.6139 24.0312 33.6042 24.0184 34.5945 24.057C35.0963 24.0699 35.4 24.3794 35.4132 24.8823C35.4264 25.1789 35.4132 25.4755 35.4132 25.8237C33.8683 25.8237 32.3762 25.8237 30.8049 25.8237Z" fill="#393940"/>
<path d="M37.8823 41.7235C38.701 41.7235 39.4536 41.7235 40.2591 41.7235C40.2591 42.4973 40.2591 43.2323 40.2591 44.0318C39.4668 44.0318 38.701 44.0318 37.8823 44.0318C37.8823 43.271 37.8823 42.5359 37.8823 41.7235Z" fill="#393940"/>
<path d="M32.7063 41.7235C33.5117 41.7235 34.2512 41.7235 35.0434 41.7235C35.0434 42.4844 35.0434 43.2323 35.0434 44.0447C34.2776 44.0447 33.5117 44.0447 32.7063 44.0447C32.7063 43.271 32.7063 42.523 32.7063 41.7235Z" fill="#393940"/>
<path d="M35.0567 49.0224C34.2645 49.0224 33.5382 49.0224 32.7328 49.0224C32.7328 48.2487 32.7328 47.4879 32.7328 46.6884C33.4854 46.6884 34.2381 46.6884 35.0567 46.6884C35.0567 47.4363 35.0567 48.1971 35.0567 49.0224Z" fill="#393940"/>
<path d="M40.259 46.7143C40.259 47.4493 40.259 48.1972 40.259 48.9839C39.4932 48.9839 38.7273 48.9839 37.9087 48.9839C37.9087 48.2746 37.9087 47.5267 37.9087 46.7143C38.6481 46.7143 39.4404 46.7143 40.259 46.7143Z" fill="#393940"/>
<path d="M27.5039 41.7235C28.3094 41.7235 29.062 41.7235 29.8806 41.7235C29.8806 42.4844 29.8806 43.2452 29.8806 44.0447C29.1016 44.0447 28.3226 44.0447 27.5039 44.0447C27.5039 43.2581 27.5039 42.5102 27.5039 41.7235Z" fill="#393940"/>
<path d="M27.5039 48.9964C27.5039 48.1969 27.5039 47.4489 27.5039 46.6752C28.3226 46.6752 29.0884 46.6752 29.9071 46.6752C29.9071 47.4618 29.9071 48.2098 29.9071 48.9964C29.1148 48.9964 28.3358 48.9964 27.5039 48.9964Z" fill="#393940"/>
</g>
<defs>
<clipPath id="clip0_734_499">
<rect width="30.0394" height="28.5374" fill="white" transform="translate(24.0312 24.0312)"/>
</clipPath>
</defs>
</svg>
