<svg width="79" height="79" viewBox="0 0 79 79" fill="none" xmlns="http://www.w3.org/2000/svg">
<path d="M76.6532 37.3756L41.5039 2.12439C40.334 0.951121 38.4372 0.951123 37.2674 2.12439L2.11833 37.3753C0.94845 38.5486 0.948453 40.4508 2.11833 41.6241L37.2677 76.8753C38.4376 78.0485 40.3343 78.0485 41.5042 76.8753L76.6532 41.6244C77.8231 40.4511 77.8231 38.5489 76.6532 37.3756Z" fill="#FFE800"/>
<path d="M71.8179 37.4025L41.531 7.0278C40.3611 5.85453 38.4643 5.85453 37.2945 7.0278L7.00737 37.4027C5.8375 38.5759 5.8375 40.4782 7.00737 41.6514L37.2943 72.0261C38.4642 73.1994 40.3609 73.1994 41.5308 72.0261L71.8179 41.6513C72.9878 40.478 72.9878 38.5758 71.8179 37.4025Z" stroke="#393940" stroke-miterlimit="10"/>
<g clip-path="url(#clip0_734_518)">
<path d="M38.5854 40.373C38.5854 42.3309 38.5854 44.239 38.5854 46.1968C35.3735 46.1968 32.1787 46.1968 28.9324 46.1968C28.9324 44.2722 28.9324 42.3641 28.9324 40.373C32.1272 40.373 35.3048 40.373 38.5854 40.373Z" fill="#393940"/>
<path d="M38.7744 46.1968C38.7744 44.2224 38.7744 42.3309 38.7744 40.373C42.0035 40.373 45.2155 40.373 48.479 40.373C48.479 42.3143 48.479 44.2224 48.479 46.1968C45.2499 46.1968 42.0551 46.1968 38.7744 46.1968Z" fill="#393940"/>
<path d="M42.3642 33.9854C42.3642 35.9432 42.3642 37.8347 42.3642 39.7926C39.1523 39.7926 35.9575 39.7926 32.7112 39.7926C32.7112 37.8845 32.7112 35.9598 32.7112 33.9854C35.8888 33.9854 39.0836 33.9854 42.3642 33.9854Z" fill="#393940"/>
<path d="M52.2578 39.7926C49.0287 39.7926 45.851 39.7926 42.6047 39.7926C42.6047 37.8845 42.6047 35.9764 42.6047 33.9854C45.7995 33.9854 48.9943 33.9854 52.2578 33.9854C52.2578 35.91 52.2578 37.8181 52.2578 39.7926Z" fill="#393940"/>
<path d="M35.511 26.5688C37.1943 26.1374 37.8813 27.4647 38.9291 28.6096C37.6752 29.6383 36.4213 30.667 35.1331 31.7289C34.7724 31.0652 33.5014 30.6836 33.4842 29.323C33.4842 28.4105 32.3506 28.0123 31.6463 28.6096C31.2169 28.9746 30.9765 28.8916 30.6501 28.5598C30.4612 28.3607 30.2551 28.145 30.0318 27.9791C29.1386 27.3652 28.7264 26.7513 29.1214 25.5401C29.6195 23.9306 28.2283 22.4705 26.4248 22.3544C26.1499 22.3378 25.8923 22.1719 25.6346 22.0723C25.8236 21.8898 25.9953 21.6741 26.2186 21.558C27.7301 20.7616 29.2588 20.9441 30.7532 21.5912C32.4193 22.3212 33.7934 23.4661 34.9442 24.81C35.2877 25.2082 35.2877 25.8719 35.511 26.5688Z" fill="#393940"/>
<path d="M45.8511 52.5682C42.5189 52.5682 39.3413 52.5682 36.095 52.5682C36.095 50.6601 36.095 48.7686 36.095 46.7776C36.3354 46.761 36.6103 46.7278 36.8851 46.7278C39.5818 46.7278 42.2613 46.7444 44.9579 46.7112C45.6965 46.6946 45.8854 46.9435 45.8683 47.6237C45.8167 49.2332 45.8511 50.8592 45.8511 52.5682Z" fill="#393940"/>
<path d="M28.3141 28.0458C28.8122 28.444 29.1901 28.7593 29.6195 29.1077C28.3141 30.601 27.0946 32.0113 25.8579 33.4216C23.5906 35.9768 21.3234 38.5485 19.0561 41.1037C18.1973 42.066 17.2011 42.3315 16.2564 41.8503C14.8136 41.1203 14.5731 39.4113 15.827 38.3328C17.4759 36.9225 19.1592 35.562 20.8424 34.1848C23.3502 32.1108 25.8579 30.0534 28.3141 28.0458Z" fill="#393940"/>
<path d="M55.5728 46.7778C55.5728 48.719 55.5728 50.5939 55.5728 52.5352C52.378 52.5352 49.1832 52.5352 45.9541 52.5352C45.9541 50.6105 45.9541 48.719 45.9541 46.7778C49.1661 46.7778 52.3265 46.7778 55.5728 46.7778Z" fill="#393940"/>
</g>
<defs>
<clipPath id="clip0_734_518">
<rect width="40.5531" height="31.5413" fill="white" transform="translate(15.0197 21.0273)"/>
</clipPath>
</defs>
</svg>
