<svg width="33" height="33" viewBox="0 0 33 33" fill="none" xmlns="http://www.w3.org/2000/svg">
<rect width="32.5884" height="32.5884" rx="6" fill="#393940"/>
<path d="M19.453 32.5888C17.6132 32.5888 15.7983 32.5888 13.9673 32.5888C13.9673 28.2494 13.9673 23.917 13.9673 19.5706C12.4344 19.5706 10.9176 19.5706 9.40511 19.5706C9.36712 19.4628 9.35397 14.7495 9.38758 14.5143C10.9029 14.5143 12.4212 14.5143 13.9585 14.5143C13.96 14.4471 13.9629 14.3938 13.9629 14.3392C13.9629 13.1532 13.9614 11.9686 13.9644 10.7826C13.9658 9.92002 14.0681 9.07006 14.3355 8.24251C14.6687 7.21332 15.224 6.31715 16.0686 5.59742C16.827 4.9519 17.7126 4.54162 18.6916 4.30638C19.3215 4.15375 19.963 4.07954 20.6133 4.07534C21.5967 4.06834 22.5802 4.09214 23.5621 4.15655C23.9552 4.18176 24.3483 4.21536 24.7414 4.24617C24.775 4.24897 24.8072 4.25597 24.8481 4.26157C24.8481 5.77245 24.8481 7.27633 24.8481 8.79841C24.7838 8.79841 24.7268 8.79841 24.6698 8.79841C23.8223 8.79841 22.9747 8.79701 22.1272 8.79701C21.7121 8.79701 21.3001 8.81661 20.8967 8.92443C20.8032 8.94964 20.7097 8.97764 20.6206 9.01265C20.017 9.24089 19.6707 9.67777 19.5436 10.2757C19.4924 10.5165 19.4559 10.7658 19.4544 11.0108C19.4442 12.1408 19.4486 13.2694 19.4471 14.3994C19.4471 14.4303 19.453 14.4625 19.4574 14.5073C21.1919 14.5073 22.9177 14.5073 24.6391 14.5073C24.6786 14.6081 24.0122 19.4026 23.9742 19.565C23.2231 19.565 22.4706 19.565 21.7165 19.565C20.9669 19.565 20.2172 19.565 19.453 19.565C19.453 23.9058 19.453 28.2382 19.453 32.5888Z" fill="white"/>
</svg>
