<svg width="60" height="28" viewBox="0 0 60 28" fill="none" xmlns="http://www.w3.org/2000/svg">
<path d="M59.9826 0H42.3004V2.1232H59.9826V0Z" fill="#B62D39"/>
<path d="M54.3416 5.64453V18.3837H56.4634V7.76773H59.9826V5.64453H54.3416Z" fill="#B62D39"/>
<path d="M42.3004 5.64453V7.76773H45.8368V18.3837H47.9587V5.64453H42.3004Z" fill="#B62D39"/>
<path d="M51.4951 2.81348V18.3836H53.6342V4.91941H59.9825V2.81348H51.4951Z" fill="#B62D39"/>
<path d="M42.3004 2.81348V4.91941H48.666V18.3836H50.7878V2.81348H42.3004Z" fill="#B62D39"/>
<path d="M21.8409 0V18.3665H23.9628V2.1232H37.4012V18.3838H39.5231V0H21.8409Z" fill="#B62D39"/>
<path d="M36.694 2.81348H24.6702V18.3663H26.792V4.91941H34.5722V18.3663H36.694V2.81348Z" fill="#B62D39"/>
<path d="M27.4993 9.1665V18.3843H29.6211V11.2897H31.743V18.3843H33.8648V9.1665H27.4993Z" fill="#B62D39"/>
<path d="M11.2835 0V10.5987H0.674194V12.7219H13.4053V0H11.2835Z" fill="#B62D39"/>
<path d="M14.1126 0V13.4124H0.674194V15.5356L16.2345 15.5528V0H14.1126Z" fill="#B62D39"/>
<path d="M16.9418 0V16.2433H0.674194V18.3665L19.0636 18.3838V0H16.9418Z" fill="#B62D39"/>
<path d="M52.3924 22.3711H49.9255V27.4114H50.9261V25.3919H51.9266V27.4114H52.9444V25.5472C52.9444 25.4007 52.8862 25.2601 52.7827 25.1565C52.6792 25.0529 52.5388 24.9949 52.3924 24.9949C52.5374 24.9906 52.6754 24.9309 52.778 24.8282C52.8806 24.7256 52.9401 24.5875 52.9444 24.4424V22.9234C52.9401 22.7783 52.8806 22.6402 52.778 22.5376C52.6754 22.4349 52.5374 22.3754 52.3924 22.3711ZM51.9266 23.9763V24.3906H50.9261V23.4068H51.9266V23.9763Z" fill="#B62D39"/>
<path d="M45.3367 22.3711H43.4218C43.2754 22.3711 43.135 22.4293 43.0315 22.5329C42.928 22.6365 42.8698 22.7769 42.8698 22.9234V26.8591C42.8698 27.0056 42.928 27.1462 43.0315 27.2498C43.135 27.3534 43.2754 27.4114 43.4218 27.4114H45.3367C45.4831 27.4114 45.6235 27.3534 45.727 27.2498C45.8306 27.1462 45.8886 27.0056 45.8886 26.8591V22.9234C45.8886 22.7769 45.8306 22.6365 45.727 22.5329C45.6235 22.4293 45.4831 22.3711 45.3367 22.3711ZM44.8882 26.4103H43.8703V23.4068H44.8882V26.4103Z" fill="#B62D39"/>
<path d="M31.8293 23.7003V22.9234C31.8293 22.7769 31.7711 22.6365 31.6675 22.5329C31.564 22.4293 31.4236 22.3711 31.2772 22.3711H29.4314C29.285 22.3711 29.1446 22.4293 29.0411 22.5329C28.9375 22.6365 28.8793 22.7769 28.8793 22.9234V24.8394C28.8793 24.9859 28.9375 25.1265 29.0411 25.2301C29.1446 25.3337 29.285 25.3919 29.4314 25.3919H30.8287V26.393H29.8454V26.0824H28.8276V26.8418C28.8276 26.9883 28.8857 27.1289 28.9893 27.2325C29.0928 27.3361 29.2333 27.3943 29.3797 27.3943H31.2772C31.3497 27.3943 31.4215 27.3799 31.4884 27.3522C31.5554 27.3244 31.6163 27.2838 31.6675 27.2325C31.7188 27.1812 31.7595 27.1202 31.7873 27.0532C31.815 26.9862 31.8293 26.9144 31.8293 26.8418V24.9431C31.8293 24.8705 31.815 24.7987 31.7873 24.7317C31.7595 24.6647 31.7188 24.6037 31.6675 24.5524C31.6163 24.5011 31.5554 24.4605 31.4884 24.4327C31.4215 24.405 31.3497 24.3906 31.2772 24.3906H29.8799V23.4068H30.8287V23.7176L31.8293 23.7003Z" fill="#B62D39"/>
<path d="M38.281 22.3711H35.8314V27.4114H36.8319V25.3919H38.281C38.4274 25.3919 38.5678 25.3337 38.6713 25.2301C38.7749 25.1265 38.8331 24.9859 38.8331 24.8394V22.9234C38.8331 22.8508 38.8188 22.779 38.791 22.712C38.7633 22.645 38.7226 22.5842 38.6713 22.5329C38.6201 22.4816 38.5592 22.4408 38.4922 22.413C38.4253 22.3853 38.3535 22.3711 38.281 22.3711ZM36.8319 24.3906V23.4068H37.8325V24.4079L36.8319 24.3906Z" fill="#B62D39"/>
<path d="M24.2906 22.3711H21.7892V27.4114H22.807V23.4068H23.8075V27.4287H24.8081V22.9407C24.8129 22.797 24.7614 22.6572 24.6648 22.5508C24.5682 22.4445 24.434 22.38 24.2906 22.3711Z" fill="#B62D39"/>
<path d="M17.2177 22.3711H15.3029C15.1565 22.3711 15.0161 22.4293 14.9126 22.5329C14.8091 22.6365 14.7509 22.7769 14.7509 22.9234V27.4114H15.7514V25.3919H16.7693V27.4114H17.7698V22.9234C17.7698 22.7769 17.7117 22.6365 17.6081 22.5329C17.5046 22.4293 17.3641 22.3711 17.2177 22.3711ZM16.7693 24.3906H15.7514V23.4068H16.7693V24.3906Z" fill="#B62D39"/>
<path d="M10.1794 22.3711H7.71252V27.4114H8.713V25.3919H9.71358V27.4114H10.7142V25.3919C10.7036 25.2839 10.6569 25.1826 10.5818 25.1043C10.5067 25.026 10.4076 24.9753 10.3002 24.9604C10.4173 24.9332 10.5218 24.8672 10.597 24.7732C10.6721 24.6793 10.7134 24.5627 10.7142 24.4424V22.9234C10.7142 22.7798 10.6584 22.6419 10.5585 22.5388C10.4587 22.4357 10.3228 22.3756 10.1794 22.3711ZM9.73085 23.9763V24.3906H8.713V23.4068H9.71358L9.73085 23.9763Z" fill="#B62D39"/>
<path d="M56.9637 22.3711V23.3723H57.9815V27.4115H58.9821V23.3723H59.9999V22.3711H56.9637Z" fill="#B62D39"/>
<path d="M0.674194 22.3711V23.3723H1.67474V27.4115H2.69255V23.3723H3.6931V22.3711H0.674194Z" fill="#B62D39"/>
</svg>
