<svg width="33" height="33" viewBox="0 0 33 33" fill="none" xmlns="http://www.w3.org/2000/svg">
<g clip-path="url(#clip0_734_242)">
<path d="M22.4046 0H10.1839C7.48343 0.000647738 4.89375 1.07357 2.98408 2.98293C1.07442 4.89229 0.00108014 7.4818 2.93323e-07 10.1823V22.4021C-0.000320724 23.7397 0.262856 25.0642 0.774501 26.3001C1.28615 27.5359 2.03623 28.6589 2.98193 29.6048C3.92762 30.5507 5.05039 31.3011 6.28612 31.813C7.52184 32.3249 8.84631 32.5884 10.1839 32.5884H22.4046C24.4192 32.5879 26.3884 31.9901 28.0633 30.8706C29.7382 29.7511 31.0436 28.1601 31.8145 26.2989C32.3255 25.063 32.5885 23.7387 32.5884 22.4013V10.1831C32.5882 7.48228 31.5152 4.89218 29.6054 2.9825C27.6955 1.07283 25.1053 -8.64254e-09 22.4046 0V0ZM29.5341 22.4021C29.5342 23.3383 29.3499 24.2653 28.9917 25.1303C28.6334 25.9952 28.1084 26.7811 27.4464 27.4431C26.7844 28.1051 25.9985 28.6302 25.1335 28.9884C24.2686 29.3466 23.3416 29.5309 22.4054 29.5308H10.1839C8.29316 29.5308 6.47986 28.7798 5.14283 27.4429C3.80581 26.1061 3.05457 24.2928 3.05435 22.4021V10.1814C3.05435 9.24532 3.23875 8.31837 3.59701 7.45352C3.95527 6.58867 4.48038 5.80286 5.14236 5.14096C5.80433 4.47907 6.5902 3.95405 7.45509 3.59588C8.31998 3.23772 9.24695 3.05343 10.1831 3.05354H22.4046C24.2952 3.05375 26.1084 3.80486 27.4454 5.14168C28.7823 6.4785 29.5337 8.29159 29.5341 10.1823V22.4021Z" fill="#393940"/>
<path d="M16.2942 8.1473C15.0895 8.14726 13.8997 8.41432 12.8106 8.92926C11.7215 9.4442 10.76 10.1942 9.99554 11.1253C9.23104 12.0564 8.68247 13.1454 8.38934 14.3139C8.0962 15.4824 8.06578 16.7014 8.30027 17.8831C8.53519 19.065 9.02935 20.18 9.74713 21.1479C10.4649 22.1157 11.3885 22.9123 12.4512 23.4803C13.514 24.0482 14.6895 24.3733 15.893 24.4322C17.0966 24.491 18.2982 24.2822 19.4113 23.8207C21.1522 23.0992 22.5892 21.7964 23.4774 20.1343C24.3656 18.4722 24.6502 16.5536 24.2826 14.7053C23.915 12.8569 22.918 11.1932 21.4614 9.99741C20.0048 8.80164 18.1788 8.14782 16.2942 8.1473V8.1473ZM16.2942 21.3831C15.2872 21.3826 14.3029 21.0835 13.4659 20.5237C12.6288 19.9639 11.9765 19.1684 11.5915 18.2379C11.2065 17.3074 11.1061 16.2836 11.3029 15.296C11.4997 14.3084 11.985 13.4013 12.6973 12.6895C13.4096 11.9776 14.3169 11.493 15.3047 11.2968C16.2924 11.1006 17.3161 11.2017 18.2464 11.5873C19.1767 11.9729 19.9717 12.6256 20.531 13.4631C21.0903 14.3005 21.3888 15.2849 21.3886 16.292C21.3871 17.6424 20.8498 18.937 19.8947 19.8917C18.9396 20.8464 17.6446 21.383 16.2942 21.3839V21.3831ZM25.0524 8.62146C25.3403 8.62146 25.6164 8.50709 25.82 8.3035C26.0236 8.09991 26.138 7.82378 26.138 7.53586C26.138 7.24794 26.0236 6.97181 25.82 6.76822C25.6164 6.56463 25.3403 6.45026 25.0524 6.45026C24.7644 6.45026 24.4883 6.56463 24.2847 6.76822C24.0811 6.97181 23.9668 7.24794 23.9668 7.53586C23.9668 7.82378 24.0811 8.09991 24.2847 8.3035C24.4883 8.50709 24.7644 8.62146 25.0524 8.62146V8.62146Z" fill="#393940"/>
</g>
<defs>
<clipPath id="clip0_734_242">
<rect width="32.5884" height="32.5884" fill="white"/>
</clipPath>
</defs>
</svg>
