<svg width="374" height="70" viewBox="0 0 374 70" fill="none" xmlns="http://www.w3.org/2000/svg">
<rect width="375" height="59" fill="#B62D39"/>
<path d="M21 66.7287L51.5765 14L82.153 66.7287H21Z" fill="#FFE800" stroke="#393940" stroke-width="6" stroke-miterlimit="10"/>
<path d="M49.425 51.925C49.425 51.0583 49.6167 50.3417 50 49.775C50.4 49.2083 50.975 48.5833 51.725 47.9C52.275 47.4 52.675 46.9833 52.925 46.65C53.1917 46.3 53.325 45.9083 53.325 45.475C53.325 44.8583 53.075 44.375 52.575 44.025C52.0917 43.6583 51.4417 43.475 50.625 43.475C49.8417 43.475 49.1417 43.6417 48.525 43.975C47.925 44.2917 47.4167 44.7417 47 45.325L43.975 43.55C44.675 42.4833 45.6167 41.6583 46.8 41.075C48 40.4917 49.4167 40.2 51.05 40.2C52.9667 40.2 54.5 40.6083 55.65 41.425C56.8167 42.2417 57.4 43.375 57.4 44.825C57.4 45.5083 57.2833 46.1083 57.05 46.625C56.8333 47.1417 56.5583 47.5833 56.225 47.95C55.9083 48.3 55.4917 48.7083 54.975 49.175C54.3583 49.725 53.9083 50.1917 53.625 50.575C53.3417 50.9417 53.2 51.3917 53.2 51.925H49.425ZM51.325 58.2C50.6417 58.2 50.0667 57.9833 49.6 57.55C49.15 57.1 48.925 56.5583 48.925 55.925C48.925 55.2917 49.15 54.7667 49.6 54.35C50.05 53.9167 50.625 53.7 51.325 53.7C52.025 53.7 52.6 53.9167 53.05 54.35C53.5 54.7667 53.725 55.2917 53.725 55.925C53.725 56.5583 53.4917 57.1 53.025 57.55C52.575 57.9833 52.0083 58.2 51.325 58.2Z" fill="#393940"/>
</svg>
