<svg width="80" height="37" viewBox="0 0 80 37" fill="none" xmlns="http://www.w3.org/2000/svg">
<path d="M79.1774 -0.000183105H55.5717V2.8343H79.1774V-0.000183105Z" fill="#393940"/>
<path d="M71.6465 7.53534V24.5422H74.4792V10.3698H79.1773V7.53534H71.6465Z" fill="#393940"/>
<path d="M55.5717 7.53534V10.3698H60.2928V24.5422H63.1255V7.53534H55.5717Z" fill="#393940"/>
<path d="M67.8464 3.7561V24.5423H70.7022V6.56754H79.1772V3.7561H67.8464Z" fill="#393940"/>
<path d="M55.5717 3.7561V6.56754H64.0697V24.5423H66.9024V3.7561H55.5717Z" fill="#393940"/>
<path d="M28.2582 -0.000183105V24.5192H31.0909V2.8343H49.0312V24.5423H51.8639V-0.000183105H28.2582Z" fill="#393940"/>
<path d="M48.0865 3.7561H32.0345V24.5193H34.8672V6.56755H45.2538V24.5193H48.0865V3.7561Z" fill="#393940"/>
<path d="M35.8114 12.2365V24.5423H38.6441V15.071H41.4768V24.5423H44.3095V12.2365H35.8114Z" fill="#393940"/>
<path d="M14.1635 0V14.1494H0V16.9838H16.9961V0H14.1635Z" fill="#393940"/>
<path d="M17.9404 0V17.9057H0V20.7402L20.7731 20.7632V0H17.9404Z" fill="#393940"/>
<path d="M21.7173 0V21.6849H0V24.5194L24.55 24.5424V0H21.7173Z" fill="#393940"/>
<path d="M69.0443 29.866H65.751V36.5949H67.0868V33.8988H68.4224V36.5949H69.7813V34.1061C69.7813 33.9106 69.7036 33.7229 69.5653 33.5846C69.4271 33.4463 69.2397 33.3688 69.0443 33.3688C69.2379 33.363 69.422 33.2834 69.559 33.1463C69.696 33.0093 69.7755 32.825 69.7813 32.6312V30.6033C69.7755 30.4095 69.696 30.2253 69.559 30.0882C69.422 29.9511 69.2379 29.8718 69.0443 29.866ZM68.4224 32.009V32.562H67.0868V31.2486H68.4224V32.009Z" fill="#393940"/>
<path d="M59.6252 29.866H57.0688C56.8733 29.866 56.6859 29.9437 56.5477 30.082C56.4095 30.2203 56.3318 30.4077 56.3318 30.6033V35.8576C56.3318 36.0532 56.4095 36.2408 56.5477 36.3791C56.6859 36.5174 56.8733 36.5949 57.0688 36.5949H59.6252C59.8207 36.5949 60.0081 36.5174 60.1463 36.3791C60.2845 36.2408 60.3621 36.0532 60.3621 35.8576V30.6033C60.3621 30.4077 60.2845 30.2203 60.1463 30.082C60.0081 29.9437 59.8207 29.866 59.6252 29.866ZM59.0264 35.2584H57.6676V31.2486H59.0264V35.2584Z" fill="#393940"/>
<path d="M41.5925 31.6404V30.6033C41.5925 30.4077 41.5148 30.2203 41.3766 30.082C41.2384 29.9437 41.051 29.866 40.8555 29.866H38.3913C38.1959 29.866 38.0085 29.9437 37.8703 30.082C37.732 30.2203 37.6543 30.4077 37.6543 30.6033V33.1612C37.6543 33.3568 37.732 33.5444 37.8703 33.6827C38.0085 33.821 38.1959 33.8988 38.3913 33.8988H40.2567V35.2352H38.944V34.8206H37.5853V35.8344C37.5853 36.03 37.6629 36.2177 37.8011 36.356C37.9393 36.4943 38.1269 36.572 38.3223 36.572H40.8555C40.9523 36.572 41.0481 36.5528 41.1375 36.5157C41.2269 36.4787 41.3082 36.4244 41.3766 36.356C41.4451 36.2875 41.4994 36.206 41.5364 36.1166C41.5735 36.0271 41.5925 35.9313 41.5925 35.8344V33.2996C41.5925 33.2027 41.5735 33.1069 41.5364 33.0174C41.4994 32.928 41.4451 32.8465 41.3766 32.778C41.3082 32.7096 41.2269 32.6553 41.1375 32.6183C41.0481 32.5812 40.9523 32.562 40.8555 32.562H38.9901V31.2486H40.2567V31.6635L41.5925 31.6404Z" fill="#393940"/>
<path d="M50.2053 29.866H46.9351V36.5949H48.2707V33.8988H50.2053C50.4008 33.8988 50.5882 33.8211 50.7264 33.6828C50.8646 33.5445 50.9423 33.3568 50.9423 33.1612V30.6033C50.9423 30.5064 50.9232 30.4106 50.8862 30.3211C50.8492 30.2317 50.7948 30.1505 50.7264 30.082C50.6579 30.0135 50.5767 29.959 50.4873 29.9219C50.3979 29.8849 50.3021 29.866 50.2053 29.866ZM48.2707 32.562V31.2486H49.6065V32.5851L48.2707 32.562Z" fill="#393940"/>
<path d="M31.528 29.866H28.1886V36.5948H29.5474V31.2486H30.8831V36.6179H32.2189V30.6263C32.2252 30.4345 32.1565 30.2479 32.0275 30.1059C31.8985 29.9639 31.7194 29.8779 31.528 29.866Z" fill="#393940"/>
<path d="M22.0857 29.866H19.5293C19.3339 29.866 19.1465 29.9437 19.0083 30.082C18.8701 30.2203 18.7924 30.4077 18.7924 30.6033V36.5949H20.1281V33.8988H21.487V36.5949H22.8226V30.6033C22.8226 30.4077 22.7451 30.2203 22.6069 30.082C22.4687 29.9437 22.2811 29.866 22.0857 29.866ZM21.487 32.562H20.1281V31.2486H21.487V32.562Z" fill="#393940"/>
<path d="M12.6896 29.866H9.39636V36.5949H10.732V33.8988H12.0677V36.5949H13.4035V33.8988C13.3894 33.7546 13.3271 33.6193 13.2268 33.5148C13.1265 33.4103 12.9942 33.3427 12.8508 33.3227C13.0072 33.2864 13.1468 33.1983 13.247 33.0729C13.3473 32.9475 13.4024 32.7919 13.4035 32.6312V30.6033C13.4036 30.4116 13.329 30.2275 13.1957 30.0899C13.0625 29.9522 12.881 29.872 12.6896 29.866ZM12.0908 32.009V32.562H10.732V31.2486H12.0677L12.0908 32.009Z" fill="#393940"/>
<path d="M75.1471 29.866V31.2026H76.5059V36.595H77.8416V31.2026H79.2004V29.866H75.1471Z" fill="#393940"/>
<path d="M0 29.866V31.2026H1.33574V36.595H2.69451V31.2026H4.03025V29.866H0Z" fill="#393940"/>
</svg>
