<svg width="33" height="33" viewBox="0 0 33 33" fill="none" xmlns="http://www.w3.org/2000/svg">
<g clip-path="url(#clip0_734_240)">
<path d="M27.9364 0H4.652C3.4192 0.00322582 2.23782 0.494382 1.3661 1.3661C0.494382 2.23782 0.00322582 3.4192 0 4.652L0 27.9364C0.00322582 29.1692 0.494382 30.3506 1.3661 31.2223C2.23782 32.0941 3.4192 32.5852 4.652 32.5884H27.9364C29.1692 32.5852 30.3506 32.0941 31.2223 31.2223C32.0941 30.3506 32.5852 29.1692 32.5884 27.9364V4.652C32.5852 3.4192 32.0941 2.23782 31.2223 1.3661C30.3506 0.494382 29.1692 0.00322582 27.9364 0V0ZM9.50442 27.1559H4.07274V12.2215H9.50523V27.1559H9.50442ZM6.78817 10.4544C5.16038 10.4544 4.07193 9.36673 4.07193 8.01024C4.07193 6.51932 5.16038 5.43249 6.78817 5.43249C8.41678 5.43249 9.50442 6.52013 9.50442 7.87663C9.50442 9.36755 8.41678 10.4552 6.78817 10.4552V10.4544ZM28.5149 27.1559H23.0824V19.0105C23.0824 16.8352 21.5874 16.2942 21.1825 16.2942C20.7784 16.2942 19.0097 16.5655 19.0097 19.0105V27.1559H13.5772V12.2215H19.0097V14.3943C19.826 13.1706 21.1825 12.2215 23.761 12.2215C26.3396 12.2207 28.5149 14.2566 28.5149 19.0105V27.1559Z" fill="#393940"/>
</g>
<defs>
<clipPath id="clip0_734_240">
<rect width="32.5884" height="32.5884" fill="white"/>
</clipPath>
</defs>
</svg>
