<svg width="23" height="23" viewBox="0 0 23 23" fill="none" xmlns="http://www.w3.org/2000/svg">
<path d="M11.4531 15.1594C9.19624 17.4212 7.01721 19.6829 4.76036 21.8666C4.44907 22.1786 4.13778 22.4126 3.8265 22.6465C2.8148 23.2705 1.88094 23.0365 0.791423 21.9446C-0.142446 21.0087 -0.220268 20.0728 0.402311 19.059C0.635778 18.747 0.869245 18.435 1.10271 18.2011C3.12609 16.1733 5.07165 14.1456 7.09504 12.1958C7.3285 11.9618 7.48415 11.7278 7.79544 11.4939C5.46077 9.23214 3.20392 6.97041 0.947068 4.63069C0.557956 4.24074 0.168844 3.7728 0.0910213 3.22686C-0.220268 2.13499 0.480133 0.965134 1.72529 0.263218C2.50352 -0.204725 3.51521 -0.0487441 4.37125 0.731162C6.00552 2.29097 7.63979 3.92878 9.19624 5.56658C9.89664 6.2685 10.597 7.0484 11.5309 7.98429C12.1535 7.28237 12.6982 6.65845 13.243 6.03452C14.9551 4.31873 16.6672 2.60294 18.3793 0.887143C19.2353 0.0292465 20.247 -0.204725 21.1031 0.263218C22.2704 0.887143 23.0486 1.97901 22.893 3.07088C22.8152 3.61682 22.426 4.24074 22.0369 4.63069C19.7801 6.89242 17.5232 9.15415 15.1886 11.4159C15.4999 11.7278 15.6555 11.9618 15.889 12.1958C17.9902 14.3015 20.0914 16.4073 22.1926 18.591C22.9708 19.3709 23.2043 20.3848 22.8152 21.2427C22.1926 22.4126 21.0252 23.1925 20.0136 22.9585C19.4688 22.8805 18.924 22.4905 18.5349 22.1006C16.4337 20.0728 14.4103 17.9671 12.3091 15.8613C11.9978 15.6274 11.7644 15.3934 11.4531 15.1594Z" fill="black" fill-opacity="0.25"/>
</svg>
