<svg width="96" height="18" viewBox="0 0 96 18" fill="none" xmlns="http://www.w3.org/2000/svg">
<rect x="0.5" y="0.5" width="95" height="17" fill="white" stroke="black"/>
<path d="M26.0734 6.57773V12.1777H24.7854V7.63373H22.2574V12.1777H20.9694V6.57773H26.0734ZM30.1336 12.2737C29.5523 12.2737 29.027 12.1484 28.5576 11.8977C28.0936 11.6471 27.7283 11.3031 27.4616 10.8657C27.2003 10.4231 27.0696 9.92707 27.0696 9.37773C27.0696 8.8284 27.2003 8.33507 27.4616 7.89773C27.7283 7.45507 28.0936 7.1084 28.5576 6.85773C29.027 6.60707 29.5523 6.48173 30.1336 6.48173C30.715 6.48173 31.2376 6.60707 31.7016 6.85773C32.1656 7.1084 32.531 7.45507 32.7976 7.89773C33.0643 8.33507 33.1976 8.8284 33.1976 9.37773C33.1976 9.92707 33.0643 10.4231 32.7976 10.8657C32.531 11.3031 32.1656 11.6471 31.7016 11.8977C31.2376 12.1484 30.715 12.2737 30.1336 12.2737ZM30.1336 11.1697C30.4643 11.1697 30.763 11.0951 31.0296 10.9457C31.2963 10.7911 31.5043 10.5777 31.6536 10.3057C31.8083 10.0337 31.8856 9.7244 31.8856 9.37773C31.8856 9.03107 31.8083 8.72173 31.6536 8.44973C31.5043 8.17773 31.2963 7.96707 31.0296 7.81773C30.763 7.66307 30.4643 7.58573 30.1336 7.58573C29.803 7.58573 29.5043 7.66307 29.2376 7.81773C28.971 7.96707 28.7603 8.17773 28.6056 8.44973C28.4563 8.72173 28.3816 9.03107 28.3816 9.37773C28.3816 9.7244 28.4563 10.0337 28.6056 10.3057C28.7603 10.5777 28.971 10.7911 29.2376 10.9457C29.5043 11.0951 29.803 11.1697 30.1336 11.1697ZM39.8158 11.1217V13.3377H38.6158V12.1777H34.6638V13.3377H33.4638L33.4718 11.1217H33.6958C34.0318 11.1111 34.2691 10.8657 34.4078 10.3857C34.5464 9.90573 34.6318 9.2204 34.6638 8.32973L34.7278 6.57773H39.0318V11.1217H39.8158ZM35.8078 8.44973C35.7811 9.1164 35.7251 9.6764 35.6398 10.1297C35.5544 10.5777 35.4238 10.9084 35.2478 11.1217H37.7517V7.63373H35.8318L35.8078 8.44973ZM43.1122 6.57773C43.6082 6.57773 44.0375 6.6604 44.4002 6.82573C44.7682 6.99107 45.0509 7.22573 45.2482 7.52973C45.4455 7.83373 45.5442 8.19373 45.5442 8.60973C45.5442 9.0204 45.4455 9.3804 45.2482 9.68973C45.0509 9.99373 44.7682 10.2284 44.4002 10.3937C44.0375 10.5537 43.6082 10.6337 43.1122 10.6337H41.9842V12.1777H40.6882V6.57773H43.1122ZM43.0402 9.57773C43.4295 9.57773 43.7255 9.49507 43.9282 9.32973C44.1309 9.15907 44.2322 8.91907 44.2322 8.60973C44.2322 8.29507 44.1309 8.05507 43.9282 7.88973C43.7255 7.71907 43.4295 7.63373 43.0402 7.63373H41.9842V9.57773H43.0402ZM49.1493 12.2737C48.5679 12.2737 48.0426 12.1484 47.5733 11.8977C47.1093 11.6471 46.7439 11.3031 46.4773 10.8657C46.2159 10.4231 46.0853 9.92707 46.0853 9.37773C46.0853 8.8284 46.2159 8.33507 46.4773 7.89773C46.7439 7.45507 47.1093 7.1084 47.5733 6.85773C48.0426 6.60707 48.5679 6.48173 49.1493 6.48173C49.7306 6.48173 50.2533 6.60707 50.7173 6.85773C51.1813 7.1084 51.5466 7.45507 51.8133 7.89773C52.0799 8.33507 52.2133 8.8284 52.2133 9.37773C52.2133 9.92707 52.0799 10.4231 51.8133 10.8657C51.5466 11.3031 51.1813 11.6471 50.7173 11.8977C50.2533 12.1484 49.7306 12.2737 49.1493 12.2737ZM49.1493 11.1697C49.4799 11.1697 49.7786 11.0951 50.0453 10.9457C50.3119 10.7911 50.5199 10.5777 50.6693 10.3057C50.8239 10.0337 50.9013 9.7244 50.9013 9.37773C50.9013 9.03107 50.8239 8.72173 50.6693 8.44973C50.5199 8.17773 50.3119 7.96707 50.0453 7.81773C49.7786 7.66307 49.4799 7.58573 49.1493 7.58573C48.8186 7.58573 48.5199 7.66307 48.2533 7.81773C47.9866 7.96707 47.7759 8.17773 47.6213 8.44973C47.4719 8.72173 47.3973 9.03107 47.3973 9.37773C47.3973 9.7244 47.4719 10.0337 47.6213 10.3057C47.7759 10.5777 47.9866 10.7911 48.2533 10.9457C48.5199 11.0951 48.8186 11.1697 49.1493 11.1697ZM53.2116 6.57773H57.7316V7.60973H54.4996V8.76173H56.0516C56.729 8.76173 57.2436 8.90307 57.5956 9.18573C57.953 9.4684 58.1316 9.8764 58.1316 10.4097C58.1316 10.9697 57.9343 11.4044 57.5396 11.7137C57.145 12.0231 56.5876 12.1777 55.8676 12.1777H53.2116V6.57773ZM55.7956 11.2177C56.1263 11.2177 56.3796 11.1537 56.5556 11.0257C56.7316 10.8924 56.8196 10.7004 56.8196 10.4497C56.8196 9.95907 56.4783 9.71373 55.7956 9.71373H54.4996V11.2177H55.7956ZM64.2539 6.57773V12.1777H62.9579V9.88173H60.4139V12.1777H59.1179V6.57773H60.4139V8.78573H62.9579V6.57773H64.2539ZM69.9929 11.1377V12.1777H65.6569V6.57773H69.8889V7.61773H66.9449V8.83373H69.5449V9.84173H66.9449V11.1377H69.9929ZM75.3758 11.1377V12.1777H71.0398V6.57773H75.2718V7.61773H72.3278V8.83373H74.9278V9.84173H72.3278V11.1377H75.3758Z" fill="#131313"/>
<path d="M11.7018 7.87853H12.7938V11.6445H11.7018V7.87853ZM12.2478 7.35353C12.0471 7.35353 11.8838 7.2952 11.7578 7.17853C11.6318 7.06186 11.5688 6.9172 11.5688 6.74453C11.5688 6.57186 11.6318 6.4272 11.7578 6.31053C11.8838 6.19386 12.0471 6.13553 12.2478 6.13553C12.4484 6.13553 12.6118 6.19153 12.7378 6.30353C12.8638 6.41553 12.9268 6.55553 12.9268 6.72353C12.9268 6.90553 12.8638 7.0572 12.7378 7.17853C12.6118 7.2952 12.4484 7.35353 12.2478 7.35353Z" fill="#131313"/>
<circle cx="12" cy="9" r="4.5" stroke="black"/>
</svg>
