<svg width="98" height="88" viewBox="0 0 98 88" fill="none" xmlns="http://www.w3.org/2000/svg">
<path d="M90.3318 41.5257L50.8507 2.11931C49.678 0.948848 47.7767 0.948851 46.6041 2.11931L7.12334 41.5254C5.95066 42.6958 5.95066 44.5935 7.12334 45.764L46.6044 85.1704C47.7771 86.3409 49.6784 86.3409 50.8511 85.1704L90.3318 45.7644C91.5045 44.5939 91.5045 42.6962 90.3318 41.5257Z" fill="#FFE800"/>
<mask id="mask0_734_1002" style="mask-type:alpha" maskUnits="userSpaceOnUse" x="6" y="1" width="86" height="86">
<path d="M90.3318 41.5257L50.8507 2.11931C49.678 0.948848 47.7767 0.948851 46.6041 2.11931L7.12334 41.5254C5.95066 42.6958 5.95066 44.5935 7.12334 45.764L46.6044 85.1704C47.7771 86.3409 49.6784 86.3409 50.8511 85.1704L90.3318 45.7644C91.5045 44.5939 91.5045 42.6962 90.3318 41.5257Z" fill="#FFE800"/>
</mask>
<g mask="url(#mask0_734_1002)">
<rect x="5" y="43.4067" width="91.3353" height="47.3836" fill="white"/>
</g>
<path d="M84.9637 41.5564L50.881 7.53826C49.7084 6.36779 47.8071 6.36779 46.6344 7.53826L12.5516 41.5566C11.3789 42.7271 11.3789 44.6248 12.5516 45.7952L46.6342 79.8134C47.8069 80.9838 49.7082 80.9838 50.8809 79.8134L84.9637 45.795C86.1364 44.6246 86.1364 42.7269 84.9637 41.5564Z" stroke="#393940" stroke-width="2" stroke-miterlimit="10"/>
<path d="M41.6072 41.1637V43.8037H31.0272V41.7037L36.4272 36.6037C37.0005 36.057 37.3872 35.5904 37.5872 35.2037C37.7872 34.8037 37.8872 34.4104 37.8872 34.0237C37.8872 33.4637 37.6939 33.037 37.3072 32.7437C36.9339 32.437 36.3805 32.2837 35.6472 32.2837C35.0339 32.2837 34.4805 32.4037 33.9872 32.6437C33.4939 32.8704 33.0805 33.217 32.7472 33.6837L30.3872 32.1637C30.9339 31.3504 31.6872 30.717 32.6472 30.2637C33.6072 29.797 34.7072 29.5637 35.9472 29.5637C36.9872 29.5637 37.8939 29.737 38.6672 30.0837C39.4539 30.417 40.0605 30.897 40.4872 31.5237C40.9272 32.137 41.1472 32.8637 41.1472 33.7037C41.1472 34.4637 40.9872 35.177 40.6672 35.8437C40.3472 36.5104 39.7272 37.2704 38.8072 38.1237L35.5872 41.1637H41.6072ZM47.7441 35.0637C49.7174 35.0637 51.1707 35.457 52.1041 36.2437C53.0507 37.0304 53.5241 38.0837 53.5241 39.4037C53.5241 40.257 53.3107 41.037 52.8841 41.7437C52.4574 42.437 51.8041 42.997 50.9241 43.4237C50.0574 43.837 48.9841 44.0437 47.7041 44.0437C46.7174 44.0437 45.7441 43.917 44.7841 43.6637C43.8374 43.397 43.0307 43.0237 42.3641 42.5437L43.6441 40.0637C44.1774 40.4637 44.7907 40.777 45.4841 41.0037C46.1774 41.217 46.8907 41.3237 47.6241 41.3237C48.4374 41.3237 49.0774 41.1637 49.5441 40.8437C50.0107 40.5237 50.2441 40.077 50.2441 39.5037C50.2441 38.9037 49.9974 38.4504 49.5041 38.1437C49.0241 37.837 48.1841 37.6837 46.9841 37.6837H43.4041L44.1241 29.8037H52.6641V32.4037H46.8241L46.6041 35.0637H47.7441ZM60.8386 44.0437C59.6786 44.0437 58.6453 43.757 57.7386 43.1837C56.8319 42.6104 56.1186 41.7837 55.5986 40.7037C55.0919 39.6104 54.8386 38.3104 54.8386 36.8037C54.8386 35.297 55.0919 34.0037 55.5986 32.9237C56.1186 31.8304 56.8319 30.997 57.7386 30.4237C58.6453 29.8504 59.6786 29.5637 60.8386 29.5637C61.9986 29.5637 63.0319 29.8504 63.9386 30.4237C64.8453 30.997 65.5519 31.8304 66.0586 32.9237C66.5786 34.0037 66.8386 35.297 66.8386 36.8037C66.8386 38.3104 66.5786 39.6104 66.0586 40.7037C65.5519 41.7837 64.8453 42.6104 63.9386 43.1837C63.0319 43.757 61.9986 44.0437 60.8386 44.0437ZM60.8386 41.3037C61.6919 41.3037 62.3586 40.937 62.8386 40.2037C63.3319 39.4704 63.5786 38.337 63.5786 36.8037C63.5786 35.2704 63.3319 34.137 62.8386 33.4037C62.3586 32.6704 61.6919 32.3037 60.8386 32.3037C59.9986 32.3037 59.3319 32.6704 58.8386 33.4037C58.3586 34.137 58.1186 35.2704 58.1186 36.8037C58.1186 38.337 58.3586 39.4704 58.8386 40.2037C59.3319 40.937 59.9986 41.3037 60.8386 41.3037ZM38.3343 50.6137C38.5903 50.6897 38.7863 50.8137 38.9223 50.9857C39.0583 51.1577 39.1263 51.3697 39.1263 51.6217C39.1263 51.9937 38.9843 52.2837 38.7003 52.4917C38.4203 52.6997 38.0183 52.8037 37.4943 52.8037H35.4243V48.6037H37.3803C37.8683 48.6037 38.2483 48.6977 38.5203 48.8857C38.7923 49.0737 38.9283 49.3417 38.9283 49.6897C38.9283 49.8977 38.8763 50.0817 38.7723 50.2417C38.6683 50.3977 38.5223 50.5217 38.3343 50.6137ZM36.3903 50.3437H37.2963C37.5083 50.3437 37.6683 50.3017 37.7763 50.2177C37.8843 50.1297 37.9383 50.0017 37.9383 49.8337C37.9383 49.6697 37.8823 49.5437 37.7703 49.4557C37.6623 49.3677 37.5043 49.3237 37.2963 49.3237H36.3903V50.3437ZM37.4583 52.0837C37.9143 52.0837 38.1423 51.9037 38.1423 51.5437C38.1423 51.1957 37.9143 51.0217 37.4583 51.0217H36.3903V52.0837H37.4583ZM43.147 52.0237V52.8037H39.895V48.6037H43.069V49.3837H40.861V50.2957H42.811V51.0517H40.861V52.0237H43.147ZM45.7502 48.6037C46.1222 48.6037 46.4442 48.6657 46.7162 48.7897C46.9922 48.9137 47.2042 49.0897 47.3522 49.3177C47.5002 49.5457 47.5742 49.8157 47.5742 50.1277C47.5742 50.4357 47.5002 50.7057 47.3522 50.9377C47.2042 51.1657 46.9922 51.3417 46.7162 51.4657C46.4442 51.5857 46.1222 51.6457 45.7502 51.6457H44.9042V52.8037H43.9322V48.6037H45.7502ZM45.6962 50.8537C45.9882 50.8537 46.2102 50.7917 46.3622 50.6677C46.5142 50.5397 46.5902 50.3597 46.5902 50.1277C46.5902 49.8917 46.5142 49.7117 46.3622 49.5877C46.2102 49.4597 45.9882 49.3957 45.6962 49.3957H44.9042V50.8537H45.6962ZM52.0674 48.6037V52.8037H51.0954V51.0817H49.1874V52.8037H48.2154V48.6037H49.1874V50.2597H51.0954V48.6037H52.0674ZM55.1537 49.9837C55.6657 49.9837 56.0577 50.0977 56.3297 50.3257C56.6057 50.5537 56.7437 50.8917 56.7437 51.3397C56.7437 51.8157 56.5917 52.1797 56.2877 52.4317C55.9877 52.6797 55.5637 52.8037 55.0157 52.8037H53.1197V48.6037H54.0857V49.9837H55.1537ZM54.9617 52.0837C55.2137 52.0837 55.4097 52.0217 55.5497 51.8977C55.6937 51.7737 55.7657 51.5937 55.7657 51.3577C55.7657 50.9217 55.4977 50.7037 54.9617 50.7037H54.0857V52.0837H54.9617ZM57.2777 48.6037H58.2437V52.8037H57.2777V48.6037ZM60.0456 48.6037L60.9156 49.8757L61.7856 48.6037H62.9256L61.5276 50.6137L63.0396 52.8037H61.8936L60.9156 51.4117L59.9496 52.8037H58.8276L60.3276 50.6557L58.9236 48.6037H60.0456Z" fill="#131313"/>
</svg>
