<svg width="15" height="19" viewBox="0 0 15 19" fill="none" xmlns="http://www.w3.org/2000/svg">
<g clip-path="url(#clip0_734_1848)">
<path d="M13.7867 2.02074C13.8133 2.0509 13.8514 2.06975 13.8932 2.06975C13.935 2.06975 13.9731 2.0509 13.9997 2.02074L14.9695 1.05189C15.0076 1.01043 15.0152 0.953878 14.9923 0.9011C14.9695 0.852092 14.9201 0.818164 14.863 0.818164H14.5169V0.135822C14.5169 0.0604252 14.4561 -0.00366211 14.3762 -0.00366211H13.414C13.3379 -0.00366211 13.2733 0.0566554 13.2733 0.135822V0.818164H12.9272C12.8739 0.818164 12.8207 0.852092 12.7979 0.9011C12.7751 0.950108 12.7827 1.01043 12.8207 1.05189L13.7867 2.02074Z" fill="#131313"/>
<path d="M9.13553 8.63289C8.73619 8.19181 8.34065 7.6942 7.98315 7.24935C7.81581 7.03824 7.65607 6.83844 7.50394 6.65749L7.49253 6.64241C7.71312 6.02039 7.83863 5.51146 7.86525 5.1307C7.93751 4.15808 7.82722 3.52852 7.53056 3.21562C7.32899 3.00074 7.02853 2.92912 6.74709 3.02336C6.54552 3.09122 6.26789 3.27217 6.11195 3.74717C5.87995 4.4559 5.99025 5.71503 6.65582 6.7555C6.35916 7.52455 5.94461 8.41046 5.48822 9.25491C4.61728 9.5565 3.92509 9.9561 3.42686 10.4386C2.77651 11.0682 2.51408 11.694 2.70044 12.1501C2.81834 12.4329 3.08457 12.6063 3.41926 12.6063C3.65125 12.6063 3.90607 12.5234 4.14948 12.365C4.7656 11.9654 5.56809 10.6384 6.00166 9.86562C6.89542 9.59043 7.77397 9.47733 8.22275 9.43209C8.42433 9.41324 8.6259 9.39816 8.81986 9.38685C9.60333 10.2087 10.2461 10.6384 10.8356 10.7478C10.9535 10.7704 11.0752 10.7817 11.1893 10.7817C11.6723 10.7817 12.0678 10.5932 12.2542 10.2728C12.3949 10.0315 12.3911 9.75253 12.2466 9.50372C11.9195 8.94201 10.9307 8.63289 9.46261 8.63289C9.35612 8.62535 9.24963 8.62912 9.13553 8.63289ZM3.74253 11.743C3.62463 11.8184 3.50673 11.8636 3.42306 11.8636C3.40785 11.8636 3.39644 11.8636 3.38883 11.8599C3.37362 11.7845 3.42686 11.4678 3.94791 10.9626C4.19131 10.7251 4.50318 10.5103 4.86829 10.318C4.4081 11.0531 3.99355 11.5809 3.74253 11.743ZM6.82316 3.97336C6.8764 3.80749 6.94486 3.73209 6.9867 3.72078H6.9905C7.03234 3.76602 7.20348 4.02237 7.12742 5.07793C7.11221 5.26265 7.07037 5.49261 6.99431 5.77158C6.73949 5.13447 6.67103 4.42951 6.82316 3.97336ZM8.15429 8.6932C7.75876 8.7309 7.15404 8.81007 6.48087 8.9684C6.74329 8.45193 6.9829 7.92793 7.18447 7.44162C7.25293 7.52832 7.32519 7.6188 7.39745 7.70927C7.64086 8.01463 7.91469 8.35769 8.19993 8.68943L8.15429 8.6932ZM11.6 9.86562C11.6114 9.88447 11.6114 9.89201 11.6076 9.89578C11.5772 9.94856 11.4365 10.0353 11.1893 10.0353C11.1208 10.0353 11.0486 10.0277 10.9725 10.0126C10.6644 9.9561 10.3069 9.74499 9.87717 9.368C11.0372 9.42832 11.505 9.70729 11.6 9.86562Z" fill="#131313"/>
<path d="M10.7137 0H1.07252C0.479209 0 0 0.475 0 1.0631V17.9369C0 18.525 0.479209 19 1.07252 19H13.9313C14.5246 19 15.0038 18.525 15.0038 17.9369V4.24861L10.7137 0ZM10.7137 1.5004L13.4863 4.24861H10.7137V1.5004ZM13.9313 17.9369H1.07252V1.0631H9.64503V4.24861C9.64503 4.83671 10.1242 5.31171 10.7175 5.31171H13.9313V17.9369Z" fill="#131313"/>
<path d="M5.73126 13.5865C5.64379 13.5111 5.5373 13.4545 5.4194 13.4206C5.3015 13.3867 5.13415 13.3716 4.91737 13.3716H4.20236C4.06544 13.3716 3.96275 13.4017 3.8981 13.4621C3.82964 13.5224 3.79541 13.6242 3.79541 13.7599V15.8559C3.79541 15.9765 3.82584 16.0746 3.88669 16.1386C3.94754 16.2065 4.02741 16.2404 4.1301 16.2404C4.22518 16.2404 4.30504 16.2065 4.3697 16.1386C4.43055 16.0708 4.46098 15.9765 4.46098 15.8521V15.1359H4.91737C5.27107 15.1359 5.5411 15.0605 5.71985 14.9097C5.90241 14.7589 5.99749 14.5327 5.99749 14.2386C5.99749 14.1029 5.97467 13.9785 5.92903 13.8692C5.88339 13.7599 5.81874 13.6619 5.73126 13.5865ZM5.27107 14.4611C5.23304 14.5138 5.17599 14.5515 5.09612 14.5742C5.01245 14.6006 4.90976 14.6119 4.78425 14.6119H4.46478V13.8843H4.78425C5.0733 13.8843 5.1912 13.9408 5.23684 13.9898C5.29769 14.0539 5.32812 14.1406 5.32812 14.2462C5.32812 14.3404 5.3091 14.4121 5.27107 14.4611Z" fill="#131313"/>
<path d="M8.36306 13.6317C8.24896 13.5299 8.11584 13.4621 7.97512 13.4244C7.83821 13.3904 7.66706 13.3716 7.4769 13.3716H6.75428C6.62117 13.3716 6.51848 13.4017 6.45763 13.4658C6.39297 13.5299 6.36255 13.6279 6.36255 13.7599V15.7541C6.36255 15.8484 6.37016 15.9238 6.38917 15.9841C6.40819 16.0519 6.45002 16.1047 6.51468 16.1424C6.57553 16.1801 6.6592 16.1952 6.7695 16.1952H7.49211C7.62142 16.1952 7.73932 16.1877 7.84201 16.1688C7.9485 16.1537 8.04739 16.1236 8.13866 16.0821C8.22994 16.0406 8.31742 15.9841 8.39348 15.9162C8.49237 15.8257 8.57223 15.724 8.63309 15.6109C8.69394 15.4978 8.74338 15.3696 8.77 15.2301C8.80043 15.0906 8.81564 14.9398 8.81564 14.7702C8.81184 14.2688 8.65971 13.8805 8.36306 13.6317ZM7.88004 15.5392C7.84581 15.5694 7.80018 15.5958 7.75073 15.6109C7.69749 15.6297 7.64805 15.641 7.60241 15.6448C7.55296 15.6486 7.4807 15.6523 7.38943 15.6523H7.02051V13.9107H7.33618C7.49972 13.9107 7.64044 13.9295 7.75454 13.9634C7.86103 13.9974 7.95231 14.0728 8.02837 14.1972C8.10444 14.3216 8.14247 14.5138 8.14247 14.774C8.14247 15.1359 8.05499 15.3922 7.88004 15.5392Z" fill="#131313"/>
<path d="M10.8886 13.3716H9.57645C9.48897 13.3716 9.41671 13.3829 9.35966 13.4093C9.29881 13.4357 9.25317 13.4809 9.22274 13.545C9.19612 13.6015 9.18091 13.6732 9.18091 13.7599V15.8521C9.18091 15.9765 9.21133 16.0746 9.27219 16.1386C9.33304 16.2065 9.41671 16.2404 9.51179 16.2404C9.60687 16.2404 9.68674 16.2065 9.7514 16.1424C9.81225 16.0783 9.84267 15.9803 9.84267 15.8521V15.0077H10.706C10.8011 15.0077 10.8772 14.9851 10.9304 14.9398C10.9836 14.8908 11.0141 14.8267 11.0141 14.7513C11.0141 14.6722 10.9875 14.6081 10.9342 14.5629C10.881 14.5176 10.8049 14.4912 10.7098 14.4912H9.84648V13.8994H10.8886C10.9913 13.8994 11.0711 13.8767 11.1206 13.8277C11.1738 13.7787 11.2042 13.7146 11.2042 13.6355C11.2042 13.5563 11.1776 13.4922 11.1206 13.4432C11.0673 13.3942 10.9875 13.3716 10.8886 13.3716Z" fill="#131313"/>
</g>
<defs>
<clipPath id="clip0_734_1848">
<rect width="15" height="19" fill="white"/>
</clipPath>
</defs>
</svg>
