<svg width="81" height="81" viewBox="0 0 81 81" fill="none" xmlns="http://www.w3.org/2000/svg">
<path d="M78.2813 38.1919L42.318 2.12439C41.1481 0.951121 39.2513 0.951121 38.0815 2.12439L2.11846 38.1916C0.948583 39.3649 0.94858 41.2671 2.11846 42.4404L38.0818 78.5079C39.2517 79.6812 41.1484 79.6812 42.3183 78.5079L78.2813 42.4407C79.4512 41.2674 79.4512 39.3652 78.2813 38.1919Z" fill="#00FFFF"/>
<path d="M73.346 38.2191L42.3455 7.1289C41.1757 5.95564 39.2789 5.95564 38.109 7.1289L7.10847 38.2193C5.93859 39.3926 5.93859 41.2948 7.10847 42.4681L38.1089 73.5583C39.2788 74.7316 41.1755 74.7316 42.3454 73.5583L73.346 42.4679C74.5158 41.2946 74.5158 39.3924 73.346 38.2191Z" stroke="white" stroke-width="2" stroke-miterlimit="10"/>
<path fill-rule="evenodd" clip-rule="evenodd" d="M23.2253 36.2641H26.81V53.5954H23.2253V36.2641ZM28.3975 36.2641H51.0782V53.5954H28.3975V36.2641ZM52.6913 36.2641H56.276V53.5954H52.6913V36.2641ZM28.3975 34.7004V35.4406H26.6974V34.4815L36.6781 24.286V26.2406L28.377 34.6899L28.3975 34.7004ZM38.1273 22.3313H41.4611C41.5802 22.3327 41.694 22.3814 41.7782 22.4671C41.8624 22.5529 41.9104 22.6688 41.9117 22.79V27.2831C41.9117 27.4048 41.8642 27.5215 41.7797 27.6075C41.6952 27.6935 41.5806 27.7418 41.4611 27.7418H38.1273C38.068 27.7425 38.009 27.7311 37.954 27.7083C37.8991 27.6855 37.8491 27.6517 37.8071 27.609C37.7652 27.5663 37.732 27.5154 37.7096 27.4595C37.6872 27.4035 37.676 27.3435 37.6767 27.2831V22.7952C37.6767 22.735 37.6883 22.6753 37.711 22.6197C37.7336 22.564 37.7668 22.5134 37.8087 22.4708C37.8505 22.4282 37.9002 22.3945 37.9549 22.3714C38.0095 22.3484 38.0681 22.3365 38.1273 22.3365V22.3313ZM40.7851 28.2683V28.8468C40.8158 29.8059 39.8377 29.7538 39.2488 29.9258C38.9772 29.9638 38.7315 30.1101 38.5658 30.3325C38.4002 30.5549 38.3281 30.8351 38.3654 31.1116C38.4028 31.3881 38.5465 31.6382 38.765 31.8068C38.9835 31.9754 39.2588 32.0488 39.5305 32.0107C39.7113 32.0073 39.888 31.9552 40.0426 31.8596C40.2189 31.7269 40.3635 31.5552 40.4655 31.3575C40.5675 31.1599 40.6242 30.9412 40.6314 30.7181C40.7492 30.0092 42.1985 30.1395 42.0448 31.0308C42.0059 31.5039 41.8754 31.9646 41.6608 32.3861C40.9285 33.7674 38.9672 33.9498 37.861 33.0063C36.7549 32.0629 36.4323 30.4679 37.692 29.2742C37.9942 28.9927 38.5063 28.753 38.7162 28.5601C38.7479 28.527 38.7728 28.4879 38.7895 28.445C38.8062 28.402 38.8144 28.3561 38.8135 28.3099C38.8135 28.2734 38.8135 28.263 38.8494 28.263H40.7749C40.7749 28.263 40.8056 28.2631 40.7749 28.2891L40.7851 28.2683ZM51.0833 34.7004V35.4406H52.7835V34.4815L42.7874 24.2912V26.2406L51.0833 34.6899V34.7004ZM39.7507 24.6769C39.9727 24.6769 40.1897 24.744 40.3742 24.8696C40.5588 24.9953 40.7025 25.1739 40.7873 25.3828C40.872 25.5917 40.8939 25.8215 40.8502 26.0431C40.8065 26.2646 40.6992 26.468 40.5418 26.6274C40.3845 26.7868 40.1842 26.8952 39.9663 26.9386C39.7484 26.9821 39.5228 26.9588 39.3179 26.8716C39.1131 26.7844 38.9383 26.6372 38.8157 26.4488C38.6931 26.2604 38.6282 26.0392 38.6292 25.8132C38.6305 25.5114 38.7493 25.2224 38.9595 25.0094C39.1696 24.7965 39.4541 24.6769 39.7507 24.6769Z" fill="white"/>
</svg>
