<svg width="81" height="81" viewBox="0 0 81 81" fill="none" xmlns="http://www.w3.org/2000/svg">
<path d="M80.3993 40.3163L40.1995 0L-3.50013e-05 40.316L40.1998 80.6323L80.3993 40.3163Z" fill="url(#paint0_radial_734_379)"/>
<path d="M73.3458 38.2191L42.3454 7.1289C41.1755 5.95564 39.2788 5.95564 38.1089 7.1289L7.10835 38.2193C5.93847 39.3926 5.93847 41.2948 7.10835 42.4681L38.1088 73.5583C39.2786 74.7316 41.1754 74.7316 42.3453 73.5583L73.3458 42.4679C74.5157 41.2946 74.5157 39.3924 73.3458 38.2191Z" stroke="#393940" stroke-width="2" stroke-miterlimit="10"/>
<path d="M39.2725 23.493C47.163 23.493 52.223 28.2406 53.4916 35.9053H54.4083C53.9414 32.1652 52.146 28.7264 49.3588 26.2338C46.5716 23.7411 42.984 22.3659 39.2688 22.3659C35.5536 22.3659 31.9661 23.7411 29.1789 26.2338C26.3916 28.7264 24.5962 32.1652 24.1293 35.9053H25.046C26.3146 28.2406 31.3746 23.493 39.2725 23.493ZM42.9391 41.5385C42.5423 41.5385 42.1618 41.6984 41.8813 41.9831C41.6007 42.2678 41.4431 42.6539 41.4431 43.0565C41.4431 43.4591 41.6007 43.8452 41.8813 44.1299C42.1618 44.4146 42.5423 44.5746 42.9391 44.5746H44.8018C45.1985 44.5746 45.579 44.4146 45.8596 44.1299C46.1401 43.8452 46.2977 43.4591 46.2977 43.0565C46.2977 42.6539 46.1401 42.2678 45.8596 41.9831C45.579 41.6984 45.1985 41.5385 44.8018 41.5385H42.9391ZM33.7505 41.5385C33.3538 41.5385 32.9733 41.6984 32.6927 41.9831C32.4122 42.2678 32.2545 42.6539 32.2545 43.0565C32.2545 43.4591 32.4122 43.8452 32.6927 44.1299C32.9733 44.4146 33.3538 44.5746 33.7505 44.5746H35.6132C36.0099 44.5746 36.3905 44.4146 36.671 44.1299C36.9516 43.8452 37.1091 43.4591 37.1091 43.0565C37.1091 42.6539 36.9516 42.2678 36.671 41.9831C36.3905 41.6984 36.0099 41.5385 35.6132 41.5385H33.7432H33.7505ZM58.9549 39.1051C58.9549 38.8841 58.8684 38.6721 58.7144 38.5158C58.5603 38.3595 58.3514 38.2717 58.1336 38.2717C57.9158 38.2717 57.7068 38.3595 57.5528 38.5158C57.3988 38.6721 57.3123 38.8841 57.3123 39.1051V46.8219C57.3123 47.633 57.4149 47.4097 56.9236 47.8934C55.5899 49.0744 54.1109 50.075 52.5237 50.87C49.5904 52.3583 46.5324 52.9313 43.2911 53.4224C43.116 53.1146 42.8635 52.8594 42.5595 52.6829C42.2555 52.5065 41.9107 52.415 41.5604 52.4179H36.2145C35.9557 52.4015 35.6962 52.4391 35.4523 52.5284C35.2083 52.6177 34.9849 52.7567 34.7959 52.9369C34.6069 53.1171 34.4563 53.3348 34.3533 53.5763C34.2503 53.8179 34.1972 54.0783 34.1972 54.3415C34.1972 54.6046 34.2503 54.865 34.3533 55.1066C34.4563 55.3481 34.6069 55.5658 34.7959 55.746C34.9849 55.9262 35.2083 56.0652 35.4523 56.1545C35.6962 56.2438 35.9557 56.2814 36.2145 56.265H41.5018C41.8971 56.2696 42.2846 56.1536 42.6141 55.932C42.9436 55.7104 43.1999 55.3936 43.3498 55.0224C46.8184 54.5089 50.0523 53.8838 53.213 52.2913C54.9377 51.4313 56.547 50.351 58.0016 49.0767C59.0576 48.139 58.9256 48.1614 58.9256 46.8442V39.1349L58.9549 39.1051ZM52.9197 46.1819C52.8023 46.621 52.6777 47.0526 52.5457 47.4842C52.2682 48.3436 51.9475 49.1881 51.585 50.0143C50.1221 50.6869 48.5931 51.2007 47.0237 51.5472C48.0571 49.9789 48.8669 48.2704 49.429 46.4722C50.0853 44.4143 50.4483 42.2718 50.507 40.1097C50.507 39.8492 50.507 39.5814 50.507 39.321C38.5318 41.412 40.9738 34.7445 32.2252 37.0885C31.7559 34.7445 32.6652 32.2887 33.1126 30.8748C34.1465 27.5485 30.0986 33.2263 30.6486 37.5721C29.8639 37.84 28.9986 38.175 28.0379 38.5694C28.0379 39.0828 28.0379 39.5962 28.0379 40.1097C28.0967 42.2718 28.4597 44.4143 29.1159 46.4722C29.9173 49.1583 31.3261 51.6174 33.2299 53.6532C33.1183 54.1107 33.1129 54.5883 33.2142 55.0483C33.3155 55.5083 33.5207 55.938 33.8137 56.3038C34.1066 56.6696 34.4792 56.9614 34.9022 57.1562C35.3252 57.3509 35.787 57.4432 36.2512 57.4259H41.5385C42.0415 57.4261 42.5373 57.3047 42.9849 57.0718C43.4325 56.8388 43.819 56.501 44.1124 56.0865C45.5351 55.8632 46.9284 55.6177 48.2924 55.2828C45.9017 58.0138 42.8291 59.7477 39.2798 59.7477C32.9512 59.7477 28.1479 54.2187 25.9993 47.4767C25.8673 47.0451 25.7426 46.6135 25.6253 46.1745H23.0807C22.6463 46.1745 22.2295 45.9999 21.9217 45.6889C21.6138 45.3779 21.4399 44.9559 21.438 44.5151V37.5648C21.4376 37.2304 21.5369 36.9035 21.7227 36.6273C21.9086 36.3511 22.1723 36.1384 22.4793 36.0169C22.8599 31.7492 24.8043 27.7817 27.9281 24.8983C31.052 22.015 35.128 20.4257 39.3507 20.4444C43.5735 20.4631 47.6358 22.0885 50.7347 24.9994C53.8336 27.9103 55.7437 31.8949 56.0876 36.1658C56.3142 36.3194 56.4997 36.5276 56.6277 36.7717C56.7557 37.0158 56.822 37.2883 56.8209 37.5648V44.5151C56.819 44.9559 56.6451 45.3779 56.3372 45.6889C56.0294 45.9999 55.6127 46.1745 55.1783 46.1745L52.9197 46.1819Z" fill="#393940"/>
<defs>
<radialGradient id="paint0_radial_734_379" cx="0" cy="0" r="1" gradientUnits="userSpaceOnUse" gradientTransform="translate(40.1996 40.3162) rotate(134.917) scale(28.4666 28.4667)">
<stop offset="0.145833" stop-color="white"/>
<stop offset="1" stop-color="#F0F0F0"/>
</radialGradient>
</defs>
</svg>
