<svg width="81" height="81" viewBox="0 0 81 81" fill="none" xmlns="http://www.w3.org/2000/svg">
<path d="M78.281 38.1919L42.3177 2.12439C41.1478 0.951121 39.2511 0.951121 38.0812 2.12439L2.11821 38.1916C0.948338 39.3649 0.948336 41.2671 2.11821 42.4404L38.0816 78.5079C39.2514 79.6812 41.1482 79.6812 42.318 78.5079L78.281 42.4407C79.4509 41.2674 79.4509 39.3652 78.281 38.1919Z" fill="#FFE800"/>
<mask id="mask0_734_665" style="mask-type:alpha" maskUnits="userSpaceOnUse" x="1" y="1" width="79" height="79">
<path d="M78.281 38.1919L42.3177 2.12439C41.1478 0.951121 39.2511 0.951121 38.0812 2.12439L2.11821 38.1916C0.948338 39.3649 0.948336 41.2671 2.11821 42.4404L38.0816 78.5079C39.2514 79.6812 41.1482 79.6812 42.318 78.5079L78.281 42.4407C79.4509 41.2674 79.4509 39.3652 78.281 38.1919Z" fill="#FFE800"/>
</mask>
<g mask="url(#mask0_734_665)">
<rect x="0.000366211" y="40.0958" width="83.9665" height="43.7698" fill="white"/>
</g>
<path d="M73.3462 38.2191L42.3458 7.1289C41.1759 5.95564 39.2792 5.95564 38.1093 7.1289L7.10871 38.2193C5.93884 39.3926 5.93883 41.2948 7.10871 42.4681L38.1091 73.5583C39.279 74.7316 41.1757 74.7316 42.3456 73.5583L73.3462 42.4679C74.5161 41.2946 74.5161 39.3924 73.3462 38.2191Z" stroke="#393940" stroke-width="2" stroke-miterlimit="10"/>
<path d="M48.6846 36.8083H31.6277V39.0537H48.6846V36.8083Z" fill="#B62D39"/>
<path d="M50.7184 23.0122C50.5948 24.0234 50.386 25.0224 50.0944 25.9984C49.7708 26.7391 48.2224 27.3872 48.2224 27.3872C48.959 26.3901 49.4212 25.2167 49.5628 23.9845C49.7686 22.7018 49.5833 21.3869 49.0313 20.2113C48.7858 20.9277 48.4266 21.5999 47.9679 22.202C47.5384 22.5568 47.0437 22.8241 46.5118 22.989C46.7803 22.5893 46.9623 22.1376 47.0459 21.6632C47.1295 21.1887 47.1131 20.7021 46.9974 20.2345C46.671 18.4997 46.1515 16.807 45.4488 15.188C45.4398 16.3817 45.2925 17.5702 45.0098 18.7298C44.7083 19.3948 44.2477 19.9752 43.6691 20.4196C43.7687 18.6828 43.4101 16.9505 42.6291 15.3966C41.6934 13.578 40.92 11.68 40.3179 9.7251C39.6133 11.1754 39.1897 12.7464 39.0697 14.3547C38.9851 16.1359 38.7219 17.9042 38.284 19.6326C37.9509 18.5844 37.5573 17.5565 37.1052 16.554C36.6134 15.6371 35.7844 14.9478 34.794 14.6325C35.1764 15.8299 35.2401 17.1065 34.9788 18.3362C34.7614 19.5508 34.9739 20.8034 35.5797 21.8779C35.2219 21.8119 34.8848 21.6623 34.5956 21.4411C34.3065 21.2198 34.0734 20.9334 33.9157 20.6049C33.5331 19.8843 32.9351 19.3013 32.2054 18.938C32.4903 20.0337 32.5452 21.1767 32.3671 22.2947C32.4087 23.9375 32.8963 25.5379 33.7772 26.9244C32.8622 26.8719 31.9912 26.5131 31.304 25.9057C30.6048 25.2103 29.9917 24.4331 29.478 23.5909C29.9736 25.1971 30.3524 26.8372 30.6108 28.4983C30.647 29.5516 30.9093 30.5848 31.3799 31.5274C31.8505 32.4701 32.5183 33.3002 33.3379 33.9612C36.1167 35.1935 39.1633 35.6954 42.1898 35.4196C43.5209 35.483 44.8492 35.2432 46.0742 34.718C47.2993 34.1927 48.3894 33.3958 49.2624 32.3873C50.2813 30.8751 50.7765 29.0698 50.6722 27.2485C50.834 25.929 50.7184 23.0122 50.7184 23.0122ZM45.4025 33.0819C44.6851 33.9747 43.7203 34.635 42.6291 34.9799C41.0527 35.3196 39.4065 35.0639 38.0066 34.2622C36.9943 33.3459 36.0943 32.3126 35.3255 31.1836C35.8913 31.5279 36.52 31.7562 37.1746 31.8549C37.6428 31.9133 38.1163 31.9133 38.5845 31.8549L37.4057 29.8179C37.1191 29.0768 36.9477 28.2962 36.8973 27.5031C37.212 28.0097 37.5674 28.4897 37.9604 28.9382C38.5674 29.3342 39.2293 29.6384 39.9249 29.8411C39.7499 29.3917 39.6185 28.9267 39.5321 28.4522C39.3369 27.6727 39.4356 26.8485 39.8095 26.1374C40.2205 25.1469 40.5228 24.1144 40.7109 23.0585C41.4218 23.8335 41.9927 24.7265 42.3981 25.6974C42.0382 25.6167 41.6632 25.6334 41.3118 25.7455C40.9605 25.8576 40.6452 26.0612 40.3983 26.3355C40.1514 26.6098 39.9819 26.9448 39.9068 27.3064C39.8318 27.668 39.8541 28.043 39.9714 28.3932C40.0887 28.7433 40.2967 29.056 40.5743 29.2991C40.852 29.5421 41.1892 29.7068 41.5514 29.7763C41.9135 29.8459 42.2879 29.8179 42.6356 29.695C42.9834 29.5721 43.2922 29.3588 43.5305 29.077C44.1376 28.7863 44.686 28.3861 45.1483 27.8964C45.137 28.6785 45.0283 29.4561 44.8247 30.2112C44.4273 30.8723 43.9369 31.4727 43.3686 31.9937C43.6929 32.1466 44.0589 32.1874 44.4088 32.1095C45.0762 31.9012 45.7192 31.6219 46.327 31.2762C46.0694 31.9027 45.7601 32.5067 45.4025 33.0819Z" fill="#B62D39"/>
</svg>
