<svg width="81" height="81" viewBox="0 0 81 81" fill="none" xmlns="http://www.w3.org/2000/svg">
<path d="M78.281 38.1919L42.3177 2.12439C41.1478 0.951121 39.2511 0.951121 38.0812 2.12439L2.11821 38.1916C0.948338 39.3649 0.948336 41.2671 2.11821 42.4404L38.0816 78.5079C39.2514 79.6812 41.1482 79.6812 42.318 78.5079L78.281 42.4407C79.4509 41.2674 79.4509 39.3652 78.281 38.1919Z" fill="#FFE800"/>
<path d="M73.3462 38.2191L42.3458 7.1289C41.1759 5.95564 39.2792 5.95564 38.1093 7.1289L7.10871 38.2193C5.93884 39.3926 5.93883 41.2948 7.10871 42.4681L38.1091 73.5583C39.279 74.7316 41.1757 74.7316 42.3456 73.5583L73.3462 42.4679C74.5161 41.2946 74.5161 39.3924 73.3462 38.2191Z" stroke="#393940" stroke-width="2" stroke-miterlimit="10"/>
<path d="M39.9863 28.7135C42.8578 28.7074 45.6667 29.536 48.0583 31.0947C50.4499 32.6533 52.3169 34.872 53.4235 37.4707C54.5301 40.0693 54.8267 42.9313 54.2758 45.6952C53.725 48.4591 52.3513 51.0009 50.3284 52.9995C48.3054 54.9982 45.724 56.3641 42.91 56.9247C40.096 57.4854 37.1757 57.2156 34.5179 56.1495C31.8602 55.0834 29.5841 53.2688 27.9773 50.9349C26.3705 48.6009 25.5049 45.8522 25.4899 43.0361H22.3317L27.1954 37.2996L32.0591 43.0361H28.8629C28.8894 45.7043 29.9121 48.2705 31.7376 50.2492C33.563 52.2278 36.0646 53.4817 38.769 53.7736C41.4734 54.0655 44.1931 53.3751 46.4136 51.8332C48.6341 50.2912 50.2014 48.0046 50.8189 45.4059C51.4364 42.8072 51.0613 40.0766 49.7647 37.7307C48.468 35.3849 46.3397 33.5865 43.7823 32.6758C41.2249 31.765 38.4159 31.8052 35.8866 32.7885C33.3573 33.7718 31.2833 35.6302 30.0568 38.012L27.7639 35.2925C29.0728 33.275 30.8799 31.6144 33.0176 30.4643C35.1553 29.3142 37.5544 28.712 39.9926 28.7135H39.9863ZM41.0665 41.0227C41.4795 41.2365 41.8077 41.5798 41.9986 41.9979C42.1895 42.4159 42.2323 42.8846 42.12 43.3292C42.0077 43.7738 41.7468 44.1687 41.379 44.451C41.0112 44.7333 40.5576 44.8867 40.0905 44.8867C39.6235 44.8867 39.1699 44.7333 38.8021 44.451C38.4343 44.1687 38.1734 43.7738 38.0611 43.3292C37.9488 42.8846 37.9915 42.4159 38.1825 41.9979C38.3734 41.5798 38.7016 41.2365 39.1146 41.0227L39.3863 34.3323C39.4029 34.1604 39.4842 34.0008 39.6145 33.8846C39.7447 33.7684 39.9145 33.704 40.0905 33.704C40.2666 33.704 40.4364 33.7684 40.5666 33.8846C40.6968 34.0008 40.7782 34.1604 40.7948 34.3323L41.0665 41.0227ZM49.5685 27.6975L51.3939 28.9365C51.4526 28.9751 51.5028 29.0248 51.5417 29.0826C51.5805 29.1405 51.6071 29.2053 51.6201 29.2734C51.633 29.3415 51.632 29.4114 51.617 29.4791C51.6021 29.5468 51.5734 29.6108 51.5329 29.6675L50.3201 31.4021C50.2808 31.4597 50.2302 31.5089 50.1712 31.547C50.1122 31.585 50.0461 31.6112 49.9767 31.6239C49.9073 31.6366 49.836 31.6356 49.7669 31.6209C49.6979 31.6062 49.6326 31.5782 49.5748 31.5384L47.743 30.2994C47.6268 30.2183 47.5473 30.096 47.5214 29.9584C47.4955 29.8208 47.5251 29.6787 47.604 29.5622L48.8168 27.8277C48.8567 27.77 48.9079 27.7206 48.9675 27.6824C49.027 27.6443 49.0937 27.618 49.1636 27.6054C49.2335 27.5927 49.3053 27.5938 49.3748 27.6085C49.4443 27.6233 49.5102 27.6515 49.5685 27.6914V27.6975ZM41.9887 27.3073V28.3047C40.6886 28.1405 39.3725 28.1405 38.0724 28.3047V27.3197H36.6954C36.5535 27.3181 36.4179 27.2621 36.3176 27.1637C36.2172 27.0653 36.1601 26.9323 36.1585 26.7931V23.7514C36.1585 23.6117 36.2151 23.4779 36.3158 23.3791C36.4165 23.2804 36.553 23.2249 36.6954 23.2249H43.4036C43.5459 23.2249 43.6825 23.2804 43.7832 23.3791C43.8839 23.4779 43.9405 23.6117 43.9405 23.7514V26.7931C43.9388 26.9323 43.8817 27.0653 43.7814 27.1637C43.6811 27.2621 43.5454 27.3181 43.4036 27.3197L41.9887 27.3073Z" fill="#393940"/>
</svg>
