<svg width="375" height="41" viewBox="0 0 375 41" fill="none" xmlns="http://www.w3.org/2000/svg">
<g style="mix-blend-mode:multiply" opacity="0.2">
<g style="mix-blend-mode:multiply">
<g style="mix-blend-mode:multiply">
<g style="mix-blend-mode:multiply">
<path d="M310.635 0.03125V41.0002H313.808V0.03125H310.635ZM332.121 16.7709V4.51223C332.121 3.3238 331.758 2.18407 331.11 1.34372C330.462 0.503378 329.583 0.03125 328.667 0.03125H327.823V41.0002H332.136V25.7521C331.22 25.7521 330.341 25.28 329.694 24.4396C329.046 23.5993 328.682 22.4595 328.682 21.2711C328.682 20.0827 329.046 18.943 329.694 18.1026C330.341 17.2623 331.22 16.7901 332.136 16.7901L332.121 16.7709Z" fill="#BFBFBF"/>
</g>
<g style="mix-blend-mode:multiply">
<path d="M281.895 0.0311596H269.879C269.28 0.0204974 268.691 0.224316 268.176 0.620117V40.4113C268.692 40.804 269.281 41.0075 269.879 41.0001H281.895C282.811 41.0001 283.69 40.528 284.338 39.6877C284.986 38.8473 285.349 37.7076 285.349 36.5192V4.51214C285.349 3.32371 284.986 2.18398 284.338 1.34364C283.69 0.503288 282.811 0.0311596 281.895 0.0311596V0.0311596ZM279.033 32.8064H272.716V8.21858H279.028L279.033 32.8064Z" fill="#BFBFBF"/>
</g>
<g style="mix-blend-mode:multiply">
<path d="M190.883 10.7533V8.19277H184.926V16.3866H193.725C194.641 16.3866 195.52 16.8587 196.168 17.6991C196.816 18.5394 197.18 19.6792 197.18 20.8676V36.3398C197.18 37.5282 196.816 38.6679 196.168 39.5082C195.52 40.3486 194.641 40.8207 193.725 40.8207H182.503V30.0728H184.66V32.6334H190.883V24.5868H182.494V-0.000976562H193.715C194.631 -0.000976562 195.51 0.471073 196.158 1.31142C196.806 2.15177 197.17 3.29158 197.17 4.48001V10.7214L190.883 10.7533Z" fill="#BFBFBF"/>
</g>
<g style="mix-blend-mode:multiply">
<path d="M222.243 0.03125V41.0002H228.165V0.03125H222.243ZM242.565 0.818687V23.8253C243.033 23.4172 243.417 22.8653 243.681 22.2187C243.945 21.5721 244.082 20.8507 244.08 20.1188V4.51223C244.083 3.78189 243.946 3.06193 243.682 2.41716C243.418 1.77239 243.034 1.22313 242.565 0.818687V0.818687Z" fill="#BFBFBF"/>
</g>
<g style="mix-blend-mode:multiply">
<path d="M142.483 0.03125V8.22505H140.736V41.0002H134.404V0.03125H142.483Z" fill="#BFBFBF"/>
</g>
<g style="mix-blend-mode:multiply">
<path d="M105.506 0.0312913H96.8502V8.21871H102.663V16.3869H96.8502V24.5999H102.663V40.9811H108.975V4.49313C108.973 3.90468 108.882 3.32248 108.706 2.77978C108.531 2.23709 108.275 1.74449 107.953 1.33017C107.631 0.915855 107.249 0.587895 106.829 0.365036C106.409 0.142178 105.96 0.028764 105.506 0.0312913V0.0312913Z" fill="#BFBFBF"/>
</g>
<g style="mix-blend-mode:multiply">
<path d="M56.8289 8.21866V0.03125H45.8589V41.0002H52.1853V24.619H56.8289V16.3868H52.1853V8.19944L56.8289 8.21866Z" fill="#BFBFBF"/>
</g>
<g style="mix-blend-mode:multiply">
<path d="M370.929 0.03125V8.22505H367.489V41.0002H361.178V8.22505H354.861V0.03125H370.929Z" fill="#BFBFBF"/>
</g>
<g style="mix-blend-mode:multiply">
<path d="M20.6668 0.03125V8.22505H14.3355V41.0002H11.1821V0.03125H20.6668Z" fill="#BFBFBF"/>
</g>
</g>
<g style="mix-blend-mode:multiply">
<g style="mix-blend-mode:multiply">
<path d="M314.968 -0.974609V39.9943H318.117V23.6132H324.428V39.9943H326.447V-0.974609H314.968ZM324.423 15.4002H318.117V7.21281H324.428L324.423 15.4002Z" fill="#CFCFCF"/>
</g>
<g style="mix-blend-mode:multiply">
<path d="M264.697 3.50031V35.5074C264.694 36.305 264.856 37.0891 265.167 37.7773C265.478 38.4655 265.926 39.0324 266.464 39.4186V-0.378906C265.929 0.00306583 265.482 0.564565 265.171 1.247C264.861 1.92943 264.697 2.70769 264.697 3.50031Z" fill="#CFCFCF"/>
</g>
<g style="mix-blend-mode:multiply">
<path d="M180.791 -0.974609V23.6132H180.372C179.456 23.6132 178.577 23.1411 177.929 22.3007C177.281 21.4604 176.917 20.3207 176.917 19.1322V3.51919C176.917 2.33076 177.281 1.19095 177.929 0.350604C178.577 -0.489744 179.456 -0.961794 180.372 -0.961794L180.791 -0.974609Z" fill="#CFCFCF"/>
</g>
<g style="mix-blend-mode:multiply">
<path d="M176.636 29.125H180.791V39.8729H180.105C179.189 39.8729 178.31 39.4008 177.662 38.5604C177.014 37.7201 176.651 36.5804 176.651 35.3919L176.636 29.125Z" fill="#CFCFCF"/>
</g>
<g style="mix-blend-mode:multiply">
<path d="M239.185 -0.974263H229.67V39.9946H230.075V23.6135H239.185C239.891 23.6262 240.582 23.3483 241.159 22.8197V-0.186904C240.58 -0.710428 239.89 -0.985763 239.185 -0.974263V-0.974263ZM236.327 15.4005H230.075V7.21314H236.327V15.4005Z" fill="#CFCFCF"/>
</g>
<g style="mix-blend-mode:multiply">
<path d="M155.426 3.50025V39.9883H149.115V7.20669H144.535V-0.980733H151.937C152.394 -0.986655 152.847 -0.875151 153.27 -0.652614C153.693 -0.430076 154.078 -0.100887 154.402 0.315802C154.727 0.732491 154.984 1.22843 155.16 1.77503C155.336 2.32163 155.426 2.90801 155.426 3.50025Z" fill="#CFCFCF"/>
</g>
<g style="mix-blend-mode:multiply">
<path d="M95.1379 7.21281V-0.974609H91.7772C90.8611 -0.974609 89.9825 -0.502481 89.3347 0.337866C88.6868 1.17821 88.3229 2.31794 88.3229 3.50637V39.9943H94.6543V23.6132H95.1477V15.4002H94.6543V7.21281H95.1379Z" fill="#CFCFCF"/>
</g>
<g style="mix-blend-mode:multiply">
<path d="M67.0934 15.7461V3.48099C67.0934 2.29256 66.7295 1.15282 66.0817 0.312477C65.4339 -0.527871 64.5552 -1 63.6391 -1H59.1238V7.18743H60.7967V15.3749H59.1238V23.5878H60.7967V39.9691H67.1082V23.5878C67.066 22.7045 66.7869 21.8681 66.3191 21.2239C65.8512 20.5796 65.2244 20.1681 64.5471 20.0607C65.2773 19.8026 65.9219 19.2407 66.3819 18.4612C66.842 17.6817 67.0919 16.7278 67.0934 15.7461V15.7461Z" fill="#CFCFCF"/>
</g>
<g style="mix-blend-mode:multiply">
<path d="M375 -0.974609H372.108V7.21279H375V-0.974609Z" fill="#CFCFCF"/>
</g>
<g style="mix-blend-mode:multiply">
<path d="M9.46987 -0.974609V39.9944H6.3116V7.21279H0V-0.974609H9.46987Z" fill="#CFCFCF"/>
</g>
</g>
<g style="mix-blend-mode:multiply">
<path d="M9.46985 -0.974609L11.1822 0.0304124V40.9995L9.46985 39.9944V-0.974609Z" fill="#4F4F4F"/>
</g>
<g style="mix-blend-mode:multiply">
<path d="M59.109 -0.974609L56.8291 0.0304113V8.22421L59.109 7.21279V-0.974609Z" fill="#4F4F4F"/>
</g>
<g style="mix-blend-mode:multiply">
<path d="M56.8291 16.4118L59.109 15.4067V23.6133L56.8291 24.6184V16.4118Z" fill="#4F4F4F"/>
</g>
<g style="mix-blend-mode:multiply">
<path d="M95.1378 -0.974609L96.8502 0.0304113V8.22421L95.1378 7.21279V-0.974609Z" fill="#4F4F4F"/>
</g>
<g style="mix-blend-mode:multiply">
<path d="M95.1378 15.4067L96.8502 16.4118V24.6184L95.1378 23.6133V15.4067Z" fill="#4F4F4F"/>
</g>
<g style="mix-blend-mode:multiply">
<path d="M142.482 0.0304113L144.535 -0.974609V7.21279L142.482 8.22421V0.0304113Z" fill="#4F4F4F"/>
</g>
<g style="mix-blend-mode:multiply">
<path d="M180.796 -0.974609L182.503 0.0304113V24.6182L180.796 23.6132V-0.974609Z" fill="#4F4F4F"/>
</g>
<g style="mix-blend-mode:multiply">
<path d="M180.796 29.1318L182.503 30.1369V40.8784L180.796 39.8734V29.1318Z" fill="#4F4F4F"/>
</g>
<g style="mix-blend-mode:multiply">
<path d="M228.155 0.0304124L229.67 -0.974609V39.9944L228.155 40.9995V0.0304124Z" fill="#4F4F4F"/>
</g>
<g style="mix-blend-mode:multiply">
<path d="M241.139 -0.180664L242.57 0.824357V23.831L241.139 22.826V-0.180664Z" fill="#4F4F4F"/>
</g>
<g style="mix-blend-mode:multiply">
<path d="M266.464 -0.385254L268.176 0.619767V40.4109L266.464 39.4059V-0.385254Z" fill="#4F4F4F"/>
</g>
<g style="mix-blend-mode:multiply">
<path d="M313.809 0.0304124L314.973 -0.974609V39.9944L313.809 40.9995V0.0304124Z" fill="#4F4F4F"/>
</g>
<g style="mix-blend-mode:multiply">
<path d="M326.441 -0.974609L327.808 0.0304124V40.9995L326.441 39.9944V-0.974609Z" fill="#4F4F4F"/>
</g>
<g style="mix-blend-mode:multiply">
<path d="M370.929 0.0304113L372.108 -0.974609V7.21279L370.929 8.22421V0.0304113Z" fill="#4F4F4F"/>
</g>
</g>
</g>
</svg>
