<svg width="98" height="88" viewBox="0 0 98 88" fill="none" xmlns="http://www.w3.org/2000/svg">
<path d="M90.3318 41.5257L50.8507 2.11931C49.678 0.948848 47.7767 0.948851 46.6041 2.11931L7.12334 41.5254C5.95066 42.6958 5.95066 44.5935 7.12334 45.764L46.6044 85.1704C47.7771 86.3409 49.6784 86.3409 50.8511 85.1704L90.3318 45.7644C91.5045 44.5939 91.5045 42.6962 90.3318 41.5257Z" fill="#FFE800"/>
<mask id="mask0_734_1002" style="mask-type:alpha" maskUnits="userSpaceOnUse" x="6" y="1" width="86" height="86">
<path d="M90.3318 41.5257L50.8507 2.11931C49.678 0.948848 47.7767 0.948851 46.6041 2.11931L7.12334 41.5254C5.95066 42.6958 5.95066 44.5935 7.12334 45.764L46.6044 85.1704C47.7771 86.3409 49.6784 86.3409 50.8511 85.1704L90.3318 45.7644C91.5045 44.5939 91.5045 42.6962 90.3318 41.5257Z" fill="#FFE800"/>
</mask>
<g mask="url(#mask0_734_1002)">
<rect x="5" y="43.4067" width="91.3353" height="47.3836" fill="white"/>
</g>
<path d="M84.9637 41.5564L50.881 7.53826C49.7084 6.36779 47.8071 6.36779 46.6344 7.53826L12.5516 41.5566C11.3789 42.7271 11.3789 44.6248 12.5516 45.7952L46.6342 79.8134C47.8069 80.9838 49.7082 80.9838 50.8809 79.8134L84.9637 45.795C86.1364 44.6246 86.1364 42.7269 84.9637 41.5564Z" stroke="#393940" stroke-width="2" stroke-miterlimit="10"/>
<path d="M31.0272 43.8037V41.7037L36.4272 36.6037C36.8539 36.217 37.1672 35.8704 37.3672 35.5637C37.5672 35.257 37.7005 34.977 37.7672 34.7237C37.8472 34.4704 37.8872 34.237 37.8872 34.0237C37.8872 33.4637 37.6939 33.037 37.3072 32.7437C36.9339 32.437 36.3805 32.2837 35.6472 32.2837C35.0605 32.2837 34.5139 32.397 34.0072 32.6237C33.5139 32.8504 33.0939 33.2037 32.7472 33.6837L30.3872 32.1637C30.9205 31.3637 31.6672 30.7304 32.6272 30.2637C33.5872 29.797 34.6939 29.5637 35.9472 29.5637C36.9872 29.5637 37.8939 29.737 38.6672 30.0837C39.4539 30.417 40.0605 30.8904 40.4872 31.5037C40.9272 32.117 41.1472 32.8504 41.1472 33.7037C41.1472 34.157 41.0872 34.6104 40.9672 35.0637C40.8605 35.5037 40.6339 35.9704 40.2872 36.4637C39.9539 36.957 39.4605 37.5104 38.8072 38.1237L34.3272 42.3437L33.7072 41.1637H41.6072V43.8037H31.0272ZM47.7041 44.0437C46.7307 44.0437 45.7641 43.917 44.8041 43.6637C43.8574 43.397 43.0441 43.0237 42.3641 42.5437L43.6441 40.0637C44.1774 40.4504 44.7907 40.757 45.4841 40.9837C46.1907 41.2104 46.9041 41.3237 47.6241 41.3237C48.4374 41.3237 49.0774 41.1637 49.5441 40.8437C50.0107 40.5237 50.2441 40.077 50.2441 39.5037C50.2441 39.1437 50.1507 38.8237 49.9641 38.5437C49.7774 38.2637 49.4441 38.0504 48.9641 37.9037C48.4974 37.757 47.8374 37.6837 46.9841 37.6837H43.4041L44.1241 29.8037H52.6641V32.4037H45.2841L46.9641 30.9237L46.4641 36.5437L44.7841 35.0637H47.7441C49.1307 35.0637 50.2441 35.257 51.0841 35.6437C51.9374 36.017 52.5574 36.5304 52.9441 37.1837C53.3307 37.837 53.5241 38.577 53.5241 39.4037C53.5241 40.2304 53.3174 40.997 52.9041 41.7037C52.4907 42.397 51.8507 42.9637 50.9841 43.4037C50.1307 43.8304 49.0374 44.0437 47.7041 44.0437ZM60.8386 44.0437C59.6919 44.0437 58.6653 43.7637 57.7586 43.2037C56.8519 42.6304 56.1386 41.8037 55.6186 40.7237C55.0986 39.6437 54.8386 38.337 54.8386 36.8037C54.8386 35.2704 55.0986 33.9637 55.6186 32.8837C56.1386 31.8037 56.8519 30.9837 57.7586 30.4237C58.6653 29.8504 59.6919 29.5637 60.8386 29.5637C61.9986 29.5637 63.0253 29.8504 63.9186 30.4237C64.8253 30.9837 65.5386 31.8037 66.0586 32.8837C66.5786 33.9637 66.8386 35.2704 66.8386 36.8037C66.8386 38.337 66.5786 39.6437 66.0586 40.7237C65.5386 41.8037 64.8253 42.6304 63.9186 43.2037C63.0253 43.7637 61.9986 44.0437 60.8386 44.0437ZM60.8386 41.3037C61.3853 41.3037 61.8586 41.1504 62.2586 40.8437C62.6719 40.537 62.9919 40.0504 63.2186 39.3837C63.4586 38.717 63.5786 37.857 63.5786 36.8037C63.5786 35.7504 63.4586 34.8904 63.2186 34.2237C62.9919 33.557 62.6719 33.0704 62.2586 32.7637C61.8586 32.457 61.3853 32.3037 60.8386 32.3037C60.3053 32.3037 59.8319 32.457 59.4186 32.7637C59.0186 33.0704 58.6986 33.557 58.4586 34.2237C58.2319 34.8904 58.1186 35.7504 58.1186 36.8037C58.1186 37.857 58.2319 38.717 58.4586 39.3837C58.6986 40.0504 59.0186 40.537 59.4186 40.8437C59.8319 41.1504 60.3053 41.3037 60.8386 41.3037ZM35.7137 52.8037V49.3957H34.3697V48.6037H38.0297V49.3957H36.6857V52.8037H35.7137ZM38.5527 52.8037V48.6037H40.3707C40.7467 48.6037 41.0707 48.6657 41.3427 48.7897C41.6147 48.9097 41.8247 49.0837 41.9727 49.3117C42.1207 49.5397 42.1947 49.8117 42.1947 50.1277C42.1947 50.4397 42.1207 50.7097 41.9727 50.9377C41.8247 51.1617 41.6147 51.3337 41.3427 51.4537C41.0707 51.5737 40.7467 51.6337 40.3707 51.6337H39.0927L39.5247 51.2077V52.8037H38.5527ZM41.2227 52.8037L40.1727 51.2797H41.2107L42.2727 52.8037H41.2227ZM39.5247 51.3157L39.0927 50.8597H40.3167C40.6167 50.8597 40.8407 50.7957 40.9887 50.6677C41.1367 50.5357 41.2107 50.3557 41.2107 50.1277C41.2107 49.8957 41.1367 49.7157 40.9887 49.5877C40.8407 49.4597 40.6167 49.3957 40.3167 49.3957H39.0927L39.5247 48.9337V51.3157ZM44.8308 52.8757C44.2348 52.8757 43.7688 52.7097 43.4328 52.3777C43.0968 52.0457 42.9288 51.5717 42.9288 50.9557V48.6037H43.9008V50.9197C43.9008 51.3197 43.9828 51.6077 44.1468 51.7837C44.3108 51.9597 44.5408 52.0477 44.8368 52.0477C45.1328 52.0477 45.3628 51.9597 45.5268 51.7837C45.6908 51.6077 45.7728 51.3197 45.7728 50.9197V48.6037H46.7328V50.9557C46.7328 51.5717 46.5648 52.0457 46.2288 52.3777C45.8928 52.7097 45.4268 52.8757 44.8308 52.8757ZM49.0733 52.8757C48.7373 52.8757 48.4153 52.8317 48.1073 52.7437C47.7993 52.6517 47.5513 52.5337 47.3633 52.3897L47.6933 51.6577C47.8733 51.7857 48.0853 51.8917 48.3293 51.9757C48.5773 52.0557 48.8273 52.0957 49.0793 52.0957C49.2713 52.0957 49.4253 52.0777 49.5413 52.0417C49.6613 52.0017 49.7493 51.9477 49.8053 51.8797C49.8613 51.8117 49.8893 51.7337 49.8893 51.6457C49.8893 51.5337 49.8453 51.4457 49.7573 51.3817C49.6693 51.3137 49.5533 51.2597 49.4093 51.2197C49.2653 51.1757 49.1053 51.1357 48.9293 51.0997C48.7573 51.0597 48.5833 51.0117 48.4073 50.9557C48.2353 50.8997 48.0773 50.8277 47.9333 50.7397C47.7893 50.6517 47.6713 50.5357 47.5793 50.3917C47.4913 50.2477 47.4473 50.0637 47.4473 49.8397C47.4473 49.5997 47.5113 49.3817 47.6393 49.1857C47.7713 48.9857 47.9673 48.8277 48.2273 48.7117C48.4913 48.5917 48.8213 48.5317 49.2173 48.5317C49.4813 48.5317 49.7413 48.5637 49.9973 48.6277C50.2533 48.6877 50.4793 48.7797 50.6753 48.9037L50.3753 49.6417C50.1793 49.5297 49.9833 49.4477 49.7873 49.3957C49.5913 49.3397 49.3993 49.3117 49.2113 49.3117C49.0233 49.3117 48.8693 49.3337 48.7493 49.3777C48.6293 49.4217 48.5433 49.4797 48.4913 49.5517C48.4393 49.6197 48.4133 49.6997 48.4133 49.7917C48.4133 49.8997 48.4573 49.9877 48.5453 50.0557C48.6333 50.1197 48.7493 50.1717 48.8933 50.2117C49.0373 50.2517 49.1953 50.2917 49.3673 50.3317C49.5433 50.3717 49.7173 50.4177 49.8893 50.4697C50.0653 50.5217 50.2253 50.5917 50.3693 50.6797C50.5133 50.7677 50.6293 50.8837 50.7173 51.0277C50.8093 51.1717 50.8553 51.3537 50.8553 51.5737C50.8553 51.8097 50.7893 52.0257 50.6573 52.2217C50.5253 52.4177 50.3273 52.5757 50.0633 52.6957C49.8033 52.8157 49.4733 52.8757 49.0733 52.8757ZM52.3309 52.8037V49.3957H50.9869V48.6037H54.6469V49.3957H53.3029V52.8037H52.3309ZM56.0639 50.2957H58.0859V51.0517H56.0639V50.2957ZM56.1359 52.0237H58.4219V52.8037H55.1699V48.6037H58.3439V49.3837H56.1359V52.0237ZM59.1953 52.8037V48.6037H61.1033C61.5593 48.6037 61.9613 48.6917 62.3093 48.8677C62.6573 49.0397 62.9293 49.2817 63.1253 49.5937C63.3213 49.9057 63.4193 50.2757 63.4193 50.7037C63.4193 51.1277 63.3213 51.4977 63.1253 51.8137C62.9293 52.1257 62.6573 52.3697 62.3093 52.5457C61.9613 52.7177 61.5593 52.8037 61.1033 52.8037H59.1953ZM60.1673 52.0057H61.0553C61.3353 52.0057 61.5773 51.9537 61.7813 51.8497C61.9893 51.7417 62.1493 51.5897 62.2613 51.3937C62.3773 51.1977 62.4353 50.9677 62.4353 50.7037C62.4353 50.4357 62.3773 50.2057 62.2613 50.0137C62.1493 49.8177 61.9893 49.6677 61.7813 49.5637C61.5773 49.4557 61.3353 49.4017 61.0553 49.4017H60.1673V52.0057Z" fill="#131313"/>
</svg>
