<svg width="12" height="18" viewBox="0 0 12 18" fill="none" xmlns="http://www.w3.org/2000/svg">
<mask id="path-1-outside-1_734_1024" maskUnits="userSpaceOnUse" x="0.0724487" y="-0.242188" width="12" height="19" fill="black">
<rect fill="white" x="0.0724487" y="-0.242188" width="12" height="19"/>
<path fill-rule="evenodd" clip-rule="evenodd" d="M3.57048 9.10528L10.0724 2.54289L9.28007 1.75781L1.99999 9.10554L2.1304 9.23475L2.12946 9.23569L9.27554 16.4482L10.0679 15.6631L3.57048 9.10528Z"/>
</mask>
<path fill-rule="evenodd" clip-rule="evenodd" d="M3.57048 9.10528L10.0724 2.54289L9.28007 1.75781L1.99999 9.10554L2.1304 9.23475L2.12946 9.23569L9.27554 16.4482L10.0679 15.6631L3.57048 9.10528Z" fill="#393940"/>
<path d="M10.0724 2.54289L10.7763 1.83252L11.4866 2.53635L10.7828 3.24672L10.0724 2.54289ZM3.57048 9.10528L2.86011 9.80911L2.16276 9.10528L2.86011 8.40145L3.57048 9.10528ZM9.28007 1.75781L8.56971 1.05398L9.27353 0.343614L9.9839 1.04744L9.28007 1.75781ZM1.99999 9.10554L1.29616 9.81591L0.585792 9.11208L1.28962 8.40171L1.99999 9.10554ZM2.1304 9.23475L2.83423 8.52438L3.55117 9.23472L2.83426 9.94509L2.1304 9.23475ZM2.12946 9.23569L1.41909 9.93952L0.715295 9.22918L1.4256 8.52535L2.12946 9.23569ZM9.27554 16.4482L9.97937 17.1585L9.269 17.8624L8.56517 17.152L9.27554 16.4482ZM10.0679 15.6631L10.7783 14.9593L11.4821 15.6696L10.7717 16.3735L10.0679 15.6631ZM10.7828 3.24672L4.28085 9.80911L2.86011 8.40145L9.36208 1.83906L10.7828 3.24672ZM9.9839 1.04744L10.7763 1.83252L9.36862 3.25326L8.57624 2.46818L9.9839 1.04744ZM1.28962 8.40171L8.56971 1.05398L9.99044 2.46164L2.71036 9.80937L1.28962 8.40171ZM1.42657 9.94512L1.29616 9.81591L2.70382 8.39517L2.83423 8.52438L1.42657 9.94512ZM2.83426 9.94509L2.83332 9.94602L1.4256 8.52535L1.42654 8.52442L2.83426 9.94509ZM2.83983 8.53186L9.98591 15.7443L8.56517 17.152L1.41909 9.93952L2.83983 8.53186ZM8.57171 15.7378L9.36409 14.9527L10.7717 16.3735L9.97937 17.1585L8.57171 15.7378ZM9.35755 16.3669L2.86011 9.80911L4.28085 8.40145L10.7783 14.9593L9.35755 16.3669Z" fill="#393940" mask="url(#path-1-outside-1_734_1024)"/>
</svg>
