<svg width="12" height="18" viewBox="0 0 12 18" fill="none" xmlns="http://www.w3.org/2000/svg">
<mask id="path-1-outside-1_734_1024" maskUnits="userSpaceOnUse" x="0" y="-0.242188" width="12" height="19" fill="black">
<rect fill="white" y="-0.242188" width="12" height="19"/>
<path fill-rule="evenodd" clip-rule="evenodd" d="M8.50197 9.10528L2 2.54289L2.79237 1.75781L10.0725 9.10554L9.94205 9.23475L9.94299 9.23569L2.79691 16.4482L2.00453 15.6631L8.50197 9.10528Z"/>
</mask>
<path fill-rule="evenodd" clip-rule="evenodd" d="M8.50197 9.10528L2 2.54289L2.79237 1.75781L10.0725 9.10554L9.94205 9.23475L9.94299 9.23569L2.79691 16.4482L2.00453 15.6631L8.50197 9.10528Z" fill="#393940"/>
<path d="M2 2.54289L1.29617 1.83252L0.585802 2.53635L1.28963 3.24672L2 2.54289ZM8.50197 9.10528L9.21234 9.80911L9.90969 9.10528L9.21234 8.40145L8.50197 9.10528ZM2.79237 1.75781L3.50274 1.05398L2.79891 0.343614L2.08855 1.04744L2.79237 1.75781ZM10.0725 9.10554L10.7763 9.81591L11.4867 9.11208L10.7828 8.40171L10.0725 9.10554ZM9.94205 9.23475L9.23822 8.52438L8.52128 9.23472L9.23818 9.94509L9.94205 9.23475ZM9.94299 9.23569L10.6534 9.93952L11.3572 9.22918L10.6468 8.52535L9.94299 9.23569ZM2.79691 16.4482L2.09308 17.1585L2.80345 17.8624L3.50728 17.152L2.79691 16.4482ZM2.00453 15.6631L1.29416 14.9593L0.590333 15.6696L1.3007 16.3735L2.00453 15.6631ZM1.28963 3.24672L7.7916 9.80911L9.21234 8.40145L2.71037 1.83906L1.28963 3.24672ZM2.08855 1.04744L1.29617 1.83252L2.70383 3.25326L3.4962 2.46818L2.08855 1.04744ZM10.7828 8.40171L3.50274 1.05398L2.08201 2.46164L9.36209 9.80937L10.7828 8.40171ZM10.6459 9.94512L10.7763 9.81591L9.36863 8.39517L9.23822 8.52438L10.6459 9.94512ZM9.23818 9.94509L9.23913 9.94602L10.6468 8.52535L10.6459 8.52442L9.23818 9.94509ZM9.23262 8.53186L2.08654 15.7443L3.50728 17.152L10.6534 9.93952L9.23262 8.53186ZM3.50074 15.7378L2.70836 14.9527L1.3007 16.3735L2.09308 17.1585L3.50074 15.7378ZM2.7149 16.3669L9.21234 9.80911L7.7916 8.40145L1.29416 14.9593L2.7149 16.3669Z" fill="#393940" mask="url(#path-1-outside-1_734_1024)"/>
</svg>
