<svg width="97" height="88" viewBox="0 0 97 88" fill="none" xmlns="http://www.w3.org/2000/svg">
<path d="M89.3318 41.5257L49.8507 2.11931C48.6781 0.948848 46.7768 0.948851 45.6041 2.11931L6.12337 41.5254C4.95069 42.6958 4.95069 44.5935 6.12337 45.764L45.6044 85.1704C46.7771 86.3409 48.6784 86.3409 49.8511 85.1704L89.3318 45.7644C90.5045 44.5939 90.5045 42.6962 89.3318 41.5257Z" fill="#FFE800"/>
<mask id="mask0_734_995" style="mask-type:alpha" maskUnits="userSpaceOnUse" x="5" y="1" width="86" height="86">
<path d="M89.3318 41.5257L49.8507 2.11931C48.678 0.948848 46.7767 0.948851 45.604 2.11931L6.1233 41.5254C4.95062 42.6958 4.95063 44.5935 6.12331 45.764L45.6044 85.1704C46.7771 86.3409 48.6784 86.3409 49.851 85.1704L89.3318 45.7644C90.5044 44.5939 90.5044 42.6962 89.3318 41.5257Z" fill="#FFE800"/>
</mask>
<g mask="url(#mask0_734_995)">
<rect x="4.00012" y="43.4067" width="91.3353" height="47.3836" fill="white"/>
</g>
<path d="M83.9636 41.5564L49.881 7.53826C48.7083 6.36779 46.807 6.36779 45.6344 7.53826L11.5516 41.5566C10.3789 42.7271 10.3789 44.6248 11.5516 45.7952L45.6342 79.8134C46.8069 80.9838 48.7082 80.9838 49.8808 79.8134L83.9636 45.795C85.1363 44.6246 85.1363 42.7269 83.9636 41.5564Z" stroke="#393940" stroke-width="2" stroke-miterlimit="10"/>
<path d="M30.4588 47.8037V45.7037L35.8588 40.6037C36.2855 40.217 36.5988 39.8704 36.7988 39.5637C36.9988 39.257 37.1322 38.977 37.1988 38.7237C37.2788 38.4704 37.3188 38.237 37.3188 38.0237C37.3188 37.4637 37.1255 37.037 36.7388 36.7437C36.3655 36.437 35.8122 36.2837 35.0788 36.2837C34.4922 36.2837 33.9455 36.397 33.4388 36.6237C32.9455 36.8504 32.5255 37.2037 32.1788 37.6837L29.8188 36.1637C30.3522 35.3637 31.0988 34.7304 32.0588 34.2637C33.0188 33.797 34.1255 33.5637 35.3788 33.5637C36.4188 33.5637 37.3255 33.737 38.0988 34.0837C38.8855 34.417 39.4922 34.8904 39.9188 35.5037C40.3588 36.117 40.5788 36.8504 40.5788 37.7037C40.5788 38.157 40.5188 38.6104 40.3988 39.0637C40.2922 39.5037 40.0655 39.9704 39.7188 40.4637C39.3855 40.957 38.8922 41.5104 38.2388 42.1237L33.7588 46.3437L33.1388 45.1637H41.0388V47.8037H30.4588ZM48.3757 48.0437C47.229 48.0437 46.2024 47.7637 45.2957 47.2037C44.389 46.6304 43.6757 45.8037 43.1557 44.7237C42.6357 43.6437 42.3757 42.337 42.3757 40.8037C42.3757 39.2704 42.6357 37.9637 43.1557 36.8837C43.6757 35.8037 44.389 34.9837 45.2957 34.4237C46.2024 33.8504 47.229 33.5637 48.3757 33.5637C49.5357 33.5637 50.5624 33.8504 51.4557 34.4237C52.3624 34.9837 53.0757 35.8037 53.5957 36.8837C54.1157 37.9637 54.3757 39.2704 54.3757 40.8037C54.3757 42.337 54.1157 43.6437 53.5957 44.7237C53.0757 45.8037 52.3624 46.6304 51.4557 47.2037C50.5624 47.7637 49.5357 48.0437 48.3757 48.0437ZM48.3757 45.3037C48.9224 45.3037 49.3957 45.1504 49.7957 44.8437C50.209 44.537 50.529 44.0504 50.7557 43.3837C50.9957 42.717 51.1157 41.857 51.1157 40.8037C51.1157 39.7504 50.9957 38.8904 50.7557 38.2237C50.529 37.557 50.209 37.0704 49.7957 36.7637C49.3957 36.457 48.9224 36.3037 48.3757 36.3037C47.8424 36.3037 47.369 36.457 46.9557 36.7637C46.5557 37.0704 46.2357 37.557 45.9957 38.2237C45.769 38.8904 45.6557 39.7504 45.6557 40.8037C45.6557 41.857 45.769 42.717 45.9957 43.3837C46.2357 44.0504 46.5557 44.537 46.9557 44.8437C47.369 45.1504 47.8424 45.3037 48.3757 45.3037ZM59.9285 45.4237V36.1837H62.5085V45.4237H59.9285ZM56.4685 42.0237V39.5837H65.9885V42.0237H56.4685ZM39.6035 54.8037V53.0877L39.8255 53.6757L37.9775 50.6037H39.0095L40.4255 52.9617H39.8315L41.2535 50.6037H42.2075L40.3595 53.6757L40.5755 53.0877V54.8037H39.6035ZM43.4731 52.2957H45.4951V53.0517H43.4731V52.2957ZM43.5451 54.0237H45.8311V54.8037H42.5791V50.6037H45.7531V51.3837H43.5451V54.0237ZM46.0524 54.8037L47.9244 50.6037H48.8844L50.7624 54.8037H49.7424L48.2064 51.0957H48.5904L47.0484 54.8037H46.0524ZM46.9884 53.9037L47.2464 53.1657H49.4064L49.6704 53.9037H46.9884ZM51.1982 54.8037V50.6037H53.0162C53.3922 50.6037 53.7162 50.6657 53.9882 50.7897C54.2602 50.9097 54.4702 51.0837 54.6182 51.3117C54.7662 51.5397 54.8402 51.8117 54.8402 52.1277C54.8402 52.4397 54.7662 52.7097 54.6182 52.9377C54.4702 53.1617 54.2602 53.3337 53.9882 53.4537C53.7162 53.5737 53.3922 53.6337 53.0162 53.6337H51.7382L52.1702 53.2077V54.8037H51.1982ZM53.8682 54.8037L52.8182 53.2797H53.8562L54.9182 54.8037H53.8682ZM52.1702 53.3157L51.7382 52.8597H52.9622C53.2622 52.8597 53.4862 52.7957 53.6342 52.6677C53.7822 52.5357 53.8562 52.3557 53.8562 52.1277C53.8562 51.8957 53.7822 51.7157 53.6342 51.5877C53.4862 51.4597 53.2622 51.3957 52.9622 51.3957H51.7382L52.1702 50.9337V53.3157ZM56.9903 54.8757C56.6543 54.8757 56.3323 54.8317 56.0243 54.7437C55.7163 54.6517 55.4683 54.5337 55.2803 54.3897L55.6103 53.6577C55.7903 53.7857 56.0023 53.8917 56.2463 53.9757C56.4943 54.0557 56.7443 54.0957 56.9963 54.0957C57.1883 54.0957 57.3423 54.0777 57.4583 54.0417C57.5783 54.0017 57.6663 53.9477 57.7223 53.8797C57.7783 53.8117 57.8063 53.7337 57.8063 53.6457C57.8063 53.5337 57.7623 53.4457 57.6743 53.3817C57.5863 53.3137 57.4703 53.2597 57.3263 53.2197C57.1823 53.1757 57.0223 53.1357 56.8463 53.0997C56.6743 53.0597 56.5003 53.0117 56.3243 52.9557C56.1523 52.8997 55.9943 52.8277 55.8503 52.7397C55.7063 52.6517 55.5883 52.5357 55.4963 52.3917C55.4083 52.2477 55.3643 52.0637 55.3643 51.8397C55.3643 51.5997 55.4283 51.3817 55.5563 51.1857C55.6883 50.9857 55.8843 50.8277 56.1443 50.7117C56.4083 50.5917 56.7383 50.5317 57.1343 50.5317C57.3983 50.5317 57.6583 50.5637 57.9143 50.6277C58.1703 50.6877 58.3963 50.7797 58.5923 50.9037L58.2923 51.6417C58.0963 51.5297 57.9003 51.4477 57.7043 51.3957C57.5083 51.3397 57.3163 51.3117 57.1283 51.3117C56.9403 51.3117 56.7863 51.3337 56.6663 51.3777C56.5463 51.4217 56.4603 51.4797 56.4083 51.5517C56.3563 51.6197 56.3303 51.6997 56.3303 51.7917C56.3303 51.8997 56.3743 51.9877 56.4623 52.0557C56.5503 52.1197 56.6663 52.1717 56.8103 52.2117C56.9543 52.2517 57.1123 52.2917 57.2843 52.3317C57.4603 52.3717 57.6343 52.4177 57.8063 52.4697C57.9823 52.5217 58.1423 52.5917 58.2863 52.6797C58.4303 52.7677 58.5463 52.8837 58.6343 53.0277C58.7263 53.1717 58.7723 53.3537 58.7723 53.5737C58.7723 53.8097 58.7063 54.0257 58.5743 54.2217C58.4423 54.4177 58.2443 54.5757 57.9803 54.6957C57.7203 54.8157 57.3903 54.8757 56.9903 54.8757Z" fill="#131313"/>
</svg>
