<svg width="97" height="88" viewBox="0 0 97 88" fill="none" xmlns="http://www.w3.org/2000/svg">
<path d="M89.3318 41.5257L49.8507 2.11931C48.6781 0.948848 46.7768 0.948851 45.6041 2.11931L6.12337 41.5254C4.95069 42.6958 4.95069 44.5935 6.12337 45.764L45.6044 85.1704C46.7771 86.3409 48.6784 86.3409 49.8511 85.1704L89.3318 45.7644C90.5045 44.5939 90.5045 42.6962 89.3318 41.5257Z" fill="#FFE800"/>
<mask id="mask0_734_995" style="mask-type:alpha" maskUnits="userSpaceOnUse" x="5" y="1" width="86" height="86">
<path d="M89.3318 41.5257L49.8507 2.11931C48.678 0.948848 46.7767 0.948851 45.604 2.11931L6.1233 41.5254C4.95062 42.6958 4.95063 44.5935 6.12331 45.764L45.6044 85.1704C46.7771 86.3409 48.6784 86.3409 49.851 85.1704L89.3318 45.7644C90.5044 44.5939 90.5044 42.6962 89.3318 41.5257Z" fill="#FFE800"/>
</mask>
<g mask="url(#mask0_734_995)">
<rect x="4.00012" y="43.4067" width="91.3353" height="47.3836" fill="white"/>
</g>
<path d="M83.9636 41.5564L49.881 7.53826C48.7083 6.36779 46.807 6.36779 45.6344 7.53826L11.5516 41.5566C10.3789 42.7271 10.3789 44.6248 11.5516 45.7952L45.6342 79.8134C46.8069 80.9838 48.7082 80.9838 49.8808 79.8134L83.9636 45.795C85.1363 44.6246 85.1363 42.7269 83.9636 41.5564Z" stroke="#393940" stroke-width="2" stroke-miterlimit="10"/>
<path d="M41.0486 41.1637V43.8037H30.4686V41.7037L35.8686 36.6037C36.4419 36.057 36.8286 35.5904 37.0286 35.2037C37.2286 34.8037 37.3286 34.4104 37.3286 34.0237C37.3286 33.4637 37.1353 33.037 36.7486 32.7437C36.3753 32.437 35.8219 32.2837 35.0886 32.2837C34.4753 32.2837 33.9219 32.4037 33.4286 32.6437C32.9353 32.8704 32.5219 33.217 32.1886 33.6837L29.8286 32.1637C30.3753 31.3504 31.1286 30.717 32.0886 30.2637C33.0486 29.797 34.1486 29.5637 35.3886 29.5637C36.4286 29.5637 37.3353 29.737 38.1086 30.0837C38.8953 30.417 39.5019 30.897 39.9286 31.5237C40.3686 32.137 40.5886 32.8637 40.5886 33.7037C40.5886 34.4637 40.4286 35.177 40.1086 35.8437C39.7886 36.5104 39.1686 37.2704 38.2486 38.1237L35.0286 41.1637H41.0486ZM48.3464 44.0437C47.1864 44.0437 46.1531 43.757 45.2464 43.1837C44.3397 42.6104 43.6264 41.7837 43.1064 40.7037C42.5997 39.6104 42.3464 38.3104 42.3464 36.8037C42.3464 35.297 42.5997 34.0037 43.1064 32.9237C43.6264 31.8304 44.3397 30.997 45.2464 30.4237C46.1531 29.8504 47.1864 29.5637 48.3464 29.5637C49.5064 29.5637 50.5397 29.8504 51.4464 30.4237C52.3531 30.997 53.0597 31.8304 53.5664 32.9237C54.0864 34.0037 54.3464 35.297 54.3464 36.8037C54.3464 38.3104 54.0864 39.6104 53.5664 40.7037C53.0597 41.7837 52.3531 42.6104 51.4464 43.1837C50.5397 43.757 49.5064 44.0437 48.3464 44.0437ZM48.3464 41.3037C49.1997 41.3037 49.8664 40.937 50.3464 40.2037C50.8397 39.4704 51.0864 38.337 51.0864 36.8037C51.0864 35.2704 50.8397 34.137 50.3464 33.4037C49.8664 32.6704 49.1997 32.3037 48.3464 32.3037C47.5064 32.3037 46.8397 32.6704 46.3464 33.4037C45.8664 34.137 45.6264 35.2704 45.6264 36.8037C45.6264 38.337 45.8664 39.4704 46.3464 40.2037C46.8397 40.937 47.5064 41.3037 48.3464 41.3037ZM65.9788 38.0237H62.4988V41.4237H59.9188V38.0237H56.4588V35.5837H59.9188V32.1837H62.4988V35.5837H65.9788V38.0237ZM33.3451 46.6037V50.8037H32.3851V47.3957H30.9451L30.9151 48.2717C30.8951 48.8677 30.8471 49.3517 30.7711 49.7237C30.6951 50.0917 30.5671 50.3757 30.3871 50.5757C30.2111 50.7717 29.9631 50.8697 29.6431 50.8697C29.5111 50.8697 29.3511 50.8477 29.1631 50.8037L29.2231 49.9817C29.2751 49.9977 29.3331 50.0057 29.3971 50.0057C29.6291 50.0057 29.7911 49.8697 29.8831 49.5977C29.9751 49.3217 30.0331 48.8917 30.0571 48.3077L30.1171 46.6037H33.3451ZM37.6461 50.0237V50.8037H34.3941V46.6037H37.5681V47.3837H35.3601V48.2957H37.3101V49.0517H35.3601V50.0237H37.6461ZM41.6412 47.3957H40.2972V50.8037H39.3372V47.3957H37.9992V46.6037H41.6412V47.3957ZM45.9547 50.8757C45.5187 50.8757 45.1247 50.7817 44.7727 50.5937C44.4247 50.4057 44.1507 50.1477 43.9507 49.8197C43.7547 49.4877 43.6567 49.1157 43.6567 48.7037C43.6567 48.2917 43.7547 47.9217 43.9507 47.5937C44.1507 47.2617 44.4247 47.0017 44.7727 46.8137C45.1247 46.6257 45.5187 46.5317 45.9547 46.5317C46.3907 46.5317 46.7827 46.6257 47.1307 46.8137C47.4787 47.0017 47.7527 47.2617 47.9527 47.5937C48.1527 47.9217 48.2527 48.2917 48.2527 48.7037C48.2527 49.1157 48.1527 49.4877 47.9527 49.8197C47.7527 50.1477 47.4787 50.4057 47.1307 50.5937C46.7827 50.7817 46.3907 50.8757 45.9547 50.8757ZM45.9547 50.0477C46.2027 50.0477 46.4267 49.9917 46.6267 49.8797C46.8267 49.7637 46.9827 49.6037 47.0947 49.3997C47.2107 49.1957 47.2687 48.9637 47.2687 48.7037C47.2687 48.4437 47.2107 48.2117 47.0947 48.0077C46.9827 47.8037 46.8267 47.6457 46.6267 47.5337C46.4267 47.4177 46.2027 47.3597 45.9547 47.3597C45.7067 47.3597 45.4827 47.4177 45.2827 47.5337C45.0827 47.6457 44.9247 47.8037 44.8087 48.0077C44.6967 48.2117 44.6407 48.4437 44.6407 48.7037C44.6407 48.9637 44.6967 49.1957 44.8087 49.3997C44.9247 49.6037 45.0827 49.7637 45.2827 49.8797C45.4827 49.9917 45.7067 50.0477 45.9547 50.0477ZM52.8295 46.6037V50.8037H51.8635V47.3957H49.9675V50.8037H49.0015V46.6037H52.8295ZM55.9046 47.9837C56.4166 47.9837 56.8086 48.0977 57.0806 48.3257C57.3566 48.5537 57.4946 48.8917 57.4946 49.3397C57.4946 49.8157 57.3426 50.1797 57.0386 50.4317C56.7386 50.6797 56.3146 50.8037 55.7666 50.8037H53.8706V46.6037H54.8366V47.9837H55.9046ZM55.7126 50.0837C55.9646 50.0837 56.1606 50.0217 56.3006 49.8977C56.4446 49.7737 56.5166 49.5937 56.5166 49.3577C56.5166 48.9217 56.2486 48.7037 55.7126 48.7037H54.8366V50.0837H55.7126ZM58.0286 46.6037H58.9946V50.8037H58.0286V46.6037ZM63.2506 47.3957H61.9066V50.8037H60.9466V47.3957H59.6086V46.6037H63.2506V47.3957ZM66.4939 49.9037H64.5439L64.1719 50.8037H63.1759L65.0479 46.6037H66.0079L67.8859 50.8037H66.8659L66.4939 49.9037ZM66.1879 49.1657L65.5219 47.5577L64.8559 49.1657H66.1879ZM36.7013 53.6037C37.0733 53.6037 37.3953 53.6657 37.6673 53.7897C37.9433 53.9137 38.1553 54.0897 38.3033 54.3177C38.4513 54.5457 38.5253 54.8157 38.5253 55.1277C38.5253 55.4357 38.4513 55.7057 38.3033 55.9377C38.1553 56.1657 37.9433 56.3417 37.6673 56.4657C37.3953 56.5857 37.0733 56.6457 36.7013 56.6457H35.8553V57.8037H34.8833V53.6037H36.7013ZM36.6473 55.8537C36.9393 55.8537 37.1613 55.7917 37.3133 55.6677C37.4653 55.5397 37.5413 55.3597 37.5413 55.1277C37.5413 54.8917 37.4653 54.7117 37.3133 54.5877C37.1613 54.4597 36.9393 54.3957 36.6473 54.3957H35.8553V55.8537H36.6473ZM41.7996 56.9037H39.8496L39.4776 57.8037H38.4816L40.3536 53.6037H41.3136L43.1916 57.8037H42.1716L41.7996 56.9037ZM41.4936 56.1657L40.8276 54.5577L40.1616 56.1657H41.4936ZM43.7486 53.6037H47.1386V54.3777H44.7146V55.2417H45.8786C46.3866 55.2417 46.7726 55.3477 47.0366 55.5597C47.3046 55.7717 47.4386 56.0777 47.4386 56.4777C47.4386 56.8977 47.2906 57.2237 46.9946 57.4557C46.6986 57.6877 46.2806 57.8037 45.7406 57.8037H43.7486V53.6037ZM45.6866 57.0837C45.9346 57.0837 46.1246 57.0357 46.2566 56.9397C46.3886 56.8397 46.4546 56.6957 46.4546 56.5077C46.4546 56.1397 46.1986 55.9557 45.6866 55.9557H44.7146V57.0837H45.6866ZM50.1823 57.8757C49.7463 57.8757 49.3523 57.7817 49.0003 57.5937C48.6523 57.4057 48.3783 57.1477 48.1783 56.8197C47.9823 56.4877 47.8843 56.1157 47.8843 55.7037C47.8843 55.2917 47.9823 54.9217 48.1783 54.5937C48.3783 54.2617 48.6523 54.0017 49.0003 53.8137C49.3523 53.6257 49.7463 53.5317 50.1823 53.5317C50.6183 53.5317 51.0103 53.6257 51.3583 53.8137C51.7063 54.0017 51.9803 54.2617 52.1803 54.5937C52.3803 54.9217 52.4803 55.2917 52.4803 55.7037C52.4803 56.1157 52.3803 56.4877 52.1803 56.8197C51.9803 57.1477 51.7063 57.4057 51.3583 57.5937C51.0103 57.7817 50.6183 57.8757 50.1823 57.8757ZM50.1823 57.0477C50.4303 57.0477 50.6543 56.9917 50.8543 56.8797C51.0543 56.7637 51.2103 56.6037 51.3223 56.3997C51.4383 56.1957 51.4963 55.9637 51.4963 55.7037C51.4963 55.4437 51.4383 55.2117 51.3223 55.0077C51.2103 54.8037 51.0543 54.6457 50.8543 54.5337C50.6543 54.4177 50.4303 54.3597 50.1823 54.3597C49.9343 54.3597 49.7103 54.4177 49.5103 54.5337C49.3103 54.6457 49.1523 54.8037 49.0363 55.0077C48.9243 55.2117 48.8683 55.4437 48.8683 55.7037C48.8683 55.9637 48.9243 56.1957 49.0363 56.3997C49.1523 56.6037 49.3103 56.7637 49.5103 56.8797C49.7103 56.9917 49.9343 57.0477 50.1823 57.0477ZM56.3804 54.3957H55.0364V57.8037H54.0764V54.3957H52.7384V53.6037H56.3804V54.3957ZM59.0248 54.9837C59.5368 54.9837 59.9288 55.0977 60.2008 55.3257C60.4768 55.5537 60.6148 55.8917 60.6148 56.3397C60.6148 56.8157 60.4628 57.1797 60.1588 57.4317C59.8588 57.6797 59.4348 57.8037 58.8868 57.8037H56.9908V53.6037H57.9568V54.9837H59.0248ZM58.8328 57.0837C59.0848 57.0837 59.2808 57.0217 59.4208 56.8977C59.5648 56.7737 59.6367 56.5937 59.6367 56.3577C59.6367 55.9217 59.3688 55.7037 58.8328 55.7037H57.9568V57.0837H58.8328ZM61.1488 53.6037H62.1148V57.8037H61.1488V53.6037Z" fill="#131313"/>
</svg>
