<svg width="99" height="88" viewBox="0 0 99 88" fill="none" xmlns="http://www.w3.org/2000/svg">
<path d="M91.1867 41.5257L51.7057 2.11931C50.533 0.948848 48.6317 0.948851 47.459 2.11931L7.97829 41.5254C6.80561 42.6958 6.80561 44.5935 7.97829 45.764L47.4594 85.1704C48.632 86.3409 50.5333 86.3409 51.706 85.1704L91.1867 45.7644C92.3594 44.5939 92.3594 42.6962 91.1867 41.5257Z" fill="#FFE800"/>
<mask id="mask0_734_1009" style="mask-type:alpha" maskUnits="userSpaceOnUse" x="7" y="1" width="86" height="86">
<path d="M91.1868 41.5257L51.7057 2.11931C50.533 0.948848 48.6317 0.948851 47.4591 2.11931L7.97835 41.5254C6.80567 42.6958 6.80567 44.5935 7.97835 45.764L47.4594 85.1704C48.6321 86.3409 50.5334 86.3409 51.7061 85.1704L91.1868 45.7644C92.3595 44.5939 92.3595 42.6962 91.1868 41.5257Z" fill="#FFE800"/>
</mask>
<g mask="url(#mask0_734_1009)">
<rect x="5.85504" y="43.4067" width="91.3353" height="47.3836" fill="white"/>
</g>
<path d="M85.8186 41.5564L51.7359 7.53826C50.5633 6.36779 48.662 6.36779 47.4893 7.53826L13.4065 41.5566C12.2338 42.7271 12.2338 44.6248 13.4065 45.7952L47.4891 79.8134C48.6618 80.9838 50.5631 80.9838 51.7358 79.8134L85.8186 45.795C86.9912 44.6246 86.9912 42.7269 85.8186 41.5564Z" stroke="#393940" stroke-width="2" stroke-miterlimit="10"/>
<path d="M42.6255 46.8037V34.0037L44.0255 35.4037H39.8255V32.8037H45.8655V46.8037H42.6255ZM48.1776 46.8037V44.7037L53.5776 39.6037C54.0042 39.217 54.3176 38.8704 54.5176 38.5637C54.7176 38.257 54.8509 37.977 54.9176 37.7237C54.9976 37.4704 55.0376 37.237 55.0376 37.0237C55.0376 36.4637 54.8442 36.037 54.4576 35.7437C54.0842 35.437 53.5309 35.2837 52.7976 35.2837C52.2109 35.2837 51.6642 35.397 51.1576 35.6237C50.6642 35.8504 50.2442 36.2037 49.8976 36.6837L47.5376 35.1637C48.0709 34.3637 48.8176 33.7304 49.7776 33.2637C50.7376 32.797 51.8442 32.5637 53.0976 32.5637C54.1376 32.5637 55.0442 32.737 55.8176 33.0837C56.6042 33.417 57.2109 33.8904 57.6376 34.5037C58.0776 35.117 58.2976 35.8504 58.2976 36.7037C58.2976 37.157 58.2376 37.6104 58.1176 38.0637C58.0109 38.5037 57.7842 38.9704 57.4376 39.4637C57.1042 39.957 56.6109 40.5104 55.9576 41.1237L51.4776 45.3437L50.8576 44.1637H58.7576V46.8037H48.1776ZM40.6035 53.8037V52.0877L40.8255 52.6757L38.9775 49.6037H40.0095L41.4255 51.9617H40.8315L42.2535 49.6037H43.2075L41.3595 52.6757L41.5755 52.0877V53.8037H40.6035ZM44.4731 51.2957H46.4951V52.0517H44.4731V51.2957ZM44.5451 53.0237H46.8311V53.8037H43.5791V49.6037H46.7531V50.3837H44.5451V53.0237ZM47.0524 53.8037L48.9244 49.6037H49.8844L51.7624 53.8037H50.7424L49.2064 50.0957H49.5904L48.0484 53.8037H47.0524ZM47.9884 52.9037L48.2464 52.1657H50.4064L50.6704 52.9037H47.9884ZM52.1982 53.8037V49.6037H54.0162C54.3922 49.6037 54.7162 49.6657 54.9882 49.7897C55.2602 49.9097 55.4702 50.0837 55.6182 50.3117C55.7662 50.5397 55.8402 50.8117 55.8402 51.1277C55.8402 51.4397 55.7662 51.7097 55.6182 51.9377C55.4702 52.1617 55.2602 52.3337 54.9882 52.4537C54.7162 52.5737 54.3922 52.6337 54.0162 52.6337H52.7382L53.1702 52.2077V53.8037H52.1982ZM54.8682 53.8037L53.8182 52.2797H54.8562L55.9182 53.8037H54.8682ZM53.1702 52.3157L52.7382 51.8597H53.9622C54.2622 51.8597 54.4862 51.7957 54.6342 51.6677C54.7822 51.5357 54.8562 51.3557 54.8562 51.1277C54.8562 50.8957 54.7822 50.7157 54.6342 50.5877C54.4862 50.4597 54.2622 50.3957 53.9622 50.3957H52.7382L53.1702 49.9337V52.3157ZM57.9903 53.8757C57.6543 53.8757 57.3323 53.8317 57.0243 53.7437C56.7163 53.6517 56.4683 53.5337 56.2803 53.3897L56.6103 52.6577C56.7903 52.7857 57.0023 52.8917 57.2463 52.9757C57.4943 53.0557 57.7443 53.0957 57.9963 53.0957C58.1883 53.0957 58.3423 53.0777 58.4583 53.0417C58.5783 53.0017 58.6663 52.9477 58.7223 52.8797C58.7783 52.8117 58.8063 52.7337 58.8063 52.6457C58.8063 52.5337 58.7623 52.4457 58.6743 52.3817C58.5863 52.3137 58.4703 52.2597 58.3263 52.2197C58.1823 52.1757 58.0223 52.1357 57.8463 52.0997C57.6743 52.0597 57.5003 52.0117 57.3243 51.9557C57.1523 51.8997 56.9943 51.8277 56.8503 51.7397C56.7063 51.6517 56.5883 51.5357 56.4963 51.3917C56.4083 51.2477 56.3643 51.0637 56.3643 50.8397C56.3643 50.5997 56.4283 50.3817 56.5563 50.1857C56.6883 49.9857 56.8843 49.8277 57.1443 49.7117C57.4083 49.5917 57.7383 49.5317 58.1343 49.5317C58.3983 49.5317 58.6583 49.5637 58.9143 49.6277C59.1703 49.6877 59.3963 49.7797 59.5923 49.9037L59.2923 50.6417C59.0963 50.5297 58.9003 50.4477 58.7043 50.3957C58.5083 50.3397 58.3163 50.3117 58.1283 50.3117C57.9403 50.3117 57.7863 50.3337 57.6663 50.3777C57.5463 50.4217 57.4603 50.4797 57.4083 50.5517C57.3563 50.6197 57.3303 50.6997 57.3303 50.7917C57.3303 50.8997 57.3743 50.9877 57.4623 51.0557C57.5503 51.1197 57.6663 51.1717 57.8103 51.2117C57.9543 51.2517 58.1123 51.2917 58.2843 51.3317C58.4603 51.3717 58.6343 51.4177 58.8063 51.4697C58.9823 51.5217 59.1423 51.5917 59.2863 51.6797C59.4303 51.7677 59.5463 51.8837 59.6343 52.0277C59.7263 52.1717 59.7723 52.3537 59.7723 52.5737C59.7723 52.8097 59.7063 53.0257 59.5743 53.2217C59.4423 53.4177 59.2443 53.5757 58.9803 53.6957C58.7203 53.8157 58.3903 53.8757 57.9903 53.8757Z" fill="#131313"/>
</svg>
