<svg width="33" height="33" viewBox="0 0 33 33" fill="none" xmlns="http://www.w3.org/2000/svg">
<path d="M3.8821 2.14192e-06C3.3722 -0.000319187 2.86725 0.0998749 2.3961 0.294855C1.92496 0.489835 1.49687 0.775776 1.13632 1.13633C0.775774 1.49688 0.489833 1.92496 0.294853 2.39611C0.0998736 2.86725 -0.000320558 3.37221 7.70443e-07 3.8821V28.7063C-0.000320558 29.2162 0.0998736 29.7212 0.294853 30.1923C0.489833 30.6635 0.775774 31.0916 1.13632 31.4521C1.49687 31.8127 1.92496 32.0986 2.3961 32.2936C2.86725 32.4886 3.3722 32.5888 3.8821 32.5884H28.7063C29.2163 32.589 29.7214 32.4889 30.1926 32.294C30.6638 32.0991 31.092 31.8132 31.4526 31.4526C31.8132 31.092 32.0991 30.6638 32.294 30.1926C32.4889 29.7214 32.589 29.2163 32.5884 28.7063V3.8821C32.589 3.37215 32.4889 2.86709 32.294 2.39585C32.0991 1.92461 31.8132 1.49644 31.4526 1.13585C31.092 0.775254 30.6638 0.489322 30.1926 0.294418C29.7214 0.0995138 29.2163 -0.000533807 28.7063 2.14192e-06H3.8821ZM8.53899 3.10324H10.4006L11.6422 6.20566L12.883 3.10324H14.7471L12.4146 8.5341V11.6381H10.8625V8.52758C10.3965 7.277 8.85184 3.8821 8.5341 3.10324H8.53899V3.10324ZM16.2942 5.43168C16.6312 5.4139 16.9679 5.47053 17.2805 5.59753C17.593 5.72454 17.8738 5.91881 18.1029 6.16655C18.4369 6.54865 18.6227 7.1605 18.6227 7.96706V9.10195C18.6227 9.90852 18.4679 10.4674 18.142 10.8471C17.9088 11.1014 17.6244 11.3033 17.3074 11.4396C16.9904 11.5758 16.6481 11.6432 16.3032 11.6373C15.9579 11.6453 15.615 11.5789 15.2977 11.4425C14.9804 11.3061 14.6962 11.103 14.4644 10.8471C14.1312 10.4674 13.9674 9.90852 13.9674 9.10195V7.97602C13.9674 7.16946 14.1466 6.54865 14.488 6.16737C14.9149 5.64025 15.5105 5.43168 16.2942 5.43168V5.43168ZM19.3975 5.43168H20.9511V10.0886C20.9822 10.1859 21.0462 10.2694 21.1321 10.3247C21.218 10.38 21.3205 10.4037 21.422 10.3916C21.7414 10.3916 22.1438 10.0193 22.5023 9.60789V5.43168H24.0543V11.6373H22.4999V10.5668C21.8701 11.1811 21.3348 11.6406 20.6293 11.6178C20.116 11.6015 19.76 11.4149 19.5808 11.0426C19.4398 10.7006 19.3764 10.3317 19.395 9.96229L19.3975 5.4325V5.43168ZM16.2942 6.68634C16.1903 6.68659 16.0875 6.7088 15.9928 6.75151C15.8513 6.81388 15.7309 6.91582 15.6461 7.04504C15.5612 7.17427 15.5155 7.32527 15.5145 7.47986V9.6584C15.515 9.86823 15.5978 10.0695 15.7451 10.2189C15.8158 10.2906 15.9 10.3476 15.9928 10.3868C16.0876 10.4294 16.1903 10.4514 16.2942 10.4514C16.3981 10.4514 16.5009 10.4294 16.5957 10.3868C16.7372 10.3247 16.8575 10.2228 16.942 10.0934C17.0265 9.96407 17.0715 9.8129 17.0715 9.6584V7.47905C17.0726 7.27115 16.9915 7.07122 16.8459 6.92277C16.7004 6.77431 16.5021 6.68934 16.2942 6.68634ZM16.2942 13.9658C16.2942 13.9658 21.5002 13.9658 24.9782 14.2143C25.4654 14.2697 26.5229 14.2762 27.4696 15.2465C28.2143 15.9773 28.4538 17.6523 28.4538 17.6523C28.6363 18.6927 28.721 19.7478 28.7063 20.8036V22.6425C28.7218 23.6984 28.6378 24.7535 28.4554 25.7938C28.4554 25.7938 28.2257 27.4696 27.4721 28.2004C26.5245 29.1699 25.4679 29.1781 24.9807 29.2327C21.5027 29.4811 16.2893 29.4877 16.2893 29.4877C16.2893 29.4877 9.83275 29.4257 7.8473 29.2392C7.29574 29.1381 6.05493 29.1707 5.10742 28.2077C4.36278 27.4696 4.12325 25.7938 4.12325 25.7938C3.94399 24.7527 3.86324 23.697 3.8821 22.6408V20.8012C3.8658 19.7453 3.95053 18.6911 4.13303 17.6507C4.13303 17.6507 4.36278 15.9749 5.11639 15.2441C6.0639 14.2746 7.12058 14.2664 7.60777 14.2118C11.0809 13.9658 16.2942 13.9658 16.2942 13.9658V13.9658ZM6.20565 17.0715V18.6064H7.75768V26.3828H9.31133V18.6064H10.8625V17.0715H6.20565ZM16.2942 17.0715V26.3828H17.8454V25.4125C18.3351 26.017 18.9746 26.382 19.496 26.382C19.7818 26.3919 20.0629 26.3072 20.2957 26.141C20.5285 25.9749 20.6998 25.7365 20.7833 25.463C20.9055 25.0361 20.9625 24.5929 20.9511 24.148V22.0176C20.9607 21.4539 20.8927 20.8917 20.7491 20.3466C20.6748 20.072 20.5114 19.8298 20.2846 19.658C20.0579 19.4863 19.7805 19.3946 19.496 19.3975C18.7351 19.3975 18.4271 19.7853 17.8454 20.4664V17.0715H16.2942V17.0715ZM10.8625 19.3975V24.5847C10.8462 24.9872 10.9074 25.3888 11.0418 25.7685C11.125 25.9644 11.2678 26.1291 11.4498 26.2393C11.6319 26.3496 11.844 26.3998 12.0561 26.3828C12.6231 26.3828 13.3547 25.9828 13.9658 25.3229V26.382H15.517V19.3983H13.9658V24.2637C13.6252 24.724 13.1266 25.054 12.817 25.054C12.7232 25.0652 12.6286 25.0394 12.5535 24.9821C12.4784 24.9247 12.4285 24.8403 12.4146 24.7468V19.3983H10.8625V19.3975ZM24.0772 19.3975C23.7378 19.3804 23.3987 19.435 23.0819 19.5577C22.7651 19.6804 22.4777 19.8684 22.2384 20.1095C21.9141 20.4517 21.7235 21.0138 21.7235 21.7389V24.1097C21.7235 24.8332 21.9328 25.3391 22.2563 25.6764C22.7003 26.1367 23.3089 26.3665 24.1114 26.3665C24.9139 26.3665 25.5412 26.1221 25.964 25.6284C26.1465 25.419 26.2704 25.1656 26.3225 24.8927C26.3586 24.6089 26.3777 24.3233 26.3795 24.0372H24.8283V24.6589C24.7963 24.8417 24.7009 25.0073 24.5588 25.1267C24.4167 25.2461 24.2371 25.3115 24.0515 25.3115C23.8659 25.3115 23.6863 25.2461 23.5442 25.1267C23.4021 25.0073 23.3067 24.8417 23.2747 24.6589V23.26H26.3803V21.6925C26.3803 20.9666 26.2011 20.4354 25.8809 20.0834C25.646 19.8478 25.3637 19.6647 25.0528 19.5464C24.7418 19.428 24.4093 19.3769 24.0772 19.3966V19.3975ZM24.0543 20.5218C24.243 20.5072 24.43 20.5671 24.5751 20.6886C24.7202 20.8101 24.812 20.9836 24.8308 21.1719V22.2041H23.2771V21.1719C23.2957 20.9833 23.3875 20.8095 23.5328 20.6878C23.6782 20.5661 23.8654 20.5062 24.0543 20.5209V20.5218ZM18.7929 20.7507C19.2158 20.7507 19.3975 21.0114 19.3975 21.8196V23.9549C19.3975 24.764 19.2158 25.045 18.7929 25.045C18.4407 25.0147 18.108 24.8703 17.8454 24.6336V21.2395C18.1052 20.9857 18.4353 20.8159 18.7929 20.7523V20.7499V20.7507Z" fill="#393940"/>
</svg>
