<svg width="54" height="53" viewBox="0 0 54 53" fill="none" xmlns="http://www.w3.org/2000/svg">
<path d="M25.1569 2.33584L3.10681 24.3222C1.93354 25.4921 1.93354 27.3888 3.10681 28.5587L25.1566 50.5448C26.3299 51.7147 28.2322 51.7147 29.4054 50.5448L51.4555 28.5585C52.6287 27.3886 52.6287 25.4918 51.4555 24.322L29.4056 2.33584C28.2324 1.16596 26.3301 1.16596 25.1569 2.33584Z" fill="#393940"/>
<mask id="mask0_131_346" style="mask-type:alpha" maskUnits="userSpaceOnUse" x="0" y="0" width="54" height="53">
<path d="M0.982237 26.2986L27.2051 52.5974L53.4277 26.2988L27.2049 -2.20888e-05L0.982237 26.2986Z" fill="url(#paint0_radial_131_346)"/>
</mask>
<g mask="url(#mask0_131_346)">
<g clip-path="url(#clip0_131_346)">
<path fill-rule="evenodd" clip-rule="evenodd" d="M35.6461 14.6704C36.9588 14.6704 38 15.7293 38 17.0645V34.6519C38 35.9871 36.9588 37.046 35.6461 37.046H18.3539C17.0412 37 16 35.9411 16 34.6059V17.0184C16 15.6832 17.0412 14.6243 18.3539 14.6243H25.144V12L28.856 15.7753L25.144 19.5506V16.8803H19.1687C18.6255 16.8803 18.2181 17.3407 18.2181 17.8471V33.7772C18.2181 34.3297 18.6708 34.744 19.1687 34.744H34.8313C35.3745 34.744 35.7819 34.2836 35.7819 33.7772V17.8471C35.7819 17.2947 35.3292 16.8803 34.8313 16.8803H29.6255V14.6704H35.6461ZM31.1193 26.733V24.3389L29.1728 26.733H31.1193ZM34.3333 28.6206H33.3827V30.3241H31.0741V28.6206H27.3621V26.6409L31.1193 22.1289H33.3827V26.733H34.3333V28.6206ZM26.3663 25.1215C26.2305 25.7201 25.8683 26.1805 25.4156 26.5488C24.5103 27.1473 23.6502 27.7459 22.7449 28.2983H26.3663V30.3241H19.6667C19.6667 29.1271 20.0288 28.4365 20.9342 27.6077C21.3868 27.1934 21.8848 26.825 22.428 26.5028C22.9712 26.1344 23.3333 25.9042 23.4691 25.7661C23.6049 25.674 23.7407 25.5359 23.8313 25.4438C24.1934 25.0295 24.1934 24.3849 23.8313 23.9705C23.3786 23.5101 22.4733 23.6022 22.1564 24.2007C22.0206 24.477 21.9753 24.8453 21.9753 25.3057H19.8025C19.8025 24.7532 19.8477 24.3389 19.893 24.0626C20.0288 23.418 20.3457 22.9116 20.8889 22.4972C21.93 21.6685 23.5144 21.5764 24.7366 22.0368C25.2346 22.221 25.5967 22.4972 25.9136 22.8656C26.3663 23.5562 26.5473 24.3849 26.3663 25.1215Z" fill="#FFE800"/>
</g>
</g>
<path d="M6.3198 28.4051L25.0688 47.2084C26.2386 48.3816 28.1354 48.3816 29.3053 47.2084L48.0543 28.405C49.2242 27.2317 49.2242 25.3295 48.0543 24.1562L29.3054 5.35291C28.1355 4.17964 26.2387 4.17964 25.0689 5.35291L6.31979 24.1563C5.14992 25.3296 5.14992 27.2318 6.3198 28.4051Z" stroke="#B62D39" stroke-miterlimit="10"/>
<defs>
<radialGradient id="paint0_radial_131_346" cx="0" cy="0" r="1" gradientUnits="userSpaceOnUse" gradientTransform="translate(27.205 26.2987) rotate(-45.0829) scale(18.5691)">
<stop offset="0.145833" stop-color="white"/>
<stop offset="1" stop-color="#F0F0F0"/>
</radialGradient>
<clipPath id="clip0_131_346">
<rect width="22" height="25" fill="white" transform="translate(16 12)"/>
</clipPath>
</defs>
</svg>
