<svg width="54" height="53" viewBox="0 0 54 53" fill="none" xmlns="http://www.w3.org/2000/svg">
<path d="M25.1569 2.3359L3.10681 24.3222C1.93354 25.4921 1.93354 27.3889 3.10681 28.5587L25.1566 50.5449C26.3299 51.7147 28.2322 51.7147 29.4054 50.5449L51.4555 28.5585C52.6287 27.3886 52.6287 25.4919 51.4555 24.322L29.4056 2.3359C28.2324 1.16602 26.3301 1.16602 25.1569 2.3359Z" fill="#393940"/>
<path d="M6.32028 28.4051L25.0693 47.2084C26.2391 48.3816 28.1359 48.3816 29.3057 47.2084L48.0548 28.405C49.2247 27.2317 49.2247 25.3295 48.0548 24.1562L29.3059 5.35291C28.136 4.17964 26.2392 4.17964 25.0694 5.35291L6.32028 24.1563C5.15041 25.3296 5.15041 27.2318 6.32028 28.4051Z" stroke="#B62D39" stroke-miterlimit="10"/>
<g clip-path="url(#clip0_152_466)">
<path fill-rule="evenodd" clip-rule="evenodd" d="M15 33.1532V18.2271C19.1429 16.1356 23.3333 14.0915 27.4762 12C31.3333 13.9489 35.1905 15.8979 39.0476 17.8468V33.1056C35 35.0546 30.9524 37.0511 26.9048 39C22.9048 37.0511 18.9524 35.1021 15 33.1532ZM32.9048 16.2306C29.5714 17.9419 26.2381 19.6056 22.9048 21.3169C24.2857 22.0299 25.6667 22.743 27.0952 23.456C30.4286 21.7447 33.7619 20.081 37.0952 18.3697C35.7143 17.6092 34.2857 16.9437 32.9048 16.2306ZM21.2381 20.4613C24.5714 18.75 27.9048 17.0863 31.2381 15.375C30 14.757 28.7143 14.0915 27.4762 13.4736C24.0952 15.1373 20.7143 16.8011 17.3333 18.4648C18.619 19.1303 19.9524 19.7958 21.2381 20.4613ZM26.2381 24.5493C24.7143 23.7887 23.2381 23.0757 21.7143 22.3151V25.1197C21.1429 24.8345 20.619 24.5968 20.0476 24.3116V21.507C18.8095 20.8415 17.5714 20.2236 16.2857 19.6056V32.3451C19.619 34.0088 22.9048 35.625 26.2381 37.2887V24.5493ZM35.7143 31.2518V28.4472L36.6667 27.9718L34.9524 26.4507L33.2381 29.6356L34.1905 29.1602V31.9648L35.7143 31.2518ZM32 33.0581V30.2535L32.9524 29.7782L31.2381 28.257L29.5238 31.4419L30.4762 30.9665V33.7711L32 33.0581ZM29 35.2923L37.1429 31.3468V32.3451L29 36.2905V35.2923Z" fill="#FFE800"/>
</g>
<defs>
<clipPath id="clip0_152_466">
<rect width="24" height="27" fill="white" transform="translate(15 12)"/>
</clipPath>
</defs>
</svg>
