<svg width="53" height="53" viewBox="0 0 53 53" fill="none" xmlns="http://www.w3.org/2000/svg">
<path d="M50.3272 24.1744L28.3409 2.12439C27.171 0.951121 25.2743 0.951118 24.1044 2.12438L2.11828 24.1742C0.948408 25.3475 0.948409 27.2497 2.11829 28.423L24.1046 50.473C25.2745 51.6463 27.1712 51.6463 28.3411 50.473L50.3272 28.4232C51.4971 27.2499 51.4971 25.3477 50.3272 24.1744Z" fill="#FFE800"/>
<path d="M47.1079 24.1923L28.359 5.38904C27.1891 4.21577 25.2924 4.21577 24.1225 5.38903L5.3734 24.1924C4.20352 25.3657 4.20352 27.2679 5.3734 28.4412L24.1224 47.2445C25.2922 48.4178 27.189 48.4178 28.3589 47.2445L47.1079 28.4411C48.2778 27.2678 48.2778 25.3656 47.1079 24.1923Z" stroke="#393940" stroke-miterlimit="10"/>
<g clip-path="url(#clip0_148_130)">
<path d="M25.69 26.8804C25.69 28.1839 25.69 29.4543 25.69 30.7578C23.5515 30.7578 21.4244 30.7578 19.2631 30.7578C19.2631 29.4764 19.2631 28.206 19.2631 26.8804C21.3901 26.8804 23.5058 26.8804 25.69 26.8804Z" fill="#393940"/>
<path d="M25.8158 30.7578C25.8158 29.4432 25.8158 28.1839 25.8158 26.8804C27.9657 26.8804 30.1042 26.8804 32.277 26.8804C32.277 28.1728 32.277 29.4432 32.277 30.7578C30.1271 30.7578 28 30.7578 25.8158 30.7578Z" fill="#393940"/>
<path d="M28.2059 22.6274C28.2059 23.931 28.2059 25.1903 28.2059 26.4938C26.0674 26.4938 23.9403 26.4938 21.7789 26.4938C21.7789 25.2234 21.7789 23.942 21.7789 22.6274C23.8946 22.6274 26.0216 22.6274 28.2059 22.6274Z" fill="#393940"/>
<path d="M34.7929 26.4938C32.643 26.4938 30.5273 26.4938 28.366 26.4938C28.366 25.2234 28.366 23.9531 28.366 22.6274C30.493 22.6274 32.6201 22.6274 34.7929 22.6274C34.7929 23.9089 34.7929 25.1793 34.7929 26.4938Z" fill="#393940"/>
<path d="M23.643 17.6894C24.7637 17.4022 25.2211 18.286 25.9187 19.0482C25.0839 19.7331 24.2491 20.418 23.3914 21.125C23.1512 20.6831 22.305 20.4291 22.2936 19.5232C22.2936 18.9156 21.5388 18.6505 21.0699 19.0482C20.784 19.2912 20.6239 19.236 20.4066 19.0151C20.2809 18.8825 20.1436 18.7389 19.995 18.6284C19.4003 18.2197 19.1258 17.811 19.3889 17.0045C19.7205 15.933 18.7942 14.9609 17.5934 14.8836C17.4105 14.8725 17.2389 14.762 17.0674 14.6958C17.1932 14.5742 17.3075 14.4306 17.4562 14.3533C18.4626 13.8231 19.4803 13.9446 20.4753 14.3754C21.5845 14.8615 22.4994 15.6237 23.2656 16.5185C23.4943 16.7836 23.4943 17.2255 23.643 17.6894Z" fill="#393940"/>
<path d="M30.5273 34.9996C28.3087 34.9996 26.1931 34.9996 24.0317 34.9996C24.0317 33.7293 24.0317 32.4699 24.0317 31.1443C24.1918 31.1333 24.3748 31.1112 24.5578 31.1112C26.3532 31.1112 28.1372 31.1222 29.9326 31.1001C30.4244 31.0891 30.5502 31.2548 30.5387 31.7077C30.5044 32.7792 30.5273 33.8618 30.5273 34.9996Z" fill="#393940"/>
<path d="M18.8514 18.6729C19.183 18.938 19.4346 19.1479 19.7205 19.3798C18.8514 20.3741 18.0394 21.313 17.216 22.252C15.7065 23.9532 14.197 25.6655 12.6874 27.3667C12.1156 28.0074 11.4524 28.1842 10.8234 27.8638C9.86279 27.3777 9.70269 26.2399 10.5375 25.5219C11.6353 24.5829 12.7561 23.6771 13.8768 22.7602C15.5464 21.3793 17.216 20.0095 18.8514 18.6729Z" fill="#393940"/>
<path d="M37 31.1445C37 32.437 37 33.6853 37 34.9778C34.8729 34.9778 32.7459 34.9778 30.5959 34.9778C30.5959 33.6963 30.5959 32.437 30.5959 31.1445C32.7344 31.1445 34.8386 31.1445 37 31.1445Z" fill="#393940"/>
</g>
<defs>
<clipPath id="clip0_148_130">
<rect width="27" height="21" fill="white" transform="translate(10 14)"/>
</clipPath>
</defs>
</svg>
