<svg width="55" height="55" viewBox="0 0 55 55" fill="none" xmlns="http://www.w3.org/2000/svg">
<path d="M52.3097 24.799L30.3233 2.7489C29.1535 1.57563 27.2567 1.57563 26.0868 2.7489L4.10071 24.7987C2.93083 25.972 2.93083 27.8742 4.10071 29.0475L26.087 51.0976C27.2569 52.2708 29.1537 52.2708 30.3235 51.0976L52.3097 29.0477C53.4795 27.8745 53.4795 25.9722 52.3097 24.799Z" fill="#FFE800"/>
<path d="M49.0908 24.8168L30.3419 6.01355C29.172 4.84028 27.2753 4.84028 26.1054 6.01355L7.35631 24.8169C6.18643 25.9902 6.18643 27.8925 7.35631 29.0657L26.1053 47.869C27.2752 49.0423 29.1719 49.0423 30.3418 47.869L49.0908 29.0656C50.2607 27.8923 50.2607 25.9901 49.0908 24.8168Z" stroke="#393940" stroke-miterlimit="10"/>
<path d="M25.1442 31.1606C25.1442 30.7114 25.2253 30.3847 25.3873 30.0172C25.5089 29.7314 25.6709 29.4863 25.8735 29.2413C26.1571 28.9146 26.5622 28.588 26.7648 28.2205C26.8863 28.0163 26.9674 27.8121 26.9674 27.6079C26.9674 27.2812 26.8458 27.1587 26.6433 27.1587C26.1976 27.1587 26.1976 27.7304 26.1976 28.0571H25.1848C25.1848 27.5671 25.2253 27.1179 25.5494 26.7504C25.7925 26.4645 26.1571 26.342 26.6433 26.342C27.0889 26.342 27.413 26.4645 27.6561 26.7096C27.8992 26.9546 28.0207 27.2812 28.0207 27.6896C28.0207 28.1796 27.8182 28.6288 27.3725 29.078C27.0079 29.4455 26.6027 29.7722 26.4002 30.2622H28.0207V31.1606H25.1442ZM29.9249 31.1606V30.2214H28.3448V29.323L29.8439 26.3829H30.9377V29.4047H31.3429V30.2214H30.9377V31.1606H29.9249ZM30.0464 29.4047V27.4854L29.1551 29.4047H30.0464ZM31.8696 31.7731H31.3429L32.8419 26.2195H33.4091L31.8696 31.7731ZM34.1383 31.1606C34.2599 30.0172 34.665 28.7513 35.3537 27.3221H33.5711V26.3829H36.3666V27.1996C35.7589 28.2613 35.3943 29.6088 35.2322 31.1606H34.1383ZM28.2638 15.3574C28.5069 15.3574 28.75 15.3574 28.9931 15.3982C28.2638 16.0108 27.5751 16.6233 26.8863 17.2766C23.0375 17.8483 20.0395 20.911 19.4318 24.7086C18.8241 25.4437 18.1758 26.1379 17.5681 26.8729C17.5681 26.6279 17.5276 26.4237 17.5276 26.1787C17.5681 20.2168 22.3488 15.3574 28.2638 15.3574ZM36.5287 19.2776C38.0682 21.156 39 23.5652 39 26.1787C39 32.1406 34.2194 37 28.3043 37C25.6709 37 23.2806 36.0608 21.417 34.4682L22.4703 33.039C24.0504 34.3866 26.0761 35.2033 28.3043 35.2033C33.247 35.2033 37.2579 31.1606 37.2579 26.1787C37.2579 23.9328 36.4476 21.9318 35.1107 20.3393L36.5287 19.2776ZM16.5553 29.4455C20.9713 23.9736 25.8735 18.9917 31.3024 14.5407C33.7737 12.4989 38.3518 16.8275 37.0148 17.8075L31.4644 21.9727C31.3429 22.0544 30.3705 22.136 30.0869 21.9727C29.5603 21.646 23.5237 27.7304 23.8478 28.2613C24.0099 28.5471 23.9693 29.5272 23.8478 29.6497L19.7559 35.2033C18.7836 36.5508 14.4891 31.9773 16.5553 29.4455Z" fill="#393940"/>
</svg>
