<svg width="90" height="91" viewBox="0 0 90 91" fill="none" xmlns="http://www.w3.org/2000/svg">
<path d="M2.12483 47.572L42.8852 88.4505C44.055 89.6238 45.9518 89.6238 47.1217 88.4505L87.8816 47.5724C89.0515 46.3992 89.0515 44.4969 87.8816 43.3237L47.1213 2.4452C45.9514 1.27193 44.0547 1.27193 42.8848 2.4452L2.12483 43.3233C0.954956 44.4965 0.954955 46.3988 2.12483 47.572Z" fill="#FFE800"/>
<mask id="mask0_152_478" style="mask-type:alpha" maskUnits="userSpaceOnUse" x="1" y="1" width="88" height="89">
<path d="M2.12483 47.572L42.8852 88.4505C44.055 89.6238 45.9518 89.6238 47.1217 88.4505L87.8816 47.5724C89.0515 46.3992 89.0515 44.4969 87.8816 43.3237L47.1213 2.4452C45.9514 1.27193 44.0547 1.27193 42.8848 2.4452L2.12483 43.3233C0.954956 44.4965 0.954955 46.3988 2.12483 47.572Z" fill="#FFE800"/>
</mask>
<g mask="url(#mask0_152_478)">
<rect x="90" y="45.6942" width="93.9861" height="48.9928" transform="rotate(-180 90 45.6942)" fill="white"/>
</g>
<path d="M7.64923 47.5414L42.8544 82.8487C44.0243 84.022 45.921 84.022 47.0909 82.8487L82.2963 47.5412C83.4662 46.368 83.4662 44.4657 82.2963 43.2925L47.0911 7.98517C45.9212 6.8119 44.0245 6.8119 42.8546 7.98517L7.64923 43.2926C6.47935 44.4659 6.47935 46.3681 7.64923 47.5414Z" stroke="#393940" stroke-width="2" stroke-miterlimit="10"/>
<g clip-path="url(#clip0_152_478)">
<path fill-rule="evenodd" clip-rule="evenodd" d="M33.6112 25.8421H41.0636C41.2112 24.8105 42.1704 24 43.2772 24C44.384 24 45.2694 24.8105 45.417 25.8421H52.5743C52.9432 25.8421 53.2384 26.1368 53.2384 26.5053L53.8287 30.5579C53.9024 30.9263 53.5335 31.2211 53.1646 31.2211H33.0209C32.652 31.2211 32.283 30.9263 32.3568 30.5579L32.9471 26.5053C32.9471 26.1368 33.2423 25.8421 33.6112 25.8421ZM29.8481 26.9474H32.1355L31.7665 29.5263H30.6597C30.6597 29.5263 30.5859 29.5263 30.5859 29.6V59.7368C30.5859 59.7368 30.5859 59.8105 30.6597 59.8105H43.2034C43.5723 60.7684 44.0889 61.5789 44.6791 62.3895H29.8481C28.8151 62.3895 28.0034 61.5789 28.0034 60.5474V28.7895C28.0034 27.7579 28.8151 26.9474 29.8481 26.9474ZM55.8947 43.7474V29.6C55.8947 29.6 55.8947 29.5263 55.8209 29.5263H54.4189L54.1238 26.9474H56.7063C57.7393 26.9474 58.551 27.7579 58.551 28.7895V44.4842C57.6656 44.1895 56.7801 43.8947 55.8947 43.7474ZM33.8325 49.4211H36.9316V52.5158H33.8325V49.4211ZM33.8325 44.2632H36.9316V47.3579H33.8325V44.2632ZM33.8325 39.1789H36.9316V42.2737H33.8325V39.1789ZM33.8325 34.0947H36.9316V37.1895H33.8325V34.0947ZM38.0384 50.4526H43.4248C43.1296 51.1158 42.9083 51.7789 42.6869 52.5158H38.0384V50.4526ZM38.0384 45.3684H47.9995C47.0403 45.9579 46.2287 46.6211 45.4908 47.4316H38.0384V45.3684ZM38.0384 40.2105H52.7219V42.2737H38.0384V40.2105ZM38.0384 35.1263H52.7219V37.1895H38.0384V35.1263ZM54.05 44.7053C56.4112 44.7053 58.6248 45.5158 60.4694 46.8421L61.4287 45.8842C62.3879 44.8526 63.8636 44.1158 65.118 45.0737C66.5199 46.1053 66.0772 47.9474 65.2656 49.2L63.9374 51.2632C64.4539 52.5158 64.749 53.9158 64.749 55.3895C64.749 61.2842 59.9529 66 54.1238 66C48.2209 66 43.4986 61.2105 43.4986 55.3895C43.4986 49.5684 48.2209 44.7053 54.05 44.7053ZM54.3452 55.2421L62.3879 46.8421C62.8306 46.4 63.6423 45.6632 64.3063 46.1789C65.0442 46.6947 64.4539 47.8737 64.085 48.4632L55.7471 61.2842C55.3782 61.8737 54.7879 62.5368 54.05 62.4632C53.5335 62.4632 53.1646 62.0947 52.8694 61.7263L46.7452 53.3263C46.3762 52.8105 45.7859 51.9263 46.45 51.4105C46.819 51.1158 47.3355 51.2632 47.7044 51.4842L53.7549 55.5368C53.9024 55.6842 54.1976 55.3895 54.3452 55.2421ZM43.2772 25.2526C43.7937 25.2526 44.2364 25.6947 44.2364 26.2105C44.2364 26.7263 43.7937 27.1684 43.2772 27.1684C42.7607 27.1684 42.318 26.7263 42.318 26.2105C42.318 25.6947 42.6869 25.2526 43.2772 25.2526Z" fill="#393940"/>
</g>
<defs>
<clipPath id="clip0_152_478">
<rect width="38" height="42" fill="white" transform="translate(28.0034 24)"/>
</clipPath>
</defs>
</svg>
