<svg width="54" height="53" viewBox="0 0 54 53" fill="none" xmlns="http://www.w3.org/2000/svg">
<path d="M25.1569 2.3359L3.10681 24.3222C1.93354 25.4921 1.93354 27.3889 3.10681 28.5587L25.1566 50.5449C26.3299 51.7147 28.2322 51.7147 29.4054 50.5449L51.4555 28.5585C52.6287 27.3886 52.6287 25.4919 51.4555 24.322L29.4056 2.3359C28.2324 1.16602 26.3301 1.16602 25.1569 2.3359Z" fill="#393940"/>
<path d="M6.32028 28.4051L25.0693 47.2084C26.2391 48.3817 28.1359 48.3817 29.3057 47.2084L48.0548 28.405C49.2247 27.2317 49.2247 25.3295 48.0548 24.1562L29.3059 5.35294C28.136 4.17967 26.2392 4.17967 25.0694 5.35294L6.32028 24.1563C5.15041 25.3296 5.15041 27.2319 6.32028 28.4051Z" stroke="#B62D39" stroke-miterlimit="10"/>
<path fill-rule="evenodd" clip-rule="evenodd" d="M24.5099 34L19.2748 33.363V18.1148L24.5099 17C30.3399 18.9906 36.17 20.9813 41.9603 23.0117V32.726C36.17 33.1241 30.3399 33.5621 24.5099 34ZM41.3654 23.6487C41.1671 23.5691 40.9292 23.5293 40.7309 23.4496V31.9297C40.9688 31.9297 41.1671 31.9297 41.3654 31.8899V23.6487ZM40.255 23.2904C40.017 23.2108 39.779 23.1311 39.5411 23.0913V31.9696C39.779 31.9696 40.017 31.9696 40.255 31.9297V23.2904ZM39.0255 22.9321C38.7875 22.8525 38.5099 22.7728 38.2323 22.6932V32.0094C38.5099 32.0094 38.7479 31.9696 39.0255 31.9696V22.9321ZM37.6374 22.4941C37.3598 22.4145 37.0822 22.3349 36.7649 22.2155V32.0492C37.0425 32.0492 37.3598 32.0094 37.6374 32.0094C37.6374 28.8642 37.6374 25.6792 37.6374 22.4941ZM36.1303 22.0164C35.813 21.9368 35.4958 21.8173 35.1785 21.6979V32.1288C35.4958 32.1288 35.813 32.089 36.17 32.089C36.1303 28.7447 36.1303 25.3607 36.1303 22.0164ZM34.4249 21.4988C34.068 21.3794 33.711 21.26 33.3541 21.1803V32.2084C33.711 32.2084 34.1076 32.1686 34.4249 32.1686V21.4988ZM32.5212 20.9016C32.1246 20.7822 31.728 20.6628 31.2918 20.5433V32.2881C31.728 32.2881 32.1246 32.2482 32.5212 32.2482V20.9016ZM30.3399 20.2646C29.864 20.1054 29.4278 19.9859 28.9518 19.8267V32.3677C29.4278 32.3677 29.9037 32.3279 30.3399 32.3279V20.2646ZM27.881 19.5082C27.3654 19.3489 26.8102 19.1897 26.255 19.0304V32.4871C26.8102 32.4473 27.3258 32.4473 27.881 32.4075V19.5082ZM18.7195 18.2342L14 19.2295V32.7658L18.7195 33.3232V18.2342ZM16.7762 25.918C16.6176 25.918 16.5382 26.0773 16.5382 26.2365C16.5382 26.3958 16.6572 26.5152 16.8159 26.5152L18.1246 26.4356C18.2833 26.4356 18.3626 26.2763 18.3626 26.1171C18.3626 25.9578 18.2436 25.8384 18.085 25.8384L16.7762 25.918ZM19.8697 25.719C19.711 25.719 19.6317 25.8782 19.6317 26.0375C19.6317 26.1967 19.7507 26.3162 19.9093 26.3162L21.2578 26.2365C21.4164 26.2365 21.4957 26.0773 21.4957 25.918C21.4957 25.7588 21.3768 25.6393 21.2181 25.6393L19.8697 25.719Z" fill="#FFE800"/>
</svg>
