<svg width="91" height="91" viewBox="0 0 91 91" fill="none" xmlns="http://www.w3.org/2000/svg">
<path d="M87.8883 43.0095L47.1213 2.12439C45.9514 0.951121 44.0547 0.951118 42.8848 2.12438L2.11819 43.0091C0.948314 44.1824 0.948315 46.0846 2.11819 47.2579L42.8852 88.143C44.0551 89.3163 45.9518 89.3163 47.1217 88.143L87.8883 47.2583C89.0582 46.085 89.0582 44.1828 87.8883 43.0095Z" fill="#FFE800"/>
<mask id="mask0_552_2335" style="mask-type:alpha" maskUnits="userSpaceOnUse" x="1" y="1" width="88" height="89">
<path d="M87.8883 43.0095L47.1213 2.12439C45.9514 0.951121 44.0547 0.951118 42.8848 2.12438L2.11819 43.0091C0.948314 44.1824 0.948315 46.0846 2.11819 47.2579L42.8852 88.143C44.0551 89.3163 45.9518 89.3163 47.1217 88.143L87.8883 47.2583C89.0582 46.085 89.0582 44.1828 87.8883 43.0095Z" fill="#FFE800"/>
</mask>
<g mask="url(#mask0_552_2335)">
<rect y="44.8872" width="94" height="49" fill="white"/>
</g>
<path d="M82.3634 43.0401L47.1524 7.72705C45.9826 6.55378 44.0858 6.55378 42.9159 7.72705L7.70472 43.0403C6.53484 44.2136 6.53485 46.1158 7.70472 47.2891L42.9157 82.6021C44.0856 83.7754 45.9824 83.7754 47.1522 82.6021L82.3634 47.2889C83.5333 46.1156 83.5333 44.2134 82.3634 43.0401Z" stroke="#393940" stroke-width="3" stroke-miterlimit="10"/>
<path d="M54.5015 41.207H35.4064V43.7207H54.5015V41.207Z" fill="#B62D39"/>
<path d="M56.7785 25.762C56.6401 26.894 56.4064 28.0124 56.0799 29.105C55.7176 29.9343 53.9842 30.6598 53.9842 30.6598C54.8089 29.5435 55.3262 28.23 55.4848 26.8505C55.7151 25.4146 55.5078 23.9425 54.8898 22.6265C54.615 23.4285 54.2129 24.1809 53.6993 24.8551C53.2184 25.2523 52.6647 25.5515 52.0693 25.7361C52.3698 25.2886 52.5736 24.7829 52.6672 24.2518C52.7607 23.7207 52.7423 23.1759 52.6128 22.6524C52.2474 20.7104 51.6658 18.8153 50.8791 17.0029C50.8691 18.3392 50.7043 19.6698 50.3877 20.9679C50.0502 21.7124 49.5346 22.3621 48.8868 22.8596C48.9983 20.9153 48.5969 18.976 47.7226 17.2364C46.675 15.2005 45.8092 13.0758 45.1352 10.8872C44.3464 12.5108 43.8722 14.2695 43.7378 16.0701C43.6431 18.0641 43.3485 20.0436 42.8582 21.9786C42.4854 20.8051 42.0447 19.6544 41.5386 18.5321C40.988 17.5056 40.06 16.734 38.9512 16.381C39.3793 17.7215 39.4506 19.1507 39.1581 20.5273C38.9147 21.887 39.1526 23.2893 39.8308 24.4922C39.4302 24.4183 39.0529 24.2508 38.7291 24.0032C38.4054 23.7555 38.1445 23.4348 37.968 23.0671C37.5397 22.2604 36.8702 21.6077 36.0533 21.2011C36.3722 22.4276 36.4337 23.7072 36.2343 24.9588C36.2808 26.7979 36.8267 28.5896 37.8129 30.1417C36.7886 30.0829 35.8134 29.6812 35.0442 29.0013C34.2614 28.2228 33.575 27.3527 33 26.4099C33.5548 28.208 33.9789 30.0441 34.2681 31.9037C34.3087 33.0829 34.6023 34.2395 35.1291 35.2948C35.656 36.3501 36.4035 37.2794 37.3211 38.0194C40.432 39.3989 43.8427 39.9608 47.2308 39.652C48.721 39.7231 50.2079 39.4546 51.5794 38.8666C52.9508 38.2785 54.1712 37.3864 55.1484 36.2574C56.2891 34.5645 56.8436 32.5435 56.7267 30.5045C56.9079 29.0274 56.7785 25.762 56.7785 25.762ZM50.8273 37.035C50.0243 38.0345 48.9441 38.7737 47.7226 39.1598C45.9577 39.5401 44.1148 39.2538 42.5477 38.3563C41.4145 37.3306 40.4068 36.1737 39.5462 34.9098C40.1796 35.2953 40.8834 35.5509 41.6163 35.6614C42.1404 35.7268 42.6705 35.7268 43.1946 35.6614L41.875 33.381C41.5542 32.5514 41.3623 31.6774 41.3058 30.7895C41.6581 31.3568 42.0561 31.8941 42.4959 32.3962C43.1755 32.8395 43.9165 33.1801 44.6952 33.4069C44.4993 32.9039 44.3522 32.3833 44.2555 31.8521C44.0369 30.9795 44.1475 30.0568 44.566 29.2607C45.0261 28.1519 45.3645 26.996 45.5751 25.8139C46.371 26.6815 47.0101 27.6812 47.4639 28.7681C47.061 28.6778 46.6412 28.6964 46.2479 28.8219C45.8545 28.9474 45.5016 29.1753 45.2252 29.4824C44.9487 29.7895 44.759 30.1646 44.675 30.5694C44.591 30.9742 44.6159 31.394 44.7473 31.786C44.8786 32.178 45.1114 32.5281 45.4223 32.8002C45.7331 33.0723 46.1106 33.2566 46.516 33.3345C46.9215 33.4124 47.3405 33.3809 47.7298 33.2434C48.1191 33.1058 48.4649 32.867 48.7317 32.5515C49.4114 32.2262 50.0252 31.7781 50.5428 31.2299C50.5302 32.1054 50.4084 32.976 50.1805 33.8213C49.7357 34.5614 49.1866 35.2335 48.5504 35.8168C48.9135 35.9879 49.3232 36.0336 49.7149 35.9465C50.462 35.7133 51.1819 35.4006 51.8624 35.0136C51.5739 35.7149 51.2277 36.3911 50.8273 37.035Z" fill="#B62D39"/>
</svg>
