<svg width="91" height="91" viewBox="0 0 91 91" fill="none" xmlns="http://www.w3.org/2000/svg">
<path d="M87.8883 43.0095L47.1213 2.12439C45.9514 0.951121 44.0547 0.951118 42.8848 2.12438L2.11819 43.0091C0.948314 44.1824 0.948315 46.0846 2.11819 47.2579L42.8852 88.143C44.0551 89.3163 45.9518 89.3163 47.1217 88.143L87.8883 47.2583C89.0582 46.085 89.0582 44.1828 87.8883 43.0095Z" fill="#FFE800"/>
<path d="M82.3634 43.0401L47.1524 7.72705C45.9826 6.55378 44.0858 6.55378 42.9159 7.72705L7.70472 43.0403C6.53484 44.2136 6.53485 46.1158 7.70472 47.2891L42.9157 82.6021C44.0856 83.7754 45.9824 83.7754 47.1522 82.6021L82.3634 47.2889C83.5333 46.1156 83.5333 44.2134 82.3634 43.0401Z" stroke="#393940" stroke-width="3" stroke-miterlimit="10"/>
<path d="M44.7643 32.1445C47.9789 32.1377 51.1234 33.0653 53.8008 34.8102C56.4782 36.5551 58.5683 39.0389 59.8071 41.9481C61.046 44.8573 61.378 48.0613 60.7613 51.1554C60.1446 54.2496 58.6068 57.0951 56.3422 59.3326C54.0775 61.5701 51.1875 63.0992 48.0373 63.7268C44.8871 64.3545 41.6178 64.0525 38.6424 62.859C35.6671 61.6655 33.1191 59.6341 31.3203 57.0212C29.5214 54.4083 28.5524 51.3312 28.5357 48.1786H25L30.4449 41.7566L35.8898 48.1786H32.3117C32.3414 51.1656 33.4863 54.0385 35.5298 56.2536C37.5734 58.4687 40.3739 59.8724 43.4015 60.1991C46.4291 60.5259 49.4738 59.7531 51.9596 58.0268C54.4454 56.3006 56.2 53.7408 56.8913 50.8315C57.5826 47.9223 57.1627 44.8654 55.7111 42.2392C54.2595 39.6131 51.8768 37.5998 49.0139 36.5802C46.1509 35.5607 43.0062 35.6056 40.1747 36.7065C37.3432 37.8073 35.0213 39.8877 33.6482 42.5542L31.0813 39.5096C32.5467 37.2511 34.5697 35.392 36.9628 34.1045C39.356 32.817 42.0418 32.1428 44.7714 32.1445H44.7643ZM45.9735 45.9246C46.4359 46.164 46.8033 46.5483 47.017 47.0163C47.2308 47.4843 47.2786 48.0089 47.1529 48.5067C47.0272 49.0044 46.7352 49.4466 46.3234 49.7626C45.9116 50.0786 45.4038 50.2503 44.881 50.2503C44.3581 50.2503 43.8503 50.0786 43.4385 49.7626C43.0268 49.4466 42.7347 49.0044 42.609 48.5067C42.4833 48.0089 42.5311 47.4843 42.7449 47.0163C42.9587 46.5483 43.326 46.164 43.7884 45.9246L44.0925 38.4347C44.1111 38.2423 44.2022 38.0636 44.348 37.9335C44.4938 37.8034 44.6839 37.7313 44.881 37.7313C45.0781 37.7313 45.2681 37.8034 45.4139 37.9335C45.5597 38.0636 45.6508 38.2423 45.6694 38.4347L45.9735 45.9246ZM55.4915 31.0071L57.535 32.3942C57.6007 32.4373 57.6569 32.493 57.7004 32.5577C57.7439 32.6225 57.7737 32.6951 57.7882 32.7713C57.8027 32.8475 57.8016 32.9258 57.7848 33.0016C57.768 33.0774 57.736 33.1491 57.6906 33.2126L56.3329 35.1544C56.2889 35.2188 56.2322 35.2739 56.1662 35.3165C56.1002 35.3592 56.0261 35.3884 55.9484 35.4026C55.8707 35.4169 55.7909 35.4158 55.7136 35.3993C55.6364 35.3829 55.5633 35.3515 55.4985 35.307L53.4478 33.92C53.3178 33.8291 53.2288 33.6922 53.1998 33.5382C53.1707 33.3841 53.2039 33.2251 53.2923 33.0946L54.65 31.1528C54.6946 31.0882 54.752 31.0329 54.8186 30.9902C54.8853 30.9475 54.9599 30.9181 55.0382 30.904C55.1165 30.8898 55.1968 30.891 55.2747 30.9075C55.3525 30.924 55.4262 30.9556 55.4915 31.0003V31.0071ZM47.0059 30.5702V31.6869C45.5505 31.503 44.0771 31.503 42.6217 31.6869V30.5841H41.0801C40.9213 30.5823 40.7695 30.5196 40.6571 30.4095C40.5448 30.2993 40.4809 30.1504 40.4791 29.9946V26.5895C40.4791 26.4331 40.5424 26.2833 40.6551 26.1727C40.7678 26.0622 40.9207 26 41.0801 26H48.5899C48.7493 26 48.9022 26.0622 49.0149 26.1727C49.1276 26.2833 49.1909 26.4331 49.1909 26.5895V29.9946C49.1891 30.1504 49.1252 30.2993 49.0128 30.4095C48.9005 30.5196 48.7487 30.5823 48.5899 30.5841L47.0059 30.5702Z" fill="#393940"/>
</svg>
