<svg width="90" height="91" viewBox="0 0 90 91" fill="none" xmlns="http://www.w3.org/2000/svg">
<path d="M2.12532 47.572L42.8857 88.4505C44.0555 89.6238 45.9523 89.6238 47.1222 88.4505L87.8821 47.5724C89.052 46.3992 89.052 44.4969 87.8821 43.3237L47.1218 2.4452C45.9519 1.27193 44.0552 1.27193 42.8853 2.4452L2.12532 43.3233C0.955445 44.4965 0.955443 46.3988 2.12532 47.572Z" fill="#FFE800"/>
<mask id="mask0_968_150" style="mask-type:alpha" maskUnits="userSpaceOnUse" x="1" y="1" width="88" height="89">
<path d="M2.12532 47.572L42.8857 88.4505C44.0555 89.6238 45.9523 89.6238 47.1222 88.4505L87.8821 47.5724C89.052 46.3992 89.052 44.4969 87.8821 43.3237L47.1218 2.4452C45.9519 1.27193 44.0552 1.27193 42.8853 2.4452L2.12532 43.3233C0.955445 44.4965 0.955443 46.3988 2.12532 47.572Z" fill="#FFE800"/>
</mask>
<g mask="url(#mask0_968_150)">
<rect x="90" y="45.6942" width="93.9861" height="48.9928" transform="rotate(-180 90 45.6942)" fill="white"/>
</g>
<path d="M7.64923 47.5414L42.8544 82.8487C44.0243 84.022 45.921 84.022 47.0909 82.8487L82.2963 47.5412C83.4662 46.368 83.4662 44.4657 82.2963 43.2925L47.0911 7.98517C45.9212 6.8119 44.0245 6.8119 42.8546 7.98517L7.64923 43.2926C6.47935 44.4659 6.47935 46.3681 7.64923 47.5414Z" stroke="#393940" stroke-width="2" stroke-miterlimit="10"/>
<g clip-path="url(#clip0_968_150)">
<path d="M70.9999 47.2976V48.9762H64.0571V47.5774L67.6223 44.2202C67.9976 43.8472 68.279 43.5675 68.3729 43.2877C68.4667 43.0079 68.5605 42.7282 68.5605 42.5417C68.5605 42.1686 68.4667 41.8889 68.1852 41.7024C67.9038 41.5159 67.6223 41.4226 67.0594 41.4226C66.6841 41.4226 66.3088 41.5159 65.9335 41.7024C65.652 41.8889 65.3706 42.0754 65.0891 42.3552L63.4941 41.3294C63.8694 40.7698 64.3385 40.3968 64.9953 40.1171C65.652 39.8373 66.3088 39.6508 67.1532 39.6508C67.8099 39.6508 68.4667 39.744 68.9358 40.0238C69.4987 40.2103 69.874 40.5833 70.1555 40.9563C70.4369 41.3294 70.6246 41.7956 70.6246 42.3552C70.6246 42.8214 70.5308 43.2877 70.3431 43.754C70.1555 44.2202 69.6864 44.6865 69.1234 45.246L66.9655 47.2044H70.9999V47.2976Z" fill="#3B3B41"/>
<path d="M41.8218 65.0159V66.6945H34.6914V57.5556H41.6342V59.2341H36.8493V61.1925H41.0713V62.871H36.8493V65.0159H41.8218ZM46.3253 55.6905H48.1079L43.7921 68H42.0095L46.3253 55.6905ZM55.8012 65.0159V66.6945H48.6708V57.5556H55.6136V59.2341H50.7349V61.1925H54.9569V62.871H50.7349V65.0159H55.8012Z" fill="#3B3B41"/>
<path d="M45.5744 21L53.3616 25.0099L45.4805 29.3929H45.3867L37.6934 25.1032L45.5744 21Z" fill="#3B3B41"/>
<path d="M37.0361 34.9881L44.8233 39.6508V30.5119L37.13 26.0357L37.0361 34.9881Z" fill="#3B3B41"/>
<path d="M45.9492 30.4187V39.5576L53.8302 34.9881V25.9425L45.9492 30.4187Z" fill="#3B3B41"/>
<path d="M38.0687 53.6389H44.73V53.5456V46.1786C44.73 45.3393 44.5423 44.5933 44.0732 43.8472C43.6979 43.1012 43.0412 42.5417 42.3844 42.0754L34.5034 37.879C34.222 37.6925 33.7529 37.5992 33.4714 37.6925C33.0961 37.7857 32.8146 37.9722 32.5332 38.252C32.4394 38.4385 32.2517 38.625 32.2517 38.8115C32.1579 38.998 32.1579 39.2778 32.2517 39.4643C32.2517 39.6508 32.3455 39.9306 32.5332 40.0238C32.627 40.3036 32.8146 40.4901 33.0023 40.5833L38.6316 43.6607C38.7254 43.6607 38.7254 43.754 38.7254 43.8472C38.7254 43.9405 38.7254 43.9405 38.7254 44.0337C38.7254 44.127 38.6316 44.127 38.5378 44.127C38.4439 44.127 38.4439 44.127 38.3501 44.127L32.9085 41.1429C32.627 41.0496 32.4394 40.8631 32.2517 40.5833C32.0641 40.3968 31.9703 40.1171 31.8764 39.8373C31.7826 39.5575 31.7826 39.2778 31.7826 38.998C31.7826 38.7183 31.8764 38.4385 32.0641 38.1587C32.3455 37.7857 32.7208 37.4127 33.1899 37.3194V37.2262V29.2996C33.1899 28.9266 33.0961 28.5536 32.8146 28.2738C32.5332 27.9941 32.2517 27.8075 31.8764 27.7143C31.6888 27.621 31.4073 27.621 31.2197 27.7143C30.9382 27.8075 30.7506 27.9008 30.5629 28.0873C30.3753 28.1806 30.1876 28.3671 30.0938 28.6468C30 28.9266 30 29.0198 30 29.2996V41.7956C30 42.1687 30.0938 42.6349 30.2815 43.0079C30.4691 43.381 30.7506 43.6607 31.032 43.9405L37.9748 49.256V53.6389H38.0687Z" fill="#3B3B41"/>
<path d="M52.7991 53.6389H46.1378C46.1378 53.6389 46.1378 53.6389 46.0439 53.6389C46.0439 53.6389 46.0439 53.6389 46.0439 53.5456L46.1378 46.1786C46.1378 45.3393 46.3254 44.5933 46.7945 43.8472C47.1698 43.1012 47.7327 42.5417 48.4833 42.0754L56.3643 37.879C56.6458 37.6925 57.1149 37.5992 57.4902 37.6925C57.8655 37.7857 58.2407 37.9722 58.4284 38.252C58.5222 38.4385 58.7098 38.625 58.7098 38.8115C58.8037 38.998 58.8037 39.2778 58.7098 39.4643C58.7098 39.6508 58.616 39.9306 58.4284 40.0238C58.3346 40.2103 58.1469 40.3968 57.9593 40.4901L52.33 43.5675C52.2362 43.5675 52.2362 43.6607 52.2362 43.754C52.2362 43.8472 52.2362 43.8472 52.2362 43.9405C52.2362 44.0337 52.33 44.0337 52.33 44.0337C52.4238 44.0337 52.4238 44.0337 52.5176 44.0337L57.9593 41.0496C58.2407 40.9564 58.4284 40.7699 58.616 40.4901C58.8037 40.2103 58.8975 40.0238 58.9913 39.7441C59.0851 39.4643 59.0851 39.1845 59.0851 38.9048C59.0851 38.625 58.9913 38.3452 58.8037 38.0655C58.5222 37.6925 58.1469 37.3195 57.7716 37.2262V37.1329V29.2996C57.7716 28.9266 57.8655 28.5536 58.1469 28.2738C58.4284 27.9941 58.7098 27.8076 59.0851 27.7143C59.2728 27.621 59.5542 27.7143 59.7419 27.7143C59.9295 27.7143 60.211 27.9008 60.3986 27.9941C60.5863 28.1806 60.6801 28.3671 60.7739 28.5536C60.9616 28.8333 60.9616 29.0199 60.9616 29.2996V41.7956C60.9616 42.1687 60.8677 42.6349 60.6801 43.0079C60.4925 43.381 60.211 43.6607 59.9295 43.9405L52.9867 49.256V53.6389H52.7991Z" fill="#3B3B41"/>
</g>
<defs>
<clipPath id="clip0_968_150">
<rect width="41" height="47" fill="white" transform="translate(30 21)"/>
</clipPath>
</defs>
</svg>
