<svg width="34" height="33" viewBox="0 0 34 33" fill="none" xmlns="http://www.w3.org/2000/svg">
<rect x="0.435623" width="33.0002" height="33.0002" rx="6" fill="white"/>
<path d="M20.1343 33.0009C18.2713 33.0009 16.4334 33.0009 14.5793 33.0009C14.5793 28.6067 14.5793 24.2195 14.5793 19.8182C13.027 19.8182 11.491 19.8182 9.95949 19.8182C9.92101 19.709 9.9077 14.9362 9.94173 14.698C11.4762 14.698 13.0137 14.698 14.5704 14.698C14.5719 14.6299 14.5749 14.576 14.5749 14.5207C14.5749 13.3197 14.5734 12.1202 14.5763 10.9192C14.5778 10.0457 14.6814 9.185 14.9522 8.34699C15.2896 7.3048 15.8519 6.39731 16.7072 5.66848C17.4752 5.01481 18.3719 4.59935 19.3634 4.36113C20.0011 4.20658 20.6507 4.13142 21.3092 4.12717C22.3051 4.12008 23.301 4.14419 24.2954 4.20941C24.6934 4.23494 25.0915 4.26897 25.4895 4.30016C25.5236 4.303 25.5561 4.31009 25.5976 4.31576C25.5976 5.84573 25.5976 7.36861 25.5976 8.90992C25.5325 8.90992 25.4748 8.90992 25.417 8.90992C24.5588 8.90992 23.7005 8.9085 22.8423 8.9085C22.422 8.9085 22.0047 8.92835 21.5963 9.03753C21.5016 9.06306 21.4069 9.09142 21.3166 9.12686C20.7055 9.35799 20.3548 9.80039 20.226 10.4059C20.1743 10.6497 20.1373 10.9021 20.1358 11.1503C20.1254 12.2946 20.1299 13.4374 20.1284 14.5817C20.1284 14.6129 20.1343 14.6455 20.1387 14.6909C21.8952 14.6909 23.6428 14.6909 25.386 14.6909C25.4259 14.793 24.7512 19.6481 24.7127 19.8125C23.9521 19.8125 23.19 19.8125 22.4265 19.8125C21.6673 19.8125 20.9082 19.8125 20.1343 19.8125C20.1343 24.2082 20.1343 28.5953 20.1343 33.0009Z" fill="#B62D39"/>
</svg>
