<svg width="53" height="53" viewBox="0 0 53 53" fill="none" xmlns="http://www.w3.org/2000/svg">
<path d="M50.3272 24.1744L28.3409 2.12439C27.171 0.951121 25.2743 0.951118 24.1044 2.12438L2.11828 24.1742C0.948408 25.3475 0.948409 27.2497 2.11829 28.423L24.1046 50.473C25.2745 51.6463 27.1712 51.6463 28.3411 50.473L50.3272 28.4232C51.4971 27.2499 51.4971 25.3477 50.3272 24.1744Z" fill="#FFE800"/>
<path d="M47.1079 24.1923L28.359 5.38904C27.1891 4.21577 25.2924 4.21577 24.1225 5.38903L5.3734 24.1924C4.20352 25.3657 4.20352 27.2679 5.3734 28.4412L24.1224 47.2445C25.2922 48.4178 27.189 48.4178 28.3589 47.2445L47.1079 28.4411C48.2778 27.2678 48.2778 25.3656 47.1079 24.1923Z" stroke="#393940" stroke-miterlimit="10"/>
<g clip-path="url(#clip0_148_129)">
<path d="M22.567 35.0001C20.589 35.0001 18.611 35.0001 16.633 35.0001C16.044 35.0001 16 34.9571 16 34.3991C16 31.7547 16 29.1017 16 26.4574C16 25.6246 16.2813 25.3584 17.1429 25.3584C20.7648 25.3584 24.378 25.3584 28 25.3584C28.8088 25.3584 29.0725 25.6246 29.0725 26.4144C29.0725 29.0931 29.0725 31.7633 29.0725 34.442C29.0725 34.9657 29.0374 35.0001 28.5011 35.0001C26.5231 35.0001 24.5451 35.0001 22.567 35.0001ZM27.411 28.5608C27.411 28.2432 27.4022 27.9341 27.411 27.6164C27.4198 27.3159 27.2703 27.1957 26.989 27.1957C26.3297 27.1957 25.6703 27.1786 25.0198 27.2129C24.8791 27.2215 24.6505 27.4275 24.6418 27.5563C24.6066 28.226 24.6066 28.8957 24.6418 29.5654C24.6505 29.6856 24.8527 29.8916 24.9758 29.9002C25.6615 29.9345 26.3473 29.9174 27.033 29.9174C27.2879 29.9174 27.4022 29.7972 27.4022 29.5482C27.4022 29.2133 27.411 28.8871 27.411 28.5608ZM22.5407 29.9088C22.8659 29.9088 23.1824 29.9002 23.5077 29.9088C23.8242 29.926 23.9648 29.7972 23.9648 29.4881C23.956 28.8613 23.956 28.2346 23.9648 27.5992C23.9648 27.3417 23.8593 27.1871 23.578 27.1871C22.9011 27.1871 22.233 27.1871 21.556 27.1871C21.2835 27.1871 21.1692 27.3245 21.1692 27.5907C21.178 28.2346 21.1692 28.8785 21.1692 29.5224C21.1692 29.78 21.2835 29.9174 21.5648 29.9088C21.8901 29.9002 22.2154 29.9088 22.5407 29.9088ZM23.956 31.8148C23.956 31.5315 23.9473 31.2396 23.956 30.9562C23.9736 30.63 23.8418 30.484 23.4989 30.484C22.8747 30.4926 22.2418 30.4926 21.6088 30.484C21.2659 30.4754 21.1516 30.63 21.1604 30.9562C21.178 31.5401 21.178 32.1239 21.1604 32.7163C21.1516 33.0597 21.2659 33.2142 21.6352 33.2057C22.2505 33.1885 22.8659 33.1885 23.4813 33.2057C23.8505 33.2142 23.9736 33.0425 23.956 32.7163C23.9473 32.4158 23.956 32.1153 23.956 31.8148ZM26.0396 30.4926C25.7143 30.4926 25.3978 30.5012 25.0725 30.4926C24.756 30.4754 24.6154 30.6128 24.6242 30.9219C24.633 31.5315 24.633 32.1496 24.6242 32.7592C24.6242 33.0597 24.7473 33.2057 25.0637 33.2057C25.7055 33.1971 26.3473 33.1971 26.989 33.2057C27.2879 33.2057 27.411 33.0769 27.411 32.7936C27.4022 32.184 27.3934 31.5658 27.411 30.9562C27.4198 30.5956 27.2615 30.4754 26.9099 30.4926C26.6198 30.5098 26.3297 30.4926 26.0396 30.4926ZM17.7231 28.5351C17.7231 28.8613 17.7319 29.1876 17.7231 29.5224C17.7143 29.7886 17.8286 29.9174 18.1099 29.9174C18.778 29.9088 19.4549 29.9088 20.1231 29.9174C20.3868 29.9174 20.4923 29.7886 20.4923 29.5568C20.4923 28.8871 20.4923 28.2174 20.4923 27.5477C20.4923 27.2902 20.3692 27.1614 20.0879 27.17C19.4286 27.1786 18.778 27.1786 18.1187 27.17C17.8462 27.17 17.7143 27.2902 17.7231 27.5563C17.7319 27.874 17.7231 28.2002 17.7231 28.5351ZM19.1209 30.4926C18.8132 30.4926 18.5055 30.5012 18.1978 30.4926C17.8637 30.4754 17.7055 30.5956 17.7143 30.9305C17.7319 31.5486 17.7231 32.1582 17.7143 32.7764C17.7055 33.0597 17.811 33.2057 18.1187 33.2057C18.778 33.1971 19.4374 33.2057 20.0967 33.2057C20.378 33.2057 20.4923 33.0597 20.4923 32.8021C20.4923 32.1582 20.4923 31.5143 20.4923 30.8704C20.4923 30.6042 20.3692 30.484 20.0879 30.4926C19.7714 30.5012 19.4462 30.4926 19.1209 30.4926Z" fill="#393940"/>
<path d="M34.6813 31.3428C33.0725 31.3428 31.5077 31.3428 29.9252 31.3428C29.9077 31.2913 29.8725 31.2398 29.8725 31.1883C29.8813 29.3853 29.8022 27.5909 30.0923 25.7965C30.3648 24.1137 30.5406 22.4224 30.7516 20.7396C30.8395 20.0441 31.0329 19.8553 31.7626 19.8467C32.1406 19.8467 32.5274 19.8467 32.9055 19.8467C33.5208 19.8553 33.7494 20.0527 33.8197 20.6451C34.0044 22.1047 34.145 23.5728 34.3824 25.0238C34.7164 27.0243 34.734 29.0333 34.7077 31.0509C34.6989 31.1368 34.6901 31.2141 34.6813 31.3428Z" fill="#393940"/>
<path d="M20.5626 17.8633C21.6 17.8633 22.5846 17.8633 23.6044 17.8633C23.6044 20.1728 23.6044 22.4652 23.6044 24.7747C22.5846 24.7747 21.5824 24.7747 20.5626 24.7747C20.5626 22.4652 20.5626 20.1814 20.5626 17.8633Z" fill="#393940"/>
<path d="M29.7054 35C29.7054 33.9526 29.7054 32.9738 29.7054 31.9349C29.8549 31.9264 29.9868 31.9092 30.1274 31.9092C31.8241 31.9092 33.5208 31.9092 35.2263 31.9092C35.8329 31.9092 35.9912 32.0551 35.9912 32.639C36 33.2829 35.9912 33.9268 35.9912 34.5707C35.9912 34.854 35.8769 35.0086 35.578 35.0086C33.6439 35 31.6923 35 29.7054 35Z" fill="#393940"/>
<path d="M33.5033 19.5459C33.4857 19.5459 33.477 19.5459 33.4594 19.5459C32.9231 19.3656 32.3429 19.2454 31.8594 18.9706C31.6396 18.8418 31.4901 18.4297 31.4813 18.1378C31.4638 17.7429 31.7539 17.4767 32.1407 17.3136C32.3605 17.2277 32.5539 17.0818 32.7649 16.9787C32.9583 16.8929 33.1868 16.7298 33.3627 16.7727C33.855 16.8843 34.3209 16.7984 34.8044 16.7727C35.3143 16.7384 35.7627 17.0989 35.9297 17.5712C36.0967 18.052 35.9649 18.4812 35.5605 18.8418C35.4374 18.9534 35.3319 19.0908 35.244 19.2282C34.9627 19.7004 34.4879 19.8549 33.9693 19.6317C33.8286 19.5716 33.6792 19.5373 33.5297 19.4943C33.5209 19.5115 33.5121 19.5287 33.5033 19.5459Z" fill="#393940"/>
<path d="M20.5099 17.1935C20.5099 16.9617 20.5011 16.7642 20.5099 16.5667C20.5275 16.2319 20.7297 16.0258 21.0637 16.0172C21.7143 16.0001 22.3736 15.9915 23.033 16.0172C23.367 16.0258 23.5692 16.2319 23.578 16.5667C23.5868 16.7642 23.578 16.9617 23.578 17.1935C22.5494 17.1935 21.556 17.1935 20.5099 17.1935Z" fill="#393940"/>
<path d="M25.2219 27.7793C25.767 27.7793 26.2681 27.7793 26.8043 27.7793C26.8043 28.2944 26.8043 28.7838 26.8043 29.3161C26.2769 29.3161 25.767 29.3161 25.2219 29.3161C25.2219 28.8096 25.2219 28.3202 25.2219 27.7793Z" fill="#393940"/>
<path d="M21.7759 27.7793C22.3121 27.7793 22.8045 27.7793 23.3319 27.7793C23.3319 28.2858 23.3319 28.7838 23.3319 29.3247C22.822 29.3247 22.3121 29.3247 21.7759 29.3247C21.7759 28.8096 21.7759 28.3116 21.7759 27.7793Z" fill="#393940"/>
<path d="M23.3407 32.639C22.8132 32.639 22.3297 32.639 21.7935 32.639C21.7935 32.1238 21.7935 31.6173 21.7935 31.085C22.2946 31.085 22.7957 31.085 23.3407 31.085C23.3407 31.5829 23.3407 32.0895 23.3407 32.639Z" fill="#393940"/>
<path d="M26.8043 31.1021C26.8043 31.5914 26.8043 32.0894 26.8043 32.6131C26.2944 32.6131 25.7846 32.6131 25.2395 32.6131C25.2395 32.1409 25.2395 31.6429 25.2395 31.1021C25.7318 31.1021 26.2593 31.1021 26.8043 31.1021Z" fill="#393940"/>
<path d="M18.3121 27.7793C18.8484 27.7793 19.3495 27.7793 19.8946 27.7793C19.8946 28.2858 19.8946 28.7924 19.8946 29.3247C19.3759 29.3247 18.8572 29.3247 18.3121 29.3247C18.3121 28.801 18.3121 28.303 18.3121 27.7793Z" fill="#393940"/>
<path d="M18.3121 32.6216C18.3121 32.0893 18.3121 31.5913 18.3121 31.0762C18.8572 31.0762 19.3671 31.0762 19.9121 31.0762C19.9121 31.5999 19.9121 32.0979 19.9121 32.6216C19.3847 32.6216 18.866 32.6216 18.3121 32.6216Z" fill="#393940"/>
</g>
<defs>
<clipPath id="clip0_148_129">
<rect width="20" height="19" fill="white" transform="translate(16 16)"/>
</clipPath>
</defs>
</svg>
