<svg width="90" height="91" viewBox="0 0 90 91" fill="none" xmlns="http://www.w3.org/2000/svg">
<path d="M2.12483 47.5721L42.8852 88.4506C44.055 89.6238 45.9518 89.6238 47.1217 88.4506L87.8816 47.5725C89.0515 46.3992 89.0515 44.497 87.8816 43.3237L47.1213 2.44526C45.9514 1.27199 44.0547 1.27199 42.8848 2.44526L2.12483 43.3233C0.954956 44.4966 0.954955 46.3988 2.12483 47.5721Z" fill="#FFE800"/>
<mask id="mask0_131_358" style="mask-type:alpha" maskUnits="userSpaceOnUse" x="1" y="1" width="88" height="89">
<path d="M2.12483 47.5721L42.8852 88.4506C44.055 89.6238 45.9518 89.6238 47.1217 88.4506L87.8816 47.5725C89.0515 46.3992 89.0515 44.497 87.8816 43.3237L47.1213 2.44526C45.9514 1.27199 44.0547 1.27199 42.8848 2.44526L2.12483 43.3233C0.954956 44.4966 0.954955 46.3988 2.12483 47.5721Z" fill="#FFE800"/>
</mask>
<g mask="url(#mask0_131_358)">
<rect x="90" y="45.6941" width="93.9861" height="48.9928" transform="rotate(-180 90 45.6941)" fill="white"/>
</g>
<path d="M7.64898 47.5415L42.8542 82.8488C44.024 84.022 45.9208 84.022 47.0907 82.8488L82.296 47.5413C83.4659 46.368 83.4659 44.4658 82.296 43.2925L47.0908 7.98523C45.921 6.81196 44.0242 6.81196 42.8544 7.98523L7.64898 43.2927C6.47911 44.466 6.47911 46.3682 7.64898 47.5415Z" stroke="#393940" stroke-width="2" stroke-miterlimit="10"/>
<g clip-path="url(#clip0_131_358)">
<path d="M44.0477 26.697C43.5204 25.3615 41.5286 26.1163 41.9973 27.4518L53.1867 56.9486C53.3038 57.4131 53.9482 57.7615 54.6512 57.5292L64.5518 53.8711C65.8992 53.3486 65.1376 51.3744 63.7902 51.8389L54.827 55.1486L44.0477 26.697ZM28.1131 43.7099H36.3147C36.7248 43.7099 37.0763 43.826 37.252 44.1744L38.0136 45.3357C38.1894 45.626 38.4237 45.8002 38.8338 45.8002L47.6798 45.7421C48.5 48.0066 49.3787 50.3292 50.2575 52.5937C50.3161 52.826 50.0232 53.0582 49.8474 52.8841C46.4496 50.5615 41.1771 52.7099 41.1771 57.4131C41.1771 57.9357 40.9428 58.1679 40.5327 58.226H36.0218C35.6703 58.226 35.436 58.0518 35.3774 57.6453C34.8501 53.9292 30.1635 52.4776 27.5858 55.0324C27.2929 55.3228 27.1172 55.2647 27.0586 54.6841V44.8131C27 44.1744 27.4687 43.7099 28.1131 43.7099ZM45.0436 44.9292L40.8256 33.8389H31.6281V42.7808H29.4605V32.7937C29.4605 32.2131 29.9292 31.6905 30.5736 31.6905H41.5872C42.0559 31.6905 42.4659 31.9228 42.6417 32.3873L47.3869 44.9292H45.0436ZM30.7493 54.5099C32.7997 54.5099 34.4986 56.1937 34.4986 58.226C34.4986 60.2582 32.7997 61.9421 30.7493 61.9421C28.6989 62.0002 27 60.3163 27 58.226C27 56.1937 28.6989 54.5099 30.7493 54.5099ZM30.7493 56.426C29.7534 56.426 28.9332 57.2389 28.9332 58.226C28.9332 59.2131 29.7534 60.026 30.7493 60.026C31.7452 60.026 32.5654 59.2131 32.5654 58.226C32.624 57.2389 31.8038 56.426 30.7493 56.426ZM46.6839 52.7679C49.2616 52.7679 51.312 54.8582 51.312 57.355C51.312 59.9099 49.203 61.9421 46.6839 61.9421C44.1063 61.9421 42.0559 59.8518 42.0559 57.355C41.9973 54.8582 44.1063 52.7679 46.6839 52.7679ZM46.6839 54.9744C45.3365 54.9744 44.2234 56.0776 44.2234 57.4131C44.2234 58.7486 45.3365 59.8518 46.6839 59.8518C48.0313 59.8518 49.1444 58.7486 49.1444 57.4131C49.0858 56.0195 48.0313 54.9744 46.6839 54.9744ZM60.8025 48.297L59.9237 45.9744L60.861 45.626L58.2834 43.9421L57.4632 46.9034L58.4005 46.555L59.2793 48.8776L60.8025 48.297ZM64.4346 46.9615L63.5559 44.6389L64.4932 44.2905L61.9155 42.6066L61.0954 45.5679L62.0327 45.2195L62.9114 47.5421L64.4346 46.9615ZM59.2207 37.3228L59.8651 39.0066L57.4632 39.8776L56.8188 38.1937L52.6594 39.7034L56.7016 50.4453L67.5395 46.4389L63.4973 35.697L59.2207 37.3228ZM64.6104 33.3163L69.9414 47.5421L55.5886 52.826C53.8311 48.0647 52.015 43.3615 50.2575 38.6002L64.6104 33.3163Z" fill="#393940"/>
</g>
<defs>
<clipPath id="clip0_131_358">
<rect width="43" height="36" fill="white" transform="translate(27 26.0002)"/>
</clipPath>
</defs>
</svg>
