<svg width="33" height="33" viewBox="0 0 33 33" fill="none" xmlns="http://www.w3.org/2000/svg">
<g clip-path="url(#clip0_44_733)">
<path d="M22.6876 0H10.3126C7.57798 0.000655921 4.95557 1.08714 3.02178 3.02062C1.088 4.9541 0.00109378 7.57633 2.97029e-07 10.3109V22.6851C-0.000324776 24.0396 0.266177 25.3809 0.784286 26.6323C1.30239 27.8838 2.06196 29.0209 3.0196 29.9788C3.97724 30.9367 5.1142 31.6965 6.36554 32.2149C7.61688 32.7333 8.95808 33.0002 10.3126 33.0002H22.6876C24.7277 32.9996 26.7218 32.3943 28.4178 31.2606C30.1139 30.127 31.4358 28.5159 32.2164 26.6311C32.7339 25.3796 33.0002 24.0386 33.0002 22.6843V10.3117C33 7.57681 31.9134 4.95399 29.9794 3.02018C28.0454 1.08638 25.4225 -8.75173e-09 22.6876 0V0ZM29.9072 22.6851C29.9073 23.6332 29.7207 24.5719 29.358 25.4478C28.9952 26.3237 28.4635 27.1195 27.7931 27.7898C27.1228 28.4602 26.327 28.9919 25.4511 29.3547C24.5752 29.7174 23.6365 29.904 22.6884 29.9039H10.3126C8.39794 29.9039 6.56172 29.1434 5.20781 27.7896C3.85389 26.4359 3.09316 24.5998 3.09294 22.6851V10.3101C3.09294 9.36213 3.27967 8.42347 3.64245 7.54769C4.00524 6.67192 4.53699 5.87618 5.20732 5.20592C5.87766 4.53566 6.67346 4.004 7.54928 3.64131C8.4251 3.27863 9.36378 3.09201 10.3117 3.09212H22.6876C24.6022 3.09233 26.4382 3.85293 27.7921 5.20664C29.146 6.56035 29.9068 8.39635 29.9072 10.3109V22.6851Z" fill="white"/>
<path d="M16.5001 8.24998C15.2801 8.24994 14.0754 8.52038 12.9725 9.04182C11.8696 9.56327 10.896 10.3227 10.1218 11.2656C9.34767 12.2084 8.79218 13.3112 8.49534 14.4945C8.1985 15.6778 8.1677 16.9122 8.40515 18.1088C8.64303 19.3056 9.14343 20.4347 9.87029 21.4148C10.5971 22.3949 11.5324 23.2016 12.6085 23.7767C13.6847 24.3518 14.8751 24.681 16.0938 24.7406C17.3126 24.8002 18.5294 24.5887 19.6566 24.1214C21.4195 23.3908 22.8746 22.0715 23.774 20.3884C24.6735 18.7053 24.9616 16.7625 24.5894 14.8908C24.2172 13.0191 23.2076 11.3343 21.7326 10.1235C20.2576 8.91259 18.4084 8.2505 16.5001 8.24998ZM16.5001 21.653C15.4803 21.6525 14.4836 21.3497 13.636 20.7827C12.7884 20.2158 12.1279 19.4103 11.738 18.468C11.3481 17.5258 11.2464 16.489 11.4457 15.489C11.645 14.4889 12.1364 13.5704 12.8577 12.8495C13.579 12.1287 14.4978 11.6379 15.498 11.4392C16.4982 11.2406 17.5349 11.343 18.4769 11.7334C19.419 12.1239 20.2241 12.7849 20.7904 13.6329C21.3568 14.4809 21.659 15.4778 21.6588 16.4975C21.6573 17.865 21.1132 19.176 20.146 20.1428C19.1788 21.1095 17.8676 21.6529 16.5001 21.6538V21.653ZM25.3689 8.73013C25.6604 8.73013 25.9401 8.61431 26.1462 8.40815C26.3524 8.20199 26.4682 7.92237 26.4682 7.63081C26.4682 7.33926 26.3524 7.05964 26.1462 6.85348C25.9401 6.64732 25.6604 6.53149 25.3689 6.53149C25.0773 6.53149 24.7977 6.64732 24.5915 6.85348C24.3854 7.05964 24.2696 7.33926 24.2696 7.63081C24.2696 7.92237 24.3854 8.20199 24.5915 8.40815C24.7977 8.61431 25.0773 8.73013 25.3689 8.73013Z" fill="white"/>
</g>
<defs>
<clipPath id="clip0_44_733">
<rect width="33.0002" height="33.0002" fill="white"/>
</clipPath>
</defs>
</svg>
