<svg width="63" height="73" viewBox="0 0 63 73" fill="none" xmlns="http://www.w3.org/2000/svg">
<path d="M8.264 71H12.696V69.736H10.384L11.344 69.064C12.184 68.472 12.64 68 12.64 67.104C12.64 66.032 11.8 65.304 10.576 65.304C9.488 65.304 8.896 65.728 8.296 66.504L9.344 67.376C9.784 66.872 10.08 66.656 10.456 66.656C10.832 66.656 11.08 66.872 11.08 67.224C11.08 67.56 10.888 67.832 10.36 68.232L8.264 69.832V71ZM15.9042 71.112C17.5042 71.112 18.5042 69.784 18.5042 68.2C18.5042 66.6 17.5122 65.288 15.9202 65.288C14.3282 65.288 13.3202 66.616 13.3202 68.2C13.3202 69.8 14.3042 71.112 15.9042 71.112ZM15.9202 69.736C15.2962 69.736 14.8802 69.096 14.8802 68.2C14.8802 67.288 15.2882 66.664 15.9042 66.664C16.5202 66.664 16.9442 67.312 16.9442 68.2C16.9442 69.104 16.5442 69.736 15.9202 69.736ZM19.0218 71H23.4538V69.736H21.1418L22.1018 69.064C22.9418 68.472 23.3978 68 23.3978 67.104C23.3978 66.032 22.5578 65.304 21.3338 65.304C20.2458 65.304 19.6538 65.728 19.0538 66.504L20.1018 67.376C20.5418 66.872 20.8378 66.656 21.2138 66.656C21.5898 66.656 21.8378 66.872 21.8378 67.224C21.8378 67.56 21.6458 67.832 21.1178 68.232L19.0218 69.832V71ZM24.014 71H28.446V69.736H26.134L27.094 69.064C27.934 68.472 28.39 68 28.39 67.104C28.39 66.032 27.55 65.304 26.326 65.304C25.238 65.304 24.646 65.728 24.046 66.504L25.094 67.376C25.534 66.872 25.83 66.656 26.206 66.656C26.582 66.656 26.83 66.872 26.83 67.224C26.83 67.56 26.638 67.832 26.11 68.232L24.014 69.832V71ZM31.8009 72.024H32.9609V64.616H31.8009V72.024ZM38.0234 71.096C38.6634 71.096 39.1914 70.896 39.5594 70.528C39.9354 70.152 40.1114 69.656 40.1114 68.952V65.4H38.5674V68.944C38.5674 69.464 38.3194 69.728 37.9274 69.728C37.5834 69.728 37.3274 69.536 37.0554 69.208L36.0554 70.152C36.4474 70.688 37.0474 71.096 38.0234 71.096ZM40.3839 71H42.0159L42.4159 70H44.5759L44.9839 71H46.6479L44.2639 65.36H42.7679L40.3839 71ZM42.8719 68.792L43.5039 67.2L44.1279 68.792H42.8719ZM47.8406 71H49.3926V66.76H51.0726V65.4H46.1606V66.76H47.8406V71Z" fill="#393940"/>
<path d="M6.20755 53.7287C3.89562 53.7287 2.45257 51.2238 3.61234 49.2238L28.9813 5.47542C30.1372 3.48199 33.0158 3.48199 34.1717 5.47542L59.5407 49.2238C60.7004 51.2238 59.2574 53.7287 56.9455 53.7287H6.20755Z" fill="#FFE800" stroke="#393940" stroke-width="6" stroke-miterlimit="10"/>
<path d="M29.425 38.925C29.425 38.0583 29.6167 37.3417 30 36.775C30.4 36.2083 30.975 35.5833 31.725 34.9C32.275 34.4 32.675 33.9833 32.925 33.65C33.1917 33.3 33.325 32.9083 33.325 32.475C33.325 31.8583 33.075 31.375 32.575 31.025C32.0917 30.6583 31.4417 30.475 30.625 30.475C29.8417 30.475 29.1417 30.6417 28.525 30.975C27.925 31.2917 27.4167 31.7417 27 32.325L23.975 30.55C24.675 29.4833 25.6167 28.6583 26.8 28.075C28 27.4917 29.4167 27.2 31.05 27.2C32.9667 27.2 34.5 27.6083 35.65 28.425C36.8167 29.2417 37.4 30.375 37.4 31.825C37.4 32.5083 37.2833 33.1083 37.05 33.625C36.8333 34.1417 36.5583 34.5833 36.225 34.95C35.9083 35.3 35.4917 35.7083 34.975 36.175C34.3583 36.725 33.9083 37.1917 33.625 37.575C33.3417 37.9417 33.2 38.3917 33.2 38.925H29.425ZM31.325 45.2C30.6417 45.2 30.0667 44.9833 29.6 44.55C29.15 44.1 28.925 43.5583 28.925 42.925C28.925 42.2917 29.15 41.7667 29.6 41.35C30.05 40.9167 30.625 40.7 31.325 40.7C32.025 40.7 32.6 40.9167 33.05 41.35C33.5 41.7667 33.725 42.2917 33.725 42.925C33.725 43.5583 33.4917 44.1 33.025 44.55C32.575 44.9833 32.0083 45.2 31.325 45.2Z" fill="#393940"/>
</svg>
