<svg width="120" height="56" viewBox="0 0 120 56" fill="none" xmlns="http://www.w3.org/2000/svg">
<path d="M119.965 0H84.1989V4.29465H119.965V0Z" fill="#B62D39"/>
<path d="M108.555 11.4175V37.1854H112.847V15.7121H119.965V11.4175H108.555Z" fill="#B62D39"/>
<path d="M84.1989 11.4175V15.7121H91.3522V37.1854H95.6441V11.4175H84.1989Z" fill="#B62D39"/>
<path d="M102.797 5.69128V37.1854H107.124V9.95102H119.965V5.69128H102.797Z" fill="#B62D39"/>
<path d="M84.1989 5.69128V9.95102H97.0747V37.1854H101.367V5.69128H84.1989Z" fill="#B62D39"/>
<path d="M42.8148 0V37.1505H47.1068V4.29465H74.2891V37.1854H78.581V0H42.8148Z" fill="#B62D39"/>
<path d="M72.8584 5.69128H48.5374V37.1505H52.8293V9.95102H68.5664V37.1505H72.8584V5.69128Z" fill="#B62D39"/>
<path d="M54.2599 18.5403V37.1854H58.5519V22.835H62.8438V37.1854H67.1358V18.5403H54.2599Z" fill="#B62D39"/>
<path d="M21.4597 0V21.4384H0V25.733H25.7517V0H21.4597Z" fill="#B62D39"/>
<path d="M27.1823 0V27.1296H0V31.4243L31.4743 31.4592V0H27.1823Z" fill="#B62D39"/>
<path d="M32.9049 0V32.8558H0V37.1505L37.1969 37.1854V0H32.9049Z" fill="#B62D39"/>
<path d="M104.612 45.2511H99.622V55.4463H101.646V51.3614H103.67V55.4463H105.728V51.6755C105.728 51.3792 105.611 51.0948 105.401 50.8853C105.192 50.6758 104.908 50.5584 104.612 50.5584C104.905 50.5496 105.184 50.4289 105.392 50.2212C105.599 50.0136 105.72 49.7344 105.728 49.4408V46.3682C105.72 46.0747 105.599 45.7955 105.392 45.5878C105.184 45.3801 104.905 45.2599 104.612 45.2511ZM103.67 48.498V49.336H101.646V47.346H103.67V48.498Z" fill="#B62D39"/>
<path d="M90.3403 45.2511H86.4669C86.1708 45.2511 85.8868 45.3689 85.6774 45.5784C85.468 45.788 85.3503 46.0719 85.3503 46.3682V54.3291C85.3503 54.6255 85.468 54.9098 85.6774 55.1194C85.8868 55.3289 86.1708 55.4463 86.4669 55.4463H90.3403C90.6364 55.4463 90.9204 55.3289 91.1298 55.1194C91.3392 54.9098 91.4567 54.6255 91.4567 54.3291V46.3682C91.4567 46.0719 91.3392 45.788 91.1298 45.5784C90.9204 45.3689 90.6364 45.2511 90.3403 45.2511ZM89.433 53.4213H87.3742V47.346H89.433V53.4213Z" fill="#B62D39"/>
<path d="M63.0183 47.9397V46.3682C63.0183 46.0719 62.9006 45.788 62.6912 45.5784C62.4818 45.3689 62.1978 45.2511 61.9017 45.2511H58.168C57.8719 45.2511 57.5879 45.3689 57.3785 45.5784C57.1691 45.788 57.0514 46.0719 57.0514 46.3682V50.2438C57.0514 50.5402 57.1691 50.8245 57.3785 51.034C57.5879 51.2436 57.8719 51.3614 58.168 51.3614H60.9944V53.3863H59.0055V52.7581H56.9468V54.2942C56.9468 54.5905 57.0644 54.8749 57.2738 55.0844C57.4832 55.2939 57.7673 55.4117 58.0635 55.4117H61.9017C62.0483 55.4117 62.1935 55.3826 62.3289 55.3265C62.4644 55.2703 62.5875 55.1882 62.6912 55.0844C62.7949 54.9807 62.8772 54.8572 62.9334 54.7217C62.9895 54.5861 63.0183 54.4409 63.0183 54.2942V50.4535C63.0183 50.3068 62.9895 50.1616 62.9334 50.026C62.8772 49.8905 62.7949 49.7671 62.6912 49.6633C62.5875 49.5596 62.4644 49.4774 62.3289 49.4212C62.1935 49.3651 62.0483 49.336 61.9017 49.336H59.0753V47.346H60.9944V47.9746L63.0183 47.9397Z" fill="#B62D39"/>
<path d="M76.0686 45.2511H71.1137V55.4463H73.1374V51.3614H76.0686C76.3647 51.3614 76.6487 51.2436 76.8581 51.034C77.0675 50.8245 77.1852 50.5402 77.1852 50.2438V46.3682C77.1852 46.2215 77.1563 46.0763 77.1002 45.9407C77.0441 45.8052 76.9618 45.6822 76.8581 45.5784C76.7544 45.4747 76.6313 45.3921 76.4958 45.3359C76.3603 45.2798 76.2152 45.2511 76.0686 45.2511ZM73.1374 49.336V47.346H75.1613V49.3709L73.1374 49.336Z" fill="#B62D39"/>
<path d="M47.7697 45.2511H42.7101V55.4463H44.7689V47.346H46.7926V55.4812H48.8165V46.4032C48.8261 46.1126 48.7221 45.8298 48.5267 45.6147C48.3312 45.3995 48.0598 45.2691 47.7697 45.2511Z" fill="#B62D39"/>
<path d="M33.4632 45.2511H29.59C29.2939 45.2511 29.0099 45.3689 28.8005 45.5784C28.5911 45.788 28.4734 46.0719 28.4734 46.3682V55.4463H30.4973V51.3614H32.5561V55.4463H34.5798V46.3682C34.5798 46.0719 34.4623 45.788 34.2529 45.5784C34.0435 45.3689 33.7593 45.2511 33.4632 45.2511ZM32.5561 49.336H30.4973V47.346H32.5561V49.336Z" fill="#B62D39"/>
<path d="M19.2266 45.2511H14.2368V55.4463H16.2605V51.3614H18.2844V55.4463H20.3083V51.3614C20.2869 51.1429 20.1925 50.9379 20.0406 50.7796C19.8887 50.6213 19.6881 50.5188 19.4709 50.4885C19.7079 50.4335 19.9193 50.3001 20.0713 50.11C20.2232 49.9199 20.3068 49.6842 20.3083 49.4408V46.3682C20.3085 46.0778 20.1955 45.7989 19.9935 45.5904C19.7916 45.3818 19.5167 45.2602 19.2266 45.2511ZM18.3193 48.498V49.336H16.2605V47.346H18.2844L18.3193 48.498Z" fill="#B62D39"/>
<path d="M113.859 45.251V47.2762H115.917V55.4465H117.941V47.2762H120V45.251H113.859Z" fill="#B62D39"/>
<path d="M0 45.251V47.2762H2.02384V55.4465H4.08258V47.2762H6.10643V45.251H0Z" fill="#B62D39"/>
</svg>
