<svg width="91" height="43" viewBox="0 0 91 43" fill="none" xmlns="http://www.w3.org/2000/svg">
<path d="M90.9735 0H63.8508V3.25678H90.9735V0Z" fill="white"/>
<path d="M82.3208 8.65845V28.1991H85.5755V11.9152H90.9736V8.65845H82.3208Z" fill="white"/>
<path d="M63.8508 8.65845V11.9152H69.2754V28.1991H72.5301V8.65845H63.8508Z" fill="white"/>
<path d="M77.9546 4.31592V28.199H81.2358V7.54622H90.9735V4.31592H77.9546Z" fill="white"/>
<path d="M63.8508 4.31592V7.54622H73.615V28.199H76.8697V4.31592H63.8508Z" fill="white"/>
<path d="M32.4679 0V28.1725H35.7226V3.25678H56.3358V28.1989H59.5906V0H32.4679Z" fill="white"/>
<path d="M55.2509 4.31592H36.8074V28.1726H40.0621V7.54624H51.9961V28.1726H55.2509V4.31592Z" fill="white"/>
<path d="M41.1471 14.0598V28.199H44.4019V17.3166H47.6566V28.199H50.9113V14.0598H41.1471Z" fill="white"/>
<path d="M16.2736 0V16.2574H0V19.5142H19.5284V0H16.2736Z" fill="white"/>
<path d="M20.6133 0V20.5734H0V23.8302L23.868 23.8567V0H20.6133Z" fill="white"/>
<path d="M24.9529 0V24.9157H0V28.1725L28.2076 28.1989V0H24.9529Z" fill="white"/>
<path d="M79.3306 34.3154H75.5466V42.0469H77.0814V38.9491H78.6161V42.0469H80.1774V39.1873C80.1774 38.9626 80.0881 38.747 79.9293 38.5881C79.7705 38.4292 79.5552 38.3402 79.3306 38.3402C79.5531 38.3335 79.7646 38.242 79.922 38.0845C80.0794 37.927 80.1707 37.7153 80.1774 37.4927V35.1626C80.1707 34.94 80.0794 34.7283 79.922 34.5708C79.7646 34.4133 79.5531 34.3221 79.3306 34.3154ZM78.6161 36.7777V37.4132H77.0814V35.9041H78.6161V36.7777Z" fill="white"/>
<path d="M68.5081 34.3154H65.5708C65.3462 34.3154 65.1309 34.4048 64.9721 34.5637C64.8133 34.7226 64.724 34.9379 64.724 35.1626V41.1997C64.724 41.4244 64.8133 41.6401 64.9721 41.799C65.1309 41.9579 65.3462 42.0469 65.5708 42.0469H68.5081C68.7327 42.0469 68.948 41.9579 69.1068 41.799C69.2656 41.6401 69.3547 41.4244 69.3547 41.1997V35.1626C69.3547 34.9379 69.2656 34.7226 69.1068 34.5637C68.948 34.4048 68.7327 34.3154 68.5081 34.3154ZM67.8201 40.5113H66.2588V35.9041H67.8201V40.5113Z" fill="white"/>
<path d="M47.789 36.3543V35.1626C47.789 34.9379 47.6998 34.7226 47.541 34.5637C47.3822 34.4048 47.1668 34.3154 46.9423 34.3154H44.1109C43.8863 34.3154 43.671 34.4048 43.5122 34.5637C43.3534 34.7226 43.2641 34.9379 43.2641 35.1626V38.1016C43.2641 38.3263 43.3534 38.5419 43.5122 38.7008C43.671 38.8597 43.8863 38.9491 44.1109 38.9491H46.2542V40.4847H44.7459V40.0082H43.1848V41.1731C43.1848 41.3978 43.2739 41.6135 43.4327 41.7724C43.5915 41.9313 43.807 42.0206 44.0316 42.0206H46.9423C47.0535 42.0206 47.1635 41.9985 47.2662 41.9559C47.369 41.9134 47.4623 41.851 47.541 41.7724C47.6196 41.6937 47.682 41.6001 47.7246 41.4973C47.7671 41.3945 47.789 41.2844 47.789 41.1731V38.2606C47.789 38.1493 47.7671 38.0392 47.7246 37.9364C47.682 37.8336 47.6196 37.74 47.541 37.6614C47.4623 37.5827 47.369 37.5204 47.2662 37.4778C47.1635 37.4352 47.0535 37.4131 46.9423 37.4131H44.7989V35.904H46.2542V36.3808L47.789 36.3543Z" fill="white"/>
<path d="M57.6853 34.3154H53.9279V42.0469H55.4625V38.9491H57.6853C57.9099 38.9491 58.1252 38.8598 58.284 38.7009C58.4428 38.542 58.5321 38.3264 58.5321 38.1016V35.1626C58.5321 35.0513 58.5102 34.9412 58.4677 34.8384C58.4251 34.7356 58.3627 34.6423 58.284 34.5637C58.2054 34.485 58.112 34.4223 58.0093 34.3798C57.9066 34.3372 57.7965 34.3154 57.6853 34.3154ZM55.4625 37.4132V35.9041H56.9973V37.4397L55.4625 37.4132Z" fill="white"/>
<path d="M36.2254 34.3154H32.3885V42.0468H33.9497V35.904H35.4844V42.0733H37.0192V35.1891C37.0265 34.9687 36.9476 34.7543 36.7994 34.5911C36.6511 34.428 36.4453 34.3291 36.2254 34.3154Z" fill="white"/>
<path d="M25.3762 34.3154H22.4391C22.2145 34.3154 21.9992 34.4048 21.8404 34.5637C21.6816 34.7226 21.5923 34.9379 21.5923 35.1626V42.0469H23.1271V38.9491H24.6884V42.0469H26.223V35.1626C26.223 34.9379 26.1339 34.7226 25.9751 34.5637C25.8163 34.4048 25.6008 34.3154 25.3762 34.3154ZM24.6884 37.4132H23.1271V35.9041H24.6884V37.4132Z" fill="white"/>
<path d="M14.5801 34.3154H10.7963V42.0469H12.3309V38.9491H13.8656V42.0469H15.4004V38.9491C15.3842 38.7835 15.3126 38.628 15.1974 38.5079C15.0822 38.3879 14.9301 38.3102 14.7654 38.2872C14.9451 38.2455 15.1054 38.1443 15.2206 38.0001C15.3359 37.856 15.3992 37.6773 15.4004 37.4927V35.1626C15.4005 34.9424 15.3148 34.7309 15.1617 34.5727C15.0086 34.4146 14.8001 34.3223 14.5801 34.3154ZM13.8921 36.7777V37.4132H12.3309V35.9041H13.8656L13.8921 36.7777Z" fill="white"/>
<path d="M86.3428 34.3154V35.8511H87.9041V42.047H89.4388V35.8511H91V34.3154H86.3428Z" fill="white"/>
<path d="M0 34.3154V35.8511H1.53475V42.047H3.09596V35.8511H4.63071V34.3154H0Z" fill="white"/>
</svg>
