<svg width="165" height="97" viewBox="0 0 165 97" fill="none" xmlns="http://www.w3.org/2000/svg">
<g filter="url(#filter0_f_552_551)">
<path d="M20 28.2849L145 20L136.368 77L20 64.407V28.2849Z" fill="white"/>
</g>
<rect x="4" y="26" width="132" height="55" fill="#B62D39"/>
<path d="M122.228 35.624H89.7651V39.5222H122.228V35.624Z" fill="url(#paint0_linear_552_551)"/>
<path d="M111.872 45.9871V69.3752H115.767V49.8851H122.228V45.9871H111.872Z" fill="url(#paint1_linear_552_551)"/>
<path d="M89.7653 45.9871V49.8851H96.2579V69.3752H100.153V45.9871H89.7653Z" fill="url(#paint2_linear_552_551)"/>
<path d="M106.646 40.7898V69.3752H110.573V44.6561H122.228V40.7898H106.646Z" fill="url(#paint3_linear_552_551)"/>
<path d="M89.7651 40.7898V44.6561H101.452V69.3752H105.347V40.7898H89.7651Z" fill="url(#paint4_linear_552_551)"/>
<path d="M52.2029 35.624V69.3436H56.0985V39.5221H80.7704V69.3753H84.666V35.624H52.2029Z" fill="url(#paint5_linear_552_551)"/>
<path d="M79.4719 40.7897H57.397V69.3435H61.2925V44.656H75.5763V69.3435H79.4719V40.7897Z" fill="url(#paint6_linear_552_551)"/>
<path d="M62.5912 52.4521V69.3753H66.4868V56.3502H70.3823V69.3753H74.2779V52.4521H62.5912Z" fill="url(#paint7_linear_552_551)"/>
<path d="M32.8201 35.624V55.0825H13.3423V58.9805H36.7157V35.624H32.8201Z" fill="url(#paint8_linear_552_551)"/>
<path d="M38.0142 35.624V60.2482H13.3423V64.1462L41.9098 64.1779V35.624H38.0142Z" fill="url(#paint9_linear_552_551)"/>
<path d="M43.2083 35.624V65.4455H13.3423V69.3436L47.1039 69.3753V35.624H43.2083Z" fill="url(#paint10_linear_552_551)"/>
<defs>
<filter id="filter0_f_552_551" x="0" y="0" width="165" height="97" filterUnits="userSpaceOnUse" color-interpolation-filters="sRGB">
<feFlood flood-opacity="0" result="BackgroundImageFix"/>
<feBlend mode="normal" in="SourceGraphic" in2="BackgroundImageFix" result="shape"/>
<feGaussianBlur stdDeviation="10" result="effect1_foregroundBlur_552_551"/>
</filter>
<linearGradient id="paint0_linear_552_551" x1="105.997" y1="35.624" x2="105.997" y2="39.5222" gradientUnits="userSpaceOnUse">
<stop offset="0.145833" stop-color="white"/>
<stop offset="1" stop-color="#F0F0F0"/>
</linearGradient>
<linearGradient id="paint1_linear_552_551" x1="117.05" y1="45.9871" x2="117.05" y2="69.3752" gradientUnits="userSpaceOnUse">
<stop offset="0.145833" stop-color="white"/>
<stop offset="1" stop-color="#F0F0F0"/>
</linearGradient>
<linearGradient id="paint2_linear_552_551" x1="94.9594" y1="45.9871" x2="94.9594" y2="69.3752" gradientUnits="userSpaceOnUse">
<stop offset="0.145833" stop-color="white"/>
<stop offset="1" stop-color="#F0F0F0"/>
</linearGradient>
<linearGradient id="paint3_linear_552_551" x1="114.437" y1="40.7898" x2="114.437" y2="69.3752" gradientUnits="userSpaceOnUse">
<stop offset="0.145833" stop-color="white"/>
<stop offset="1" stop-color="#F0F0F0"/>
</linearGradient>
<linearGradient id="paint4_linear_552_551" x1="97.5563" y1="40.7898" x2="97.5563" y2="69.3752" gradientUnits="userSpaceOnUse">
<stop offset="0.145833" stop-color="white"/>
<stop offset="1" stop-color="#F0F0F0"/>
</linearGradient>
<linearGradient id="paint5_linear_552_551" x1="68.4344" y1="35.624" x2="68.4344" y2="69.3753" gradientUnits="userSpaceOnUse">
<stop offset="0.145833" stop-color="white"/>
<stop offset="1" stop-color="#F0F0F0"/>
</linearGradient>
<linearGradient id="paint6_linear_552_551" x1="68.4344" y1="40.7897" x2="68.4344" y2="69.3435" gradientUnits="userSpaceOnUse">
<stop offset="0.145833" stop-color="white"/>
<stop offset="1" stop-color="#F0F0F0"/>
</linearGradient>
<linearGradient id="paint7_linear_552_551" x1="68.4345" y1="52.4521" x2="68.4345" y2="69.3753" gradientUnits="userSpaceOnUse">
<stop offset="0.145833" stop-color="white"/>
<stop offset="1" stop-color="#F0F0F0"/>
</linearGradient>
<linearGradient id="paint8_linear_552_551" x1="25.029" y1="35.624" x2="25.029" y2="58.9805" gradientUnits="userSpaceOnUse">
<stop offset="0.145833" stop-color="white"/>
<stop offset="1" stop-color="#F0F0F0"/>
</linearGradient>
<linearGradient id="paint9_linear_552_551" x1="27.6261" y1="35.624" x2="27.6261" y2="64.1779" gradientUnits="userSpaceOnUse">
<stop offset="0.145833" stop-color="white"/>
<stop offset="1" stop-color="#F0F0F0"/>
</linearGradient>
<linearGradient id="paint10_linear_552_551" x1="30.2231" y1="35.624" x2="30.2231" y2="69.3753" gradientUnits="userSpaceOnUse">
<stop offset="0.145833" stop-color="white"/>
<stop offset="1" stop-color="#F0F0F0"/>
</linearGradient>
</defs>
</svg>
