<svg width="63" height="57" viewBox="0 0 63 57" fill="none" xmlns="http://www.w3.org/2000/svg">
<path d="M6.20755 53.7287C3.89562 53.7287 2.45257 51.2238 3.61234 49.2238L28.9813 5.47542C30.1372 3.48199 33.0158 3.48199 34.1717 5.47542L59.5407 49.2238C60.7004 51.2238 59.2574 53.7287 56.9455 53.7287H6.20755Z" fill="#FFE800" stroke="#393940" stroke-width="6" stroke-miterlimit="10"/>
<path fill-rule="evenodd" clip-rule="evenodd" d="M20.0166 46H44L41.9896 32.4939H34.9136C35.3147 31.9819 35.5579 31.3743 35.616 30.7389C35.6741 30.1035 35.5448 29.4652 35.2426 28.8954C34.9404 28.3256 34.4772 27.8466 33.9046 27.5119C33.332 27.1772 32.6726 27 32 27C31.3274 27 30.668 27.1772 30.0954 27.5119C29.5228 27.8466 29.0596 28.3256 28.7574 28.8954C28.4552 29.4652 28.3259 30.1035 28.384 30.7389C28.4421 31.3743 28.6853 31.9819 29.0864 32.4939H22.0104L20 46H20.0166ZM32.0083 28.8313C31.6733 28.8313 31.3457 28.9255 31.0671 29.102C30.7886 29.2785 30.5714 29.5294 30.4432 29.8229C30.315 30.1164 30.2814 30.4394 30.3468 30.751C30.4122 31.0626 30.5735 31.3488 30.8104 31.5735C31.0474 31.7981 31.3492 31.9511 31.6778 32.0131C32.0064 32.0751 32.3471 32.0433 32.6566 31.9217C32.9662 31.8001 33.2307 31.5942 33.4169 31.33C33.603 31.0659 33.7024 30.7553 33.7024 30.4376C33.7024 30.0116 33.5239 29.603 33.2062 29.3018C32.8885 29.0005 32.4576 28.8313 32.0083 28.8313ZM26.231 36.8157H27.9334V38.7891L29.7232 36.8157H31.9875L29.9771 38.7891L32.0791 42.0453H29.9771L28.8158 39.8942L27.9334 40.7665V42.0453H26.231V36.8157ZM35.1509 40.1508V39.0693H37.7856V41.2993C37.3756 41.5803 36.9258 41.8048 36.4495 41.9663C36.0013 42.0925 35.5351 42.1524 35.0676 42.1439C34.5151 42.1649 33.9658 42.055 33.4693 41.8242C33.053 41.6124 32.7169 41.2826 32.5078 40.8809C32.2756 40.4331 32.1586 39.9393 32.1665 39.4403C32.1529 38.9206 32.282 38.4066 32.5411 37.9485C32.7884 37.5264 33.1701 37.1893 33.6316 36.9854C34.1091 36.8 34.6229 36.7139 35.1384 36.7328C35.6008 36.7153 36.0633 36.7686 36.5078 36.8907C36.7994 36.9891 37.059 37.1578 37.2612 37.3801C37.4742 37.6227 37.6278 37.9071 37.7107 38.2129L36.0666 38.4931C36.0089 38.3091 35.8871 38.1491 35.7211 38.0392C35.5371 37.9293 35.3225 37.8743 35.1051 37.8813C34.9359 37.8742 34.7673 37.9039 34.6122 37.9682C34.457 38.0325 34.3195 38.1298 34.2102 38.2524C33.9532 38.5965 33.8351 39.0167 33.8772 39.4364C33.8355 39.8654 33.9549 40.2945 34.2144 40.6481C34.3314 40.7719 34.4764 40.8692 34.6385 40.9328C34.8006 40.9963 34.9757 41.0245 35.1509 41.0152C35.3362 41.0165 35.5205 40.9885 35.6961 40.9322C35.905 40.867 36.1048 40.7782 36.2914 40.6678V40.1745L35.1509 40.1508Z" fill="#393940"/>
</svg>
