<svg width="91" height="91" viewBox="0 0 91 91" fill="none" xmlns="http://www.w3.org/2000/svg">
<path d="M87.8883 43.0095L47.1213 2.12439C45.9514 0.951121 44.0547 0.951118 42.8848 2.12438L2.11819 43.0091C0.948314 44.1824 0.948315 46.0846 2.11819 47.2579L42.8852 88.143C44.0551 89.3163 45.9518 89.3163 47.1217 88.143L87.8883 47.2583C89.0582 46.085 89.0582 44.1828 87.8883 43.0095Z" fill="#00FFFF"/>
<path d="M82.3634 43.0401L47.1524 7.72705C45.9826 6.55378 44.0858 6.55378 42.9159 7.72705L7.70472 43.0403C6.53484 44.2136 6.53485 46.1158 7.70472 47.2891L42.9157 82.6021C44.0856 83.7754 45.9824 83.7754 47.1522 82.6021L82.3634 47.2889C83.5333 46.1156 83.5333 44.2134 82.3634 43.0401Z" stroke="white" stroke-width="3" stroke-miterlimit="10"/>
<path fill-rule="evenodd" clip-rule="evenodd" d="M26 40.5977H30.013V60H26V40.5977ZM31.7902 40.5977H57.1811V60H31.7902V40.5977ZM58.987 40.5977H63V60H58.987V40.5977ZM31.7902 38.8471V39.6757H29.8869V38.6021L41.0603 27.1882V29.3765L31.7673 38.8354L31.7902 38.8471ZM42.6827 25H46.4148C46.5481 25.0015 46.6756 25.0561 46.7698 25.1521C46.8641 25.2481 46.9178 25.3778 46.9193 25.5135V30.5435C46.9193 30.6797 46.8661 30.8104 46.7715 30.9067C46.6769 31.003 46.5486 31.057 46.4148 31.057H42.6827C42.6162 31.0578 42.5503 31.0451 42.4887 31.0196C42.4271 30.994 42.3712 30.9562 42.3242 30.9084C42.2772 30.8605 42.2401 30.8036 42.215 30.741C42.19 30.6783 42.1774 30.6112 42.1782 30.5435V25.5193C42.1782 25.4519 42.1912 25.3851 42.2166 25.3228C42.2419 25.2605 42.2791 25.2039 42.326 25.1562C42.3728 25.1085 42.4284 25.0708 42.4896 25.0449C42.5508 25.0191 42.6164 25.0058 42.6827 25.0058V25ZM45.6581 31.6464V32.2941C45.6924 33.3678 44.5975 33.3094 43.9382 33.502C43.6341 33.5445 43.3591 33.7083 43.1736 33.9573C42.9881 34.2062 42.9074 34.52 42.9492 34.8295C42.9911 35.139 43.152 35.419 43.3966 35.6078C43.6412 35.7966 43.9494 35.8786 44.2535 35.8361C44.4559 35.8322 44.6537 35.7738 44.8268 35.6669C45.0242 35.5183 45.1861 35.3261 45.3003 35.1048C45.4144 34.8835 45.4779 34.6388 45.486 34.3889C45.6179 33.5953 47.2403 33.7412 47.0683 34.739C47.0248 35.2687 46.8786 35.7844 46.6384 36.2563C45.8186 37.8026 43.6229 38.0068 42.3846 36.9506C41.1463 35.8945 40.7851 34.1088 42.1954 32.7726C42.5336 32.4575 43.1069 32.189 43.3419 31.9731C43.3774 31.9361 43.4053 31.8923 43.424 31.8442C43.4427 31.7961 43.4518 31.7447 43.4509 31.693C43.4509 31.6522 43.4509 31.6406 43.491 31.6406H45.6466C45.6466 31.6406 45.681 31.6406 45.6466 31.6698L45.6581 31.6464ZM57.1869 38.8471V39.6757H59.0902V38.6021L47.8996 27.1941V29.3765L57.1869 38.8354V38.8471ZM44.5 27.6259C44.7486 27.6259 44.9915 27.701 45.1981 27.8416C45.4047 27.9823 45.5656 28.1823 45.6605 28.4161C45.7553 28.65 45.7798 28.9072 45.7309 29.1553C45.682 29.4033 45.5619 29.631 45.3857 29.8095C45.2096 29.988 44.9853 30.1092 44.7414 30.1579C44.4975 30.2065 44.2449 30.1804 44.0156 30.0828C43.7862 29.9852 43.5906 29.8204 43.4533 29.6095C43.316 29.3986 43.2434 29.151 43.2445 28.898C43.246 28.5601 43.379 28.2365 43.6142 27.9981C43.8495 27.7597 44.168 27.6259 44.5 27.6259Z" fill="white"/>
</svg>
