<svg width="34" height="33" viewBox="0 0 34 33" fill="none" xmlns="http://www.w3.org/2000/svg">
<g clip-path="url(#clip0_44_731)">
<path d="M29.1606 0H5.58202C4.33365 0.00326658 3.13734 0.500628 2.25461 1.38336C1.37187 2.2661 0.874513 3.4624 0.871246 4.71077L0.871246 28.2894C0.874513 29.5378 1.37187 30.7341 2.25461 31.6168C3.13734 32.4995 4.33365 32.9969 5.58202 33.0002H29.1606C30.409 32.9969 31.6053 32.4995 32.4881 31.6168C33.3708 30.7341 33.8681 29.5378 33.8714 28.2894V4.71077C33.8681 3.4624 33.3708 2.2661 32.4881 1.38336C31.6053 0.500628 30.409 0.00326658 29.1606 0ZM10.4957 27.499H4.99544V12.3759H10.4966V27.499H10.4957ZM7.74518 10.5865C6.09682 10.5865 4.99462 9.48507 4.99462 8.11144C4.99462 6.60168 6.09682 5.50113 7.74518 5.50113C9.39436 5.50113 10.4957 6.60251 10.4957 7.97614C10.4957 9.4859 9.39436 10.5873 7.74518 10.5873V10.5865ZM29.7464 27.499H24.2453V19.2506C24.2453 17.0479 22.7314 16.5001 22.3214 16.5001C21.9122 16.5001 20.1211 16.7748 20.1211 19.2506V27.499H14.6199V12.3759H20.1211V14.5762C20.9477 13.337 22.3214 12.3759 24.9325 12.3759C27.5436 12.3751 29.7464 14.4367 29.7464 19.2506V27.499Z" fill="white"/>
</g>
<defs>
<clipPath id="clip0_44_731">
<rect width="33.0002" height="33.0002" fill="white" transform="translate(0.871246)"/>
</clipPath>
</defs>
</svg>
