<svg width="54" height="53" viewBox="0 0 54 53" fill="none" xmlns="http://www.w3.org/2000/svg">
<path d="M25.1569 2.33584L3.10684 24.3222C1.93357 25.4921 1.93357 27.3888 3.10683 28.5587L25.1567 50.5448C26.3299 51.7147 28.2322 51.7147 29.4054 50.5448L51.4555 28.5585C52.6288 27.3886 52.6288 25.4918 51.4555 24.322L29.4057 2.33584C28.2324 1.16596 26.3302 1.16596 25.1569 2.33584Z" fill="#393940"/>
<mask id="mask0_44_618" style="mask-type:alpha" maskUnits="userSpaceOnUse" x="0" y="0" width="54" height="53">
<path d="M0.98242 26.2986L27.2053 52.5974L53.4279 26.2988L27.205 -2.20888e-05L0.98242 26.2986Z" fill="url(#paint0_radial_44_618)"/>
</mask>
<g mask="url(#mask0_44_618)">
<path d="M14.4525 54.9939L21.3965 54.9939L21.3965 26.2876L14.4525 26.2876L14.4525 54.9939Z" fill="#FFE800"/>
<path d="M23.7109 54.9939L30.6548 54.9939L30.6548 26.2876L23.7109 26.2876L23.7109 54.9939Z" fill="#FFE800"/>
<path d="M32.9949 54.9939L39.9387 54.9939L39.9387 26.2876L32.9949 26.2876L32.9949 54.9939Z" fill="#FFE800"/>
<path d="M20.3443 24.7921C19.7624 24.7921 19.2349 24.667 18.7617 24.4168C18.294 24.1612 17.9242 23.8104 17.6523 23.3645C17.3858 22.9131 17.2526 22.4046 17.2526 21.839C17.2526 21.2734 17.3858 20.7677 17.6523 20.3217C17.9242 19.8703 18.294 19.5196 18.7617 19.2694C19.2349 19.0138 19.7651 18.886 20.3524 18.886C20.8473 18.886 21.2933 18.973 21.6903 19.147C22.0927 19.3211 22.4299 19.5712 22.7018 19.8975L21.8534 20.6807C21.4673 20.2347 20.9887 20.0117 20.4177 20.0117C20.0642 20.0117 19.7488 20.0906 19.4714 20.2483C19.1941 20.4006 18.9765 20.6154 18.8188 20.8928C18.6665 21.1701 18.5904 21.4855 18.5904 21.839C18.5904 22.1925 18.6665 22.508 18.8188 22.7853C18.9765 23.0627 19.1941 23.2802 19.4714 23.4379C19.7488 23.5902 20.0642 23.6663 20.4177 23.6663C20.9887 23.6663 21.4673 23.4406 21.8534 22.9893L22.7018 23.7724C22.4299 24.1041 22.0927 24.357 21.6903 24.531C21.2878 24.7051 20.8392 24.7921 20.3443 24.7921Z" fill="#FFE800"/>
<path d="M26.2402 24.7921C25.6474 24.7921 25.1117 24.6643 24.6331 24.4087C24.16 24.1531 23.7875 23.8023 23.5155 23.3563C23.2491 22.905 23.1158 22.3992 23.1158 21.839C23.1158 21.2789 23.2491 20.7758 23.5155 20.3299C23.7875 19.8785 24.16 19.525 24.6331 19.2694C25.1117 19.0138 25.6474 18.886 26.2402 18.886C26.833 18.886 27.3659 19.0138 27.8391 19.2694C28.3122 19.525 28.6847 19.8785 28.9567 20.3299C29.2286 20.7758 29.3645 21.2789 29.3645 21.839C29.3645 22.3992 29.2286 22.905 28.9567 23.3563C28.6847 23.8023 28.3122 24.1531 27.8391 24.4087C27.3659 24.6643 26.833 24.7921 26.2402 24.7921ZM26.2402 23.6663C26.5774 23.6663 26.8819 23.5902 27.1538 23.4379C27.4258 23.2802 27.6378 23.0627 27.7901 22.7853C27.9478 22.508 28.0267 22.1925 28.0267 21.839C28.0267 21.4855 27.9478 21.1701 27.7901 20.8928C27.6378 20.6154 27.4258 20.4006 27.1538 20.2483C26.8819 20.0906 26.5774 20.0117 26.2402 20.0117C25.903 20.0117 25.5985 20.0906 25.3265 20.2483C25.0546 20.4006 24.8398 20.6154 24.6821 20.8928C24.5298 21.1701 24.4537 21.4855 24.4537 21.839C24.4537 22.1925 24.5298 22.508 24.6821 22.7853C24.8398 23.0627 25.0546 23.2802 25.3265 23.4379C25.5985 23.5902 25.903 23.6663 26.2402 23.6663Z" fill="#FFE800"/>
<path d="M35.5541 24.6942L35.5459 21.268L33.8655 24.0905L33.27 24.0905L31.5977 21.3414L31.5977 24.6942L30.3577 24.6942L30.3577 18.9839L31.4508 18.9839L33.5881 22.5324L35.6928 18.9839L36.7777 18.9839L36.7941 24.6942L35.5541 24.6942Z" fill="#FFE800"/>
<path d="M21.8552 12.8565H24.1638V13.8762H21.8552V12.8565Z" fill="#FFE800"/>
<path d="M27.4041 12.2773C27.9044 12.3589 28.2878 12.5465 28.5543 12.8402C28.8208 13.1284 28.954 13.4873 28.954 13.917C28.954 14.2487 28.867 14.556 28.693 14.8388C28.5189 15.1161 28.2525 15.3391 27.8935 15.5077C27.54 15.6763 27.105 15.7606 26.5883 15.7606C26.1859 15.7606 25.7889 15.7089 25.3973 15.6056C25.0112 15.4968 24.6822 15.3446 24.4102 15.1488L24.9242 14.1372C25.1417 14.3004 25.3919 14.4282 25.6747 14.5206C25.9629 14.6077 26.2566 14.6512 26.5557 14.6512C26.8874 14.6512 27.1485 14.5886 27.3388 14.4635C27.5292 14.333 27.6243 14.1508 27.6243 13.917C27.6243 13.4493 27.2681 13.2154 26.5557 13.2154H25.952V12.3426L27.1267 11.0129H24.6958V9.95239H28.693V10.8089L27.4041 12.2773Z" fill="#FFE800"/>
<path d="M29.6702 12.8565H31.9788V13.8762H29.6702V12.8565Z" fill="#FFE800"/>
</g>
<path d="M6.31995 28.4051L25.0689 47.2084C26.2388 48.3816 28.1355 48.3816 29.3054 47.2084L48.0545 28.405C49.2244 27.2317 49.2244 25.3295 48.0545 24.1562L29.3055 5.35291C28.1356 4.17964 26.2389 4.17964 25.069 5.35291L6.31995 24.1563C5.15007 25.3296 5.15007 27.2318 6.31995 28.4051Z" stroke="#B62D39" stroke-miterlimit="10"/>
<defs>
<radialGradient id="paint0_radial_44_618" cx="0" cy="0" r="1" gradientUnits="userSpaceOnUse" gradientTransform="translate(27.2051 26.2987) rotate(-45.0829) scale(18.5691)">
<stop offset="0.145833" stop-color="white"/>
<stop offset="1" stop-color="#F0F0F0"/>
</radialGradient>
</defs>
</svg>
