<svg width="54" height="54" viewBox="0 0 54 54" fill="none" xmlns="http://www.w3.org/2000/svg">
<path d="M51.3097 24.799L29.3233 2.7489C28.1534 1.57563 26.2567 1.57563 25.0868 2.7489L3.10069 24.7987C1.93081 25.972 1.93081 27.8742 3.10069 29.0475L25.087 51.0976C26.2569 52.2708 28.1536 52.2708 29.3235 51.0976L51.3097 29.0477C52.4795 27.8745 52.4795 25.9722 51.3097 24.799Z" fill="#FFE800"/>
<path d="M48.0904 24.8168L29.3414 6.01355C28.1715 4.84028 26.2748 4.84028 25.1049 6.01355L6.35583 24.8169C5.18595 25.9902 5.18595 27.8925 6.35583 29.0657L25.1048 47.869C26.2747 49.0423 28.1714 49.0423 29.3413 47.869L48.0904 29.0656C49.2602 27.8923 49.2602 25.9901 48.0904 24.8168Z" stroke="#393940" stroke-miterlimit="10"/>
<path fill-rule="evenodd" clip-rule="evenodd" d="M27.487 9.36475L30.5673 18.9588L40.6051 18.928L32.4829 24.8415L35.5939 34.4202L27.487 28.4759L19.3955 34.4202L22.5064 24.8415L14.3843 18.928L24.4067 18.9588L27.487 9.36475Z" fill="#393940"/>
<path d="M29.3821 25.2514V26.3282H25.0667V25.4717L27.2693 23.3915C27.5031 23.1685 27.6608 22.9782 27.7424 22.8205C27.824 22.6573 27.8648 22.4969 27.8648 22.3392C27.8648 22.1107 27.7859 21.9367 27.6282 21.8171C27.4759 21.692 27.2502 21.6295 26.9511 21.6295C26.7009 21.6295 26.4753 21.6784 26.274 21.7763C26.0728 21.8687 25.9042 22.0101 25.7683 22.2005L24.8057 21.5805C25.0286 21.2488 25.3359 20.9904 25.7275 20.8055C26.119 20.6152 26.5677 20.52 27.0735 20.52C27.4977 20.52 27.8675 20.5907 28.1829 20.7321C28.5038 20.8681 28.7512 21.0639 28.9252 21.3195C29.1047 21.5696 29.1944 21.866 29.1944 22.2086C29.1944 22.5186 29.1292 22.8096 28.9987 23.0815C28.8681 23.3534 28.6153 23.6634 28.24 24.0115L26.9266 25.2514H29.3821Z" fill="white"/>
<path d="M25.2315 39.1866V40.2471H20.8101V34.5368H25.1254V35.5973H22.1234V36.8372H24.7746V37.8651H22.1234V39.1866H25.2315Z" fill="#393940"/>
<path d="M28.0287 33.3784H29.1626L26.4706 41.0629H25.3367L28.0287 33.3784Z" fill="#393940"/>
<path d="M33.8989 39.1866V40.2471H29.4775V34.5368H33.7929V35.5973H30.7909V36.8372H33.4421V37.8651H30.7909V39.1866H33.8989Z" fill="#393940"/>
</svg>
