<svg width="54" height="53" viewBox="0 0 54 53" fill="none" xmlns="http://www.w3.org/2000/svg">
<path d="M51.3097 24.1744L29.3233 2.12439C28.1534 0.951121 26.2567 0.951118 25.0868 2.12438L3.10069 24.1742C1.93081 25.3475 1.93081 27.2497 3.10069 28.423L25.087 50.473C26.2569 51.6463 28.1536 51.6463 29.3235 50.473L51.3097 28.4232C52.4795 27.2499 52.4795 25.3477 51.3097 24.1744Z" fill="#FFE800"/>
<mask id="mask0_44_600" style="mask-type:alpha" maskUnits="userSpaceOnUse" x="2" y="1" width="51" height="51">
<path d="M51.3097 24.1744L29.3233 2.12439C28.1534 0.951121 26.2567 0.951118 25.0868 2.12438L3.10069 24.1742C1.93081 25.3475 1.93081 27.2497 3.10069 28.423L25.087 50.473C26.2569 51.6463 28.1536 51.6463 29.3235 50.473L51.3097 28.4232C52.4795 27.2499 52.4795 25.3477 51.3097 24.1744Z" fill="#FFE800"/>
</mask>
<g mask="url(#mask0_44_600)">
<rect x="0.982422" y="26.1553" width="54.7724" height="28.5515" fill="white"/>
</g>
<path d="M48.0904 24.1923L29.3414 5.38904C28.1715 4.21577 26.2748 4.21577 25.1049 5.38903L6.35583 24.1924C5.18595 25.3657 5.18595 27.2679 6.35583 28.4412L25.1048 47.2445C26.2747 48.4178 28.1714 48.4178 29.3413 47.2445L48.0904 28.4411C49.2602 27.2678 49.2602 25.3656 48.0904 24.1923Z" stroke="#393940" stroke-miterlimit="10"/>
<path d="M32.7396 24.0107H21.6132V25.4754H32.7396V24.0107Z" fill="#B62D39"/>
<path d="M34.0664 15.0112C33.9858 15.6708 33.8496 16.3225 33.6593 16.9591C33.4482 17.4423 32.4382 17.8651 32.4382 17.8651C32.9187 17.2146 33.2202 16.4493 33.3126 15.6454C33.4468 14.8088 33.326 13.951 32.9659 13.1842C32.8057 13.6515 32.5714 14.0899 32.2722 14.4827C31.992 14.7142 31.6693 14.8885 31.3224 14.9961C31.4975 14.7353 31.6162 14.4407 31.6708 14.1312C31.7253 13.8217 31.7146 13.5043 31.6391 13.1993C31.4262 12.0677 31.0873 10.9635 30.6289 9.90742C30.6231 10.686 30.527 11.4614 30.3426 12.2177C30.1459 12.6516 29.8455 13.0301 29.468 13.32C29.533 12.1871 29.2991 11.0571 28.7896 10.0435C28.1793 8.85719 27.6747 7.6191 27.282 6.34387C26.8224 7.28992 26.5461 8.31469 26.4678 9.36385C26.4126 10.5257 26.2409 11.6792 25.9553 12.8067C25.738 12.1229 25.4812 11.4524 25.1863 10.7984C24.8655 10.2003 24.3248 9.75069 23.6787 9.54504C23.9282 10.3261 23.9697 11.1589 23.7992 11.961C23.6574 12.7533 23.7961 13.5704 24.1912 14.2713C23.9578 14.2282 23.7379 14.1307 23.5493 13.9863C23.3607 13.842 23.2087 13.6552 23.1058 13.4409C22.8562 12.9708 22.4661 12.5906 21.9901 12.3536C22.1759 13.0683 22.2118 13.8139 22.0956 14.5432C22.1227 15.6148 22.4408 16.6588 23.0154 17.5632C22.4186 17.5289 21.8504 17.2949 21.4021 16.8987C20.946 16.4451 20.5461 15.9381 20.211 15.3887C20.5343 16.4364 20.7814 17.5063 20.9499 18.5898C20.9736 19.277 21.1446 19.9509 21.4516 20.5658C21.7586 21.1807 22.1942 21.7222 22.7289 22.1534C24.5415 22.9572 26.5289 23.2846 28.5031 23.1047C29.3714 23.1461 30.2378 22.9897 31.0369 22.647C31.8361 22.3044 32.5472 21.7846 33.1166 21.1267C33.7812 20.1403 34.1043 18.9627 34.0362 17.7746C34.1418 16.9139 34.0664 15.0112 34.0664 15.0112ZM30.5987 21.5798C30.1308 22.1622 29.5014 22.5929 28.7896 22.8179C27.7613 23.0395 26.6875 22.8727 25.7743 22.3497C25.114 21.752 24.5269 21.0779 24.0254 20.3415C24.3945 20.5661 24.8046 20.715 25.2316 20.7794C25.537 20.8175 25.8459 20.8175 26.1513 20.7794L25.3823 19.4506C25.1954 18.9672 25.0836 18.458 25.0507 17.9407C25.256 18.2712 25.4878 18.5843 25.7442 18.8768C26.1401 19.1351 26.5719 19.3336 27.0256 19.4658C26.9115 19.1727 26.8258 18.8693 26.7694 18.5598C26.6421 18.0513 26.7065 17.5137 26.9504 17.0498C27.2185 16.4037 27.4156 15.7302 27.5384 15.0414C28.0021 15.5469 28.3745 16.1294 28.6389 16.7628C28.4042 16.7102 28.1596 16.721 27.9304 16.7942C27.7012 16.8673 27.4955 17.0001 27.3344 17.179C27.1734 17.358 27.0628 17.5765 27.0138 17.8124C26.9649 18.0482 26.9795 18.2929 27.056 18.5213C27.1325 18.7497 27.2682 18.9537 27.4493 19.1122C27.6304 19.2708 27.8504 19.3782 28.0866 19.4235C28.3228 19.4689 28.567 19.4506 28.7939 19.3705C29.0207 19.2903 29.2222 19.1512 29.3776 18.9673C29.7737 18.7777 30.1314 18.5167 30.4329 18.1972C30.4256 18.7074 30.3547 19.2147 30.2218 19.7072C29.9626 20.1385 29.6427 20.5301 29.272 20.8699C29.4836 20.9697 29.7223 20.9963 29.9506 20.9455C30.3859 20.8096 30.8053 20.6274 31.2018 20.4019C31.0338 20.8106 30.832 21.2046 30.5987 21.5798Z" fill="#B62D39"/>
<path d="M21.4309 30.9988V36.7091H20.1093V32.0593H18.9673V30.9988H21.4309Z" fill="#393940"/>
<path d="M23.1733 36.7743C22.9504 36.7743 22.7627 36.6982 22.6105 36.5459C22.4582 36.3937 22.3821 36.2033 22.3821 35.9749C22.3821 35.741 22.4582 35.5534 22.6105 35.412C22.7627 35.2652 22.9504 35.1918 23.1733 35.1918C23.3963 35.1918 23.5839 35.2652 23.7362 35.412C23.8885 35.5534 23.9646 35.741 23.9646 35.9749C23.9646 36.2033 23.8885 36.3937 23.7362 36.5459C23.5839 36.6982 23.3963 36.7743 23.1733 36.7743Z" fill="#393940"/>
<path d="M26.8727 36.807C26.4213 36.807 25.9835 36.7471 25.5593 36.6275C25.1406 36.5024 24.8034 36.342 24.5478 36.1462L24.9964 35.151C25.2412 35.3304 25.5321 35.4746 25.8693 35.5833C26.2065 35.6921 26.5437 35.7465 26.8808 35.7465C27.2561 35.7465 27.5334 35.6921 27.7129 35.5833C27.8924 35.4691 27.9821 35.3196 27.9821 35.1347C27.9821 34.9987 27.9277 34.8872 27.819 34.8002C27.7156 34.7078 27.5797 34.6343 27.4111 34.58C27.2479 34.5256 27.025 34.4657 26.7422 34.4005C26.3071 34.2972 25.9509 34.1938 25.6735 34.0905C25.3962 33.9872 25.1569 33.8213 24.9557 33.5929C24.7599 33.3645 24.662 33.0599 24.662 32.6792C24.662 32.3475 24.7517 32.0484 24.9312 31.7819C25.1106 31.51 25.3798 31.2952 25.7388 31.1374C26.1032 30.9797 26.5464 30.9009 27.0685 30.9009C27.4328 30.9009 27.7891 30.9444 28.1371 31.0314C28.4852 31.1184 28.7897 31.2435 29.0508 31.4066L28.6429 32.41C28.1154 32.1109 27.5878 31.9614 27.0603 31.9614C26.6905 31.9614 26.4159 32.0212 26.2364 32.1408C26.0624 32.2605 25.9754 32.4182 25.9754 32.614C25.9754 32.8098 26.076 32.9566 26.2772 33.0545C26.4838 33.1469 26.7965 33.2394 27.2153 33.3318C27.6504 33.4352 28.0066 33.5385 28.2839 33.6418C28.5613 33.7452 28.7979 33.9083 28.9937 34.1313C29.1949 34.3543 29.2955 34.6561 29.2955 35.0368C29.2955 35.3631 29.203 35.6622 29.0181 35.9341C28.8387 36.2006 28.5667 36.4127 28.2024 36.5704C27.838 36.7281 27.3948 36.807 26.8727 36.807Z" fill="#393940"/>
<path d="M32.6702 30.9988C33.176 30.9988 33.6138 31.0831 33.9836 31.2517C34.3589 31.4202 34.6471 31.6595 34.8483 31.9695C35.0495 32.2795 35.1501 32.6466 35.1501 33.0708C35.1501 33.4896 35.0495 33.8566 34.8483 34.1721C34.6471 34.4821 34.3589 34.7213 33.9836 34.8899C33.6138 35.0531 33.176 35.1347 32.6702 35.1347H31.52V36.7091H30.1985V30.9988H32.6702ZM32.5968 34.0579C32.9938 34.0579 33.2957 33.9736 33.5023 33.805C33.709 33.631 33.8123 33.3862 33.8123 33.0708C33.8123 32.7499 33.709 32.5052 33.5023 32.3366C33.2957 32.1626 32.9938 32.0756 32.5968 32.0756H31.52V34.0579H32.5968Z" fill="#393940"/>
</svg>
