<svg width="90" height="91" viewBox="0 0 90 91" fill="none" xmlns="http://www.w3.org/2000/svg">
<path d="M2.12491 47.5721L42.8852 88.4506C44.0551 89.6238 45.9519 89.6238 47.1217 88.4506L87.8817 47.5725C89.0516 46.3992 89.0516 44.497 87.8817 43.3237L47.1214 2.44526C45.9515 1.27199 44.0548 1.27199 42.8849 2.44526L2.12491 43.3233C0.955029 44.4966 0.955027 46.3988 2.12491 47.5721Z" fill="#FFE800"/>
<mask id="mask0_44_630" style="mask-type:alpha" maskUnits="userSpaceOnUse" x="1" y="1" width="88" height="89">
<path d="M2.12491 47.5721L42.8852 88.4506C44.0551 89.6238 45.9519 89.6238 47.1217 88.4506L87.8817 47.5725C89.0516 46.3992 89.0516 44.497 87.8817 43.3237L47.1214 2.44526C45.9515 1.27199 44.0548 1.27199 42.8849 2.44526L2.12491 43.3233C0.955031 44.4966 0.955029 46.3988 2.12491 47.5721Z" fill="#FFE800"/>
</mask>
<g mask="url(#mask0_44_630)">
<rect x="90.0001" y="45.6942" width="93.9861" height="48.9928" transform="rotate(-180 90.0001 45.6942)" fill="white"/>
</g>
<path d="M7.64901 47.5415L42.8542 82.8488C44.0241 84.022 45.9208 84.022 47.0907 82.8488L82.2961 47.5413C83.4659 46.368 83.4659 44.4658 82.2961 43.2925L47.0909 7.98523C45.921 6.81196 44.0243 6.81196 42.8544 7.98523L7.64901 43.2927C6.47913 44.466 6.47913 46.3682 7.64901 47.5415Z" stroke="#393940" stroke-width="2" stroke-miterlimit="10"/>
<path d="M38.5794 60.2539H36.9836V62.3116H34.7719V60.2539H29.4947V58.7281L34.114 52.5131H36.4937L32.2103 58.4062H34.8419V56.5725H36.9836V58.4062H38.5794V60.2539Z" fill="#393940"/>
<path d="M44.7555 62.4796C43.7383 62.4796 42.8191 62.2603 41.9979 61.8217C41.186 61.3831 40.5468 60.7812 40.0802 60.016C39.6229 59.2414 39.3943 58.3735 39.3943 57.4123C39.3943 56.4512 39.6229 55.5879 40.0802 54.8227C40.5468 54.0482 41.186 53.4416 41.9979 53.003C42.8191 52.5644 43.7383 52.3451 44.7555 52.3451C45.7727 52.3451 46.6872 52.5644 47.4991 53.003C48.311 53.4416 48.9502 54.0482 49.4168 54.8227C49.8834 55.5879 50.1167 56.4512 50.1167 57.4123C50.1167 58.3735 49.8834 59.2414 49.4168 60.016C48.9502 60.7812 48.311 61.3831 47.4991 61.8217C46.6872 62.2603 45.7727 62.4796 44.7555 62.4796ZM44.7555 60.5479C45.3341 60.5479 45.8567 60.4172 46.3233 60.1559C46.7899 59.8853 47.1538 59.512 47.4151 59.0361C47.6857 58.5602 47.8211 58.0189 47.8211 57.4123C47.8211 56.8058 47.6857 56.2645 47.4151 55.7886C47.1538 55.3127 46.7899 54.944 46.3233 54.6827C45.8567 54.4121 45.3341 54.2768 44.7555 54.2768C44.1769 54.2768 43.6543 54.4121 43.1877 54.6827C42.7211 54.944 42.3525 55.3127 42.0819 55.7886C41.8206 56.2645 41.69 56.8058 41.69 57.4123C41.69 58.0189 41.8206 58.5602 42.0819 59.0361C42.3525 59.512 42.7211 59.8853 43.1877 60.1559C43.6543 60.4172 44.1769 60.5479 44.7555 60.5479Z" fill="#393940"/>
<path d="M58.064 62.3116L56.1743 59.582H56.0623H54.0886V62.3116H51.821V52.5131H56.0623C56.9302 52.5131 57.6814 52.6577 58.316 52.947C58.9599 53.2363 59.4545 53.6469 59.7998 54.1788C60.1451 54.7107 60.3177 55.3407 60.3177 56.0685C60.3177 56.7964 60.1404 57.4263 59.7858 57.9583C59.4405 58.4809 58.9459 58.8821 58.302 59.1621L60.4997 62.3116H58.064ZM58.022 56.0685C58.022 55.518 57.8447 55.098 57.4901 54.8087C57.1355 54.5101 56.6176 54.3608 55.9364 54.3608H54.0886V57.7763H55.9364C56.6176 57.7763 57.1355 57.627 57.4901 57.3284C57.8447 57.0297 58.022 56.6098 58.022 56.0685Z" fill="#393940"/>
<path d="M42.2312 19.318H47.8103L46.8805 33.026H43.161L42.2312 19.318ZM45.0208 40.5549C44.2009 40.5549 43.511 40.2949 42.9511 39.775C42.4111 39.2351 42.1412 38.5851 42.1412 37.8253C42.1412 37.0654 42.4111 36.4355 42.9511 35.9355C43.491 35.4156 44.1809 35.1557 45.0208 35.1557C45.8606 35.1557 46.5505 35.4156 47.0905 35.9355C47.6304 36.4355 47.9003 37.0654 47.9003 37.8253C47.9003 38.5851 47.6204 39.2351 47.0605 39.775C46.5205 40.2949 45.8406 40.5549 45.0208 40.5549Z" fill="#393940"/>
</svg>
