<svg width="20" height="20" viewBox="0 0 20 20" fill="none" xmlns="http://www.w3.org/2000/svg">
<path d="M9.24575 7.392H11.7418V16H9.24575V7.392ZM10.4938 6.192C10.0351 6.192 9.66175 6.05867 9.37375 5.792C9.08575 5.52533 8.94175 5.19467 8.94175 4.8C8.94175 4.40533 9.08575 4.07467 9.37375 3.808C9.66175 3.54133 10.0351 3.408 10.4938 3.408C10.9524 3.408 11.3258 3.536 11.6138 3.792C11.9018 4.048 12.0458 4.368 12.0458 4.752C12.0458 5.168 11.9018 5.51467 11.6138 5.792C11.3258 6.05867 10.9524 6.192 10.4938 6.192Z" fill="#131313"/>
<circle cx="10" cy="10" r="9" stroke="black" stroke-width="2"/>
</svg>
