<svg width="53" height="53" viewBox="0 0 53 53" fill="none" xmlns="http://www.w3.org/2000/svg">
<path d="M50.3272 24.1744L28.3409 2.12439C27.171 0.951121 25.2743 0.951118 24.1044 2.12438L2.11828 24.1742C0.948408 25.3475 0.948409 27.2497 2.11829 28.423L24.1046 50.473C25.2745 51.6463 27.1712 51.6463 28.3411 50.473L50.3272 28.4232C51.4971 27.2499 51.4971 25.3477 50.3272 24.1744Z" fill="#FFE800"/>
<path d="M47.1079 24.1923L28.359 5.38904C27.1891 4.21577 25.2924 4.21577 24.1225 5.38903L5.3734 24.1924C4.20352 25.3657 4.20352 27.2679 5.3734 28.4412L24.1224 47.2445C25.2922 48.4178 27.189 48.4178 28.3589 47.2445L47.1079 28.4411C48.2778 27.2678 48.2778 25.3656 47.1079 24.1923Z" stroke="#393940" stroke-miterlimit="10"/>
<g clip-path="url(#clip0_148_131)">
<path d="M23.5322 27.175C24.3152 28.225 25.0271 29.1875 25.7983 30.2125C27.7678 27.9125 29.7017 25.6625 31.6712 23.375C33.2136 25.1625 34.7322 26.9125 36.2746 28.7C35.4085 29.4125 34.6017 30.0875 33.7712 30.775C32.5136 29.4375 31.2797 28.125 29.9746 26.7625C28.7644 27.8125 27.6136 28.8 26.4508 29.8C27.2576 30.5625 27.2576 30.5625 28.0051 29.8875C28.5983 29.35 29.2034 28.8125 29.9034 28.1875C31.1373 29.55 32.3593 30.9 33.5932 32.2625C34.7441 31.2875 35.8119 30.4 36.9034 29.475C37.9237 30.65 38.9203 31.7875 39.9881 33.0125C33.0474 33.0125 26.2136 33.0125 19.2491 33.0125C20.6966 31.0375 22.0966 29.1375 23.5322 27.175Z" fill="#393940"/>
<path d="M26.2017 27.5875C26.083 24.0625 24.8728 21.1375 22.3932 18.7375C20.5305 21.2875 18.7271 23.775 16.8644 26.325C16.105 25.625 15.3695 24.95 14.5983 24.2375C16.3305 21.875 18.0389 19.525 19.783 17.1375C19.5101 17.0125 19.2966 16.9125 19.0237 16.7875C19.5101 15.775 19.9728 14.7875 20.4711 13.7375C20.9457 13.925 21.3847 14.1 21.8593 14.2875C22.1678 13.875 22.4762 13.4625 22.8203 13C23.6033 13.6375 24.3508 14.2375 25.1457 14.8875C24.8728 15.2625 24.6474 15.65 24.3627 15.9875C24.1135 16.2875 24.1017 16.4875 24.3271 16.8375C26.3322 19.9125 26.8661 23.3125 26.3559 26.95C26.344 27.15 26.261 27.3375 26.2017 27.5875Z" fill="#393940"/>
<path d="M12.9017 26.6123C13.6728 27.2873 14.3847 27.9248 15.1322 28.5873C14.6457 29.2873 14.1 29.8748 13.2932 30.0748C12.5695 30.2498 12.0593 29.8248 12.0118 29.0498C11.9525 28.1248 12.3322 27.3748 12.9017 26.6123Z" fill="#393940"/>
<path d="M13.4237 25.8499C13.6017 25.5999 13.7559 25.3749 13.9695 25.0874C14.7644 25.7624 15.5356 26.4124 16.3305 27.0874C16.1169 27.3374 15.939 27.5499 15.6898 27.8499C14.9305 27.1749 14.183 26.5249 13.4237 25.8499Z" fill="#393940"/>
</g>
<defs>
<clipPath id="clip0_148_131">
<rect width="28" height="20" fill="white" transform="translate(12 13)"/>
</clipPath>
</defs>
</svg>
