<svg width="26" height="43" viewBox="0 0 26 43" fill="none" xmlns="http://www.w3.org/2000/svg">
<mask id="path-1-outside-1_208_70" maskUnits="userSpaceOnUse" x="0" y="0" width="26" height="43" fill="black">
<rect fill="white" width="26" height="43"/>
<path fill-rule="evenodd" clip-rule="evenodd" d="M19.4871 21.7611L2 4.11149L4.13111 2L23.711 21.7619L23.3603 22.1093L23.3628 22.1118L4.14331 41.5099L2.01221 39.3984L19.4871 21.7611Z"/>
</mask>
<path fill-rule="evenodd" clip-rule="evenodd" d="M19.4871 21.7611L2 4.11149L4.13111 2L23.711 21.7619L23.3603 22.1093L23.3628 22.1118L4.14331 41.5099L2.01221 39.3984L19.4871 21.7611Z" fill="#393940"/>
<path d="M2 4.11149L1.29617 3.40112L0.585802 4.10495L1.28963 4.81532L2 4.11149ZM19.4871 21.7611L20.1975 22.465L20.8949 21.7611L20.1975 21.0573L19.4871 21.7611ZM4.13111 2L4.84148 1.29617L4.13765 0.585802L3.42728 1.28963L4.13111 2ZM23.711 21.7619L24.4149 22.4722L25.1252 21.7684L24.4214 21.058L23.711 21.7619ZM23.3603 22.1093L22.6565 21.399L21.9396 22.1093L22.6565 22.8197L23.3603 22.1093ZM23.3628 22.1118L24.0732 22.8156L24.777 22.1053L24.0667 21.4015L23.3628 22.1118ZM4.14331 41.5099L3.43948 42.2203L4.14985 42.9241L4.85368 42.2138L4.14331 41.5099ZM2.01221 39.3984L1.30184 38.6946L0.598009 39.405L1.30838 40.1088L2.01221 39.3984ZM1.28963 4.81532L18.7768 22.465L20.1975 21.0573L2.71037 3.40766L1.28963 4.81532ZM3.42728 1.28963L1.29617 3.40112L2.70383 4.82186L4.83494 2.71037L3.42728 1.28963ZM24.4214 21.058L4.84148 1.29617L3.42074 2.70383L23.0007 22.4657L24.4214 21.058ZM24.0642 22.8197L24.4149 22.4722L23.0072 21.0515L22.6565 21.399L24.0642 22.8197ZM22.6565 22.8197L22.659 22.8222L24.0667 21.4015L24.0642 21.399L22.6565 22.8197ZM22.6525 21.408L3.43295 40.8061L4.85368 42.2138L24.0732 22.8156L22.6525 21.408ZM4.84714 40.7996L2.71604 38.6881L1.30838 40.1088L3.43948 42.2203L4.84714 40.7996ZM2.72258 40.1023L20.1975 22.465L18.7768 21.0573L1.30184 38.6946L2.72258 40.1023Z" fill="#393940" mask="url(#path-1-outside-1_208_70)"/>
</svg>
