<svg width="54" height="53" viewBox="0 0 54 53" fill="none" xmlns="http://www.w3.org/2000/svg">
<path d="M51.3097 24.1744L29.3233 2.12439C28.1535 0.951121 26.2567 0.951118 25.0868 2.12438L3.10071 24.1742C1.93083 25.3475 1.93083 27.2497 3.10071 28.423L25.087 50.473C26.2569 51.6463 28.1537 51.6463 29.3235 50.473L51.3097 28.4232C52.4795 27.2499 52.4795 25.3477 51.3097 24.1744Z" fill="#FFE800"/>
<path d="M48.0904 24.1923L29.3414 5.38904C28.1715 4.21577 26.2748 4.21577 25.1049 5.38903L6.35582 24.1924C5.18595 25.3657 5.18595 27.2679 6.35582 28.4412L25.1048 47.2445C26.2747 48.4178 28.1714 48.4178 29.3413 47.2445L48.0904 28.4411C49.2602 27.2678 49.2602 25.3656 48.0904 24.1923Z" stroke="#393940" stroke-miterlimit="10"/>
<g clip-path="url(#clip0_152_739)">
<path d="M26.916 16.6648C31.7676 16.6648 34.8672 19.4686 35.6309 23.981H36.2148C35.7207 19.4686 31.7227 16.0076 26.9609 16.0076C22.1992 16.0076 18.1562 19.4248 17.6621 23.981H18.2012C19.0098 19.4686 22.1094 16.6648 26.916 16.6648ZM29.1621 27.2667C28.7129 27.2667 28.3086 27.661 28.3086 28.1429C28.3086 28.6248 28.668 29.019 29.1621 29.0629H30.2852C30.7344 29.0629 31.1387 28.6686 31.1387 28.1867C31.1387 27.7048 30.7793 27.3105 30.2852 27.2667H29.1621ZM23.5469 27.2667C23.0977 27.2667 22.6934 27.661 22.6934 28.1429C22.6934 28.6248 23.0527 29.019 23.5469 29.0629H24.6699C25.1191 29.0629 25.5234 28.6686 25.5234 28.1867C25.5234 27.7048 25.1641 27.3105 24.6699 27.2667H23.5469ZM39 25.8648C39 25.6019 38.7754 25.3829 38.5059 25.3829C38.2363 25.3829 38.0117 25.6019 38.0117 25.8648V30.421C38.0117 30.9029 38.0566 30.7714 37.7871 31.0343C37.293 31.4286 36.3945 32.1733 35.0918 32.7867C33.2949 33.6629 31.4082 34.0133 29.4316 34.2762C29.207 33.9257 28.8477 33.6629 28.3535 33.6629H25.1191C23.502 33.6629 23.502 35.941 25.1191 35.941H28.3535C28.8477 35.941 29.2969 35.6343 29.4766 35.1962C31.5879 34.8895 33.5645 34.539 35.541 33.5752C36.9336 32.8743 37.9668 32.1295 38.4609 31.6914C39.0898 31.1219 39.0449 31.1657 39.0449 30.3771V25.8648H39ZM35.2715 30.0267C35.1816 30.2895 35.1367 30.5524 35.0469 30.7714C34.8672 31.2971 34.6875 31.779 34.4629 32.261C33.5645 32.6552 32.6211 32.9619 31.6777 33.181C32.3066 32.3048 32.8008 31.2971 33.1602 30.2019C33.5645 28.9752 33.7891 27.7048 33.834 26.4781C33.834 26.3029 33.834 26.1714 33.834 25.9962C26.5117 27.2229 27.9941 23.3238 22.6484 24.6819C22.3789 23.3238 22.918 21.8781 23.1875 21.0457C23.8164 19.0743 21.3457 22.4476 21.6602 24.9886C21.166 25.1638 20.627 25.339 20.043 25.5581C20.043 25.8648 20.043 26.1714 20.043 26.4781C20.0879 27.7486 20.3125 29.019 20.7168 30.2019C21.2559 31.8667 22.1543 33.3562 23.2324 34.4514C23.0078 35.459 23.6367 36.6857 25.0742 36.6857H28.3086C28.9375 36.6857 29.5215 36.379 29.8809 35.8971C30.7344 35.7657 31.5879 35.6343 32.4414 35.4152C30.959 37.0362 29.0723 38.0438 26.916 38.0438C23.0527 38.0438 20.0879 34.8019 18.7852 30.8152C18.6953 30.5524 18.6055 30.2895 18.5605 30.0705H16.9883C16.4492 30.0267 16 29.5886 16 29.019V24.9448C16 24.5505 16.2695 24.1562 16.6289 24.0248C17.123 18.9429 21.5703 15 26.916 15C32.2617 15 36.7539 18.9867 37.2031 24.1124C37.4727 24.2876 37.6523 24.5943 37.6523 24.9448V29.019C37.6523 29.5448 37.2031 29.9829 36.6641 29.9829H35.2715V30.0267Z" fill="#393940"/>
</g>
<defs>
<clipPath id="clip0_152_739">
<rect width="23" height="23" fill="white" transform="translate(16 15)"/>
</clipPath>
</defs>
</svg>
