<svg width="91" height="91" viewBox="0 0 91 91" fill="none" xmlns="http://www.w3.org/2000/svg">
<path d="M90.0065 45.1339L45.0031 0L-5.63665e-05 45.1335L45.0034 90.2674L90.0065 45.1339Z" fill="url(#paint0_radial_552_2373)"/>
<path d="M84.4817 45.1645L45.0342 5.60266L5.58647 45.1647L45.034 84.7265L84.4817 45.1645Z" stroke="#393940" stroke-width="3" stroke-miterlimit="10"/>
<path d="M43.9656 26.3003C52.799 26.3003 58.4636 31.6152 59.8839 40.1958H60.9101C60.3874 36.0088 58.3774 32.1591 55.2572 29.3686C52.1369 26.5781 48.1206 25.0385 43.9615 25.0385C39.8024 25.0385 35.7861 26.5781 32.6659 29.3686C29.5456 32.1591 27.5356 36.0088 27.0129 40.1958H28.0391C29.4594 31.6152 35.1239 26.3003 43.9656 26.3003ZM48.0704 46.5021C47.6262 46.5021 47.2002 46.6812 46.8861 46.9999C46.5721 47.3186 46.3956 47.7508 46.3956 48.2015C46.3956 48.6522 46.5721 49.0845 46.8861 49.4032C47.2002 49.7219 47.6262 49.901 48.0704 49.901H50.1556C50.5998 49.901 51.0258 49.7219 51.3398 49.4032C51.6539 49.0845 51.8303 48.6522 51.8303 48.2015C51.8303 47.7508 51.6539 47.3186 51.3398 46.9999C51.0258 46.6812 50.5998 46.5021 50.1556 46.5021H48.0704ZM37.7838 46.5021C37.3397 46.5021 36.9137 46.6812 36.5996 46.9999C36.2855 47.3186 36.1091 47.7508 36.1091 48.2015C36.1091 48.6522 36.2855 49.0845 36.5996 49.4032C36.9137 49.7219 37.3397 49.901 37.7838 49.901H39.869C40.3132 49.901 40.7392 49.7219 41.0533 49.4032C41.3673 49.0845 41.5438 48.6522 41.5438 48.2015C41.5438 47.7508 41.3673 47.3186 41.0533 46.9999C40.7392 46.6812 40.3132 46.5021 39.869 46.5021H37.7756H37.7838ZM66 43.778C66 43.5305 65.9031 43.2932 65.7307 43.1182C65.5582 42.9432 65.3244 42.845 65.0805 42.845C64.8367 42.845 64.6028 42.9432 64.4303 43.1182C64.2579 43.2932 64.1611 43.5305 64.1611 43.778V52.4169C64.1611 53.3249 64.276 53.0749 63.7259 53.6164C62.2329 54.9386 60.5772 56.0587 58.8002 56.9487C55.5164 58.6148 52.0931 59.2563 48.4645 59.8062C48.2684 59.4615 47.9858 59.1758 47.6454 58.9783C47.305 58.7807 46.9191 58.6783 46.527 58.6815H40.5422C40.2524 58.6632 39.962 58.7053 39.6889 58.8053C39.4158 58.9052 39.1657 59.0608 38.9541 59.2626C38.7425 59.4644 38.5739 59.708 38.4586 59.9784C38.3434 60.2488 38.2839 60.5403 38.2839 60.835C38.2839 61.1296 38.3434 61.4211 38.4586 61.6915C38.5739 61.962 38.7425 62.2056 38.9541 62.4073C39.1657 62.6091 39.4158 62.7647 39.6889 62.8647C39.962 62.9646 40.2524 63.0067 40.5422 62.9884H46.4613C46.9038 62.9936 47.3376 62.8637 47.7065 62.6156C48.0754 62.3675 48.3623 62.0128 48.5301 61.5973C52.4132 61.0224 56.0336 60.3226 59.5719 58.5399C61.5028 57.5771 63.3044 56.3677 64.9328 54.9411C66.1149 53.8914 65.9671 53.9164 65.9671 52.4419V43.8113L66 43.778ZM59.2436 51.7004C59.1122 52.192 58.9726 52.6751 58.8249 53.1583C58.5142 54.1204 58.1553 55.0658 57.7494 55.9907C56.1117 56.7438 54.4 57.3189 52.6431 57.7068C53.7999 55.9511 54.7065 54.0384 55.3358 52.0254C56.0705 49.7216 56.4768 47.3231 56.5426 44.9026C56.5426 44.611 56.5426 44.3112 56.5426 44.0196C43.1364 46.3605 45.8702 38.8963 36.0762 41.5204C35.5508 38.8963 36.5688 36.1471 37.0696 34.5642C38.2272 30.8404 33.6955 37.1967 34.3112 42.0618C33.4328 42.3617 32.464 42.7367 31.3886 43.1782C31.3886 43.753 31.3886 44.3278 31.3886 44.9026C31.4543 47.3231 31.8607 49.7216 32.5954 52.0254C33.4926 55.0325 35.0696 57.7854 37.2009 60.0645C37.076 60.5767 37.07 61.1113 37.1834 61.6262C37.2968 62.1412 37.5266 62.6223 37.8545 63.0318C38.1824 63.4413 38.5996 63.768 39.0731 63.986C39.5467 64.204 40.0636 64.3074 40.5833 64.288H46.5024C47.0655 64.2882 47.6205 64.1523 48.1216 63.8915C48.6227 63.6308 49.0554 63.2526 49.3839 62.7885C50.9766 62.5386 52.5363 62.2637 54.0633 61.8888C51.387 64.9462 47.9472 66.8872 43.9738 66.8872C36.889 66.8872 31.5118 60.6975 29.1064 53.15C28.9586 52.6668 28.819 52.1836 28.6877 51.6921H25.839C25.3527 51.6921 24.8861 51.4966 24.5415 51.1485C24.1969 50.8003 24.0022 50.3279 24 49.8344V42.0536C23.9996 41.6792 24.1108 41.3133 24.3188 41.0041C24.5268 40.6949 24.822 40.4567 25.1658 40.3207C25.5919 35.5431 27.7685 31.1015 31.2657 27.8736C34.7628 24.6457 39.3259 22.8665 44.0532 22.8874C48.7806 22.9083 53.3283 24.7279 56.7975 27.9867C60.2667 31.2454 62.4051 35.7062 62.79 40.4874C63.0437 40.6594 63.2514 40.8924 63.3947 41.1657C63.5379 41.439 63.6122 41.744 63.611 42.0536V49.8344C63.6088 50.3279 63.4141 50.8003 63.0695 51.1485C62.7249 51.4966 62.2584 51.6921 61.7721 51.6921L59.2436 51.7004Z" fill="#393940"/>
<defs>
<radialGradient id="paint0_radial_552_2373" cx="0" cy="0" r="1" gradientUnits="userSpaceOnUse" gradientTransform="translate(45.0032 45.1337) rotate(134.917) scale(31.8681)">
<stop offset="0.145833" stop-color="white"/>
<stop offset="1" stop-color="#F0F0F0"/>
</radialGradient>
</defs>
</svg>
