<svg width="20" height="26" viewBox="0 0 20 26" fill="none" xmlns="http://www.w3.org/2000/svg">
<g clip-path="url(#clip0_552_147)">
<path d="M18.3824 2.76511C18.4179 2.80638 18.4687 2.83218 18.5244 2.83218C18.5802 2.83218 18.6309 2.80638 18.6664 2.76511L19.9595 1.43932C20.0102 1.38257 20.0204 1.30519 19.99 1.23297C19.9595 1.16591 19.8936 1.11948 19.8175 1.11948H19.3561V0.185746C19.3561 0.0825715 19.2749 -0.00512695 19.1685 -0.00512695H17.8855C17.7841 -0.00512695 17.6979 0.0774127 17.6979 0.185746V1.11948H17.2364C17.1654 1.11948 17.0944 1.16591 17.064 1.23297C17.0336 1.30003 17.0437 1.38257 17.0944 1.43932L18.3824 2.76511Z" fill="#131313"/>
<path d="M12.1807 11.8135C11.6483 11.21 11.1209 10.529 10.6442 9.92029C10.4211 9.6314 10.2081 9.35799 10.0053 9.11037L9.99004 9.08974C10.2842 8.23854 10.4515 7.54212 10.487 7.02108C10.5833 5.69013 10.4363 4.82862 10.0408 4.40045C9.77199 4.1064 9.37138 4.00839 8.99613 4.13735C8.72736 4.23021 8.35718 4.47783 8.14927 5.12783C7.83994 6.09767 7.987 7.82069 8.87442 9.2445C8.47889 10.2969 7.92615 11.5092 7.31763 12.6647C6.15637 13.0774 5.23345 13.6243 4.56915 14.2846C3.70201 15.1461 3.35211 16.0024 3.60059 16.6266C3.75779 17.0135 4.11276 17.2508 4.55901 17.2508C4.86834 17.2508 5.20809 17.1374 5.53264 16.9207C6.35414 16.3739 7.42412 14.558 8.00221 13.5005C9.1939 13.1239 10.3653 12.9691 10.9637 12.9072C11.2324 12.8814 11.5012 12.8608 11.7598 12.8453C12.8044 13.9699 13.6614 14.558 14.4474 14.7076C14.6046 14.7385 14.7669 14.754 14.919 14.754C15.5631 14.754 16.0904 14.4961 16.3389 14.0576C16.5266 13.7274 16.5215 13.3457 16.3288 13.0052C15.8927 12.2366 14.5742 11.8135 12.6168 11.8135C12.4748 11.8032 12.3328 11.8084 12.1807 11.8135ZM4.99004 16.0695C4.83284 16.1727 4.67564 16.2346 4.56408 16.2346C4.54379 16.2346 4.52858 16.2346 4.51844 16.2294C4.49816 16.1262 4.56915 15.6929 5.26388 15.0016C5.58842 14.6766 6.00424 14.3826 6.49106 14.1195C5.87747 15.1254 5.32473 15.8477 4.99004 16.0695ZM9.09755 5.43735C9.16854 5.21037 9.25982 5.1072 9.3156 5.09172H9.32067C9.37645 5.15362 9.60465 5.50442 9.50323 6.94886C9.48294 7.20164 9.42716 7.51632 9.32574 7.89807C8.98598 7.02624 8.89471 6.06156 9.09755 5.43735ZM10.8724 11.8961C10.345 11.9477 9.53872 12.056 8.64116 12.2727C8.99106 11.5659 9.31053 10.8489 9.57929 10.1834C9.67057 10.302 9.76692 10.4258 9.86327 10.5497C10.1878 10.9675 10.5529 11.437 10.9332 11.8909L10.8724 11.8961ZM15.4667 13.5005C15.4819 13.5262 15.4819 13.5366 15.4769 13.5417C15.4363 13.6139 15.2487 13.7326 14.919 13.7326C14.8278 13.7326 14.7314 13.7223 14.63 13.7016C14.2192 13.6243 13.7426 13.3354 13.1696 12.8195C14.7162 12.902 15.3399 13.2838 15.4667 13.5005Z" fill="#131313"/>
<path d="M14.285 0H1.43002C0.638945 0 0 0.65 0 1.45476V24.5452C0 25.35 0.638945 26 1.43002 26H18.5751C19.3661 26 20.0051 25.35 20.0051 24.5452V5.81389L14.285 0ZM14.285 2.05317L17.9817 5.81389H14.285V2.05317ZM18.5751 24.5452H1.43002V1.45476H12.86V5.81389C12.86 6.61865 13.499 7.26865 14.2901 7.26865H18.5751V24.5452Z" fill="#131313"/>
<path d="M7.64168 18.592C7.52505 18.4888 7.38306 18.4115 7.22586 18.365C7.06866 18.3186 6.84554 18.298 6.55649 18.298H5.60314C5.42059 18.298 5.28367 18.3392 5.19746 18.4218C5.10619 18.5043 5.06055 18.6436 5.06055 18.8293V21.6976C5.06055 21.8627 5.10111 21.9968 5.18225 22.0845C5.26339 22.1773 5.36988 22.2238 5.50679 22.2238C5.63357 22.2238 5.74006 22.1773 5.82627 22.0845C5.9074 21.9916 5.94797 21.8627 5.94797 21.6924V20.7123H6.55649C7.02809 20.7123 7.38813 20.6091 7.62647 20.4027C7.86988 20.1964 7.99665 19.8869 7.99665 19.4845C7.99665 19.2988 7.96623 19.1285 7.90537 18.9789C7.84452 18.8293 7.75832 18.6952 7.64168 18.592ZM7.02809 19.7888C6.97738 19.8611 6.90132 19.9127 6.79483 19.9436C6.68326 19.9797 6.54635 19.9952 6.37901 19.9952H5.95304V18.9996H6.37901C6.7644 18.9996 6.9216 19.0769 6.98245 19.144C7.06359 19.2317 7.10416 19.3504 7.10416 19.4948C7.10416 19.6238 7.0788 19.7218 7.02809 19.7888Z" fill="#131313"/>
<path d="M11.1507 18.6539C10.9986 18.5146 10.8211 18.4218 10.6335 18.3702C10.4509 18.3238 10.2227 18.298 9.9692 18.298H9.00571C8.82823 18.298 8.69131 18.3392 8.61017 18.4269C8.52397 18.5146 8.4834 18.6488 8.4834 18.8293V21.5583C8.4834 21.6873 8.49354 21.7904 8.5189 21.873C8.54425 21.9658 8.60003 22.0381 8.68624 22.0896C8.76737 22.1412 8.87894 22.1619 9.02599 22.1619H9.98948C10.1619 22.1619 10.3191 22.1515 10.456 22.1258C10.598 22.1051 10.7298 22.0638 10.8516 22.0071C10.9733 21.9504 11.0899 21.873 11.1913 21.7801C11.3232 21.6563 11.4296 21.517 11.5108 21.3623C11.5919 21.2075 11.6578 21.0321 11.6933 20.8412C11.7339 20.6504 11.7542 20.444 11.7542 20.2119C11.7491 19.5258 11.5463 18.9944 11.1507 18.6539ZM10.5067 21.2642C10.4611 21.3055 10.4002 21.3416 10.3343 21.3623C10.2633 21.3881 10.1974 21.4035 10.1365 21.4087C10.0706 21.4138 9.97427 21.419 9.85257 21.419H9.36068V19.0357H9.78157C9.99963 19.0357 10.1873 19.0615 10.3394 19.1079C10.4814 19.1543 10.6031 19.2575 10.7045 19.4277C10.8059 19.598 10.8566 19.8611 10.8566 20.217C10.8566 20.7123 10.74 21.0631 10.5067 21.2642Z" fill="#131313"/>
<path d="M14.5181 18.298H12.7686C12.652 18.298 12.5556 18.3134 12.4795 18.3496C12.3984 18.3857 12.3376 18.4476 12.297 18.5353C12.2615 18.6127 12.2412 18.7107 12.2412 18.8293V21.6924C12.2412 21.8627 12.2818 21.9968 12.3629 22.0845C12.4441 22.1773 12.5556 22.2238 12.6824 22.2238C12.8092 22.2238 12.9157 22.1773 13.0019 22.0896C13.083 22.0019 13.1236 21.8678 13.1236 21.6924V20.5369H14.2747C14.4015 20.5369 14.5029 20.5059 14.5739 20.444C14.6449 20.3769 14.6854 20.2892 14.6854 20.1861C14.6854 20.0777 14.6499 19.99 14.5789 19.9281C14.5079 19.8662 14.4065 19.8301 14.2798 19.8301H13.1286V19.0202H14.5181C14.655 19.0202 14.7615 18.9892 14.8274 18.9222C14.8984 18.8551 14.939 18.7674 14.939 18.6591C14.939 18.5508 14.9035 18.4631 14.8274 18.396C14.7564 18.3289 14.6499 18.298 14.5181 18.298Z" fill="#131313"/>
</g>
<defs>
<clipPath id="clip0_552_147">
<rect width="20" height="26" fill="white"/>
</clipPath>
</defs>
</svg>
