<svg width="54" height="53" viewBox="0 0 54 53" fill="none" xmlns="http://www.w3.org/2000/svg">
<path d="M51.3097 24.1744L29.3233 2.12439C28.1535 0.951121 26.2567 0.951118 25.0868 2.12438L3.10071 24.1742C1.93083 25.3475 1.93083 27.2497 3.10071 28.423L25.087 50.473C26.2569 51.6463 28.1537 51.6463 29.3235 50.473L51.3097 28.4232C52.4795 27.2499 52.4795 25.3477 51.3097 24.1744Z" fill="#FFE800"/>
<mask id="mask0_152_448" style="mask-type:alpha" maskUnits="userSpaceOnUse" x="2" y="1" width="51" height="51">
<path d="M51.3097 24.1744L29.3233 2.12439C28.1535 0.951121 26.2567 0.951118 25.0868 2.12438L3.10071 24.1742C1.93083 25.3475 1.93083 27.2497 3.10071 28.423L25.087 50.473C26.2569 51.6463 28.1537 51.6463 29.3235 50.473L51.3097 28.4232C52.4795 27.2499 52.4795 25.3477 51.3097 24.1744Z" fill="#FFE800"/>
</mask>
<g mask="url(#mask0_152_448)">
<rect x="0.982422" y="26.1553" width="54.7724" height="28.5515" fill="white"/>
</g>
<path d="M48.0904 24.1923L29.3414 5.38904C28.1715 4.21577 26.2748 4.21577 25.1049 5.38903L6.35582 24.1924C5.18595 25.3657 5.18595 27.2679 6.35582 28.4412L25.1048 47.2445C26.2747 48.4178 28.1714 48.4178 29.3413 47.2445L48.0904 28.4411C49.2602 27.2678 49.2602 25.3656 48.0904 24.1923Z" stroke="#393940" stroke-miterlimit="10"/>
<path fill-rule="evenodd" clip-rule="evenodd" d="M15 20.79H17.6047V33H15V20.79ZM18.7581 20.79H35.2419V33H18.7581V20.79ZM36.3953 20.79H39V33H36.3953V20.79ZM18.7581 19.69V20.2033H17.5302V19.58V19.5067L24.786 12.3933V13.7867L18.7581 19.69ZM25.8279 11H28.2465C28.4326 11 28.5814 11.1467 28.5814 11.33V14.4833C28.5814 14.6667 28.4326 14.8133 28.2465 14.8133H27.7628H26.3116H25.9023H25.7907C25.6047 14.8133 25.4558 14.6667 25.4558 14.4833V11.33C25.493 11.1467 25.6419 11 25.8279 11ZM27.7628 15.18V15.5833C27.8 16.2433 27.093 16.2067 26.6465 16.3533C26.3116 16.4267 26.0884 16.72 26.0884 17.05C26.0884 17.4533 26.4233 17.7833 26.8326 17.7833C26.9442 17.7833 27.093 17.7467 27.2047 17.6733C27.5023 17.49 27.5767 17.1967 27.614 16.8667C27.6884 16.3533 28.7674 16.4633 28.6558 17.0867C28.6186 17.4533 28.507 17.7833 28.3581 18.04C27.8372 18.9933 26.386 19.14 25.6047 18.48C24.8605 17.8567 24.5628 16.6833 25.493 15.84C25.7163 15.6567 26.0884 15.4733 26.2372 15.3267C26.2744 15.29 26.3116 15.2167 26.3116 15.1433C26.3116 15.1067 26.3116 15.1067 26.3488 15.1067L27.7628 15.18C27.7628 15.1433 27.7628 15.18 27.7628 15.18ZM35.2419 19.69V20.2033H36.4698V19.58V19.5067L29.214 12.3933V13.7867L35.2419 19.69ZM26.9814 12.65C27.4279 12.65 27.8 13.0167 27.8 13.4567C27.8 13.8967 27.4279 14.2633 26.9814 14.2633C26.5349 14.2633 26.1628 13.8967 26.1628 13.4567C26.2 13.0167 26.5349 12.65 26.9814 12.65Z" fill="#393940"/>
</svg>
