<svg width="159" height="160" viewBox="0 0 159 160" fill="none" xmlns="http://www.w3.org/2000/svg">
<path d="M156.882 77.6063L81.6178 2.12439C80.4479 0.951121 78.5511 0.951122 77.3813 2.12439L2.1181 77.6056C0.94822 78.7789 0.948218 80.6812 2.11809 81.8544L77.3819 157.336C78.5518 158.51 80.4485 158.51 81.6184 157.336L156.882 81.8551C158.051 80.6818 158.051 78.7796 156.882 77.6063Z" fill="#FFE800"/>
<mask id="mask0_207_28" style="mask-type:alpha" maskUnits="userSpaceOnUse" x="1" y="1" width="157" height="158">
<path d="M156.882 77.6063L81.6178 2.12439C80.4479 0.951121 78.5511 0.951122 77.3813 2.12439L2.1181 77.6056C0.94822 78.7789 0.948218 80.6812 2.11809 81.8544L77.3819 157.336C78.5518 158.51 80.4485 158.51 81.6184 157.336L156.882 81.8551C158.051 80.6818 158.051 78.7796 156.882 77.6063Z" fill="#FFE800"/>
</mask>
<g mask="url(#mask0_207_28)">
<rect y="79.295" width="166.054" height="86.5603" fill="white"/>
</g>
<path d="M147.122 77.6605L81.6729 12.0218C80.5031 10.8486 78.6063 10.8486 77.4364 12.0218L11.9871 77.6608C10.8172 78.8341 10.8172 80.7363 11.9871 81.9096L77.4361 147.548C78.606 148.722 80.5027 148.722 81.6726 147.548L147.122 81.9093C148.292 80.736 148.292 78.8337 147.122 77.6605Z" stroke="#393940" stroke-width="3" stroke-miterlimit="10"/>
</svg>
