<svg width="54" height="53" viewBox="0 0 54 53" fill="none" xmlns="http://www.w3.org/2000/svg">
<path d="M51.3097 24.1744L29.3233 2.12439C28.1535 0.951121 26.2567 0.951118 25.0868 2.12438L3.10071 24.1742C1.93083 25.3475 1.93083 27.2497 3.10071 28.423L25.087 50.473C26.2569 51.6463 28.1537 51.6463 29.3235 50.473L51.3097 28.4232C52.4795 27.2499 52.4795 25.3477 51.3097 24.1744Z" fill="#FFE800"/>
<mask id="mask0_968_148" style="mask-type:alpha" maskUnits="userSpaceOnUse" x="2" y="1" width="51" height="51">
<path d="M51.3097 24.1744L29.3233 2.12439C28.1535 0.951121 26.2567 0.951118 25.0868 2.12438L3.10071 24.1742C1.93083 25.3475 1.93083 27.2497 3.10071 28.423L25.087 50.473C26.2569 51.6463 28.1537 51.6463 29.3235 50.473L51.3097 28.4232C52.4795 27.2499 52.4795 25.3477 51.3097 24.1744Z" fill="#FFE800"/>
</mask>
<g mask="url(#mask0_968_148)">
<rect x="0.982422" y="26.1553" width="54.7724" height="28.5515" fill="white"/>
</g>
<path d="M48.0908 24.1923L29.3419 5.38902C28.172 4.21575 26.2753 4.21575 25.1054 5.38902L6.35631 24.1924C5.18643 25.3657 5.18643 27.2679 6.35631 28.4412L25.1053 47.2445C26.2752 48.4178 28.1719 48.4178 29.3418 47.2445L48.0908 28.4411C49.2607 27.2678 49.2607 25.3656 48.0908 24.1923Z" stroke="#393940" stroke-miterlimit="10"/>
<g clip-path="url(#clip0_968_148)">
<path fill-rule="evenodd" clip-rule="evenodd" d="M33.2299 19.8562H36.4723V21.6355H33.2299V19.8562ZM20.6157 18.1237H19.5497V18.592H20.6157V18.1237ZM19.1944 18.1237H18.1284V18.592H19.1944V18.1237ZM29.4545 19.8562H32.6969V21.6355H29.4545V19.8562ZM25.6347 19.8562H28.8771V21.6355H25.6347V19.8562ZM21.8593 19.8562H25.1017V21.6355H21.8593V19.8562ZM33.2299 22.1505H36.4723V23.9298H33.2299V22.1505ZM29.4545 22.1505H32.6969V23.9298H29.4545V22.1505ZM25.6347 22.1505H28.8771V23.9298H25.6347V22.1505ZM21.8593 22.1505H25.1017V23.9298H21.8593V22.1505ZM13.5091 23.602H19.1944L19.2832 24.5385H37.0053L37.1829 23.602H42.6017C42.8682 23.602 42.957 23.9766 42.6017 24.4448C41.6246 25.8963 40.2477 27.6288 40.5586 28.4716C40.5586 28.5184 40.5586 28.5184 40.5141 28.5184C40.1144 28.4247 39.7147 28.3311 39.3149 28.2375C38.0268 27.9565 36.6944 27.6756 35.4063 27.4415C31.9862 26.8328 28.6106 26.6455 25.1017 26.8796C21.3707 27.1137 17.551 27.9097 13.8644 28.893C13.82 28.5184 13.7756 28.097 13.7312 27.6288L13.5091 23.602ZM38.9152 25.6154H39.5814V25.1003H39.8479V25.6154V25.99H39.5814H38.9152H38.6487V25.6154V25.1003H38.9152V25.6154ZM10.8885 30.5786C13.6867 29.689 19.372 28.0033 25.1461 27.6288C33.2299 27.0669 38.2489 28.9398 42.6017 29.6421C43.1791 29.7358 43.6677 29.8294 44.1119 29.8763C45.1334 30.0635 45.3111 30.2508 44.2895 30.3445C30.3428 31.8896 31.853 28.2843 10.8885 30.9532C9.55603 31.1405 9.82253 30.9064 10.8885 30.5786ZM14.2197 18.7324H16.3517C16.4405 18.7324 16.5294 18.8261 16.5738 18.9197L16.6626 19.4348L16.2185 20.2776H14.4418L14.0865 18.9197C14.0421 18.8261 14.1309 18.7324 14.2197 18.7324ZM17.1068 17.796H21.9482V18.1237H20.9266V18.592H21.9482V19.2943H21.1043V23.9298H19.7273L19.6385 22.9933H14.0421V20.5585H16.3961L17.1068 19.2007V17.796ZM17.5954 17.5619H20.6157V17H17.5954V17.5619Z" fill="#393940"/>
</g>
<defs>
<clipPath id="clip0_968_148">
<rect width="35" height="14" fill="white" transform="translate(10 17)"/>
</clipPath>
</defs>
</svg>
