<svg width="56" height="56" viewBox="0 0 56 56" fill="none" xmlns="http://www.w3.org/2000/svg">
<path d="M53.1642 25.8654L29.9327 2.56665C28.7628 1.39338 26.8661 1.39338 25.6962 2.56665L2.46497 25.8652C1.29509 27.0385 1.29509 28.9407 2.46497 30.114L25.6964 53.4128C26.8663 54.586 28.7631 54.586 29.9329 53.4128L53.1642 30.1142C54.334 28.9409 54.334 27.0387 53.1642 25.8654Z" fill="#FFE800"/>
<path d="M49.7926 25.8841L29.9522 5.9862C28.7824 4.81294 26.8856 4.81294 25.7157 5.9862L5.87525 25.8842C4.70537 27.0574 4.70537 28.9597 5.87525 30.133L25.7156 50.0308C26.8855 51.2041 28.7822 51.2041 29.9521 50.0308L49.7926 30.1328C50.9625 28.9596 50.9625 27.0573 49.7926 25.8841Z" stroke="#393940" stroke-width="2" stroke-miterlimit="10"/>
<path fill-rule="evenodd" clip-rule="evenodd" d="M28.1116 13.1909L31.3382 23.2405L41.8526 23.2083L33.3447 29.4026L36.6034 39.4361L28.1116 33.2095L19.6359 39.4361L22.8945 29.4026L14.3867 23.2083L24.8851 23.2405L28.1116 13.1909Z" fill="#393940"/>
</svg>
