<svg width="54" height="54" viewBox="0 0 54 54" fill="none" xmlns="http://www.w3.org/2000/svg">
<path d="M51.3097 24.799L29.3233 2.7489C28.1535 1.57563 26.2567 1.57563 25.0868 2.7489L3.10071 24.7987C1.93083 25.972 1.93083 27.8742 3.10071 29.0475L25.087 51.0976C26.2569 52.2708 28.1537 52.2708 29.3235 51.0976L51.3097 29.0477C52.4795 27.8745 52.4795 25.9722 51.3097 24.799Z" fill="#FFE800"/>
<path d="M48.0904 24.8168L29.3414 6.01355C28.1715 4.84028 26.2748 4.84028 25.1049 6.01355L6.35582 24.8169C5.18595 25.9902 5.18595 27.8925 6.35582 29.0657L25.1048 47.869C26.2747 49.0423 28.1714 49.0423 29.3413 47.869L48.0904 29.0656C49.2602 27.8923 49.2602 25.9901 48.0904 24.8168Z" stroke="#393940" stroke-miterlimit="10"/>
<g clip-path="url(#clip0_131_339)">
<path d="M27.3026 16.5474C33.7898 16.5474 39.0511 21.8102 39.0511 28.2993C39.0511 34.7883 33.7898 40.0511 27.3026 40.0511C20.8153 40 15.6051 34.7883 15.554 28.3504H13L16.9332 23.5985L20.8664 28.3504H18.2613C18.3124 33.3066 22.2967 37.292 27.2515 37.292C32.2063 37.292 36.2416 33.2555 36.2416 28.2993C36.2416 23.3431 32.2063 19.3066 27.2515 19.3066C23.7269 19.3066 20.7132 21.2993 19.2318 24.2628L17.3929 22.0146C19.4872 18.6934 23.1139 16.5474 27.3026 16.5474ZM28.1709 26.7153C28.6817 27.0219 29.0904 27.5839 29.0904 28.1971C29.0904 29.1168 28.3242 29.8832 27.4047 29.8832C26.4853 29.8832 25.7191 29.1168 25.7191 28.1971C25.7191 27.5328 26.0766 26.9708 26.6385 26.7153L26.7917 21.1971C26.8428 20.4818 27.9155 20.4818 27.9155 21.1971L28.1709 26.7153ZM35.0157 15.6788L36.4971 16.7007C36.7014 16.854 36.7525 17.1095 36.5992 17.3139L35.6287 18.7445C35.4754 18.9489 35.22 19 35.0157 18.8467L33.5344 17.8248C33.3301 17.6715 33.279 17.4161 33.4322 17.2117L34.4028 15.781C34.556 15.6277 34.8114 15.5766 35.0157 15.6788ZM28.8861 15.3723V16.1898C27.8134 16.0365 26.7917 16.0365 25.7191 16.1898V15.3723H24.5953C24.3399 15.3723 24.1866 15.1679 24.1866 14.9635V12.4599C24.1866 12.2044 24.391 12 24.5953 12H30.0098C30.2652 12 30.4185 12.2044 30.4185 12.4599V14.9635C30.4185 15.219 30.2141 15.3723 30.0098 15.3723H28.8861Z" fill="#393940"/>
</g>
<defs>
<clipPath id="clip0_131_339">
<rect width="26" height="28" fill="white" transform="translate(13 12)"/>
</clipPath>
</defs>
</svg>
