<svg width="54" height="54" viewBox="0 0 54 54" fill="none" xmlns="http://www.w3.org/2000/svg">
<path d="M51.3097 24.799L29.3233 2.7489C28.1535 1.57563 26.2567 1.57563 25.0868 2.7489L3.10071 24.7987C1.93083 25.972 1.93083 27.8742 3.10071 29.0475L25.087 51.0976C26.2569 52.2708 28.1537 52.2708 29.3235 51.0976L51.3097 29.0477C52.4795 27.8745 52.4795 25.9722 51.3097 24.799Z" fill="#FFE800"/>
<path d="M48.0904 24.8168L29.3414 6.01355C28.1715 4.84028 26.2748 4.84028 25.1049 6.01355L6.35582 24.8169C5.18595 25.9902 5.18595 27.8925 6.35582 29.0657L25.1048 47.869C26.2747 49.0423 28.1714 49.0423 29.3413 47.869L48.0904 29.0656C49.2602 27.8923 49.2602 25.9901 48.0904 24.8168Z" stroke="#393940" stroke-miterlimit="10"/>
<g clip-path="url(#clip0_968_147)">
<path d="M26.6154 16.9235C29.5367 16.9235 32.1699 18.1103 34.1038 19.9929C36.0376 21.9164 37.1896 24.5356 37.1896 27.4413C37.1896 30.347 35.9964 32.9662 34.1038 34.8897C32.1699 36.8132 29.5367 37.9591 26.6154 37.9591C23.6941 37.9591 21.0608 36.7722 19.127 34.8897C17.1932 33.0071 16 30.347 16 27.4413C16 24.5356 17.1932 21.9164 19.0859 19.9929C21.0197 18.1103 23.653 16.9235 26.6154 16.9235ZM27.1503 30.6335C27.5617 30.7972 27.8497 31.1246 28.0143 31.4929H29.907C30.4007 30.347 30.6887 29.1601 30.8122 28.0142H27.1503V30.6335ZM28.0555 32.6388C27.8909 33.048 27.5617 33.3345 27.1914 33.4982V36.0356C27.2326 36.0356 27.2737 36.0356 27.356 36.0356C28.1789 34.8897 28.9195 33.7438 29.4955 32.6388H28.0555ZM26.0394 33.5392C25.6279 33.3755 25.3399 33.048 25.1753 32.6797H23.7764C24.3524 33.8256 25.0519 34.9306 25.9159 36.0765C25.9571 36.0765 26.0394 36.0765 26.0805 36.0765V33.5392H26.0394ZM25.1342 31.4929C25.2987 31.0836 25.6279 30.7972 25.9982 30.6335V28.0142H23.4884C23.3649 28.5463 22.9535 28.9555 22.5009 29.2011C22.6655 29.9787 22.9123 30.7562 23.2004 31.5338H25.1342V31.4929ZM27.1503 21.8345C27.5206 21.9982 27.8086 22.2847 27.9732 22.653H29.907C29.3309 21.3843 28.4669 20.1157 27.3148 18.8061C27.2737 18.8061 27.1914 18.8061 27.1503 18.8061V21.8345ZM27.9732 23.7989C27.8086 24.1263 27.5206 24.4128 27.1914 24.5765V26.8683H30.9356C30.9356 25.8452 30.771 24.8221 30.4007 23.7989H27.9732ZM26.0394 24.5765C25.7102 24.4128 25.4222 24.1673 25.2576 23.8399H22.7889C22.5832 24.5356 22.4186 25.1904 22.3363 25.8861C22.8301 26.0498 23.2415 26.4182 23.4472 26.9093H26.0394V24.5765ZM25.2165 22.694C25.381 22.3256 25.6691 22.0392 25.9982 21.8755V18.847C25.9571 18.847 25.8748 18.847 25.8336 18.847C24.6816 20.1157 23.8175 21.3843 23.2415 22.694H25.2165ZM21.3488 29.2829C20.6905 29.1192 20.1968 28.6281 20.0322 28.0142H17.9338C18.0161 29.2829 18.3864 30.4288 18.9213 31.4929H22.0072C21.7191 30.7562 21.5134 30.0196 21.3488 29.2829ZM20.1145 26.8683C20.3202 26.3772 20.6905 26.0089 21.1843 25.8452C21.2665 25.1495 21.39 24.4947 21.5957 23.7989H18.7156C18.263 24.7402 18.0161 25.7634 17.9338 26.8683H20.1145ZM29.1252 19.1744C30.0304 20.3203 30.7299 21.5071 31.1825 22.653H33.8157C33.4866 22.1619 33.1163 21.7117 32.7048 21.3025C31.7585 20.3612 30.483 19.5836 29.1252 19.1744ZM31.5939 23.7989C31.8819 24.8221 32.0465 25.8452 32.0465 26.8683H35.2558C35.1735 25.7634 34.9267 24.7402 34.4741 23.7989H31.5939ZM32.0054 28.0142C31.8819 29.1601 31.6351 30.347 31.1825 31.4929H34.2683C34.8444 30.4288 35.1735 29.242 35.2558 28.0142H32.0054ZM30.6887 32.6388C30.195 33.7029 29.619 34.726 28.9195 35.7491C30.4007 35.3399 31.6762 34.5623 32.746 33.5392C33.034 33.2527 33.2809 32.9662 33.5277 32.6388H30.6887ZM24.2701 35.79C23.5707 34.7669 22.9535 33.7029 22.5009 32.6797H19.6619C19.9088 33.0071 20.1556 33.2936 20.4436 33.5801C21.5134 34.6032 22.7889 35.3808 24.2701 35.79ZM22.0072 22.694C22.5009 21.548 23.1592 20.3612 24.0644 19.2153C22.7066 19.6246 21.4723 20.4021 20.4436 21.3843C20.0322 21.7936 19.6619 22.2438 19.3327 22.7349H22.0072V22.694Z" fill="#393940"/>
<path fill-rule="evenodd" clip-rule="evenodd" d="M36.9018 25.5178L34.8857 30.2651C34.68 30.7972 34.2685 31.2883 33.6513 31.3292C32.993 31.3292 32.5816 30.8381 32.3347 30.2651L30.3186 25.5178C29.0843 25.0676 28.2202 23.8808 28.2202 22.5302V18.1922C28.2202 16.4324 29.6603 15 31.4295 15H35.7909C37.5601 15 39.0002 16.4324 39.0002 18.1922V22.5302C39.0002 23.8808 38.1361 25.0676 36.9018 25.5178Z" fill="#FFE800"/>
<path fill-rule="evenodd" clip-rule="evenodd" d="M31.4296 15.9004H35.7909C37.0664 15.9004 38.095 16.9235 38.095 18.1922V22.5303C38.095 23.6352 37.2721 24.5765 36.2435 24.7811L34.0628 29.9377C33.816 30.5516 33.528 30.6335 33.2399 29.9377L31.0593 24.7811C29.9895 24.5765 29.2077 23.6352 29.2077 22.5303V18.1922C29.1666 16.9235 30.1952 15.9004 31.4296 15.9004Z" fill="#393940"/>
<path fill-rule="evenodd" clip-rule="evenodd" d="M33.6101 16.8007L34.433 19.3381H37.1486L34.9679 20.8932L35.7908 23.4715L33.6101 21.8755L31.4294 23.4715L32.2935 20.8932L30.1128 19.3381H32.7872L33.6101 16.8007Z" fill="#FFE800"/>
</g>
<defs>
<clipPath id="clip0_968_147">
<rect width="23" height="23" fill="white" transform="translate(16 15)"/>
</clipPath>
</defs>
</svg>
