<svg width="34" height="33" viewBox="0 0 34 33" fill="none" xmlns="http://www.w3.org/2000/svg">
<path d="M4.23805 2.16898e-06C3.72171 -0.000323219 3.21037 0.101137 2.73328 0.29858C2.25618 0.496023 1.82269 0.785577 1.45758 1.15068C1.09248 1.51579 0.802922 1.94928 0.605479 2.42638C0.408035 2.90347 0.306575 3.41481 0.306901 3.93115V29.069C0.306575 29.5854 0.408035 30.0967 0.605479 30.5738C0.802922 31.0509 1.09248 31.4844 1.45758 31.8495C1.82269 32.2146 2.25618 32.5042 2.73328 32.7016C3.21037 32.899 3.72171 33.0005 4.23805 33.0002H29.3759C29.8923 33.0007 30.4038 32.8994 30.881 32.702C31.3581 32.5047 31.7917 32.2151 32.1569 31.85C32.522 31.4848 32.8116 31.0512 33.0089 30.5741C33.2063 30.0969 33.3076 29.5854 33.3071 29.069V3.93115C33.3076 3.41475 33.2063 2.90331 33.0089 2.42612C32.8116 1.94893 32.522 1.51535 32.1569 1.1502C31.7917 0.785049 31.3581 0.495504 30.881 0.298137C30.4038 0.100771 29.8923 -0.000540551 29.3759 2.16898e-06H4.23805ZM8.95377 3.14244H10.8389L12.0962 6.28406L13.3527 3.14244H15.2403L12.8783 8.64192V11.7852H11.3067V8.63532C10.8348 7.36894 9.27057 3.93115 8.94882 3.14244H8.95377ZM16.807 5.50031C17.1482 5.4823 17.4891 5.53964 17.8057 5.66825C18.1222 5.79686 18.4065 5.99359 18.6385 6.24446C18.9767 6.63139 19.1648 7.25096 19.1648 8.06772V9.21695C19.1648 10.0337 19.0081 10.5997 18.6781 10.9841C18.442 11.2416 18.1539 11.4461 17.833 11.5841C17.512 11.722 17.1654 11.7903 16.8161 11.7844C16.4664 11.7924 16.1192 11.7251 15.7979 11.5871C15.4766 11.449 15.1888 11.2433 14.954 10.9841C14.6166 10.5997 14.4508 10.0337 14.4508 9.21695V8.07679C14.4508 7.26004 14.6323 6.63139 14.978 6.24528C15.4103 5.71151 16.0133 5.50031 16.807 5.50031ZM19.9494 5.50031H21.5227V10.216C21.5542 10.3146 21.619 10.3991 21.706 10.4551C21.793 10.5112 21.8968 10.5351 21.9996 10.5229C22.323 10.5229 22.7305 10.1459 23.0935 9.72928V5.50031H24.6651V11.7844H23.091V10.7003C22.4533 11.3224 21.9113 11.7877 21.1968 11.7646C20.6771 11.7481 20.3166 11.5591 20.1351 11.1821C19.9923 10.8358 19.9281 10.4622 19.947 10.0882L19.9494 5.50113V5.50031ZM16.807 6.77081C16.7017 6.77107 16.5977 6.79356 16.5017 6.83681C16.3585 6.89997 16.2366 7.00319 16.1506 7.13405C16.0647 7.26491 16.0185 7.41782 16.0175 7.57437V9.78043C16.0179 9.99291 16.1018 10.1967 16.2509 10.348C16.3225 10.4206 16.4078 10.4784 16.5017 10.518C16.5977 10.5611 16.7017 10.5835 16.807 10.5835C16.9122 10.5835 17.0163 10.5611 17.1122 10.518C17.2555 10.4551 17.3774 10.3519 17.463 10.2209C17.5485 10.09 17.5941 9.93688 17.594 9.78043V7.57354C17.5951 7.36301 17.5131 7.16056 17.3657 7.01023C17.2183 6.8599 17.0175 6.77385 16.807 6.77081ZM16.807 14.1422C16.807 14.1422 22.0788 14.1422 25.6007 14.3939C26.0941 14.45 27.1649 14.4566 28.1236 15.4391C28.8776 16.1792 29.1202 17.8754 29.1202 17.8754C29.305 18.9289 29.3908 19.9973 29.3759 21.0665V22.9285C29.3916 23.9978 29.3065 25.0663 29.1218 26.1196C29.1218 26.1196 28.8892 27.8167 28.126 28.5567C27.1666 29.5385 26.0965 29.5467 25.6032 29.602C22.0812 29.8536 16.802 29.8602 16.802 29.8602C16.802 29.8602 10.2639 29.7975 8.25334 29.6086C7.69481 29.5063 6.43833 29.5393 5.47885 28.5641C4.7248 27.8167 4.48225 26.1196 4.48225 26.1196C4.30072 25.0654 4.21895 23.9964 4.23805 22.9269V21.064C4.22155 19.9948 4.30735 18.9272 4.49215 17.8737C4.49215 17.8737 4.7248 16.1767 5.48793 15.4367C6.44741 14.4549 7.51744 14.4467 8.01079 14.3914C11.5278 14.1422 16.807 14.1422 16.807 14.1422ZM6.59096 17.2871V18.8414H8.16259V26.7161H9.73587V18.8414H11.3067V17.2871H6.59096ZM16.807 17.2871V26.7161H18.3778V25.7335C18.8736 26.3457 19.5212 26.7153 20.0493 26.7153C20.3387 26.7253 20.6233 26.6396 20.859 26.4713C21.0947 26.303 21.2683 26.0617 21.3528 25.7847C21.4765 25.3524 21.5343 24.9036 21.5227 24.4531V22.2957C21.5325 21.725 21.4636 21.1556 21.3181 20.6037C21.2429 20.3256 21.0774 20.0803 20.8478 19.9064C20.6182 19.7325 20.3373 19.6397 20.0493 19.6425C19.2787 19.6425 18.9668 20.0352 18.3778 20.7249V17.2871H16.807ZM11.3067 19.6425V24.8953C11.2902 25.3029 11.3521 25.7096 11.4882 26.0941C11.5725 26.2924 11.717 26.4592 11.9014 26.5708C12.0857 26.6825 12.3005 26.7333 12.5153 26.7161C13.0895 26.7161 13.8304 26.311 14.4491 25.6428V26.7153H16.0199V19.6434H14.4491V24.5703C14.1043 25.0364 13.5994 25.3705 13.2859 25.3705C13.1908 25.3819 13.0951 25.3557 13.019 25.2977C12.9429 25.2396 12.8924 25.1542 12.8783 25.0595V19.6434H11.3067V19.6425ZM24.6882 19.6425C24.3447 19.6253 24.0013 19.6805 23.6805 19.8048C23.3596 19.929 23.0686 20.1194 22.8262 20.3636C22.4979 20.7101 22.3048 21.2793 22.3048 22.0136V24.4144C22.3048 25.147 22.5168 25.6593 22.8444 26.0008C23.294 26.467 23.9103 26.6996 24.7229 26.6996C25.5355 26.6996 26.1708 26.4521 26.599 25.9522C26.7838 25.7401 26.9092 25.4836 26.962 25.2072C26.9986 24.9198 27.0178 24.6306 27.0197 24.3409H25.4489V24.9704C25.4165 25.1555 25.3199 25.3233 25.176 25.4441C25.0321 25.565 24.8502 25.6313 24.6623 25.6313C24.4743 25.6313 24.2924 25.565 24.1486 25.4441C24.0047 25.3233 23.908 25.1555 23.8756 24.9704V23.5539H27.0205V21.9666C27.0205 21.2315 26.839 20.6936 26.5148 20.3372C26.2769 20.0986 25.9911 19.9132 25.6762 19.7933C25.3613 19.6734 25.0246 19.6217 24.6882 19.6417V19.6425ZM24.6651 20.781C24.8562 20.7663 25.0455 20.8269 25.1924 20.95C25.3394 21.073 25.4323 21.2487 25.4514 21.4394V22.4847H23.8781V21.4394C23.8969 21.2484 23.9899 21.0724 24.1371 20.9491C24.2842 20.8259 24.4738 20.7652 24.6651 20.7802V20.781ZM19.3373 21.0129C19.7654 21.0129 19.9494 21.2769 19.9494 22.0953V24.2576C19.9494 25.0768 19.7654 25.3615 19.3373 25.3615C18.9806 25.3308 18.6437 25.1845 18.3778 24.9448V21.5079C18.6408 21.2508 18.9752 21.0789 19.3373 21.0145V21.012V21.0129Z" fill="white"/>
</svg>
